<?xml version="1.0" encoding="UTF-8"?>
<svg id="Layer_2" data-name="Layer 2" xmlns="http://www.w3.org/2000/svg" xmlns:xlink="http://www.w3.org/1999/xlink" viewBox="0 0 100 100">
  <defs>
    <style>
      .cls-1 {
        fill: url(#linear-gradient-2);
      }

      .cls-2 {
        fill: #d803aa;
      }

      .cls-3 {
        fill: #07302f;
      }

      .cls-4 {
        fill: #ba13b1;
      }

      .cls-5 {
        fill: #020201;
      }

      .cls-6 {
        fill: none;
      }

      .cls-7 {
        fill: #f507fe;
      }

      .cls-8 {
        fill: #0bea2f;
      }

      .cls-9 {
        fill: url(#linear-gradient-3);
      }

      .cls-10 {
        fill: url(#linear-gradient);
      }

      .cls-11 {
        fill: url(#linear-gradient-4);
      }
    </style>
    <linearGradient id="linear-gradient" x1="1457.2" y1="-707.8" x2="1631.6" y2="-872.7" gradientTransform="translate(-553.9 -258.1) scale(.4 -.4)" gradientUnits="userSpaceOnUse">
      <stop offset="0" stop-color="#000"/>
      <stop offset="1" stop-color="#011f0a"/>
    </linearGradient>
    <linearGradient id="linear-gradient-2" x1="1568.3" y1="-727.3" x2="1565.1" y2="-732.8" gradientTransform="translate(-553.9 -258.1) scale(.4 -.4)" gradientUnits="userSpaceOnUse">
      <stop offset="0" stop-color="#ff01cb"/>
      <stop offset="1" stop-color="#e210ff"/>
    </linearGradient>
    <linearGradient id="linear-gradient-3" x1="1514.6" y1="-680.2" x2="1516.4" y2="-693.7" gradientTransform="translate(-553.9 -258.1) scale(.4 -.4)" gradientUnits="userSpaceOnUse">
      <stop offset="0" stop-color="#e0008d"/>
      <stop offset="1" stop-color="#d104c6"/>
    </linearGradient>
    <linearGradient id="linear-gradient-4" x1="1507.1" y1="-727.1" x2="1530" y2="-745.5" gradientTransform="translate(-553.9 -258.1) scale(.4 -.4)" gradientUnits="userSpaceOnUse">
      <stop offset="0" stop-color="#cf0091"/>
      <stop offset="1" stop-color="#f005c4"/>
    </linearGradient>
  </defs>
  <g id="Layer_2-2" data-name="Layer 2">
    <circle class="cls-6" cx="50" cy="50" r="50"/>
  </g>
  <g id="Layer_3" data-name="Layer 3">
    <g>
      <path class="cls-7" d="m52.9.2c1.3,0,2.7.2,4,.3,11.3,1.4,21.6,7.3,29.5,15.3,1.6,1.6,3,3.5,4.3,5.3,6.2,8.6,9.4,18.4,9.3,29.1,0,2,0,3.9-.5,5.9,0,0-.1-.1-.2-.3-.2-.8,0-2.5-.1-3.5-.1-1.3-.3-2.7-.5-4-.2-2.5-.4-5-.8-7.5-.5-3.2-1.6-6.6-2.9-9.6-2.6-6.1-6.5-11.1-11.2-15.7-4.3-4.2-8.5-7.2-14-9.6-6.2-2.8-11.9-3.9-18.7-3.9-.3,0-.7,0-1.1,0,0,0,0,0-.1,0h.2c0,0-.2,0-.2,0h.2c0,0,0,0,0,0,1.4-.1,2.7,0,4.1,0,.2,0,.4,0,.5-.2v-.2c0,0,0-.1,0-.2,0-.3,0-.4,0-.6-.7-.5-3.8-.3-4.8-.4.9-.2,1.9,0,2.8,0h.1Z"/>
      <path class="cls-10" d="m0,49.4c-.2-1.9,0-4.4.2-6.3.2-1.4.4-2.9.7-4.3,2.5-11.6,9.4-21.5,18.8-28.7C27.3,4.4,35.8,1.2,45.2.3c2.3-.2,5.5-.4,7.8,0h-.1c-.9,0-1.9,0-2.8,0,1,0,4.1-.2,4.8.4.1.2.1.3,0,.6,0,0,0,.1,0,.2v.2c0,.2-.3.2-.5.2-1.3,0-2.7,0-4.1,0v.2c0,0-.3,0-.3,0h.2c0,0-.2,0-.2,0,0,0,0,0,.1,0,.3,0,.7,0,1.1,0,6.8,0,12.4,1.1,18.7,3.9,5.5,2.4,9.7,5.4,14,9.6,4.7,4.6,8.6,9.6,11.2,15.7,1.3,3,2.4,6.3,2.9,9.6.4,2.5.6,5,.8,7.5.1,1.3.3,2.7.5,4,0,1,0,2.6.1,3.5,0,.1,0,.2.2.3-.6,5.2-1.8,11.3-4.4,15.9-.2.7-.8,1.5-1.1,2.2-2.1,3.8-4.6,7-7.6,10.1-9.3,9.5-22.7,15.6-36.1,15.8-12.9.2-26.3-5.6-35.5-14.5C4.6,75.8.2,63.2,0,49.4Z"/>
      <path class="cls-8" d="m38,53.1c.1,0,.2,0,.3,0,.2,0,.3.2.3.4,0,.3-.1.4-.4.6,0,0-.1,0-.2,0-.2,0-.3-.2-.4-.4,0-.3.2-.4.4-.6Z"/>
      <path class="cls-8" d="m18.5,39.5c0,0,.2,0,.3,0,.2.1.3.2.3.4,0,.3-.1.4-.3.6,0,0,0,0-.1,0-.3,0-.4-.2-.5-.5,0-.3.1-.4.3-.6Z"/>
      <path class="cls-8" d="m43.9,89.7c.1,0,.3,0,.4,0,.2.1.3.2.3.4,0,.3,0,.4-.2.6-.2,0-.4,0-.5,0-.2,0-.3-.2-.3-.4,0-.3.1-.5.3-.7Z"/>
      <path class="cls-8" d="m36.5,15.4c.2,0,.4,0,.6,0,.2.1.2.2.3.4,0,.3-.1.4-.3.6-.2,0-.4,0-.5,0-.2,0-.2-.2-.3-.4,0-.3.1-.4.3-.6Z"/>
      <path class="cls-8" d="m52.8,90.6c.2,0,.4.1.5.2.1.1.2.3.2.5,0,.3-.2.4-.4.6-.1,0-.3,0-.5-.1-.2-.1-.2-.2-.3-.5,0-.3.2-.5.4-.7Z"/>
      <path class="cls-8" d="m67.3,23.4c.2,0,.4,0,.6.2.1.1.2.3.2.5,0,.3-.3.5-.5.6-.2,0-.5-.1-.6-.3-.1-.2-.2-.3-.1-.5,0-.2.3-.4.5-.5Z"/>
      <path class="cls-8" d="m57.4,50.9c.2,0,.4,0,.6.1.2,0,.3.2.4.4,0,.3-.1.5-.3.7-.3,0-.6,0-.8-.2,0,0-.2-.2-.2-.3,0-.3.1-.6.3-.8Z"/>
      <path class="cls-8" d="m32.1,65.7c.3,0,.5,0,.7.2.1.1.2.4.2.6,0,.3-.2.4-.5.6-.2,0-.3,0-.5-.1-.2-.1-.3-.3-.3-.5,0-.3.2-.5.4-.8Z"/>
      <path class="cls-8" d="m45.5,14.9c.2,0,.5,0,.7.2.2.2.2.4.2.6,0,.4-.2.5-.5.8-.3,0-.6,0-.8-.4-.1-.2-.2-.3-.1-.5,0-.3.3-.5.5-.7Z"/>
      <path class="cls-8" d="m82.4,42.9c.2,0,.4,0,.6.2.2.1.2.3.2.5,0,.4-.2.6-.5.9-.3,0-.6,0-.8-.3-.2-.1-.2-.3-.2-.6,0-.4.3-.6.6-.8Z"/>
      <path class="cls-8" d="m83.3,51.2c.3,0,.6,0,.9.3.2.2.2.3.2.6,0,.4-.3.5-.5.7-.3,0-.5,0-.8-.3-.2-.1-.3-.3-.3-.6,0-.3.2-.5.5-.7Z"/>
      <path class="cls-8" d="m84.7,58.4c.3,0,.6,0,.8.2.2.2.2.3.2.6,0,.4-.2.6-.4.8-.3,0-.6,0-.8-.2-.1-.1-.2-.3-.2-.5,0-.4.2-.6.4-.9Z"/>
      <path class="cls-8" d="m57.6,65.2s0,0,0,0c.3,0,.7,0,.9.3.1.2.2.4.2.6,0,.3-.3.5-.5.7-.3,0-.6,0-.9-.2-.2-.2-.3-.3-.2-.6,0-.4.2-.6.5-.8Z"/>
      <path class="cls-8" d="m74.5,57.4c.3,0,.7,0,.9.3.1.2.2.4.2.6,0,.4-.3.6-.6.8,0,0-.1,0-.2,0-.3,0-.5,0-.7-.3-.1-.2-.2-.4-.1-.6,0-.4.3-.6.6-.8Z"/>
      <path class="cls-8" d="m68.7,85.5c.3,0,.6,0,.9.3.1.2.2.4.2.6,0,.4-.3.6-.5.8-.4,0-.7,0-.9-.4-.1-.2-.2-.4-.2-.6,0-.4.3-.5.6-.8Z"/>
      <path class="cls-8" d="m26.1,34.7c0,0,.1,0,.2,0,.3,0,.6,0,.8.3.2.2.2.4.2.6,0,.3-.2.5-.5.7-.4,0-.7,0-1-.3-.2-.2-.2-.3-.2-.6,0-.4.3-.6.5-.8Z"/>
      <path class="cls-8" d="m77.4,71.4c.4,0,.7,0,1,.2s.2.3.2.6c0,.4-.3.6-.6.9,0,0,0,0,0,0-.3,0-.6,0-.8-.3-.2-.2-.2-.4-.2-.6,0-.4.2-.6.5-.8Z"/>
      <path class="cls-8" d="m37.8,75.4c.1,0,.3,0,.4,0,.2,0,.5.2.6.3.1.2.2.4.2.6,0,.4-.3.5-.6.7-.4,0-.7,0-.9-.3-.2-.2-.3-.3-.3-.6,0-.4.3-.6.6-.8Z"/>
      <path class="cls-8" d="m74.5,40.1c0,0,0,0,.2,0,.3,0,.6.2.8.4.1.2.1.4,0,.6,0,.4-.4.6-.7.8-.1,0-.2,0-.4,0-.3,0-.5-.2-.7-.5,0-.2-.1-.4,0-.6.1-.4.4-.6.7-.8Z"/>
      <path class="cls-8" d="m9.9,59c.2,0,.3,0,.4,0,.2,0,.5.3.6.5,0,.2,0,.5,0,.7-.1.3-.4.5-.7.6-.4,0-.8-.2-1-.5-.1-.2-.1-.4,0-.5,0-.4.4-.6.8-.8Z"/>
      <path class="cls-8" d="m44.6,24.4c2.1.4,3.5,2.7,4.9,4.1-1.5-.3-2.6-1.9-3.6-2.9-.4-.4-.9-.8-1.3-1.2Z"/>
      <path class="cls-8" d="m84.4,35.6c.2,0,.3,0,.5,0,.3,0,.6.2.7.5.2.2.2.5.1.8-.1.4-.3.6-.7.8-.2,0-.3,0-.5,0-.3,0-.5-.2-.7-.4-.1-.2-.2-.5-.1-.7,0-.5.3-.7.7-.9Z"/>
      <path class="cls-8" d="m85.3,25.3c.1,0,.2,0,.3,0,.3,0,.6.3.7.5.2.3.2.6.1.9-.1.4-.4.6-.7.8-.2,0-.4,0-.6,0-.3,0-.6-.3-.7-.5-.1-.3-.1-.5,0-.8.1-.4.5-.6.9-.8Z"/>
      <path class="cls-8" d="m21.9,77.1c.1,0,.2,0,.3,0,.4,0,.7.3.9.6.1.2.1.5,0,.8-.2.4-.5.6-.9.7-.2,0-.4,0-.6,0-.3,0-.5-.3-.6-.6-.1-.3-.1-.5,0-.8.2-.4.5-.6.9-.7Z"/>
      <path class="cls-8" d="m61.4,29.6c.3.8.4,1.9.1,2.8,0,.3-.1.6-.2.9-.6,1.7-2,2.9-3.6,3.6,1.9-1.6,2.8-2.5,3.3-5,0-.6,0-1.1,0-1.6.2-.2.3-.5.5-.7Z"/>
      <path class="cls-8" d="m71.6,35.1c.1,0,.3,0,.4,0,.3.1.5.3.7.6.1.3,0,.6,0,.9-.2.4-.5.5-.9.7-.3,0-.6,0-.8-.1-.2-.1-.4-.4-.5-.6,0-.3,0-.6.2-.9.3-.4.5-.5.9-.6Z"/>
      <path class="cls-8" d="m11.6,28.3c-1,1.6-1.6,3.3-1.9,5.1-.4.3-.5.8-.7,1.2-.2.7-.2,1.4-.3,2.2,0-.9-.1-1.7,0-2.6.2-2.3,1-4.4,2.9-5.9Z"/>
      <path class="cls-8" d="m21.3,59.7c.2,0,.4,0,.6,0,.3,0,.6.3.8.5.2.3.2.6.2.9-.1.5-.4.7-.8,1-.2,0-.3,0-.5,0-.4,0-.7-.3-.9-.6-.2-.3-.2-.6-.2-.9,0-.4.4-.6.8-.9Z"/>
      <path class="cls-8" d="m17.3,48.2c2.2,0,3.4-.9,5-2.3-.2,1.1-.6,2.1-1.6,2.7-.2.1-.4.2-.7.2-1,0-1.8,0-2.7-.7Z"/>
      <path class="cls-8" d="m47.2,8.4c1.8-.2,4,.1,5.8.7,1.3.4,3,.9,3.9,1.8-1.5-.4-2.9-.9-4.4-1.4-.8,0-2.6-.4-3.5-.6-.5-.3-1.2-.4-1.8-.6Z"/>
      <path class="cls-8" d="m16.1,31c-3.2,3.2-4.9,3.5-4.9,8.6,0,.7,0,1.3,0,2-.2-.2-.2-.4-.3-.7,0-.4-.2-.9-.3-1.3-.1-2.1.4-4.1,1.9-5.7,1-1.1,2.3-2.2,3.6-2.8Z"/>
      <path class="cls-8" d="m42.4,45.2c0,0,.1,0,.2,0,.2,0,.4,0,.5.2.2.2.3.7.3,1,0,.9-.4,1.7-1,2.2h-.1c-.1-.8-.7-1.6-1-2.3,0-.3,0-.6.1-.9.3-.2.7-.2,1-.2Z"/>
      <path class="cls-8" d="m53.4,76.9c.2,0,.5,0,.7,0,.4,0,.7.4.9.7.2.3.2.7,0,1-.2.4-.4.6-.8.8-.2,0-.4,0-.6,0-.3,0-.7-.3-.9-.6-.2-.3-.3-.6-.2-.9.1-.5.4-.7.8-1Z"/>
      <path class="cls-8" d="m32.2,79c.2,0,.3,0,.5,0,.4.1.8.4,1,.8.2.3.2.6,0,.9-.2.5-.6.7-1,.9-.2,0-.4,0-.6,0-.4-.1-.8-.4-1-.8-.2-.3-.2-.7,0-1,.2-.4.6-.6,1-.8Z"/>
      <path class="cls-8" d="m26.6,53.1c.2,0,.5,0,.7,0,.4,0,.9.4,1.1.7.2.3.3.7.2,1-.1.6-.6.8-1.1,1.1-.3,0-.5,0-.7,0-.4-.1-.8-.4-1-.8-.2-.4-.2-.8,0-1.2.2-.5.5-.7.9-.9Z"/>
      <path class="cls-8" d="m76,27.8c.2,0,.5,0,.8,0,.5,0,1,.4,1.3.8.2.3.3.6.2,1-.1.6-.6.8-1.1,1.1-.3,0-.5,0-.8,0-.5-.1-.9-.4-1.2-.8-.2-.3-.2-.7-.1-1.1.2-.5.6-.7,1-.9Z"/>
      <path class="cls-8" d="m92.5,58.3c-.1,1-.4,2.1-.7,3.1,0,.3-.2.7-.3,1-.4,1.3-1.2,2.9-2.5,3.5-.4.2-1.1.4-1.5.2-.2,0-.2-.2-.3-.4.1-.7,1.5-.9,2.1-1.3,1.1-.9,1.6-2.5,2.2-3.7.3-.8.7-1.6,1-2.3Z"/>
      <path class="cls-4" d="m8.7,36.8c.1-.7.1-1.5.3-2.2.1-.5.2-1,.7-1.2-.1,2.1.1,4.2,1,6.2.1.4.2.9.3,1.3h-.2c-.1.3.4.6,0,.9,0,0-.1,0-.2,0-.3-.2-.3-.5-.5-.7h0c-.7-.8-1.1-3.1-1.2-4.3Z"/>
      <path class="cls-8" d="m63.5,32.1h.7c.1.4.3.8.5,1.2.5,1.6.7,3.2.6,4.9-.1,1.5-.5,3.1-1.7,4.2-1.1.9-2.3,1.1-3.7,1,.6,0,1.2-.1,1.8-.4,1.2-.5,2.1-1.5,2.6-2.6,1.1-2.6.5-5.7-.6-8.2Z"/>
      <path class="cls-1" d="m51.6,22.4c.7.5,1.4,1,2.1,1.4.8.4,1.7.7,2.5,1,2.4.8,4.2,1.9,5.8,3.8.8,1,1.6,2.2,2,3.4h0c0,0-.7,0-.7,0-.6-1-1.4-2-2.2-2.9h0s.1.4.1.4c-.2.2-.3.5-.5.7-.5-1.8-1.3-3.2-3-4.1-2.5-1.4-4.4-1.3-6.2-3.8Z"/>
      <path class="cls-2" d="m10,41.2h0c.1.2.2.5.5.6,0,0,.1,0,.2,0,.4-.3,0-.7,0-1h.2c0,.3.2.6.3.8.9,2.5,2.2,5,4.7,6.1.4.2.9.4,1.4.5.9.6,1.7.7,2.7.7.5,0,.9,0,1.4,0,3.5-.3,5.8-3.1,7.9-5.6,0,.2-.1.4-.2.6-1.1,2.3-3.3,5-5.7,5.9-2.1.8-5,.7-7-.3-3.1-1.5-5.3-5.1-6.4-8.2Z"/>
      <path class="cls-8" d="m74.1,45.8h0c0,.6-.5,1.3-.7,1.8-1.6,3.3-3.8,6.5-6.7,8.8-3.1,2.4-7,4.3-11,3.8-2.8-.3-5.3-2.1-7.1-4.3.9.6,1.7,1.4,2.7,1.9,2.4,1.4,4.7,1.7,7.4,1,3.3-.9,6.3-2.7,6.9-6.4.4-2.5,0-4.5,2-6.4-.3.7-.8,1.4-1,2.2-.2.9-.3,1.8-.3,2.8,0,3.2-.4,4-2.4,6.4,5.2-3.5,7.2-6.4,10.3-11.6Z"/>
      <path class="cls-9" d="m37.5,7.6c1.9.2,3.9.4,5.8.6,1.2,0,2.3,0,3.5.1h.4c.6.2,1.3.3,1.8.7-1.5,0-3,.1-4.5.4-1.7.3-3.9,1.2-5.7,1-.7-.1-1.3-.6-1.9-.8-.7-.3-1.5-.2-2.2,0-4.2,1-3.7,3.9-7.1,5.2.3-.5.6-.9.9-1.4.5-1.1.8-2.5,1.7-3.4,1.9-1.9,4.9-2.2,7.4-2.2Z"/>
      <path class="cls-8" d="m60.1,7.5c3.9-.4,8.5,1.5,10.8,4.5,1.6,2,2.7,4.4,4.7,6.1,1,.9,2.3,1.7,3.6,2.1.6.2,1.2.3,1.8.5h-.2c0,0,.2,0,.2,0-.4.2-1.2-.1-1.7-.2-1.4-.4-2.8-.8-4-1.6-2.3-1.5-4.6-4.6-7.6-4.7-1.8,0-4.5,1.4-5.8,2.6.4-.8.9-1.4,1.5-1.9,1.1-1,2.4-1.4,3.8-1.9-.3,0-.5-.1-.8-.2-3.7-.8-8,0-11.3,1.7-1.3.7-2.5,1.6-3.8,2.4,2.8-3,9.1-6,13.1-5.6.6,0,1.1.2,1.7.3.7.2,2.7,1.2,3.2,1,0-.2,0-.1,0-.3-.2-.4-.6-.8-.9-1.1-1.6-1.5-3.5-2.6-5.6-3.1-.9-.2-1.8-.2-2.7-.5h0Z"/>
      <path class="cls-11" d="m48.2,19.4h0c-.4.6-1.8,1-2.5,1.3-3,1.3-9.1,3.8-10.6,6.6-.3.6-.7,1.4-.5,2,.3.3.5.3.8.2.6-.2,1.3-.7,1.9-1,1.2-.7,3.3-.9,4.6-.7h0c0,0,.1,0,.1,0h-.1s0,0,0,0c-1.3,0-3.4.4-4.5,1.2-.3.2-.6.5-.7.9,0,.4.1.7.4,1,1.8,2,5.4,2,7.9,2.2-1.9.6-4.1.2-6-.2-1.8-.6-3.4-1-5.3-.6-.1,3.8,2.3,6,.3,10.4,0-1.2.2-2.5,0-3.7-.2-1.3-.7-2.6-1.1-3.9-.9-3-.5-5.9.9-8.6.7-1.3,1.6-2.3,2.7-3.2,3.7-3.1,7.1-2.7,11.4-4.1Z"/>
      <path class="cls-2" d="m0,49.4c-.2-1.9,0-4.4.2-6.3.2-1.4.4-2.9.7-4.3,2.5-11.6,9.4-21.5,18.8-28.7C27.3,4.4,35.8,1.2,45.2.3c2.3-.2,5.5-.4,7.8,0h-.1c-.9,0-1.9,0-2.8,0,1,0,4.1-.2,4.8.4.1.2.1.3,0,.6,0,0,0,.1,0,.2v.2c0,.2-.3.2-.5.2-1.3,0-2.7,0-4.1,0v.2c0,0-.3,0-.3,0h.2c0,0-.2,0-.2,0,0,0,0,0,.1,0,.3,0,.7,0,1.1,0-2.3.2-4.1.1-6,1.7-.6.5-1.1,1-1.8,1.3-1.3.4-2.6.5-3.9.4-.5,0-1,0-1.5,0-3-.4-6.5.8-8.9,2.6-1.5,1.2-3.3,3.5-3.5,5.4,0,.2,0,.3,0,.5-.3.5-.6,1-.9,1.5-1.1,1.4-3.3,3.5-2.9,5.4.1.5.4.9.9,1.2.3.2.6.3.9.4,1-.2,1.8-.5,2.7-1,1.2-.8,1.7-1.6,2.7-2.3.1,0,.2-.2.4-.2.1.1,0,0,0,.2-.2,1.3-2,3.1-3,3.8-.8.5-1.5,1-2.4,1.2-1,.3-4,.3-4.4,1,0,.6.3,1.1.6,1.5.6.8,1.8,1.2,2.8,1.3.7,0,2-.5,2.6-.2-.2.4-.9.7-1.4.8-1.2.4-2.5.4-3.6-.1-1.4-.7-2.8-2.1-3.2-3.6-.4-1.3,0-2.8.6-4,.2-.4.5-.8.9-1.2.7-.7,2.5-1.9,2.5-2.9,0-.2-.1-.2-.3-.3-1.1-.4-3.3.9-4.2,1.4-4.5,2.8-7.7,6.9-10.4,11.4-1.7,2.8-3.1,5.6-3.8,8.8-.9,3.7-1.1,7.4-1,11.1-.5,0-1,0-1.4.3Z"/>
      <path class="cls-8" d="m51.1,2c6.8,0,12.4,1.1,18.7,3.9,5.5,2.4,9.7,5.4,14,9.6,4.7,4.6,8.6,9.6,11.2,15.7,1.3,3,2.4,6.3,2.9,9.6.4,2.5.6,5,.8,7.5.1,1.3.3,2.7.5,4,0,1,0,2.6.1,3.5,0,.1,0,.2.2.3-.6,5.2-1.8,11.3-4.4,15.9-.2.7-.8,1.5-1.1,2.2-2.1,3.8-4.6,7-7.6,10.1-9.3,9.5-22.7,15.6-36.1,15.8-12.9.2-26.3-5.6-35.5-14.5C4.6,75.8.2,63.2,0,49.4c.4-.2.9-.2,1.4-.3,0,1.4,0,2.7.4,4.1.3-.9.4-1.9.6-2.8.4-1.8.9-3.4,1-5.3.1-2.8-.3-6.5.3-9.2,0,2.1.4,4.1.6,6.1.1,1.6,0,3.3.2,5,0,.2,0,.3.2.4.2.2.6.3.9.2,1.8-.3,3.2-2,4.1-3.4-.7,1.6-1.7,2.7-3.2,3.7-.6.4-1.2.7-1.7,1.2-1.7,1.6-2.4,4.8-1.5,7,.3.8.7,1.5,1.1,2.2,1.5,2.7,3.1,4.6,6,5.9,1.3.5,2.6.6,4,.9-2.8.5-5.4-.1-7.7-1.7-.6-.4-1.1-.9-1.7-1.4.3.7.5,1.6.9,2.3,1.2,2.2,3.7,4.8,6,5.8,1.8.7,3.1.3,4.8-.4-.7.9-1.6,1.5-2.8,1.6-2.1.2-4.5-1.6-5.9-2.9-.7-.6-1.2-1.2-1.8-1.9.5,2.2.9,4.5,1.8,6.5,1.4,3.3,5.3,6.6,8.3,8.5,1.6,1,3.2,1.8,4.9,2.4,1.3.5,2.6.9,3.9,1.5,2.1.9,3.9,2.2,5.8,3.5.7.5,1.5.9,2.4.7,2.2-.5,3.6-2.6,5.1-4-.9,1.9-2.5,4.1-4.6,4.8-2.8.9-6.3-.1-8.9-1.1,1.1.9,2.3,1.6,3.6,2.1,2.3.8,4.8.9,7.1,1.5,5.3,1.2,9.1,3.5,14.7,3,2.5-.2,4.8-1.3,6.4-3.2.6-.7,1.4-2,1.3-2.9,0-.5-.3-.8-.7-1.1-1.2-.8-3-1-4.4-1.2-6.5-.9-8.9-3.4-10.1-9.8,0-.2,0-.5-.1-.7,0,0,0,0,0,0,.4.8.7,1.6,1.1,2.4,1.2,2.7,2.8,4.6,5.7,5.5,1.4.4,3,.5,4.5.7,2.9.3,5.3.8,7.7,2.4.7.5,1.4,1.1,2.2,1.5.9.3,1.7,1,2.6,1.5,1.3.6,1.9.8,3.3.3v.2c.1,0,.3,0,.3,0v-.2c0,0,0,0,0,0l.3.2c.2-.2.3-.5.5-.7.2-.2.9-.4,1.2-.6,1-.5,1.9-1.1,2.8-1.7.8-.5,1.5-1.1,2.2-1.6.9-.6,1.9-1.2,2.9-1.8,1.3-.9,2.6-2.1,3.8-3.2.2-.2.2-.3.2-.6-.1-.3-.3-.7-.6-.8-.8.2-1.6.6-2.3.9-1.8.8-4,1.5-5.9,1.5-.3,0-.7,0-1,0,0,0,0,0,0,0-7.2-.7-10.8-6.5-16.9-9.4-2.4-1.1-5-1.6-7.6-2.2-2.9-.7-6.9-2.5-9.2-4.4,2.3,1,4.8,2,7.3,2.4-2.1-1.4-3.8-3-4.9-5.2-2.4-4.5-1.4-9.5,1-13.8.7-1.4,1.7-2.7,2.2-4.2,1-3.4-1.6-7.2-3.2-10.1,2.2,2.3,3.7,5.7,4.9,8.7,1.3-2,2.4-4.2,2.5-6.7,0-1-.1-1.9,0-2.9,0,0,0,0,0,0,.2,1.4.4,2.8.3,4.3-.1,1.6-.5,3.1-1.2,4.5-.7,1.5-1.6,2.8-2.5,4.1-1.5,2.3-2.9,4.5-3.8,7.1-.4,1.2-.6,2.5-.6,3.8,0,2,.8,4,1.9,5.6,3.7,5.4,8.2,4.5,13.4,7,1.9.9,3.7,2.3,5.4,3.5,1.8,1.3,3.6,2.5,5.2,4-1.4-2.1-2.6-5.1-2.7-7.7,0-3.9,4.4-3.8,6.9-5.3.9-.5,1.4-1.4,2.1-2.1-1.3,3.3-3.6,2.9-5.9,4.7-.7.5-1.1,1.1-1.2,2-.3,2.1.7,4.1,2,5.8,1.4,1.9,3.3,3.2,5.7,3.5,4.6.6,10.2-2.8,13.8-5.5-4.6,1.7-6.5,3.3-11.8,2.9,1.9-.5,3.7-.9,5.5-1.6,1.3-.5,2.5-1.2,3.7-1.8,3.5-2.1,6.5-4.7,7.9-8.7.3-.9.5-1.8.6-2.7,0-1.4,0-2.8-.1-4.2-.1-1.9-.1-3.8,0-5.8,0-1.4.2-2.8.4-4.2.2-1.6.6-3.3.4-5-.1-1.4-.5-2.8-.8-4.2-.7-3.5-1.3-7-2.9-10.2,0,.3.1.5.2.8.2,1.1.2,2.3.2,3.5,0,3-.2,5.9-2,8.5-1.9,3-1.7,6.9-1.7,10.3-.8-3.1-.9-5.8,0-8.9-2.1,2.1-5.7,3.6-7,6.3-.4.9-.6,1.8-.8,2.7-.2-4.6,1.8-6.2,5.4-8.6,1-.7,2-1.4,2.8-2.3.1-.2.3-.4.4-.7,1.8-3.2,2-6.8,1-10.2-1.2-4.2-4.2-9.4-8.5-11.1-1.9-.8-3.8-1.2-5.3-2.7-.9-.8-1.4-1.9-1.9-2.9-1.2-2.4-3-4.2-5.4-5.5-5.2-2.8-11.3-2.2-16.9-1-.8.2-1.6.3-2.4.5-.8.7-3.2.2-4.3.5.1,0,.2,0,.4,0,.2,0,.3,0,.5.2,0,0,0,0,0,0-1.2,0-2.3,0-3.5-.1-1.9-.1-3.9-.4-5.8-.6h.9c-3.4-.4-6.5,0-9.2,2.2-.5.4-.9.8-1.3,1.3-.7.9-1.2,2.1-2.4,2.7,0-.2,0-.3,0-.5.2-1.9,2-4.2,3.5-5.4,2.4-1.8,5.9-3,8.9-2.6.5,0,1,0,1.5,0,1.3,0,2.7,0,3.9-.4.7-.2,1.3-.8,1.8-1.3,1.9-1.6,3.7-1.5,6-1.7Z"/>
      <path class="cls-5" d="m38.4,7.6h.9c.9.1,1.9,0,2.8,0,2.7,0,5.4.3,8.1,0-.8.7-3.2.2-4.3.5.1,0,.2,0,.4,0,.2,0,.3,0,.5.2,0,0,0,0,0,0-1.2,0-2.3,0-3.5-.1-1.9-.1-3.9-.4-5.8-.6h.9Z"/>
      <path class="cls-3" d="m74.4,83.1c.7,0,1.5,0,2.3-.1,4.5-.8,8.8-3.2,12.6-5.5-1.3,1.9-3.4,3.3-5.1,4.8-1.4,1.2-2.8,2.4-4.3,3.6-2.9,2.4-7.2,6.3-11.2,6.1-1.6,0-3.5-1.1-4.7-2.2.9.3,1.7,1,2.6,1.5,1.3.6,1.9.8,3.3.3v.2c.1,0,.3,0,.3,0v-.2c0,0,0,0,0,0l.3.2c.2-.2.3-.5.5-.7.2-.2.9-.4,1.2-.6,1-.5,1.9-1.1,2.8-1.7.8-.5,1.5-1.1,2.2-1.6.9-.6,1.9-1.2,2.9-1.8,1.3-.9,2.6-2.1,3.8-3.2.2-.2.2-.3.2-.6-.1-.3-.3-.7-.6-.8-.8.2-1.6.6-2.3.9-1.8.8-4,1.5-5.9,1.5-.3,0-.7,0-1,0,0,0,0,0,0,0Z"/>
    </g>
  </g>
</svg>