<?xml version="1.0" encoding="UTF-8"?>
<svg id="Layer_2" data-name="Layer 2" xmlns="http://www.w3.org/2000/svg" xmlns:xlink="http://www.w3.org/1999/xlink" viewBox="0 0 100 100">
  <defs>
    <style>
      .cls-1 {
        fill: url(#linear-gradient-2);
      }

      .cls-2 {
        fill: #0f80d6;
      }

      .cls-3 {
        fill: #1454a1;
      }

      .cls-4 {
        fill: url(#linear-gradient-6);
      }

      .cls-5 {
        fill: #670b52;
      }

      .cls-6 {
        fill: #21ebf7;
      }

      .cls-7 {
        fill: #2b106c;
      }

      .cls-8 {
        fill: #130631;
      }

      .cls-9 {
        fill: url(#linear-gradient-5);
      }

      .cls-10 {
        fill: none;
      }

      .cls-11 {
        fill: #330f40;
      }

      .cls-12 {
        fill: #102b7b;
      }

      .cls-13 {
        fill: url(#linear-gradient-3);
      }

      .cls-14 {
        fill: url(#linear-gradient);
      }

      .cls-15 {
        fill: url(#linear-gradient-4);
      }

      .cls-16 {
        fill: #379fdd;
      }

      .cls-17 {
        fill: #5475f0;
      }

      .cls-18 {
        fill: #399daa;
      }
    </style>
    <linearGradient id="linear-gradient" x1="83.5" y1="27.6" x2="85.9" y2="31" gradientTransform="translate(0 102) scale(1 -1)" gradientUnits="userSpaceOnUse">
      <stop offset="0" stop-color="#2a88f7"/>
      <stop offset="1" stop-color="#0ea7fb"/>
    </linearGradient>
    <linearGradient id="linear-gradient-2" x1="49.1" y1="19.1" x2="50.4" y2="22.6" gradientTransform="translate(0 102) scale(1 -1)" gradientUnits="userSpaceOnUse">
      <stop offset="0" stop-color="#ea12a6"/>
      <stop offset="1" stop-color="#9c5cd1"/>
    </linearGradient>
    <linearGradient id="linear-gradient-3" x1="80.3" y1="31.4" x2="84.5" y2="37.4" gradientTransform="translate(0 102) scale(1 -1)" gradientUnits="userSpaceOnUse">
      <stop offset="0" stop-color="#196fff"/>
      <stop offset="1" stop-color="#00b1ff"/>
    </linearGradient>
    <linearGradient id="linear-gradient-4" x1="27" y1="84.5" x2="28.5" y2="77.7" gradientTransform="translate(0 102) scale(1 -1)" gradientUnits="userSpaceOnUse">
      <stop offset="0" stop-color="#a47c72"/>
      <stop offset="1" stop-color="#5c9391"/>
    </linearGradient>
    <linearGradient id="linear-gradient-5" x1="83" y1="65.4" x2="76.8" y2="58.1" gradientTransform="translate(0 102) scale(1 -1)" gradientUnits="userSpaceOnUse">
      <stop offset="0" stop-color="#421783"/>
      <stop offset="1" stop-color="#0931c8"/>
    </linearGradient>
    <linearGradient id="linear-gradient-6" x1="79" y1="52.3" x2="55.1" y2="47" gradientTransform="translate(0 102) scale(1 -1)" gradientUnits="userSpaceOnUse">
      <stop offset="0" stop-color="#00b0ff"/>
      <stop offset="1" stop-color="#0de9ff"/>
    </linearGradient>
  </defs>
  <g id="Layer_2-2" data-name="Layer 2">
    <circle class="cls-10" cx="50" cy="50" r="50"/>
  </g>
  <g id="Layer_3" data-name="Layer 3">
    <g>
      <g>
        <path class="cls-7" d="m90.6,49.3c-.1-2.3,0-4.6,0-6.8,0-4.4,0-8.8,0-13.2,0-2,.1-4.1,0-6.1,0-.4,0-1-.4-1.4-1-1-3.4-.8-4.7-.8,0-1,0-1.9-.5-2.8l-.7-.4c-3.1-.3-6.3-.1-9.4-.1-.9,0-2.8.2-3.6,0-3.4.1-6.8.4-10.2.8-1.1.1-2.5.2-3.6.6-.5.2-1.2.3-1.8.4-1.9.4-3.6.9-5.3,1.8-3.9-3.5-16.9-4.1-22.2-4.4-1.5,0-3,0-4.5,0-1.4,0-2.8,0-4.2,0-.9,0-1.9,0-2.8,0-.9,0-1.7,0-2.4.7-.9,1-.6,4.2-.6,5.6-.9.3-3,.8-3.5,1.5,0,.2,0,.3-.1.5-.1,2.8,0,5.6,0,8.4v17.8c0,4.2.1,8.3-.2,12.4v11.6s0,0,0,0v.9c0,.4.2.9.4,1.3,1,1.6,2.2,2.6,4.1,3.1.9.2,1.8,0,2.7.2h.3s66.7,0,66.7,0c0,0,.2-.2.2-.2h0c1.4-.4,2.9-.8,4-1.7,1-.8,1.8-2,2.1-3.2.4-1.3.2-2.7.2-4.1v-5.2c0-1.1,0-2.1,0-3.2h0c0-2.3-.2-4.6,0-6.7,0-1.1,0-2.3,0-3.4,0-1.3,0-2.6,0-4Z"/>
        <path class="cls-10" d="m9.6,75.3h0c0,0,0,0,0,0Z"/>
        <path class="cls-7" d="m9.5,75.8c0,.2,0,.4.1.6v-.9c0,.2-.3.4-.1.3Z"/>
      </g>
      <path class="cls-14" d="m85.3,64.2h0c0,1.4.2,6.3-.2,7.3.8.6,2,.8,2.9,1,0-1.6-.2-6.3.2-7.7v6.4c0,1.1.2,2.6-.1,3.7-.2.8-.7,1.5-1.2,2.1-1.5,1.5-3.6,1.1-5.6,1.2.6-.5,3.2,0,4.1-.4.4-.1,1.1-.6,1.4-1-.3-.4-.7-.8-1-1.2-.4-.3-.9-.6-1.2-1-.2-.3-.3-1-.6-1.2-.3.3-.7.6-1,.9-.5.4-1.6,1.1-2.2.9,0,0,0,0,0,0,.2,0,.5-.1.7-.2.8-.2,1.7-.8,2.3-1.4,1.7-1.6,1.7-3.4,1.7-5.6,0-1.3,0-2.5,0-3.8Z"/>
      <path class="cls-17" d="m80.7,75.1s0,0,0,0c.6.2,1.7-.5,2.2-.9.4-.3.7-.6,1-.9.4.2.4.8.6,1.2.3.4.8.7,1.2,1,.4.4.7.8,1,1.2-.2.4-.9.9-1.4,1-.9.3-3.6,0-4.1.4l-19,.4c-2.9,0-5.8.2-8.6.2-.2.8-.5,1.5-1.3,2-1.1.7-2.8.3-4.1.2,1.1-.2,2.2.3,3.2,0,.7-.2,1.4-.7,1.8-1.4.6-1.2-.7-1.5-1.2-2.2,0,0,0-.3-.1-.4h-.1c-.5.2-1,.4-1.4.7-.9.6-1.6-.4-2.4-.7-.3-.1-.6-.2-.9-.2h0c.5,0,.9.1,1.4.3.4.4.9.6,1.4.6.2,0,.3-.1.5-.2.7-.5,1.4-.8,2.2-.9,2.2-.4,4.5-.4,6.7-.6,5.2-.3,10.4-.5,15.6-.7,1.2,0,2.4,0,3.5-.1.6,0,1.4-.1,2,0Z"/>
      <path class="cls-6" d="m85.3,22.2c1,0,2,0,3,.2v42.5c-.3,1.4-.1,6.1-.1,7.7-.9-.3-2.1-.4-2.9-1,.4-1,.2-5.9.2-7.2h0c0-2.6,0-5.2,0-7.8,0-3.8,0-7.7,0-11.5,0-2.2,0-4.4,0-6.5,0-3.7,0-7.3,0-11,0-1.7-.1-3.5,0-5.2Z"/>
      <path class="cls-1" d="m44.6,80.9c.9,1.2,2,1.9,3.6,2.1,1.7.3,4,.4,5.4-.6.5-.4.9-.8,1.4-1.3"/>
      <path class="cls-6" d="m23.5,16.8c1.5,0,3,0,4.5,0,5.3.3,18.3.9,22.2,4.4,1.7-1,3.4-1.4,5.3-1.8.5-.1,1.3-.2,1.8-.4,1-.4,2.5-.5,3.6-.6,3.4-.4,6.8-.6,10.2-.8.8.2,2.7,0,3.6,0,3.1,0,6.3-.2,9.4.1l.7.4c.5.9.5,1.8.5,2.8,0,.4,0,.8,0,1.2-.1,1.7,0,3.5,0,5.2,0,3.7,0,7.3,0,11,.1,2.2,0,4.4,0,6.5,0,3.8,0,7.7,0,11.5,0,2.6,0,5.2,0,7.7,0,1.3,0,2.5,0,3.8,0,2.2,0,4-1.7,5.6-.6.6-1.5,1.1-2.3,1.4.1-.3.8-.4,1-.7.3-.4.8-2,1.1-2.5,0,0,0,0,0,0h.1c.5-1.5,0-9,0-11.3,0-1.5,0-3,0-4.5v-8.4c0-2.6,0-5.2-.1-7.8,0-4.7,0-9.4-.1-14.1,0-.6,0-1.3,0-1.9v-3.9c-4.7-.2-9.3-.1-14,.1-2.1.1-4.2.3-6.3.4-2.8.4-5.6.5-8.3,1.4-.7.2-1.4.5-2,.8-.6.3-1.4.9-2.1,1-.7-.2-1.5-.2-2.2-.3-.3-.2-.5-.4-.8-.6,0,0,0,0,0,0,.1.2.3.3.5.4h0c0,.1-.1.2-.1.2,0,0,0,0,0,0-.4-.4-.9-.5-1.5-.4-.1,0-.2,0-.3,0-1.9-.3-3.8-.5-5.8-.7-1.8-.2-10.8-.9-12.1-.4,0,0,0,0,0,0-.9,0-1.8,0-2.7.2-1.5.1-3.1.2-4.6.2-1,0-5.2,0-5.9-.7-.3,1.1,0,2.5,0,3.7v10.1c0,1.1.2,3.5,0,4.5-.5-1.1-.9-2.2-1.5-3.3,0-1.5,0-3,0-4.5v-8.7c0-1.4-.5-4.6.5-5.6.6-.7,1.5-.7,2.4-.7.9,0,1.9,0,2.8,0,1.4,0,2.8,0,4.2,0Z"/>
      <path class="cls-16" d="m40.1,20.4h.2c2.2.6,5.5.9,7.4,2.2,0,0,0,0,0,0,.1.2.3.3.5.4h0c0,.1-.1.2-.1.2,0,0,0,0,0,0-.4-.4-.9-.5-1.5-.4-.1,0-.2,0-.3,0-1.9-.3-3.8-.5-5.8-.7-.1-.1-.3-.2-.5-.3h-.3c0,.1,0,0,0,0,.1-.4.4-.9.4-1.3,0,0,0,0,0-.1Z"/>
      <path class="cls-11" d="m71.1,17.6c.8.2,2.7,0,3.6,0,3.1,0,6.3-.2,9.4.1l.7.4c.5.9.5,1.8.5,2.8,0,.4,0,.8,0,1.2-.1,1.7,0,3.5,0,5.2,0,3.7,0,7.3,0,11-.1.5,0,1.1,0,1.6h0c-.3-1.4.1-4.1,0-5.6,0-2.1.2-15.3-.2-16.1-.3-.2-.6-.3-.9-.4-1.5-.3-3.3-.2-4.9-.2-5.6,0-11.2.2-16.8.7-1.6.1-3.3.4-4.9.5,1-.4,2.5-.5,3.6-.6,3.4-.4,6.8-.6,10.2-.8Z"/>
      <path class="cls-12" d="m85,34.4c.2,1.6-.2,4.3,0,5.6h0c.2-.5,0-1.1,0-1.6.1,2.2,0,4.4,0,6.5,0,3.8,0,7.7,0,11.5,0,2.6,0,5.2,0,7.7,0,1.3,0,2.5,0,3.8,0,2.2,0,4-1.7,5.6-.6.6-1.5,1.1-2.3,1.4.1-.3.8-.4,1-.7.3-.4.8-2,1.1-2.5,0,0,0,0,0,0h.1c.5-1.5,0-9,0-11.3,0-.6,0-1.2,0-1.7,0,1,0,5.8.2,6.2,0,0,0,.1.1.2.2,0,.2,0,.4,0,.1-.2.2-.3.3-.5.2-1.5-.4-3.8,0-5.2v.2c.1,0,.2-16.3.2-16.3,0-2.9-.1-5.7,0-8.6Z"/>
      <path class="cls-13" d="m83.7,60.3c0-.6,0-1.2,0-1.7,0,1,0,5.8.2,6.2,0,0,0,.1.1.2.2,0,.2,0,.4,0,.1-.2.2-.3.3-.5.2-1.5-.4-3.8,0-5.2v.2c.1,0,.1,7,.1,7,0,1.5.2,3.3-.2,4.7-.2.8-.6,1.5-1.2,2-.2.2-.4.4-.6.6.3-.6.5-1.3.7-1.9.5-1.6,0-9.1,0-11.4Z"/>
      <path class="cls-15" d="m15.3,21.4c.2-.5.5-.9,1-1.2.6-.4,1.3-.6,1.9-.7,1.4-.2,3-.1,4.4-.1,3.9,0,7.7,0,11.6.3,2,.2,4,.4,5.9.8,0,0,0,0,0,.1,0,.4-.3.9-.4,1.3h0c0,0,.3,0,.3,0,.2,0,.3.2.5.3-1.8-.2-10.8-.9-12.1-.4,0,0,0,0,0,0-.9,0-1.8,0-2.7.2-1.5.1-3.1.2-4.6.2-1,0-5.2,0-5.9-.7Z"/>
      <path class="cls-11" d="m63.1,20.3c2.1-.1,4.2-.3,6.3-.4,4.7-.2,9.3-.3,14-.1v3.9c0,.6,0,1.3,0,1.9,0,4.7.1,9.4.1,14.1,0,2.6.2,5.2,0,7.8v8.4c0,1.5,0,3,.2,4.5,0,2.3.4,9.8,0,11.4h-.1c0,0,0,0,0,0-.3.6-.7,2.2-1.1,2.5-.3.3-.9.4-1,.7-.2,0-.5.2-.7.2-.6,0-1.4,0-2,0-1.2,0-2.4,0-3.5.1-5.2.2-10.4.4-15.6.7-2.2.1-4.5.2-6.7.6-.8.1-1.5.5-2.2.9,0-.8,0-1.6,0-2.4,0-1.5,0-3,0-4.5v-8.1s0-25.9,0-25.9v-8.4c0-1.6,0-3.2,0-4.7.7-.1,1.5-.7,2.1-1,.6-.3,1.3-.6,2-.8,2.7-.9,5.5-1,8.3-1.4Z"/>
      <path class="cls-7" d="m71.8,29.5c.3-.5-1.3-2.9-1-4,.2-.6,1.2-.9,1.7-1.3-.4.4-.8.5-1.2.8-.3.1-.3.3-.4.6.4.6,1.6.3,2.2.8.1.1,0,0,.2.1.2,0,.3,0,.5.2.5.4,1.1.6,1.5,1.1.3.3.8,1.2,1,1.3.1,0,2.7,0,3.3,0v.3c-.2-.1-.4-.2-.6-.2-.9,0-1.8,0-2.7,0-1.5,0-3,0-4.5.2Z"/>
      <path class="cls-5" d="m57.9,73.8c4.4-1,8.2-.9,12.6-.3.6,0,1.7,0,2.2.3,0,0,0,0,0,0-6,0-12,.6-18,1.2h-.1c.4-.5,2.3-.8,3-1.2,0,0,0,0,.1,0Z"/>
      <path class="cls-3" d="m78.2,32.9c.5,0,1.1,0,1.4.3.2.3.2.6.1.9-.1.7-.8,1.5-.7,2.1.1,0,.2.1.3.1-1.4,0-2.8,0-4.1,0h0c0-.4-1.3-2.7-1.6-3.3.8-.2,3.4-.1,4.4-.2Z"/>
      <path class="cls-6" d="m66,58.8s0,0,.1,0c.9.1,2-.1,2.6,0,0,.3,0,.7-.2,1-.5.6-1.8.2-2.4.6-1.5.2-3,.2-4.5.3-1.4.1-5.5.6-6.6.4-.2-.1-.3-.3-.3-.5,0-.2,0-.4.2-.6.4-.5,4.8-.7,5.7-.8.6,0,1.2,0,1.8,0,1.2,0,2.5-.2,3.7-.2Z"/>
      <path class="cls-8" d="m73.1,31.6c.2.4.5.8.5,1.2h0c0,.1-.3.2-.3.2-3.4,0-6.9.3-10.4.6-2.1.2-4.1.6-6.2.7-.3,0-.4,0-.6-.1,0-.1-.2-.2-.2-.4,0-.2,0-.4.2-.6.2-.2,9.4-1.2,10.6-1.3,2.2-.2,4.3-.2,6.5-.4Z"/>
      <path class="cls-8" d="m79.4,45.2l.3-.4c.2.2.3.3.3.7,0,.3,0,.6-.3.9-.8.7-2.8.4-3.8.5-.3,0-.6,0-.8,0-1.4-.1-2.9.2-4.2.2-2.9.2-5.8.3-8.7.6-1.2.1-2.5.2-3.7.3-.8,0-1.6.2-2.4.3-.2,0-.4,0-.6-.1-.2-.1-.2-.3-.3-.5,0-.2,0-.2.1-.4.2-.2.5-.3.7-.4,1.4-.3,3.4-.3,4.9-.4,2.2-.1,4.4-.3,6.7-.5,1.1-.2,2.4-.2,3.5-.2,1.7,0,3.4-.2,5.1-.3.9,0,2,0,3-.1.3,0,.3-.1.5-.3Z"/>
      <path class="cls-8" d="m79.6,37.6c.3.3.3.7.3,1,0,.3,0,.5-.3.7-.6.5-2.1.4-2.8.4-1.2,0-2.4.2-3.6.2-4,.2-8,.4-11.9.8-1.3.1-2.6.3-3.9.4-.5,0-.9.2-1.4.2-.3,0-.5,0-.7-.2-.1-.1-.2-.2-.2-.4,0-.2,0-.4.1-.6.1-.1.2-.2.4-.2,1.3-.3,2.7-.3,4-.4,4.2-.4,8.4-.7,12.6-.9,1.1,0,2.3,0,3.4-.2h.2c.8-.1,3.1.3,3.7-.3.1-.1,0-.2,0-.3v-.3Z"/>
      <path class="cls-8" d="m79.4,60h0c0-.1.2-.1.2-.1.2.2.3.3.3.5,0,.4-.1.6-.4.9-.1.1-.3.2-.4.3-3.9.1-7.8.3-11.6.7-1.8.1-3.6.2-5.3.5-.9,0-1.7.2-2.6.2-.7,0-1.5,0-2.2,0-.4,0-.9.2-1.3.2-.2,0-.3,0-.5-.1-.2-.1-.2-.3-.3-.5,0-.1,0-.3.1-.4.2-.3.6-.4.9-.4,1.5-.3,4.2-.4,5.8-.6,2.8-.2,5.6-.5,8.4-.6,2.7-.1,5.4-.1,8.1-.3.4,0,.5,0,.7-.3Z"/>
      <path class="cls-8" d="m79.5,67c0-.2,0-.3.3-.4.3.3.2.7.2,1.1,0,0,0,.2,0,.3-.3.4-.4.7-.9.7-1.4.3-3,.2-4.4.3-3.1.1-6.3.3-9.4.6-1,0-2.1,0-3.1.3-.1,0-.2,0-.3,0-.9.1-5.6.5-6.2.3-.2,0-.2,0-.3-.3,0,0,0-.2,0-.3,0-.2,0-.2-.1-.4v-.3c.2-.2.4-.2.6-.2,2.2-.3,4.9-.3,7.2-.4,2.3-.1,4.6-.3,6.9-.4,2.1-.1,4.3-.2,6.4-.3.7,0,2,0,2.6-.2.2,0,.3-.3.4-.5Z"/>
      <path class="cls-6" d="m79.3,36.3c.2.1.3.3.4.6,0,.2,0,.4,0,.6v.3c-.1.1-.1.2-.2.3-.6.6-2.9.1-3.7.2-.3-.1-.5-.2-.8-.4-4.4,0-8.8.3-13.2.7-1.4.1-2.8.2-4.2.4-.7,0-1.4.2-2,.3-.2,0-.4,0-.5,0-.2,0-.4-.3-.4-.5,0-.2,0-.4,0-.5.2-.3.7-.4,1-.5,1.7-.4,4.1-.5,5.9-.6,4.6-.3,9.1-.6,13.7-.7,1.4-.1,2.8,0,4.1,0Z"/>
      <path class="cls-7" d="m74.9,38c1.3-.1,3.5.2,4.6-.2,0,.1,0,.2,0,.3-.6.6-2.9.1-3.7.2-.3-.1-.5-.2-.8-.4Z"/>
      <path class="cls-6" d="m71.8,29.5c1.5,0,3-.1,4.5-.2.9,0,1.8-.1,2.7,0,.2,0,.4.1.6.2.2.6.2.9,0,1.4-.9.6-3,0-4.1.2-2,0-4.1,0-6.1.1-2.8.1-5.5.3-8.3.6-1.5.2-3,.4-4.5.5-.3,0-.5,0-.7-.2-.2-.2-.4-.5-.4-.8,0-.2,0-.2.2-.4.3-.3.7-.4,1.1-.5,1.6-.3,3.4-.4,5.1-.5,3.3-.3,6.6-.5,10-.6Z"/>
      <path class="cls-9" d="m79.6,29.2c.1,0,.2.2.2.3.1.3.3,1.9.2,2.2,0,.3-.4.7-.5,1.1.1.2.3.5.3.7.2.9-.2,1.7-.6,2.4.2.4.6.9,1,1.1.2.1.4.3.6.3,0,0,1.4-.2,1.5-.2.2-.1.4-.3.6-.4v.2c.1,0,.4-.1.4-.1.1-.6,0-1.3,0-1.9,0-2.4-.1-4.7-.1-7.1,0-.7,0-1.5,0-2.2,0,0,0-.1,0-.2,0,4.7.1,9.4.1,14.1,0,2.6.2,5.2,0,7.8-.2-.6-.2-1.2-.2-1.8-.7-.7-1.6-1.1-2.4-1.8-.3-.3-.7-.5-1-.7-.7-.4-1.6-.3-2.3,0-.2,0-.3.1-.4.3h.3c-.6.2-1.3.2-2,.2,0,0,0,0,0-.1.1-1.1,1-2.4,1.2-3.8.8,0,2.2.2,2.8-.4.2-.2.3-.4.3-.7,0-.4,0-.8-.3-1,0-.2.1-.4,0-.6,0-.3-.2-.4-.4-.6-.1,0-.2,0-.3-.1,0-.6.6-1.4.7-2.1,0-.3,0-.6-.1-.9-.4-.4-1-.3-1.4-.3.5,0,.9,0,1.3-.4.2-.3.5-.8.4-1.2,0-.2-.2-.3-.3-.4.2-.6.2-.8,0-1.4v-.3Z"/>
      <path class="cls-6" d="m77.5,43.5c.5,0,1.4-.2,1.9.1.2.2.3.4.3.7,0,.2,0,.4,0,.6l-.3.4c-.2.2-.2.2-.5.3-.9.2-2,0-3,.1-1.7,0-3.4.2-5.1.3-1.1,0-2.4,0-3.5.2.2-.2.9-.2,1.1-.2-1.4-.1-2.1,0-3.4,0-.6,0-1.2,0-1.7-.1-1.3,0-7.7.7-8.2.5-.3,0-.5-.2-.6-.5,0-.2,0-.3,0-.5.2-.3.6-.4,1-.5,1.5-.3,4.2-.4,5.8-.5,4.7-.3,9.4-.6,14.1-.8.7,0,1.3,0,2-.1Z"/>
      <path class="cls-7" d="m79.4,45.2c-.2.2-.2.2-.5.3-.9.2-2,0-3,.1-1.7,0-3.4.2-5.1.3-1.1,0-2.4,0-3.5.2.2-.2.9-.2,1.1-.2-1.4-.1-2.1,0-3.4,0-.6,0-1.2,0-1.7-.1,1.1-.2,3.4-.2,4.6-.3,3.8-.2,7.6-.4,11.4-.4Z"/>
      <path class="cls-7" d="m77.5,43.5h-.3c0-.3.2-.3.4-.4.7-.3,1.6-.3,2.3,0,.3.2.8.4,1,.7.8.6,1.7,1.1,2.4,1.8,0,.6,0,1.2.2,1.8v8.4c0,1.5,0,3,.2,4.5,0,2.3.4,9.8,0,11.4h-.1c0,0-.2-.2-.2-.2-.2,0-1.4,1.6-2.1,2-1.1.6-7.2,1-8.4.5,0,0,0,0,0,0-.5-.3-1.6-.3-2.2-.3-4.4-.5-8.3-.6-12.6.3.4-.7,4.6-.7,5-1,.5-.4-1.2-2.1-1.1-2.8,0,0,0-.1,0-.2.1,0,.2,0,.3,0,1-.2,2.1-.2,3.1-.3,3.1-.3,6.3-.5,9.4-.6,1.4,0,3,0,4.4-.3.5,0,.6-.4.9-.7,0,0,0-.2,0-.3,0-.4,0-.8-.2-1.1-.2.1-.2.2-.3.4-1.3.4-3.2.3-4.6.1-4.9,0-9.8.5-14.7.8-1,0-4.2.5-5,.3-.3,0-.5-.2-.6-.5,0,0,0,0,0,0s0,0,0,0c0,0,0,0,0,0,0,0,0,0,0,0,0,0,0,0,0,0,0,0,0,0,0,0,0,0,0,0,0,0s0,0,0,0c.3-.5,1-.4,1.5-.5.5-.3,3-.6,3.8-.7.8-.2,1.3-.6,1.8-1.3.2-.4.7-.9.7-1.4,0-.2,0-.4,0-.6,1.7-.3,3.5-.4,5.3-.5,3.9-.3,7.7-.5,11.6-.7.1,0,.3-.2.4-.3.3-.2.4-.5.4-.9,0-.2-.1-.4-.3-.5h-.2s0,.1,0,.1c-1.7,0-4.4.2-6.1,0-2.4,0-4.8.4-7.2.3.7-.4,1.9,0,2.4-.6.2-.3.2-.6.2-1-.6-.1-1.7.2-2.6,0,0,0,0,0-.1,0-1.2,0-2.5.1-3.7.2-.6,0-1.2.1-1.8,0-.1,0-.2,0-.4,0h-.2s0,0,0,0c.1-.3.4-.3.6-.5,0-.2-.1-.3-.2-.5.6-1.3,1.3-1.5,2.2-2.5v-.2c-.1,0,.1,0,.1,0h.1c-1.7-.2-3.8.2-5.6.4-.6,0-1.3.3-1.8.1-.2-.1-.3-.2-.3-.5,0-.2,0-.4.2-.6.2-.2.6-.3.9-.4,1.7-.3,4.2-.4,6-.5,3.3-.3,6.6-.6,9.9-.7h0c.3-.3,5.9-.1,7-.4-.6,0-1.2,0-1.7,0-1.3,0-2.7,0-4,.1-.4,0-.9.1-1.3.2-.6,0-1.3,0-1.9,0-1.4,0-2.8.1-4.2,0-3.4,0-6.9.7-10.3.8-.2,0-.4,0-.6-.1-.2-.1-.5-.4-.5-.7,0-.2,0-.3.2-.5.7-.8,9.3-.9,11-1.1-.5-.1-1,0-1.5,0,.1,0,.2-.1.3-.1.3,0,3.5-3,4.1-3.4.3,0,.5,0,.8,0,.1,0,.2,0,.3,0h0c0,0-.3-.2-.3-.2h.1c1.1,0,4.1-.8,4.9-.4v.2c.1,0,.2-.2.4-.3.3,0,.6,0,.8,0,1-.1,3.1.2,3.8-.5.3-.3.3-.5.3-.9,0-.3,0-.4-.3-.7,0-.2,0-.4,0-.6,0-.3-.1-.5-.3-.7-.5-.4-1.3-.2-1.9-.1Z"/>
      <path class="cls-16" d="m66,58.8c2.7-.4,5.6-.4,8.4-.5,1.3,0,2.7-.3,4-.2.4,0,.8.1,1.1.3.2.2.2.3.3.5-.1.3-.3.5-.6.6-.8.4-4.6.1-5.9.3-2.4,0-4.8.4-7.2.3.7-.4,1.9,0,2.4-.6.2-.3.2-.6.2-1-.6-.1-1.7.2-2.6,0,0,0,0,0-.1,0Z"/>
      <path class="cls-8" d="m72,53.2c1.4,0,2.9,0,4.3,0,.6,0,1.3,0,2,0,.5,0,.9-.4,1.4-.4.2,0,.2,0,.3.1,0,.4,0,.8-.3,1.1-.7.7-14.4.7-16.9,1.3-1.7-.1-3.8.3-5.6.4-.6,0-1.3.3-1.8.1-.2-.1-.3-.2-.3-.5,0-.2,0-.4.2-.6.2-.2.6-.3.9-.4,1.7-.3,4.2-.4,6-.5,3.3-.3,6.6-.6,9.9-.7Z"/>
      <path class="cls-16" d="m56.1,66.7c1.9,0,3.9-.3,5.8-.4,3.9-.3,7.7-.5,11.6-.7,1.5,0,3.9-.3,5.3-.2.2,0,.4,0,.5.2.2.2.3.5.3.8-.1.3-.2.4-.5.5-1.1.4-3.1,0-4.3.3-4.9,0-9.8.5-14.7.8-1,0-4.2.5-5,.3-.3,0-.5-.2-.6-.5,0,0,0,0,0,0s0,0,0,0c0,0,0,0,0,0,0,0,0,0,0,0,0,0,0,0,0,0,0,0,0,0,0,0,0,0,0,0,0,0s0,0,0,0c.3-.5,1-.4,1.5-.5Z"/>
      <path class="cls-4" d="m65.7,51.4h0c1.3,0,2.6-.1,3.9-.2,1.9-.1,3.9-.2,5.8-.3,1,0,2.2-.2,3.2-.1.3,0,.5.1.7.3.2.2.2.5.2.7,0,.2-.1.5-.4.6-.6.3-11.3.2-13.3.6-3.4,0-6.9.7-10.3.8-.2,0-.4,0-.6-.1-.2-.1-.5-.4-.5-.7,0-.2,0-.3.2-.5.7-.8,9.3-.9,11-1.1Z"/>
      <path class="cls-2" d="m15.2,39.7c.2-1,0-3.4,0-4.5v-10.1c0-1.2-.3-2.6,0-3.7.7.7,4.8.7,5.9.7,1.5,0,3.1-.1,4.6-.2.9,0,1.8-.2,2.7-.2,0,0,0,0,0,0,1.3-.5,10.4.2,12.1.4,1.9.3,3.8.5,5.8.7.1,0,.2,0,.3,0,.5,0,1.1,0,1.5.4,0,0,0,0,0,0h.1s0-.2,0-.2c-.2-.1-.4-.2-.5-.4,0,0,0,0,0,0,.3.2.6.4.8.6.7.1,1.5.2,2.2.3-.2,1.5,0,3.2,0,4.7v8.4s0,25.9,0,25.9v8.1c0,1.5,0,3,0,4.5,0,.8,0,1.6,0,2.4-.2,0-.3.2-.5.2-.5,0-1-.2-1.4-.6-.4-.2-.9-.3-1.4-.4h0c.3.1.6.2.9.3.8.3,1.5,1.3,2.4.7.5-.3.9-.6,1.4-.8h.1c0,.2,0,.4.1.4.5.7,1.8,1,1.2,2.2-.3.7-1.1,1.2-1.8,1.4-1,.3-2.2-.2-3.2,0-.5,0-1.2-.1-1.6-.4-.7-.5-1.1-1.2-1.3-2-2.7-.2-5.5-.2-8.2-.2h-12.8c-1.5,0-3.1,0-4.6,0-1.8,0-3.7-.3-5-1.8-.6-.6-.8-1.2-.9-2.1-.2-1.9,0-3.9,0-5.8v-12.2c0-3.9,0-7.9-.2-11.8,0-2.8-.3-5.6,0-8.3.6,1,1,2.2,1.5,3.3Z"/>
      <path class="cls-16" d="m20.1,45.1c.6.5,1,.6,1.8.7h.1c.3,0,.6,0,.9.2,0,0,0,0,0,0-.7,0-1.3,0-2-.1-.3.3-.5.5-.5.9.1.2.1.2.3.3.6.1,2.1-.2,2.6,0-.7,0-1.5.1-2.1.1-.3,0-.6,0-.8-.3-.4-.4-.2-1.2-.2-1.7Z"/>
      <path class="cls-16" d="m20.3,31.1h0c0,.3.2.6.6.8,1.1.7,4.1.4,5.4.4,0,0,0,0,0,0-.5.4-4.8-.2-5,0-.1,0-.3.4-.4.5,0,.1,0,.2,0,.3,1.5.1,4.2-.3,5.4.1-1.2,0-5,.3-5.9-.3-.3-.5-.2-1.3-.1-1.9Z"/>
      <path class="cls-16" d="m20.2,38.1h0c.5.6,1,.9,1.8,1,.5,0,1,0,1.5,0,.8,0,1.6,0,2.4.1-1.2.1-2.9-.2-4.1,0,0,.1.1.2.2.3l-.2.5h.2s0,0,0,0c0,0,0,0,.1,0,.4.1,1.2,0,1.6,0,1,0,2,0,3.1.2-.8,0-6,.2-6.4,0-.5-.3-.3-1.5-.3-2Z"/>
      <path class="cls-7" d="m30.3,61.2l10.5.2c.9,0,2.5-.1,3.2,0,.1,0,.1,0,.2,0,.2.2.2.4.2.7,0,.2,0,.3-.2.5,0,0-.2.1-.3.1-1,.2-2.3,0-3.3,0-3.1,0-6.2-.2-9.2-.1h-.2c-.1-.5-.5-.9-.8-1.3Z"/>
      <path class="cls-6" d="m28.5,21.7c1.3-.5,10.4.2,12.1.4,1.9.3,3.8.5,5.8.7.6,0,1.4.1,1.8.6.2.2.2.6.2.9,0,.3-.1.5-.4.6-1.1.1-2.2-.3-3.3-.5-1.5-.3-5.3-.9-6.7-.8-1.5-.3-8.9-.3-9.5-.8-.2-.1-.2-.3-.3-.5,0-.3.1-.5.3-.7Z"/>
      <path class="cls-8" d="m18.8,46.8v-.3c.4-.5.7-1.3,1.3-1.5v.2c0,.5-.1,1.3.2,1.7.2.2.5.3.8.3.7,0,1.5,0,2.1-.1,2.2,0,4.5,0,6.8,0h9.3c1.1,0,2.2,0,3.3,0,.4,0,.8,0,1.2,0,.2,0,.4,0,.6.2.2.2.2.4.1.7,0,.2-.1.4-.3.5-.1,0-.2.1-.4.1-.7,0-1.4,0-2,0-1.1,0-2.3,0-3.4,0h-16c-.9-.2-1.8-.2-2.7-.2-.5-.5-.7-.9-.8-1.6Z"/>
      <path class="cls-8" d="m26.2,41.7c-1.4-.1-5.7.2-6.6-.3-.3-.1-.5-.4-.6-.7-.2-.6,0-1.2.3-1.7.2-.3.6-.8,1-.9,0,.5-.2,1.7.3,2,.4.3,5.6,0,6.4,0,4.3,0,8.6.1,12.9.1.7,0,3.8-.1,4.2,0,0,0,.1,0,.2.1.2.3.2.6.1.9,0,.2-.2.4-.4.5-.3.1-16.2-.2-17.9,0Z"/>
      <path class="cls-8" d="m32.1,34.8h-7.7c-1.2,0-2.5,0-3.7,0-.4,0-.9-.2-1.2-.4-.3-.2-.5-.5-.6-.9,0-.5.3-1.2.6-1.6.2-.2.6-.6.9-.7,0,.5-.2,1.4.1,1.9.9.6,4.7.3,5.9.3,2.3,0,17.5,0,17.9.3.2.2.4.5.4.8,0,.1,0,.2-.2.3-.3.2-.8.3-1.1.3-1.5,0-3.1,0-4.7-.1-2.2,0-4.4,0-6.6,0Z"/>
      <path class="cls-6" d="m20.2,65.1c.1-.2.1-.1.3-.2,1.5,0,3.2.1,4.7.1,3,0,6,0,9,.1,2.3.2,4.7.1,7.1.1,1,0,2.1,0,3.1,0,.3,0,.4.1.6.3.2.2.3.4.2.7,0,.3-.2.6-.4.7-.1,0-.3.1-.4.1-.9,0-1.9,0-2.8-.1-1.5,0-3.1-.1-4.6-.2-.9,0-1.9-.1-2.8,0-3-.2-5.9-.2-8.9-.3-1.3,0-2.7,0-4-.2-.4-.4-.7-.8-1-1.3Z"/>
      <path class="cls-6" d="m20.3,31.1c.2-.2.3-.3.6-.3,1.4-.2,2.9,0,4.3,0,3.7,0,7.5.1,11.2.1,1.8.1,3.7,0,5.5,0,.8,0,1.6,0,2.4.1.2,0,.4,0,.5.3.2.2.2.6.2.8,0,.3-.2.6-.4.8-.1,0,0,0-.2,0-.7,0-1.5-.1-2.2-.2-1,0-1.9-.1-2.9-.1-4.3-.2-8.7-.3-13-.3-1.3,0-4.4.3-5.4-.4-.3-.2-.5-.4-.6-.8Z"/>
      <path class="cls-6" d="m20.5,58.8c0-.1,0-.2,0-.3.6-.4,5.9-.1,7.1,0h0s10.2,0,10.2,0c2,0,4-.1,6,0,.3,0,.8,0,1,.2.2.2.3.5.3.8,0,.3-.1.6-.4.8-.2.1-.4.2-.6.2-1.2,0-2.5,0-3.7,0-3.8-.1-7.6-.4-11.4-.3h0s-4.6,0-4.6,0c-1,0-2,0-2.9-.1-.4-.3-.7-.7-1-1Z"/>
      <path class="cls-6" d="m20.3,38.1c0,0,0-.2.1-.3.1-.2.4-.3.6-.3,1-.2,2.1-.1,3.1,0h4.4s10.4,0,10.4,0c1.8,0,3.6-.1,5.4,0,.2,0,.5,0,.6.2.2.2.3.5.3.8,0,.3-.1.6-.4.8-.2.2-.6.2-.8.2-2.9,0-5.8-.2-8.6-.3-3.9,0-7.9-.1-11.8,0-.5,0-1,0-1.5,0-.8,0-1.3-.4-1.8-1Z"/>
      <path class="cls-8" d="m25,55.3c-1.4,0-3.4.2-4.6-.1-.5-.1-1-.3-1.2-.8-.3-.4-.2-1,0-1.5.2-.7.7-1.2,1.4-1.6v.4c.5.5.9.8,1.6.9.3,0,.7,0,1,0h.2c.3.4.7.8,1,1.2h.1c1.8,0,19.6.1,19.8.3.2.3.3.7.3,1-.2.3-.5.3-.8.3-1.5.1-3.2,0-4.8,0h-11.3c-.8-.2-1.6-.2-2.4-.2Z"/>
      <path class="cls-3" d="m20.5,51.9c.5.5.9.8,1.6.9.3,0,.7,0,1,0h.2c.3.4.7.8,1,1.2-.8,0-1.7,0-2.5,0-.4,0-.7,0-1-.4-.4-.4-.2-1.2-.2-1.7Z"/>
      <path class="cls-6" d="m25.6,44.2c4,0,8,0,12,0,2.1,0,4.6-.2,6.7,0,.3,0,.5,0,.7.2.2.2.3.7.3,1,0,.3-.2.5-.4.6-.2,0-.4.1-.5.1-1.8,0-3.6-.1-5.4-.1l-12.6-.2c-1.4,0-3-.2-4.4,0-.7,0-1.2-.2-1.8-.7v-.2c0-.2.2-.3.3-.4.5-.5,4.2-.3,5.2-.3Z"/>
      <path class="cls-6" d="m27.4,51.2c3.8,0,7.5,0,11.3,0,1.8,0,3.9-.2,5.6,0,.3,0,.5,0,.7.3.2.2.3.6.2.9,0,.2-.2.6-.4.7-.2.1-.5.1-.7.1-1,0-2,0-3-.1h-8.9c-3-.2-6-.3-9-.3h-.2c-.3,0-.7,0-1,0-.7,0-1.1-.3-1.6-.9v-.4c.2,0,.5-.2.7-.2.5,0,1,0,1.6,0,1.5,0,3.2-.1,4.7,0Z"/>
      <path class="cls-8" d="m18.9,66.4c.3-.5.8-1,1.3-1.3.3.5.6.9,1,1.3,1.3.2,2.7.1,4,.2,3,0,5.9.1,8.9.3,0,0,.1,0,.2,0,.8.2,1.9-.1,2.4.7,0,0,0,0,0,.1.1.2.3.2.5.3,1.7,0,3.3,0,5,.1.5,0,.9,0,1.4,0,.2,0,.5,0,.6.2,0,0,0,0,0,0,0,0,0,0,0,0,0,0,0,0,0,0,0,0,0,0,0,0s0,0,0,0c0,0,0,0,0,0,0,0,0,0,0,0,0,0,0,0,0,0,0,.2-.1.4-.3.5-.2.1-.5.2-.7.2-.7,0-1.3,0-2-.1-.9,0-1.9,0-2.8,0-5.5-.2-11-.1-16.5-.3-.8,0-1.6,0-2.3,0-.7-.4-1-.8-1.3-1.6,0-.3,0-.6.1-.9Z"/>
      <path class="cls-3" d="m20.2,65.1c.3.5.6.9,1,1.3,1.3.2,2.7.1,4,.2,3,0,5.9.1,8.9.3,0,0,.1,0,.2,0,.8.2,1.9-.1,2.4.7,0,0,0,0,0,.1.1.2.3.2.5.3,0,0-.2,0-.2,0-3.1,0-6.3-.2-9.5-.2-2.1,0-4.2,0-6.3-.1-.3,0-.5,0-.7-.3-.5-.6-.5-1.5-.5-2.2Z"/>
      <path class="cls-3" d="m22.4,69c5.5.2,11,0,16.5.3,2.6,2.2,5.4,4.1,8,6.2-1.3-.1-2.7-.3-4-.4-2.6-.2-5.2-.3-7.9-.3-.9,0-2.4.2-3.3-.2-.2,0-.3-.1-.5-.2-3.3-1.4-6-3.2-8.8-5.4Z"/>
      <path class="cls-16" d="m48.5,23.2c.7.1,1.5.2,2.2.3-.2,1.5,0,3.2,0,4.7v8.4s0,25.9,0,25.9v8.1c0,1.5,0,3,0,4.5,0,.2,0,.2,0,.4,0,.5.1,1.5-.1,1.9,0,0-.1.2-.2.2-.3,0-.8-.2-1-.4-.1,0-.3-.2-.4-.4,0-.2-.1-5.5-.1-6.3-.1-5.5,0-11.1,0-16.6v-17.9s0-8.4,0-8.4c0-1.5.1-3.1,0-4.5Z"/>
      <path class="cls-18" d="m15.2,39.7c.2-1,0-3.4,0-4.5v-10.1c0-1.2-.3-2.6,0-3.7.7.7,4.8.7,5.9.7,1.5,0,3.1-.1,4.6-.2.9,0,1.8-.2,2.7-.2,0,0,0,0,0,0-.2.2-.3.4-.3.7,0,.2,0,.4.3.5.6.5,8,.4,9.5.8,0,0-.1,0-.2,0-1,.2-4.3-.5-4.9-.2v.2c0,.2,0,.2-.3.2v.2c-.2.6-.9.8-1.4,1.2-.4.4-.4.7-1.1,1.2,0,0,0,0,0,0h-.1c0,0,0,0,0,0h0c0,0,0,.1,0,.2,0,.2,0,.3-.2.4,0,.1-.1.2-.1.3,0,.2-.1.2-.3.4-.3.2-.9.7-1,1,0,.1,0,.3,0,.5-.2.5-.9.9-1.1,1.4h.1s0,0,0,0c.9,0,1.8,0,2.8,0,1.4,0,5.1-.2,6.3.2-3.7,0-7.5-.1-11.2-.1-1.4,0-2.9-.1-4.3,0-.2,0-.4.1-.6.3h0c-.3,0-.7.5-.9.7-.3.4-.7,1.1-.6,1.6,0,.4.3.7.6.9.4.3.8.4,1.2.4,1.2.1,2.5,0,3.7,0h7.7c-1.7,0-3.4.2-5.1.2-.7,0-2.1-.2-2.7,0h0c0,.1,0,0,0,0v.2c0,0,0,0,0,.1-.4.5-.3.9-1.1,1.1l.2.3c-.2,0-.4,0-.6,0v.6c1.1.5,4-.1,5.5.3h-4.4c-1,0-2.1-.1-3.1,0-.2,0-.4.1-.6.3,0,0,0,.2-.1.3h0c-.4.1-.8.6-1,1-.3.5-.4,1.1-.3,1.7,0,.3.3.6.6.7.9.5,5.2.1,6.6.3,0,0,0,0-.1,0-.8.3-2.2-.3-2.9.2-.2.6-.3,1.3-.8,1.8v.2c.5.4,3.1,0,3.3.2h-.1c-.9,0-4.6-.2-5.2.4-.1.1-.2.3-.3.4-.6.2-.9,1-1.1,1.5v.3c-1.3-2.3-2.6-4.6-3.7-6.9v-.2Z"/>
      <path class="cls-3" d="m13.7,36.4c.6,1,1,2.2,1.5,3.3v.2c1.2,2.3,2.5,4.6,3.6,6.9.1.7.3,1.1.8,1.6.9,0,1.9,0,2.7,0-.7,0-1.4,0-2.1,0,.3.5,1.7,2.6,1.7,2.7h-.8c-.2.1-.5.2-.7.3-.6.3-1.2.9-1.4,1.6-.1.5-.2,1,0,1.5.3.4.7.7,1.2.8,1.3.3,3.3,0,4.6.1.8,0,1.6,0,2.4,0-.8,0-1.5,0-2.3,0,.6.7,2.2,2.3,2.5,3-1.1,0-6.4-.3-7.1,0,0,.1,0,.2,0,.3.3.3.7.7,1,1,1,.1,2,.1,2.9.1h4.6c0,0,0,0,0,0,.3.5.8.8,1.2,1.2h0c.3.4.7.8.8,1.3h.2c.9.9,1.9,1.8,2.9,2.7-3-.1-6,0-9-.1-1.5,0-3.2-.2-4.7-.1-.2,0-.2,0-.3.2-.6.3-1,.8-1.3,1.3,0,.3,0,.6-.1.9.3.8.6,1.2,1.3,1.6.8,0,1.6,0,2.3,0,2.7,2.2,5.5,4,8.8,5.4.2,0,.3.1.5.2.8.3,2.3,0,3.3.2,2.6,0,5.2,0,7.9.3,1.3.1,2.7.3,4,.4.8.4,1.5.7,1.8,1.6-.4-.2-.9-.3-1.4-.4h0c.3.1.6.2.9.3.8.3,1.5,1.3,2.4.7.5-.3.9-.6,1.4-.8h.1c0,.2,0,.4.1.4.5.7,1.8,1,1.2,2.2-.3.7-1.1,1.2-1.8,1.4-1,.3-2.2-.2-3.2,0-.5,0-1.2-.1-1.6-.4-.7-.5-1.1-1.2-1.3-2-2.7-.2-5.5-.2-8.2-.2h-12.8c-1.5,0-3.1,0-4.6,0-1.8,0-3.7-.3-5-1.8-.6-.6-.8-1.2-.9-2.1-.2-1.9,0-3.9,0-5.8v-12.2c0-3.9,0-7.9-.2-11.8,0-2.8-.3-5.6,0-8.3Z"/>
      <path class="cls-8" d="m31.1,62.5c-1.8,0-10.5.2-11.4-.3-.4-.2-.7-.6-.8-1-.1-.6,0-1.3.4-1.8.2-.3.5-.6.8-.7.2,0,.2,0,.3,0,0,.5-.2,1.4.2,1.9.1.2.3.2.5.2,1,.1,2.2,0,3.2,0h6c0,.1,0,.2,0,.2.3.4.7.8.8,1.3Z"/>
      <path class="cls-7" d="m16,59c.3.5.4,1.4.6,2,.5,1.7,1.7,4.1,2.8,5.4,0,.3,0,.6-.1.9.3.8.6,1.2,1.3,1.6.8,0,1.6,0,2.3,0,2.7,2.2,5.5,4,8.8,5.4.2,0,.3.1.5.2.8.3,2.3,0,3.3.2,2.6,0,5.2,0,7.9.3,1.3.1,2.7.3,4,.4.8.4,1.5.7,1.8,1.6-.4-.2-.9-.3-1.4-.4-1.1-.4-3.4-.4-4.6-.5-5.2-.3-10.3-.3-15.5-.2h-5.6c-1,0-2.2.2-3.2,0-.8-.1-1.5-.4-2-1-.4-.4-.8-1-.9-1.5-.3-1.5-.1-3.6-.1-5.1v-9.4Z"/>
    </g>
  </g>
</svg>