<?xml version="1.0" encoding="UTF-8"?>
<svg id="Layer_2" data-name="Layer 2" xmlns="http://www.w3.org/2000/svg" xmlns:xlink="http://www.w3.org/1999/xlink" viewBox="0 0 100 100">
  <defs>
    <style>
      .cls-1 {
        fill: url(#linear-gradient-2);
      }

      .cls-2 {
        fill: url(#radial-gradient-7);
      }

      .cls-3 {
        fill: #0dee31;
      }

      .cls-4 {
        fill: url(#radial-gradient-8);
      }

      .cls-5 {
        fill: url(#radial-gradient-5);
      }

      .cls-6 {
        fill: url(#radial-gradient-4);
      }

      .cls-7 {
        fill: url(#radial-gradient-6);
      }

      .cls-8 {
        fill: url(#radial-gradient);
      }

      .cls-9 {
        fill: url(#radial-gradient-2);
      }

      .cls-10 {
        fill: none;
      }

      .cls-11 {
        fill: url(#radial-gradient-3);
      }

      .cls-12 {
        fill: #05701d;
      }

      .cls-13 {
        fill: url(#linear-gradient-3);
      }

      .cls-14 {
        fill: url(#linear-gradient);
      }

      .cls-15 {
        fill: url(#linear-gradient-4);
      }

      .cls-16 {
        fill: url(#radial-gradient-9);
      }
    </style>
    <radialGradient id="radial-gradient" cx="83.7" cy="78" fx="83.7" fy="78" r="59.9" gradientTransform="translate(105.3 15.3) rotate(90) scale(.6 .7)" gradientUnits="userSpaceOnUse">
      <stop offset=".7" stop-color="#e282bf"/>
      <stop offset=".9" stop-color="#f8aff6"/>
      <stop offset=".9" stop-color="#fbb4fd"/>
    </radialGradient>
    <radialGradient id="radial-gradient-2" cx="83.3" cy="88.8" fx="83.3" fy="88.8" r="39.1" gradientTransform="translate(1.6 18.6) scale(.6)" gradientUnits="userSpaceOnUse">
      <stop offset="0" stop-color="#393d40"/>
      <stop offset=".2" stop-color="#3c3e44"/>
      <stop offset=".4" stop-color="#484451"/>
      <stop offset=".6" stop-color="#5c4e66"/>
      <stop offset=".8" stop-color="#775b83"/>
      <stop offset="1" stop-color="#9a6ca9"/>
      <stop offset="1" stop-color="#9c6dab"/>
    </radialGradient>
    <radialGradient id="radial-gradient-3" cx="29.8" cy="98.4" fx="29.8" fy="98.4" r="59.9" gradientTransform="translate(12.9 -9.7) rotate(-29.7) scale(.6 .7) skewX(.7)" xlink:href="#radial-gradient"/>
    <radialGradient id="radial-gradient-4" cx="29.3" cy="109.2" fx="29.3" fy="109.2" r="39.2" gradientTransform="translate(21.8 84.4) rotate(-120.3) scale(.6) skewX(-.5)" gradientUnits="userSpaceOnUse">
      <stop offset="0" stop-color="#393d40"/>
      <stop offset=".2" stop-color="#3c3e43"/>
      <stop offset=".4" stop-color="#46434e"/>
      <stop offset=".6" stop-color="#584c61"/>
      <stop offset=".8" stop-color="#70587c"/>
      <stop offset=".9" stop-color="#8f679e"/>
      <stop offset="1" stop-color="#9c6dab"/>
    </radialGradient>
    <radialGradient id="radial-gradient-5" cx="39.1" cy="41.5" fx="39.1" fy="41.5" r="59.9" gradientTransform="translate(42.1 78) rotate(-150.3) scale(.6 .7) skewX(-.7)" xlink:href="#radial-gradient"/>
    <radialGradient id="radial-gradient-6" cx="38.8" cy="52.3" fx="38.8" fy="52.3" r="39.1" gradientTransform="translate(69.3 34.1) rotate(120.3) scale(.6) skewX(.5)" gradientUnits="userSpaceOnUse">
      <stop offset="0" stop-color="#393d40"/>
      <stop offset=".3" stop-color="#3b3e42"/>
      <stop offset=".5" stop-color="#43424b"/>
      <stop offset=".6" stop-color="#51485a"/>
      <stop offset=".8" stop-color="#65526f"/>
      <stop offset=".9" stop-color="#7e5e8b"/>
      <stop offset="1" stop-color="#9c6dab"/>
    </radialGradient>
    <linearGradient id="linear-gradient" x1="50" y1="79.4" x2="50" y2="43.3" gradientUnits="userSpaceOnUse">
      <stop offset="0" stop-color="#4f1c24"/>
      <stop offset=".1" stop-color="#342e29"/>
      <stop offset=".3" stop-color="#1d3f2e"/>
      <stop offset=".4" stop-color="#0c4a31"/>
      <stop offset=".6" stop-color="#035133"/>
      <stop offset=".8" stop-color="#005434"/>
    </linearGradient>
    <radialGradient id="radial-gradient-7" cx="83.3" cy="69.4" fx="83.3" fy="69.4" r="18.2" gradientTransform="translate(1.6 18.6) scale(.6)" gradientUnits="userSpaceOnUse">
      <stop offset="0" stop-color="#010201"/>
      <stop offset=".2" stop-color="#041203"/>
      <stop offset="1" stop-color="#0f410a"/>
    </radialGradient>
    <linearGradient id="linear-gradient-2" x1="49.2" y1="76.8" x2="49.2" y2="40.5" gradientTransform="translate(34.9 114.5) rotate(-120)" xlink:href="#linear-gradient"/>
    <radialGradient id="radial-gradient-8" cx="29.4" cy="89.8" fx="29.4" fy="89.8" r="18.2" gradientTransform="translate(21.8 84.4) rotate(-120.3) scale(.6) skewX(-.5)" gradientUnits="userSpaceOnUse">
      <stop offset="0" stop-color="#010201"/>
      <stop offset=".6" stop-color="#0a2c07"/>
      <stop offset="1" stop-color="#0f410a"/>
    </radialGradient>
    <linearGradient id="linear-gradient-3" x1="52.3" y1="77.7" x2="52.3" y2="41.2" gradientTransform="translate(116.6 27.1) rotate(120)" xlink:href="#linear-gradient"/>
    <radialGradient id="radial-gradient-9" cx="38.7" cy="33" fx="38.7" fy="33" r="18.3" gradientTransform="translate(69.3 34.1) rotate(120.3) scale(.6) skewX(.5)" gradientUnits="userSpaceOnUse">
      <stop offset="0" stop-color="#010201"/>
      <stop offset=".2" stop-color="#051403"/>
      <stop offset=".7" stop-color="#0c3408"/>
      <stop offset="1" stop-color="#0f410a"/>
    </radialGradient>
    <linearGradient id="linear-gradient-4" x1="-389.8" y1="129" x2="-368.2" y2="129" gradientTransform="translate(130.4 -343.3) rotate(-59.6)" gradientUnits="userSpaceOnUse">
      <stop offset="0" stop-color="#161501"/>
      <stop offset="1" stop-color="#3a512a"/>
    </linearGradient>
  </defs>
  <g id="Layer_2-2" data-name="Layer 2">
    <circle class="cls-10" cx="50" cy="50" r="50"/>
  </g>
  <g id="Layer_3" data-name="Layer 3">
    <g>
      <path class="cls-8" d="m49.9,48.8l29,40.3c-8.5,5.9-18.6,9.1-29,9.1s-20.5-3.2-28.9-9.1l28.9-40.4Z"/>
      <path class="cls-9" d="m50,48.8l24.3,33.7c-7.1,5.2-15.6,7.9-24.3,7.9s-17.3-2.8-24.3-7.9l24.3-33.7Z"/>
      <path class="cls-11" d="m50,48.9L70.8,3.9c9.4,4.3,17.3,11.4,22.5,20.2s7.5,19.1,6.5,29.4l-49.8-4.6Z"/>
      <path class="cls-6" d="m50,48.8l17.4-37.7c8,3.5,14.7,9.4,19.1,16.8,4.4,7.5,6.2,16.3,5.2,25l-41.7-4.1Z"/>
      <path class="cls-5" d="m50,48.7L.2,53.4c-1-10.2,1.3-20.5,6.5-29.4S19.7,8,29.2,3.8l20.9,45Z"/>
      <path class="cls-7" d="m50,48.8l-41.7,3.9c-1-8.6.8-17.3,5.2-24.8,4.3-7.5,11-13.3,19-16.8l17.5,37.6Z"/>
      <g>
        <path class="cls-14" d="m38.6,64.6l-9.3,12.9c6,4.3,13.3,6.6,20.7,6.6s14.7-2.3,20.7-6.6l-9.4-13c-3.2,2.3-7.1,3.6-11.4,3.6s-8.1-1.3-11.3-3.6Z"/>
        <path class="cls-12" d="m58.1,31.1c-2.5-1.1-5.3-1.8-8.2-1.8s-5.6.6-8.1,1.7l8.1,17.7,8.1-17.6Z"/>
        <path class="cls-12" d="m30.4,50.7c.6,5.7,3.7,10.7,8.2,13.9l11.4-15.8-19.6,1.9Z"/>
        <path class="cls-12" d="m69.4,50.6l-19.4-1.9,11.3,15.7c4.5-3.2,7.5-8.1,8.1-13.8Z"/>
        <path class="cls-2" d="m38.6,64.6c3.2,2.2,7.1,3.6,11.3,3.6s8.2-1.3,11.4-3.6l-11.3-15.7-11.4,15.8Z"/>
        <path class="cls-1" d="m69.5,48.7c0,.6,0,1.3,0,1.9l16.1,1.5c.7-7.3-.9-14.7-4.6-21-3.7-6.4-9.3-11.4-16.1-14.5l-6.7,14.5c6.7,3.1,11.4,9.8,11.4,17.6Z"/>
        <path class="cls-12" d="m69.4,50.6c0-.6,0-1.3,0-1.9,0-7.8-4.7-14.5-11.4-17.6l-8.1,17.6,19.4,1.9Z"/>
        <path class="cls-4" d="m69.4,50.6c0-.6,0-1.3,0-1.9,0-7.8-4.7-14.5-11.4-17.6l-8.1,17.6,19.4,1.9Z"/>
        <path class="cls-13" d="m41.8,31.1l-6.6-14.4c-6.8,3-12.4,8.1-16.1,14.5-3.7,6.4-5.3,13.7-4.6,21l15.9-1.5c0-.6,0-1.3,0-1.9,0-7.9,4.7-14.6,11.5-17.7Z"/>
        <path class="cls-12" d="m41.8,31.1c-6.8,3-11.5,9.8-11.5,17.7s0,1.3,0,1.9l19.6-1.9-8.1-17.7Z"/>
        <path class="cls-16" d="m41.8,31.1c-6.8,3-11.5,9.8-11.5,17.7s0,1.3,0,1.9l19.6-1.9-8.1-17.7Z"/>
      </g>
      <ellipse class="cls-3" cx="49.9" cy="48.8" rx="13" ry="12.9"/>
      <path class="cls-10" d="m57.5,58.9c-2,1.4-4.5,2.2-7.2,2.2s-5.5-.9-7.6-2.5l-21.3,29.9c8.4,5.8,18.4,9,28.6,9s20.1-3.1,28.5-8.9l-21-29.7Z"/>
      <path class="cls-10" d="m55.1,37.3c2.3,1.1,4.2,2.8,5.6,5.1,1.4,2.4,1.9,5.1,1.6,7.7l36.8,3.3c.9-10.1-1.3-20.2-6.4-29-5.1-8.7-12.8-15.7-22-20l-15.5,32.8Z"/>
      <path class="cls-10" d="m37.4,50.2c-.2-2.5.3-5,1.7-7.3s3.6-4.2,6-5.2L29.5,4.5C20.2,8.7,12.4,15.7,7.3,24.5,2.2,33.2,0,43.3.9,53.4l36.5-3.2Z"/>
      <ellipse class="cls-15" cx="49.9" cy="48.9" rx="10.9" ry="10.8"/>
    </g>
  </g>
</svg>