<?xml version="1.0" encoding="UTF-8"?>
<svg id="Layer_2" data-name="Layer 2" xmlns="http://www.w3.org/2000/svg" xmlns:xlink="http://www.w3.org/1999/xlink" viewBox="0 0 100 100">
  <defs>
    <style>
      .cls-1 {
        fill: url(#linear-gradient-2);
      }

      .cls-2 {
        fill: url(#linear-gradient-17);
      }

      .cls-3 {
        fill: #ffca42;
      }

      .cls-4 {
        fill: url(#linear-gradient-15);
      }

      .cls-5 {
        fill: url(#linear-gradient-18);
      }

      .cls-6 {
        fill: url(#linear-gradient-28);
      }

      .cls-7 {
        fill: url(#linear-gradient-14);
      }

      .cls-8 {
        fill: url(#linear-gradient-20);
      }

      .cls-9 {
        fill: url(#linear-gradient-6);
      }

      .cls-10 {
        fill: url(#linear-gradient-35);
      }

      .cls-11 {
        fill: url(#linear-gradient-32);
      }

      .cls-12 {
        fill: #00ffbf;
      }

      .cls-13 {
        fill: url(#linear-gradient-11);
      }

      .cls-14 {
        fill: url(#linear-gradient-10);
      }

      .cls-15 {
        fill: url(#linear-gradient-16);
      }

      .cls-16 {
        fill: url(#linear-gradient-31);
      }

      .cls-17 {
        fill: url(#linear-gradient-21);
      }

      .cls-18 {
        fill: url(#linear-gradient-25);
      }

      .cls-19 {
        fill: url(#linear-gradient-5);
      }

      .cls-20 {
        fill: url(#linear-gradient-34);
      }

      .cls-21 {
        fill: none;
      }

      .cls-22 {
        fill: url(#linear-gradient-7);
      }

      .cls-23 {
        fill: url(#linear-gradient-24);
      }

      .cls-24 {
        fill: url(#linear-gradient-9);
      }

      .cls-25 {
        fill: url(#linear-gradient-22);
      }

      .cls-26 {
        fill: url(#linear-gradient-3);
      }

      .cls-27 {
        fill: #ff5c00;
      }

      .cls-28 {
        fill: url(#linear-gradient);
      }

      .cls-29 {
        fill: url(#linear-gradient-27);
      }

      .cls-30 {
        fill: url(#linear-gradient-33);
      }

      .cls-31 {
        fill: url(#linear-gradient-29);
      }

      .cls-32 {
        fill: url(#linear-gradient-30);
      }

      .cls-33 {
        fill: url(#linear-gradient-23);
      }

      .cls-34 {
        fill: url(#linear-gradient-19);
      }

      .cls-35 {
        fill: url(#linear-gradient-4);
      }

      .cls-36 {
        fill: url(#linear-gradient-8);
      }

      .cls-37 {
        fill: url(#linear-gradient-12);
      }

      .cls-38 {
        fill: url(#linear-gradient-13);
      }

      .cls-39 {
        fill: url(#linear-gradient-26);
      }
    </style>
    <linearGradient id="linear-gradient" x1="63.3" y1="52.5" x2="62.4" y2="50.3" gradientUnits="userSpaceOnUse">
      <stop offset=".3" stop-color="#ffca42"/>
      <stop offset="1" stop-color="#12fbb6"/>
    </linearGradient>
    <linearGradient id="linear-gradient-2" x1="63.4" y1="53.5" x2="63.7" y2="55.4" gradientUnits="userSpaceOnUse">
      <stop offset=".3" stop-color="#ffca42"/>
      <stop offset="1" stop-color="#ff5c00"/>
    </linearGradient>
    <linearGradient id="linear-gradient-3" x1="27.6" y1="29.7" x2="28.3" y2="27" gradientUnits="userSpaceOnUse">
      <stop offset="0" stop-color="#ff5c00"/>
      <stop offset=".6" stop-color="#00ffbf"/>
    </linearGradient>
    <linearGradient id="linear-gradient-4" x1="30.7" y1="43.8" x2="29.9" y2="40.6" gradientUnits="userSpaceOnUse">
      <stop offset=".2" stop-color="#ff5c00"/>
      <stop offset=".5" stop-color="#ff9522"/>
      <stop offset=".7" stop-color="#ffca42"/>
    </linearGradient>
    <linearGradient id="linear-gradient-5" x1="92.9" y1="48" x2="92.4" y2="45.7" gradientUnits="userSpaceOnUse">
      <stop offset="0" stop-color="#ffca42"/>
      <stop offset=".6" stop-color="#00ffbf"/>
    </linearGradient>
    <linearGradient id="linear-gradient-6" x1="17.5" y1="33.7" x2="17.7" y2="27.7" xlink:href="#linear-gradient-5"/>
    <linearGradient id="linear-gradient-7" x1="55.7" y1="16.8" x2="59" y2="16.8" gradientUnits="userSpaceOnUse">
      <stop offset="0" stop-color="#ffca42"/>
      <stop offset=".7" stop-color="#ff5c00"/>
    </linearGradient>
    <linearGradient id="linear-gradient-8" x1="7" y1="44" x2="7.6" y2="39.7" gradientUnits="userSpaceOnUse">
      <stop offset="0" stop-color="#ffca42"/>
      <stop offset="0" stop-color="#f9cb44"/>
      <stop offset=".2" stop-color="#e9ce4c"/>
      <stop offset=".3" stop-color="#cfd359"/>
      <stop offset=".4" stop-color="#aadb6b"/>
      <stop offset=".5" stop-color="#7be582"/>
      <stop offset=".6" stop-color="#41f19e"/>
      <stop offset=".7" stop-color="#00ffbf"/>
    </linearGradient>
    <linearGradient id="linear-gradient-9" x1="77.8" y1="19" x2="79.9" y2="19.9" gradientUnits="userSpaceOnUse">
      <stop offset="0" stop-color="#ffca42"/>
      <stop offset="1" stop-color="#ff5c00"/>
    </linearGradient>
    <linearGradient id="linear-gradient-10" x1="17.9" y1="37.8" x2="18.7" y2="41.2" gradientUnits="userSpaceOnUse">
      <stop offset="0" stop-color="#ffca42"/>
      <stop offset=".2" stop-color="#ffc43e"/>
      <stop offset=".4" stop-color="#ffb435"/>
      <stop offset=".6" stop-color="#ff9a25"/>
      <stop offset=".8" stop-color="#ff750f"/>
      <stop offset="1" stop-color="#ff5c00"/>
    </linearGradient>
    <linearGradient id="linear-gradient-11" x1="86.5" y1="45.8" x2="86" y2="42.9" gradientUnits="userSpaceOnUse">
      <stop offset="0" stop-color="#ff5c00"/>
      <stop offset=".2" stop-color="#ff6204"/>
      <stop offset=".4" stop-color="#ff750f"/>
      <stop offset=".7" stop-color="#ff9421"/>
      <stop offset=".9" stop-color="#ffbe3b"/>
      <stop offset="1" stop-color="#ffca42"/>
    </linearGradient>
    <linearGradient id="linear-gradient-12" x1="93.1" y1="61" x2="93.4" y2="58.1" xlink:href="#linear-gradient-11"/>
    <linearGradient id="linear-gradient-13" x1="7.7" y1="47.3" x2="8.2" y2="50.4" xlink:href="#linear-gradient-10"/>
    <linearGradient id="linear-gradient-14" x1="74.9" y1="66" x2="75.2" y2="61.4" gradientUnits="userSpaceOnUse">
      <stop offset="0" stop-color="#ffca42"/>
      <stop offset="1" stop-color="#00ffbf"/>
    </linearGradient>
    <linearGradient id="linear-gradient-15" x1="83.9" y1="37.6" x2="80.1" y2="32.4" xlink:href="#linear-gradient-5"/>
    <linearGradient id="linear-gradient-16" x1="-842.8" y1="556.8" x2="-842.6" y2="556.8" gradientTransform="translate(12374.4 8147.4) scale(14.6 -14.6)" xlink:href="#linear-gradient-10"/>
    <linearGradient id="linear-gradient-17" x1="48.4" y1="18.4" x2="54.9" y2="17.1" gradientUnits="userSpaceOnUse">
      <stop offset="0" stop-color="#00ffbf"/>
      <stop offset=".5" stop-color="#a1dd70"/>
      <stop offset="1" stop-color="#feca42"/>
    </linearGradient>
    <linearGradient id="linear-gradient-18" x1="-842.9" y1="553" x2="-843.3" y2="553" gradientTransform="translate(12374.4 8147.4) scale(14.6 -14.6)" xlink:href="#linear-gradient"/>
    <linearGradient id="linear-gradient-19" x1="-842" y1="553.8" x2="-842.3" y2="554.3" gradientTransform="translate(12374.4 8147.4) scale(14.6 -14.6)" gradientUnits="userSpaceOnUse">
      <stop offset="0" stop-color="#ff5c00"/>
      <stop offset=".7" stop-color="#ffca42"/>
    </linearGradient>
    <linearGradient id="linear-gradient-20" x1="70.5" y1="17.7" x2="77.6" y2="17.7" gradientUnits="userSpaceOnUse">
      <stop offset="0" stop-color="#00ffbf"/>
      <stop offset="1" stop-color="#feca42"/>
    </linearGradient>
    <linearGradient id="linear-gradient-21" x1="-844.7" y1="554.8" x2="-844.6" y2="555.4" gradientTransform="translate(12374.4 8147.4) scale(14.6 -14.6)" gradientUnits="userSpaceOnUse">
      <stop offset="0" stop-color="#feca42"/>
      <stop offset=".6" stop-color="#00ffbf"/>
    </linearGradient>
    <linearGradient id="linear-gradient-22" x1="-840.2" y1="554.7" x2="-840.7" y2="555.2" gradientTransform="translate(12374.4 8147.4) scale(14.6 -14.6)" gradientUnits="userSpaceOnUse">
      <stop offset="0" stop-color="#ff5c00"/>
      <stop offset="1" stop-color="#ffca42"/>
    </linearGradient>
    <linearGradient id="linear-gradient-23" x1="-844.2" y1="553.5" x2="-844.6" y2="553.8" xlink:href="#linear-gradient-19"/>
    <linearGradient id="linear-gradient-24" x1="-845.1" y1="553.3" x2="-845.5" y2="553.6" xlink:href="#linear-gradient-19"/>
    <linearGradient id="linear-gradient-25" x1="60.9" y1="61.2" x2="54.9" y2="65.7" gradientTransform="matrix(1,0,0,1,0,0)" xlink:href="#linear-gradient-19"/>
    <linearGradient id="linear-gradient-26" x1="82.9" y1="59.6" x2="82.3" y2="56.5" xlink:href="#linear-gradient-11"/>
    <linearGradient id="linear-gradient-27" x1="11.4" y1="67.5" x2="23.9" y2="79" gradientUnits="userSpaceOnUse">
      <stop offset=".2" stop-color="#ffca42"/>
      <stop offset=".6" stop-color="#ff5c00"/>
    </linearGradient>
    <linearGradient id="linear-gradient-28" x1="14.9" y1="47.4" x2="20.3" y2="55.6" gradientUnits="userSpaceOnUse">
      <stop offset="0" stop-color="#00ffbf"/>
      <stop offset=".7" stop-color="#ffca42"/>
    </linearGradient>
    <linearGradient id="linear-gradient-29" x1="56.2" y1="34.6" x2="68.2" y2="46.2" gradientUnits="userSpaceOnUse">
      <stop offset=".3" stop-color="#00ffbf"/>
      <stop offset="1" stop-color="#ffca42"/>
    </linearGradient>
    <linearGradient id="linear-gradient-30" x1="77.2" y1="43.4" x2="64.6" y2="31.3" xlink:href="#linear-gradient-5"/>
    <linearGradient id="linear-gradient-31" x1="46.4" y1="12.5" x2="55.7" y2="12.5" xlink:href="#linear-gradient-17"/>
    <linearGradient id="linear-gradient-32" x1="7.1" y1="52.9" x2="5" y2="41.1" xlink:href="#linear-gradient-5"/>
    <linearGradient id="linear-gradient-33" x1="26.9" y1="26.1" x2="27.8" y2="39" gradientUnits="userSpaceOnUse">
      <stop offset="0" stop-color="#00ffbf"/>
      <stop offset="1" stop-color="#ffca42"/>
    </linearGradient>
    <linearGradient id="linear-gradient-34" x1="52.9" y1="91" x2="76.2" y2="68.3" gradientUnits="userSpaceOnUse">
      <stop offset="0" stop-color="#ff5c00"/>
      <stop offset="1" stop-color="#ffca42"/>
    </linearGradient>
    <linearGradient id="linear-gradient-35" x1="60.7" y1="22.6" x2="79.6" y2="26.8" xlink:href="#linear-gradient-33"/>
  </defs>
  <g id="Layer_2-2" data-name="Layer 2">
    <circle class="cls-21" cx="50" cy="50" r="50"/>
  </g>
  <g id="Layer_3" data-name="Layer 3">
    <g>
      <path class="cls-27" d="m80.8,19.3c.5.5,1.3,1.3,1.2,2.1,0,.1,0,.2,0,.3-.3.2-.4.3-.8.3-.3,0-.6-.1-.8-.2.4-.6.4-1.7.5-2.5Z"/>
      <path class="cls-27" d="m27.4,34.7c0,1.1.2,2.4-.3,3.4h-.2c-.6-.7-.6-2.2-.7-3.1.2.3.4.5.7.6.1-.3.3-.6.5-.9Z"/>
      <path class="cls-3" d="m85,37.3c.3.5.5,1.1.8,1.6-.7.5-1.1.7-2,.7l-.8-1.4c.9-.1,1.4-.2,2-.9Z"/>
      <path class="cls-12" d="m67.7,18.5c-.5,0-1.4-.2-1.7-.6-.2-.3-.2-.4-.2-.8.5-.9,1.2-1.1,2.1-1.5,0,1,0,1.9-.1,2.9Z"/>
      <path class="cls-3" d="m92.9,54.4c.1.2.2.3.4.4.4.1.9.2,1.3.2v2.7c-.6-.1-1.2-.4-1.8-.7v-2.6Z"/>
      <path class="cls-28" d="m63.1,49.7c.4.9.7,2,.9,3-.5.3-1,.4-1.5.4l-.8-2.3c0,0,.2,0,.2,0,.5-.2.8-.6,1.2-1Z"/>
      <path class="cls-3" d="m85.7,38.9c.2.8.5,1.6.8,2.4-.7.2-1.2.4-1.6,1-.3-.9-.7-1.8-1.1-2.7.9,0,1.3-.2,2-.7Z"/>
      <path class="cls-27" d="m26.2,35c0-1.1-.2-2.4,0-3.4.5.2,1,0,1.5,0-.2,1-.3,2.1-.4,3.1-.2.3-.4.6-.5.9-.3,0-.5-.3-.7-.6Z"/>
      <path class="cls-1" d="m64,52.7c.2.9.7,3.2.2,4,0,0,0,0,0,.1-.4-.1-.5-.3-.7-.7-.5-.9-.7-2-1-3,.5,0,1.1-.1,1.5-.4Z"/>
      <path class="cls-3" d="m81.6,46.8c.5.8.8,1.6,1.2,2.5-.6.6-1.3.8-2.1.9h-.3c0-.1-1.1-2.1-1.1-2.1.6,0,1.2-.1,1.7-.4.3-.2.6-.5.7-.8Z"/>
      <path class="cls-26" d="m27.1,27.5c.4.3,1.5.8,1.9.7-.6,1.1-1,2.2-1.2,3.5-.5,0-1,.1-1.5,0,0-1.4.4-2.7.8-4.1Z"/>
      <path class="cls-35" d="m28.6,40.2c.8,0,1.5.4,2.3.3.3.9.6,1.7,1,2.5-.7.2-1.3.9-1.9,1.4-.6-1.4-1.1-2.7-1.3-4.3Z"/>
      <path class="cls-27" d="m38.7,68.4h0c1.8.9,3.5,2.1,5.2,3.2-.8.4-1.4.6-1.8,1.4-1.6-1.2-2.8-2.7-3.5-4.6Z"/>
      <path class="cls-19" d="m91.4,42.4c1,1.8,1.8,3.6,2.4,5.6-.3.9-.7.7-.7,1.8-.4,0-.5-.4-.8-.6-.5-2.3-1-4.5-.9-6.8Z"/>
      <path class="cls-9" d="m17,35.4c-.2-1.6-.3-7.4.6-8.6,0,0,0,0,0,0,.3.3.3.7.3,1.1,0,2.6-.2,5.1,0,7.7h-1.1Z"/>
      <path class="cls-12" d="m49.6,16.9c.2.7-.2,2.9.2,3.2-.6.5-2.6,1.7-3.3,1.8-.3,0-.3,0-.5-.2,0-.1,0-.3,0-.4.2-1.7,2.4-3.4,3.6-4.4Z"/>
      <path class="cls-27" d="m62.9,10c1,.7,2.3,1.5,2.7,2.8,0,.4,0,.5-.4.7-1.3.4-2.8-.3-4.1-.6.5-.2.9-2.4,1.7-3Z"/>
      <path class="cls-3" d="m93.8,48c.5,2.3.8,4.6.8,7-.4,0-.9,0-1.3-.2-.3,0-.3-.2-.4-.4,0-1.7-.3-3.5-.6-5.2.3.2.5.6.8.6,0-1.1.4-.9.7-1.8Z"/>
      <path class="cls-22" d="m54.2,15.2c1.3-.2,4.1-.2,5.1.6.3.2.3.4.4.7,0,.4-.3.7-.6.9-1.1.7-2.8.9-4,1.1.2-1,.7-2.2,1-3.2h-1.9Z"/>
      <path class="cls-3" d="m78.8,42.5c1.1,1.4,2,2.8,2.8,4.4-.1.4-.4.6-.7.8-.5.3-1.1.4-1.7.4-.6-.9-1.2-1.8-1.9-2.7.6-.4,1.3-.7,1.8-1.2.1-.6-.2-1.1-.4-1.7Z"/>
      <path class="cls-36" d="m8,35.5c.1,3.2-.3,6.4,0,9.6-.6,0-1.1,0-1.5-.6-.1-3.2-.2-6.2,1.5-9.1Z"/>
      <path class="cls-12" d="m61.7,50.8c-.9-1.6-2.7-3-2.9-4.9,0,0,0-.3.2-.3.4-.2.9,0,1.3.2,1.6.7,2.4,2.4,2.9,3.9-.4.4-.7.9-1.2,1,0,0-.2,0-.2,0Z"/>
      <path class="cls-12" d="m67.8,15.6c1.5-.4,3-.5,4.5-.4-.8.8-1.9,1.9-1.9,3,0,.2,0,.5.2.7-.9,0-2-.3-2.9-.4,0-1,0-1.9.1-2.9Z"/>
      <path class="cls-24" d="m77.6,17c1.2.7,2.2,1.4,3.2,2.3,0,.7,0,1.9-.5,2.5-1.5-.5-2.9-1.1-4.4-1.6,1.2-.8,1.3-1.9,1.6-3.2Z"/>
      <path class="cls-14" d="m17,35.4h1.1c.6,3.6,2,7.1,2.1,10.6-2.2-3.2-3-6.8-3.2-10.6Z"/>
      <path class="cls-13" d="m86.5,41.3c.5,1.6,1.9,7.2,1.1,8.6,0,0,0,.1-.1.2-.3-.1-.3-.1-.4-.4-1-2.3-1.2-5-2.1-7.3.5-.6.9-.8,1.6-1Z"/>
      <path class="cls-3" d="m82.8,49.3c1.1,2.7,2.3,6,2.5,9h-.1c-.6-.8-.5-2.5-.8-3.4-.1-.3-.2-.6-.5-.8-.6.1-1.1.7-1.4,1.2-.5-1.8-1.3-3.5-2.1-5.2h.3c.8,0,1.5-.2,2.1-.8Z"/>
      <path class="cls-37" d="m92.8,57c.6.2,1.1.5,1.7.7,0,.9-.2,1.8-.3,2.7-.3,1.5-1.2,5.4-2.4,6.3l-.2-.2c-.2-1.6.4-3.5.7-5.1.2-1.4.4-2.9.5-4.3Z"/>
      <path class="cls-38" d="m6.5,44.6c.4.5.9.5,1.5.6.5,3.5,1.8,6.7,1.7,10.3-2.1-3.2-2.9-7.1-3.1-10.8Z"/>
      <path class="cls-7" d="m74.8,65.1c0-2,0-4-.1-6,0-1.4-.3-3-.2-4.4h.1c1.5,2,1.6,9.5,1.4,12.2-.6.8,0,1.9-.5,2.8l-.5-.2c-.7-1.2.7-3-.1-4.5h0Z"/>
      <path class="cls-27" d="m31.8,43c.6,1.1,3.9,5.9,3.6,6.8,0,0,0,0,0,.1-.3.1-.5,0-.8-.1-2.1-1-3.6-3.4-4.6-5.4.6-.5,1.2-1.2,1.9-1.4Z"/>
      <path class="cls-12" d="m45.7,16c-1.1.7-5.6,3.8-6.6,3.6l-.2-.3c0-.2,0-.4.1-.7,1.1-3.2,5.5-6.8,8.5-8.2,0,0,0,0,0,0-.6,1.1-2.7,1.8-3.7,2.8-.4.5-.4,1.8-.4,2.4,0,.3,0,.6.1.8h.2c.8-.2,1.1-.7,2-.6Z"/>
      <path class="cls-4" d="m83,38.2c-1.2-1.6-2.6-3.1-3.7-4.8-.3-.5-.9-1.3-.8-2,.3-.1.4-.1.7,0,2.6.9,4.5,3.5,5.7,5.9-.6.7-1.1.8-2,.9Z"/>
      <path class="cls-15" d="m58.5,8.4c1.5.3,3.1.8,4.4,1.7-.8.6-1.3,2.7-1.7,3-1.5-.2-3-.2-4.5-.2.1,0,.3,0,.4-.1.5-.2.4-.8.4-1.3,0-1.6.6-1.7,1-3Z"/>
      <path class="cls-3" d="m28.2,48.1c1.6,2.1,3.3,3.9,5.1,5.8-.6.7-1.9,1.3-2.4,2.1-1.7-1.3-3.2-3.6-4.5-5.4h0c.6-.2,1.3-.3,1.6-.9.3-.6.2-1,0-1.6Z"/>
      <path class="cls-2" d="m49.6,16.9c1.6-1,2.9-1.4,4.7-1.7h1.9c-.3,1.1-.8,2.2-1,3.3-1.9.3-3.6.9-5.3,1.7-.4-.3,0-2.5-.2-3.2Z"/>
      <path class="cls-5" d="m54.6,68.5c-1.2,0-2.7.2-3.8,0-.8-.2-2.1-.6-2.6-1.3-.2-.3-.1-.4,0-.7,1.3-1.4,4.5-1.5,6.3-1.8.5.2,1,.4,1.3.9,0,.4.1.6-.1,1-.4.6-1,1.2-1,1.9Z"/>
      <path class="cls-34" d="m64,39c4.4,4.3,6.3,11.7,6.3,17.7,0,.8,0,1.5-.1,2.3-.1-1,0-4.1-.6-4.7-.4,0-.9.3-1.3.6,0,.2.2.3.2.5.2.8-.2,1.6-.6,2.3.3-3.4-.5-6.7-1.6-9.9.3-.6,1.2-.6,1.8-1v-.3c-.8-1.1-1.7-3.3-2.6-4.7-.5-.8-1.5-1.7-1.7-2.7Z"/>
      <path class="cls-12" d="m27.1,27.5c1.3-3.2,3.4-6,6.6-7.4.5-.2.9-.3,1.4-.3,0,0,.2.1.2.2,0,.4-.2.8-.4,1.1-.5.7-1.1,1.3-1.7,1.8-1.6,1.5-3.3,3.1-4.2,5.2-.5.1-1.5-.4-1.9-.7Z"/>
      <path class="cls-8" d="m72.3,15.2c1.8.4,3.6.9,5.3,1.8-.3,1.3-.5,2.4-1.6,3.2-1.7-.7-3.6-1-5.4-1.3,0-.2-.2-.4-.2-.7,0-1.2,1.1-2.3,1.9-3Z"/>
      <path class="cls-17" d="m30.9,31.1c.8.5,1.8,1.1,2.7.8.3,0,.6-.2.8-.3-1.9,2.3-4.1,4.9-3.8,8.1,0,.3,0,.6.2.9-.7,0-1.5-.3-2.3-.3,0-3.5.4-6.1,2.4-9.1Z"/>
      <path class="cls-25" d="m91.7,33.2c1.7,2.2,4.4,6.1,4.8,8.9h-.2c-.2-.3-.3-.7-.5-1.2h-.2c-.5.4-.8,1.2-1,1.8-1.4-3.1-3.3-5.6-5.5-8.1.7-.5,1.8-1.3,2.6-1.4Z"/>
      <path class="cls-33" d="m33.3,53.9c2.6,2.1,5,3.9,8,5.3-.8.2-1.6-.4-2.3-.8-.5.5-2.1,1.3-2.2,1.9.4.3,2.1,1.1,2.3,1.6-2.1-.4-6.5-4.3-8.1-5.8.4-.8,1.7-1.4,2.4-2.1Z"/>
      <path class="cls-3" d="m78.9,23.2c4.7,1.9,9.9,6,12.8,10.1-.9,0-1.9.9-2.6,1.4-2-2-4.2-3.7-6.5-5.2.7,0,1.2.5,2,.5.7-.2,1.2-1.1,1.7-1.6-1.9-2.1-6.2-3.7-7.4-5.1Z"/>
      <path class="cls-23" d="m15.7,54.9c.6.5,1.3,1.7,1.8,1.9.7.4,1.6.3,2.2.8h-.1c-.4,0-1.2,0-1.5.1,0,.3.4.5.6.7.6.4,1.8.4,2.6.2.2,0,.3-.1.4-.2.1-.1.3-.3.4-.4,1.7,1.4,3.4,2.8,5.2,4-.7.5-1.4.6-2.2.7-.3.4-.6.9-.8,1.4-3.4-2.4-6.5-5.6-8.5-9.2Z"/>
      <path class="cls-18" d="m62,56.4c.1,3.4-.3,7.2-2.7,9.7-1.3,1.4-2.9,2-4.7,2.3,0-.8.6-1.3,1-1.9.2-.4.2-.6.1-1-.3-.5-.8-.6-1.3-.9,2.1-.4,4-1.2,5.2-3,1-1.6,1.5-3.5,2.3-5.2Z"/>
      <path class="cls-12" d="m30.9,31.1c1.7-2.3,6.5-6.3,9.5-6.7.3,0,.5,0,.8.1,0,.2.2.2.1.4-.3,1.3-5.5,5.6-6.8,6.7-.3.1-.5.2-.8.3-1,.3-1.9-.3-2.7-.8Z"/>
      <path class="cls-27" d="m27.3,62.1c1.5,1,7.9,4.4,8.3,6.1,0,.1,0,.2-.1.3-1,.5-3-.2-3.9-.5-2.6-.9-5-2.2-7.3-3.8.2-.5.5-.9.8-1.4.8-.1,1.5-.2,2.2-.7Z"/>
      <path class="cls-39" d="m82.4,55.2c.4-.5.8-1,1.4-1.2.3.2.4.5.5.8.3,1,.2,2.6.8,3.4h.1s0,.1,0,.1c.7,3.6,0,11.5-2.1,14.5-.2.3-.2.4-.6.5-.2-1.3.3-2.9.4-4.2.6-4.8.7-9.3-.6-14Z"/>
      <path class="cls-29" d="m7.4,63.8c1.5.7,3.5,6.2,5.2,5.6.3-.5.6-.9,1-1.3.1-.3,0-.5,0-.9,1,1.1,2.1,2.1,3.2,3.1.7.6,2.7,2,3.2,2.7l.3.6c-.4.8-1.6,1.3-1.4,2.3,1,1.1,5.3,3.5,5.5,4-6.1-2.9-13.9-10-17-16.1Z"/>
      <path class="cls-27" d="m94.6,42.8c.2-.7.5-1.4,1-1.9h.2c.1.5.3,1,.5,1.4h.2c2.8,6.9,2.3,16.2-.7,23.1-.2.5-.5,1.1-.8,1.6,0-2.4.7-4.7,1.1-7,.9-5.7.6-11.7-1.5-17.1Z"/>
      <path class="cls-6" d="m12.7,37.6c1.3,7.9,3.2,15,9.4,20.5-.1.1-.3.3-.4.4-.1.1-.2.2-.4.2-.7.2-1.9.2-2.6-.2-.3-.2-.6-.4-.6-.7.4-.2,1.1,0,1.5,0h.1c-.6-.7-1.5-.6-2.2-1-.5-.3-1.2-1.5-1.8-1.9-2.9-5.1-4.2-11.6-3-17.3Z"/>
      <path class="cls-31" d="m66.4,47.6c-2.2-4.8-6-9.1-10.3-12.1-1.4-1-3.7-2.1-4.6-3.5,0-.3,0-.3.3-.5.4-.1.7,0,1.1,0,3.4.6,8,4.8,10.9,7.3s.3.3.5.4c.8.8,1.4,1.6,1.9,2.3.9,1.4,2.2,3.6,2.1,4.8v.3c-.6.4-1.5.3-1.8,1Z"/>
      <path class="cls-32" d="m61.7,31.8c1-.2,1.7-.3,2.7,0,5.2,1.1,11.5,6.4,14.4,10.8.2.6.5,1.1.4,1.7-.5.5-1.2.8-1.8,1.2-2.6-3.4-6-6.6-9.5-9.1-2.1-1.5-4.2-2.6-6.1-4.5Z"/>
      <path class="cls-16" d="m54.4,8.2c1.4-.2,2.7,0,4.1.1-.5,1.3-1,1.4-1,3,0,.5.2,1.1-.4,1.3-.1,0-.3,0-.4.1h-1.1c-3.6.5-6.6,1.8-9.9,3.3-.9,0-1.2.5-2,.8h-.2c0-.4-.1-.7-.1-1,0-.6,0-2,.4-2.4.9-1,3.1-1.7,3.7-2.8,0,0,0,0,0,0,.5-.3,1.1-.6,1.6-.8.6-.3,1.1-.5,1.7-.7.6-.2,1.2-.4,1.8-.5.6-.1,1.2-.2,1.8-.3Z"/>
      <path class="cls-12" d="m53.2,25.3c-1.5.7-3.2,1.2-4.7,1.9-3.5,1.7-6.4,4.4-8.8,7.4-1,1.3-1.8,2.6-2.9,3.8h-.2s0,0,0-.1c-.3-.9,1.3-3.9,1.8-4.8,4-6.8,10.4-11,17.9-12.9l-.3.5c.5,1.2.9,1.6.3,2.9,0,.2-.1.3-.3.3-.8.3-1.9.4-2.8.7v.3Z"/>
      <path class="cls-27" d="m41.2,59.2c4,1.3,8.3,2,12.3,0,1.5-.8,2.8-1.7,4-2.9.5-.5,1-1.2,1.6-1.6.3-.2.3-.2.7-.1.2.4,0,.7-.1,1.1-1.6,3.4-4.8,6.3-8.3,7.5-3.9,1.4-8.1.8-11.8-1-.2-.1-.4-.2-.6-.4-.2-.4-1.8-1.2-2.3-1.6.2-.6,1.7-1.4,2.2-1.9.7.3,1.6,1,2.3.8Z"/>
      <path class="cls-11" d="m7.4,63.8c-.7-.8-1.3-2.1-1.8-3.1-.3-.7-.6-1.3-.9-2-.3-.7-.6-1.4-.8-2.1-.2-.7-.5-1.4-.7-2.1-.2-.7-.4-1.4-.6-2.2-.2-.7-.3-1.5-.4-2.2-.1-.7-.2-1.5-.3-2.2,0-.7-.1-1.5-.2-2.2,0-.7,0-1.5,0-2.2,0-5.6,1.5-13,5.1-17.4-.8,3.4-2,6.7-2.7,10.1-.1.5-.2,1-.3,1.6,0,.5-.1,1-.2,1.6,0,.5,0,1.1-.1,1.6,0,.5,0,1.1,0,1.6,0,.5,0,1.1,0,1.6,0,.5,0,1.1,0,1.6,0,.5.1,1.1.2,1.6,0,.5.2,1,.2,1.6,0,.5.2,1,.3,1.6.1.5.3,1,.4,1.5.1.5.3,1,.5,1.5.2.5.3,1,.5,1.5.2.5.4,1,.6,1.5.2.5.4,1,.7,1.4.2.5.5.9.7,1.4.3.5.5.9.8,1.4,1.5,2.4,3.3,4.4,5,6.6,0,.3.1.5,0,.9-.5.4-.7.8-1,1.3-1.7.5-3.8-4.9-5.2-5.6Z"/>
      <path class="cls-30" d="m25.2,48.7c-2.9-4.4-4.7-9.9-4.9-15.2-.2-5,1.2-9.9,4.6-13.7,1.5-1.6,5.5-4.7,7.8-4.8.3,0,.3,0,.5.2,0,.4-.2.7-.5,1-.9.8-2.1,1.4-3,2.2-3.2,2.4-5.8,5.7-6.8,9.7-1.6,6.2.9,12.8,4,18.1.4.6,1,1.3,1.3,1.9.2.6.3,1,0,1.6-.3.6-1,.8-1.6.9h0c-.4-.6-.9-1.2-1.2-1.9Z"/>
      <path class="cls-3" d="m26.9,46.2c.4.6,1,1.3,1.3,1.9.2.6.3,1,0,1.6-.3.6-1,.8-1.6.9h0c-.4-.6-.9-1.2-1.2-1.9.5,0,.8.9,1.2,1.2.4,0,.6-.1.8-.4,1.4-1.4-.4-1.9-.4-3.2h0Z"/>
      <path class="cls-27" d="m20,73c6.3,4.1,12.4,7.4,19.9,8.6,3.1.5,9.3.8,9.4.9,0,0,0,.3,0,.3-.2.6-.4.7-1,.9-5.1,2.4-13.4.7-18.5-1.2-1.4-.5-4.4-1.7-5.5-2.7-.2-.5-4.5-2.9-5.5-4-.2-1,.9-1.5,1.4-2.3l-.3-.6Z"/>
      <path class="cls-20" d="m74.8,65.1h0c.8,1.5-.6,3.3.1,4.5l.5.2c.4-.9,0-1.9.5-2.8.1,4.6-1.2,9.8-3.6,13.8-3,5-8.2,8.3-13.7,9.8-2.8.7-12.6,2.2-14.9.7-.3-.2-.3-.2-.3-.5.2-.4.3-.4.7-.5,1.8-.5,3.8-.6,5.6-.9,3.1-.5,6.3-1.1,9.2-2.1,3.1-1,6.1-2.4,8.6-4.5,5.4-4.7,6.8-10.8,7.3-17.6Z"/>
      <path class="cls-10" d="m56.3,20.6c.8-.2,1.6-.3,2.4-.4.8-.1,1.6-.2,2.4-.3.8,0,1.6-.1,2.4-.1.8,0,1.6,0,2.4,0,.8,0,1.6.1,2.4.2.8,0,1.6.2,2.4.4.8.2,1.6.3,2.3.5.8.2,1.5.4,2.3.7,1.1.4,2.6.8,3.6,1.4,0,0,0,0,0,0,1.2,1.4,5.5,3,7.4,5.1-.4.5-1,1.5-1.7,1.6-.8,0-1.3-.5-2-.5-1.7-.7-3.2-1.8-4.8-2.4-8.3-3.4-15.9-3.7-24.5-1.6v-.3c1-.3,2.1-.3,2.9-.7.2,0,.2-.2.3-.3.6-1.3.1-1.7-.3-2.9l.3-.5Z"/>
      <path class="cls-27" d="m68,57.5c.4-.6.8-1.5.6-2.3,0-.2-.1-.3-.2-.5.4-.2.8-.6,1.3-.6.6.6.4,3.7.6,4.7,0,1.6-.5,3.1-.9,4.6-1.2,4.1-3,7.5-6.1,10.5-2.6,2.5-6.2,4.1-9.8,4-4.4,0-8-2.2-11.2-4.9.4-.9,1-1.1,1.8-1.4,2.2,1.3,4.8,2.3,7.4,2.5.2,0,.4,0,.7,0,.2,0,.4,0,.7,0,.2,0,.4,0,.7,0,.2,0,.4,0,.7,0,.2,0,.4,0,.7,0s.4,0,.7-.1c.2,0,.4,0,.7-.1.2,0,.4-.1.6-.2.2,0,.4-.1.6-.2.2,0,.4-.2.6-.2.2,0,.4-.2.6-.3.2,0,.4-.2.6-.3.2-.1.4-.2.6-.3.2-.1.4-.2.6-.4.2-.1.4-.2.5-.4.2-.1.4-.3.5-.4,4.1-3.3,6.1-8.6,6.7-13.7Z"/>
    </g>
  </g>
</svg>