<?xml version="1.0" encoding="UTF-8"?>
<svg id="Layer_2" data-name="Layer 2" xmlns="http://www.w3.org/2000/svg" xmlns:xlink="http://www.w3.org/1999/xlink" viewBox="0 0 100 100">
  <defs>
    <style>
      .cls-1 {
        fill: rgba(115, 26, 2, 1);
      }

      .cls-2 {
        fill: url(#linear-gradient-2);
      }

      .cls-3 {
        fill: #de5e04;
      }

      .cls-4 {
        fill: #fd9434;
      }

      .cls-5 {
        fill: #fbf2de;
      }

      .cls-6 {
        fill: #b73f00;
      }

      .cls-7 {
        fill: #a33800;
      }

      .cls-8 {
        fill: #731a02;
      }

      .cls-9 {
        clip-path: url(#clippath);
      }

      .cls-10 {
        fill: #fce892;
      }

      .cls-11 {
        fill: none;
      }

      .cls-12 {
        fill: #521101;
      }

      .cls-13 {
        fill: url(#linear-gradient-3);
      }

      .cls-14 {
        fill: url(#linear-gradient);
      }

      .cls-15 {
        fill: url(#linear-gradient-4);
      }

      .cls-16 {
        fill: #ffac58;
      }
    </style>
    <linearGradient id="linear-gradient" x1="1" y1="42.9" x2="94.6" y2="56.5" gradientUnits="userSpaceOnUse">
      <stop offset="0" stop-color="#3e1006"/>
      <stop offset="1" stop-color="#9a3500"/>
    </linearGradient>
    <clipPath id="clippath">
      <ellipse class="cls-11" cx="50" cy="50" rx="50" ry="30"/>
    </clipPath>
    <linearGradient id="linear-gradient-2" x1="73.1" y1="54.8" x2="90.3" y2="33.4" gradientTransform="translate(0 102) scale(1 -1)" gradientUnits="userSpaceOnUse">
      <stop offset="0" stop-color="#a83500"/>
      <stop offset="1" stop-color="#2f0706"/>
    </linearGradient>
    <linearGradient id="linear-gradient-3" x1="96.2" y1="54.5" x2="96.7" y2="51.7" gradientTransform="translate(0 102) scale(1 -1)" gradientUnits="userSpaceOnUse">
      <stop offset="0" stop-color="#d04400"/>
      <stop offset="1" stop-color="#ee6205"/>
    </linearGradient>
    <linearGradient id="linear-gradient-4" x1=".4" y1="47.6" x2="69.2" y2="57.6" gradientTransform="translate(0 102) scale(1 -1)" xlink:href="#linear-gradient"/>
  </defs>
  <g id="Layer_2-2" data-name="Layer 2">
    <circle class="cls-11" cx="50" cy="50" r="50"/>
  </g>
  <g id="Layer_3" data-name="Layer 3">
    <ellipse class="cls-14" cx="50" cy="50" rx="50" ry="30"/>
    <g class="cls-9">
      <g>
        <path class="cls-12" d="m92.5,37.2c.3.1.7.3.9.6,2.7,1.7,5.5,4.9,6.2,8,.2.8.5,2.6,0,3.4,0,0,0,0,0,0,0,0,0,0,0,0,0-.6-2-4.2-2.5-4.6.2-1.5-3.9-5.5-4.6-7.3Z"/>
        <path class="cls-12" d="m70.2,71.2c2.2-.8,3.6.3,5.7-1.9,0-1.7,2.8-3.6,2.9-4.8,0,0,0-.1,0-.2,0,0,0,0,0,0h.1c.4,1.1-2.7,3.9-2.7,4.9,0,.1,0,.3,0,.4l-.4.3.2.2c-2.6,2-4,4.9-6,7.5.1.4.4.3.3.7-1.3.5-4.4.9-5.8,1.1-1.4.2-2.8.4-4.3.5-1.4.1-2.8.2-4.3.3-1.4,0-2.9.1-4.3.1-1.4,0-2.9,0-4.3,0-1.4,0-2.9-.1-4.3-.2-1.4-.1-2.8-.3-4.3-.4-1.4-.2-2.8-.4-4.2-.6-1.4-.2-2.8-.5-4.2-.8-.2-.3-.2-.7-.4-1-1.2-1.9-3.3-4.3-3.7-6.5,1.9-.1,3.9.1,5.4,1.4.4.3.9.9.9,1.4,0,.6-.3,1.4-.6,2,.8.2,2.3-.1,3.3-.1,1.2,0,4.3.5,5.3.2,3.1,0,6.3,1.1,9.4,1,1.2,0,2.5-.3,3.7-.7.4-.2,1-.5,1.4-.6.3,0,.7,0,1,0l.2-.2c1.5-.7,3.5-.6,5.1-.6,0,0,0,0,0,0,1.3.5,2.3,1.7,3.6,2.2.9.3,1.2.2,2-.1.2.2.4.4.7.5,1.2-.3.4-4,1-5,.3-.5.9-.3,1.2-.7Z"/>
        <path class="cls-8" d="m70.2,71.2c2.2-.8,3.6.3,5.7-1.9,0-1.7,2.8-3.6,2.9-4.8,0,0,0-.1,0-.2,0,0,0,0,0,0h.1c.4,1.1-2.7,3.9-2.7,4.9,0,.1,0,.3,0,.4l-.4.3c-6,4-2.3,9.1-11.7,7.2-.2,0-.4,0-.6-.1-.2-.5-.9-1.4-1.4-1.6-1.7-.8-3.9,0-5.7-.3,1.5-.7,3.5-.6,5.1-.6,0,0,0,0,0,0,1.3.5,2.3,1.7,3.6,2.2.9.3,1.2.2,2-.1.2.2.4.4.7.5,1.2-.3.4-4,1-5,.3-.5.9-.3,1.2-.7Z"/>
        <path class="cls-2" d="m91.3,36.3c.3.1,1,.4,1.2.8,0,0,0,0,0,.1.7,1.8,4.8,5.9,4.6,7.3.5.4,2.5,4.1,2.5,4.6,0,0,0,0,0,0,.8,1.1.3,4.3,0,5.6-.4,1.9-1.7,6.7-3.3,8,0,1-2,2.8-2.8,3.5-5.8,5.6-15.1,10.5-23.2,11.8.1-.4-.2-.4-.3-.7,2-2.6,3.4-5.5,6-7.5l-.2-.2.4-.3c0-.1,0-.3,0-.4,0-1,3.1-3.8,2.7-4.9h-.1s0,0,0,0c0,0,0,.1,0,.2,0,1.3-2.8,3.2-2.9,4.8-2.1,2.2-3.5,1.1-5.7,1.9l-1.4.4c-.2-.4-.2-1-.2-1.4.1,0,.2-.1.4-.2-.6-.4-1.3,0-1.8-.4,0-.7.4-1.4.7-2,1.4-3.2,3.3-3.7,5.2-6.1.3-.3,1.2-2.3,1.4-2.8.6-1.7.5-10.2,1.1-11,0,0,0-.2.1-.3,0-.1,0-.2.1-.3.2-.2,4.2-5.1,4.2-5.1.5-.3,1.6-.4,2.2-.5.2,0,.3.2.4.4,2.3,0,4.1,2,6.6,1.7.8-.1,1.6-.5,2.1-1.1,1.7-2.2.2-4,0-6.1Z"/>
        <path class="cls-7" d="m81.7,44.7s0,0,0,0c.7,0,1.5,0,2.1.4.1.1.1.2.1.4-.3.3-.5.4-.9.6v.2c-.3,0-.4.1-.6,0-.5-.1-.8-.4-1-.8,0-.4,0-.4.2-.7Z"/>
        <path class="cls-7" d="m83,55.2c.1,0,.3,0,.4,0,.3,0,.6.1.8.3.2.2.3.5.3.8,0,.4-.4.7-.6.9,0,0-.2.1-.3.1-.3-.1-.4-.2-.6-.5-.3-.6-.2-1.1,0-1.7Z"/>
        <path class="cls-6" d="m96.6,45.8c.2,0,.5,0,.7,0-.2-.4-.3-.7-.3-1.2.5.4,2.5,4.1,2.5,4.6,0,0,0,0,0,0,.8,1.1.3,4.3,0,5.6-.4,1.9-1.7,6.7-3.3,8h0c0-.1-.1-.1-.2-.2-.8-.6.9-3.7.8-4.7,0-.7-1.6-1.2-2.1-1.9-.6-.9-1.7-4-2.1-4.4,0,0-.1-.1-.2-.2-.2-.1-.3-.3-.5-.4v-.2c.3,0,.6,0,.9,0l-.2-.7c.1-.5.8-1,1.1-1.5.8-1.2,1.1-2.8,2.1-3.9h.2c.2.3.2.4.2.7l.2.3Z"/>
        <path class="cls-13" d="m96.2,52.9c-.2-.2-.3-.5-.4-.7-.4-1,.1-3.9.5-4.9,0-.2.2-.3.4-.4,0,0,.1.1.2.2.7.9,1.4,3.6,1.2,4.8,0,.4-.1.6-.5.8,0,0,0,.2-.2.3-.4.1-.9,0-1.2-.1Z"/>
        <path class="cls-4" d="m96.2,52.9c.3-.5,0-1.1.2-1.7.1-.3.3-.4.6-.6.2,0,.3.2.4.3.4.6.4,1.1.3,1.7,0,0,0,.2-.2.3-.4.1-.9,0-1.2-.1Z"/>
        <path class="cls-8" d="m96.6,45.8c.2,0,.5,0,.7,0-.2-.4-.3-.7-.3-1.2.5.4,2.5,4.1,2.5,4.6,0,0,0,0,0,0,.8,1.1.3,4.3,0,5.6-.4,1.9-1.7,6.7-3.3,8h0c0-.1-.1-.1-.2-.2-.8-.6.9-3.7.8-4.7,0-.7-1.6-1.2-2.1-1.9-.6-.9-1.7-4-2.1-4.4,0,0-.1-.1-.2-.2-.2-.1-.3-.3-.5-.4v-.2c.3,0,.6,0,.9,0l-.2-.7c.1-.5.8-1,1.1-1.5.8-1.2,1.1-2.8,2.1-3.9h.2c.2.3.2.4.2.7l-.3-.2c-.9.4-2.1,4-3,5,0,0,0,0,0,0,1.3,1.4.8,5.4,3.5,5.5,1,0,1.9-1.2,2.3-1.2,0,0,.2.2.2.2.7-1.1.3-3.1,0-4.3-.5-1.8-1.2-3.4-2.5-4.7Z"/>
        <path class="cls-15" d="m11.8,32.7c3.5-2.5,7.1-4.7,10.9-6.8,8.4-4.5,14.2-5.1,23.5-5.8,2-.1,4.9-.6,6.9,0,2.6.1,5.2.5,7.8,1,1.4.3,3,.8,4.3.9.7.1,2,.2,2.6.6v.3c-.2,1-1.7,2.5-1.2,3.4.6,1,3.2,1.9,3.8,2.9h0c0,.1-.2.1-.2.1l.2-.2h-.1s-.2.1-.2.1c-1.4-.9-2.6-2.1-4-2.8.2-.6.2-1.4.5-2,.1-.3.6-.7.6-1h-.2s.3,0,.3,0c-1.4,0-2.2,2.3-3.6,2.5,0,.3-.4.7-.7.9-1.3.8-3,.3-4.5.6-1.6.3-4.9,1.8-6.2,1.9-2.6,0-5.4-.1-7.9-.3-1.7-.1-6-1-7.4-.6,0,0,0,0,0,0,0,0,0,0-.1,0h2.7c-1,.9-2.2,1.2-3.2,2-.8.7-1,1.7-1.7,2.5-.5.6-1.4.9-2,1.6-1.3,1.5-3.8,7.3-4.4,9.2,0-1.4.6-2.6.6-3.7h0c0,0-.1,0-.1,0-1.4,3.5-2.3,15.9-.8,19.4.1.3.3.5.4.7h.3c0,0,.2-.3.2-.3,0-.1-.1-.3-.1-.4,1,.5,1.8.6,3,.6,2.6.2,4.1,2.3,5.4,4.3.3.5.5,1,.9,1.5.2.3.7.7.8,1,0,0,0,0,0,0-.2.3-.7.8-.7,1.1.4.7,1.3.5,1.8,1.2.4.5,1.1,1.8,1.3,2.4.7,2,.6,3.4,3.2,3.9.2,0,.4,0,.6,0-1.2.2-2.8-.6-4.2,0-.9.3-4.1-.2-5.3-.2-.9,0-2.4.4-3.3.1.2-.6.6-1.3.6-2,0-.5-.6-1-.9-1.4-1.5-1.3-3.5-1.6-5.4-1.4.5,2.2,2.6,4.6,3.7,6.5.2.3.2.7.4,1-8.8-1.9-15.6-5.3-22.5-11.1-.7-.4-1.6-1.3-2.2-1.8C2.2,61.7,0,56.2,0,51.2c0-5.6,1.8-9.8,5.7-13.7l1.7-1.5c1.3-1.3,3-2.3,4.5-3.3Zm-4.5,3.3l-1.7,1.5c.4,1,.7,1.6.2,2.7-.2.4-.4.8-.5,1.1l.4-.2c.6.5,1,1.1,1.8,1.4-.4-.5-1.1-1-1.3-1.5-.2-.4,0-.7,0-1.1.3-1.3.8-2.5,1-3.9Z"/>
        <path class="cls-7" d="m23.3,34.2l.3.2c0,0,0,.2,0,.3,0,.4-.2.9-.4,1.2-.4.5-.7.5-1.3.6-.2-.2-.2-.3-.3-.5.3-.7,1.1-1.3,1.6-1.8Z"/>
        <path class="cls-8" d="m15.3,54c.2,0,.4.2.6.4.2.3.4.9.4,1.2,0,.4-.1.6-.4.8h-.4c-.4,0-.7-.1-1.1-.3-.3-.3-.3-.3-.3-.7.3-.6.8-1,1.3-1.5Z"/>
        <path class="cls-1" d="m7.3,36c-.2,1.4-.7,2.5-1,3.9-.1.4-.3.7,0,1.1.3.5,1,1.1,1.3,1.5-.8-.3-1.2-.8-1.8-1.4l-.4.2c.2-.4.4-.7.5-1.1.5-1.1.2-1.7-.2-2.7l1.7-1.5Z"/>
        <path class="cls-8" d="m53.1,20.1c2.6.1,5.2.5,7.8,1,1.4.3,3,.8,4.3.9.7.1,2,.2,2.6.6v.3c-.2,1-1.7,2.5-1.2,3.4.6,1,3.2,1.9,3.8,2.9h0c0,.1-.2.1-.2.1l.2-.2h-.1s-.2.1-.2.1c-1.4-.9-2.6-2.1-4-2.8.2-.6.2-1.4.5-2,.1-.3.6-.7.6-1h-.2s.3,0,.3,0c-1.4,0-2.2,2.3-3.6,2.5h-.1c-.4.1-.5-.2-.9-.2-3.1-.1-6.4.1-9.5-.6,0,0,8.6,0,9.5,0,.4,0,.8.1,1.1.2.5-.2.9-.6,1.2-.9.6-.5,1.3-1.2,1.3-1.9-.6-.4-1.6-.4-2.3-.6-1.9-.4-3.9-.8-5.8-1-1.4-.2-2.9-.3-4.3-.5-.2,0-.4-.1-.6-.3Z"/>
        <path class="cls-7" d="m11.8,32.7c.3,0,.7.2.9.4-.2,0-.4-.1-.5-.1-.3,0-1.1.7-1.4.9.3,0,.6-.1.8,0,0,.3-.2.4-.4.6.2.1.5.2.8.4h.2c-.4,1.1-.7,1.9-1,2.9h.2c.9-.8,2.1-1.3,3-2.2-.3.5-.6.9-1,1.3-.7.6-4.1,2.8-4.8,3-.5-.4-.6-1.1-1.1-1.5,0,0,0,0,0,0-.4.2-.7,1-.9,1.4.3-1.3.8-2.5,1-3.9,1.3-1.3,3-2.3,4.5-3.3Z"/>
        <path class="cls-6" d="m9.8,35.6c.6,0,1,0,1.5.2l-.4.7c-.5,1.3-1.1,1.9-2.2,2.9h-.4c-.2-.4-.4-.6-.5-1-.1-.6,0-1.3.4-1.8.4-.6.8-.9,1.5-1Z"/>
        <path class="cls-4" d="m9.8,35.6c.6,0,1,0,1.5.2l-.4.7c-.3.3-.7.7-1.1.9-.3.1-.6.2-.9,0,0-.1-.2-.2-.2-.4,0-.7.6-1,1-1.5Z"/>
        <path d="m7.9,67c1.9.1,5.4,5.4,7.1,3.8.8-.7,1.5-2.2,2.4-2.6.1,0,.2-.1.4-.2-.8-1-5.7-1.8-6-3.3,2.2,1.4,4.4,2.6,7,3.2,1.4.3,2.9.5,4.2,1,1.2.4,2.1,1.3,3.3,1.7.5,2.2,2.6,4.6,3.7,6.5.2.3.2.7.4,1-8.8-1.9-15.6-5.3-22.5-11.1Z"/>
        <path class="cls-12" d="m5.4,41.3l.4-.2c.6.5,1,1.1,1.8,1.4.6,0,1.1.7,1.5,1,.9.5,1.8-1.1,2.6-1.4.3,0,.6,0,.8,0,1.1.7,1.6,3.2,1.9,4.4.4,1.5.8,1.6,1.9,2.3v.2c-1.3.5-4.1.2-5.6.3-1.6,0-3.2.5-4.8.6-.6,0-1.1,0-1.7-.2h0c.3.2.6.2.8.4,0,0,0,.2,0,.2,0,.9-1.5,4.1-2.1,4.7h-.3c-.6-.7-1.2-1.4-1.4-2.3-.7-2.8,2.6-9,4.1-11.4Z"/>
        <path class="cls-7" d="m67.8,22.5c1.5.2,12,4.5,12.8,5.5,0,0,0,0,0,.2.5.1,1.5.5,1.8.9,0,0,0,0,0,0,.7.2,1.5.6,2,1.1h0c.6.3,6.1,5.1,6.8,5.8h0c.3,2.2,1.7,4,0,6.2-.5.7-1.2,1-2.1,1.1-2.5.3-4.3-1.7-6.6-1.7-.1-.2-.2-.3-.4-.4-.6.1-1.7.2-2.2.5,0,0-4,4.8-4.2,5.1,0,.1,0,.2-.1.3,0,.1,0,.2-.1.3-.5.8-.5,9.3-1.1,11-.2.5-1.1,2.5-1.4,2.8-1.9,2.4-3.8,2.9-5.2,6.1-.3.6-.6,1.3-.7,2,.5.4,1.2,0,1.8.4-.1,0-.3,0-.4.2,0,.5,0,1,.2,1.4l1.4-.4c-.3.4-.9.2-1.2.7-.6,1,.2,4.7-1,5-.3-.1-.5-.3-.7-.5-.8.4-1.1.5-2,.1-1.3-.5-2.3-1.6-3.6-2.2,0,0,0,0,0,0-1.6,0-3.7-.1-5.1.6l-.2.2c-.3,0-.7,0-1,0-.5,0-1,.4-1.4.6-1.1.4-2.4.7-3.7.7-3.1,0-6.3-1-9.4-1,1.4-.5,3,.3,4.2,0-.2,0-.4,0-.6,0-2.7-.5-2.5-1.8-3.2-3.9-.2-.7-.9-1.9-1.3-2.4-.5-.6-1.4-.5-1.8-1.2,0-.3.5-.8.7-1.1,0,0,0,0,0,0-.1-.3-.6-.7-.8-1-.3-.5-.5-1-.9-1.5-1.3-2-2.8-4.1-5.4-4.3-1.1,0-1.9-.1-3-.6,0,.1,0,.3.1.4l-.2.3h-.3c-.1-.2-.3-.4-.4-.7-1.5-3.5-.7-15.8.8-19.4h.1s0,0,0,0c0,1.1-.6,2.3-.6,3.7.6-2,3.1-7.7,4.4-9.2.5-.6,1.5-.9,2-1.6.7-.8.9-1.8,1.7-2.5.9-.8,2.2-1.1,3.2-2h-2.7s0,0,.1,0c0,0,0,0,0,0,1.4-.5,5.7.4,7.4.6,2.6.2,5.4.4,7.9.3,1.3,0,4.5-1.6,6.2-1.9,1.4-.3,3.2.3,4.5-.6.3-.2.6-.5.7-.9,1.5-.2,2.3-2.5,3.6-2.5h-.3c0,0,.2,0,.2,0,0,.3-.5.7-.6,1-.2.6-.3,1.4-.5,2,1.5.7,2.7,1.9,4,2.8l.2-.2h.1s-.2.2-.2.2h.2s0-.1,0-.1c-.6-1-3.2-1.9-3.8-2.9-.6-.9,1-2.4,1.2-3.4v-.3Z"/>
        <path class="cls-6" d="m73.4,45.4c.4,0,.9-.1,1.3,0,.4.2.6.3.7.7-.2.2-.4.2-.7.3-.1,0-.2,0-.3,0-.5,0-.8,0-1.1-.2,0-.4,0-.5.2-.9Z"/>
        <path class="cls-6" d="m75.6,38.6c.4,0,.6,0,.9.2.4.2.7.6.8,1,0,0,0,0,0,.1,0,.5-.3.8-.7,1.1,0,.2-.2.4-.4.5h-.2c-.6-.8-.5-2-.4-2.9Z"/>
        <path class="cls-4" d="m88.5,36.1h.4c.6.7,1.1,1.4,1.3,2.2,0,0,0,0,0,0,0,.4-.6.7-.9.9-.3,0-.5-.2-.6-.3-.5-.5-.7-1.2-.7-1.9,0-.3.4-.6.6-.9Z"/>
        <path class="cls-6" d="m29.5,54.7c.4.2.8.6,1,1,.2.4.3.8.1,1.2-.2.5-.6.7-1,1-.3,0-.5,0-.8-.3-.2-.2-.4-.5-.4-.8,0-.9.5-1.5,1-2.1Z"/>
        <path class="cls-4" d="m82.4,29.2c.7.2,1.5.6,2,1.1h0c0,.1,0,.4,0,.4-.4.5-.4,1.1-.9,1.4-.4,0-.7-.2-1-.5-.5-.5-.8-1.2-.8-1.8.2-.4.3-.4.7-.6Z"/>
        <path class="cls-8" d="m67.8,22.5c1.5.2,12,4.5,12.8,5.5,0,0,0,0,0,.2-.7.1-1.2-.6-2-.7-.2,0-.6.2-.9.2-1,.2-2.3.3-3.2,0,0,0,0,0,0,0-.3-.1-.5-.2-.8,0-.2.5.2,1,.2,1.5-1-.6-1.6-2.7-2.2-3.8-.9-1.6-2.2-2.1-3.9-2.6v-.3Z"/>
        <path class="cls-3" d="m37,34.1h0c2.4,0,6.6-2,8.9-2.8,1.8-.6,4.1-.6,6.1-.9.5,0,1.1-.4,1.5-.4,1,0,4.3.5,5.3.8.9.3,2,1.4,2.9,1.9.7.4,1.6.7,2.2,1.2.3.3.4.6.8.7.3-.3.5-.7.9-.7.7.8.6,2.5.9,3.5.2.6.6,1.2.9,1.7v-.2c.8,1.5,1.3,3.1,2,4.7,2.2,4.5,3.9,5.9,3.5,11.4,0,.9,0,2-.3,2.8-.6,2.3-4.7,4.5-6.4,6.4-1.1,1.3-1.4,2.5-2.2,3.9-.2.4-1,.8-.7,1.3.5,1,2,1.6,2.7,2.7.7,1.1.6,3,1.1,3.5h-.1c-1.5-.8-2.5-2.3-2.9-4-.3-1.1-.7-2.3-1.7-2.8-.5-.3-1.2,0-1.7,0-4,1.1-4.3,5.2-10,4.8-1.2,0-2.6-.4-3.6-1-1.1-.6-2.5-4.2-3.1-5.4-.2-.3-.4-.5-.6-.7-.8-.9-1.7-1.7-2.3-2.7-.4-.7-.7-1.5-1.2-2.2-.8-1-2.1-1-2.9-1.9-.9-.9-.8-2.4-1.9-3.4-1-.9-2.3-1-2.7-1.3-.3-.2-.6-.7-.9-1-.3-1.7-.2-3.4-.3-5,0-.9-.3-1.9-.2-2.8,0-1.2,1.2-5.8,1.8-6.7h.2c-.2-1.2.4-2.2.2-3.3.4-.9,1.1-2.6,1.9-3.1.2-.1.4-.2.6-.1.5.1.9.7,1.2,1.1Z"/>
        <path class="cls-4" d="m47.2,58.2c.2.6.5,1,.3,1.6-.1.4-.7.7-1,.9-.3-.4-.5-.7-.5-1.1,0-.5.8-1,1.2-1.3Z"/>
        <path class="cls-6" d="m58.5,32.1c.3,0,.4,0,.7.2,0,.1.2.3.2.4.1.7-.4,1.7-.8,2.2h-.2c-.3-.3-.5-.4-.5-.8,0-.7.2-1.5.6-2Z"/>
        <path class="cls-16" d="m51.7,66.2h0c0,.1.2.2.2.3.2.4.4,1.2.3,1.7-.1.4-.4.5-.7.7-.3-.1-.5-.3-.7-.5-.1-.1-.2-.4-.2-.5,0-.7.6-1.2,1.1-1.6Z"/>
        <path class="cls-4" d="m69.3,53c.2,0,.4,0,.6,0,.3.2.4.5.5.8.2.5.2,1.2,0,1.7-.1.3-.3.3-.6.4-.3-.2-.7-.3-.8-.7-.3-.7.1-1.6.4-2.2Z"/>
        <path class="cls-6" d="m33.3,36.3c.4-.9,1.1-2.6,1.9-3.1.2-.1.4-.2.6-.1.5.1.9.7,1.2,1.1-.5-.2-.9-.6-1.4-.6-1.1.7-1.8,2.7-2.1,4,0,.4-.2.6,0,1,.2.2.4.4.6.5-.2.9-.4,2.4-.9,3.2,0-1-.4-1.5-.1-2.6-.2-1.2.4-2.2.2-3.3Z"/>
        <path class="cls-10" d="m46.6,51.1s0,0,0,0c.5.3.7.8.9,1.3.2.6.2,1.4-.1,1.9-.2.4-.6.5-1,.6-.3,0-.6,0-.9-.2-.1-.2-.2-.4-.2-.7,0-1.1.6-2.1,1.3-2.9Z"/>
        <path class="cls-10" d="m38.5,40.2c.3.2.4.5.5.8.4.9.7,1.6.3,2.5-.3.8-.9,1.1-1.6,1.4-.2,0-.4,0-.6-.2-.2-.2-.3-.5-.4-.8,0-1.3.9-2.7,1.7-3.7Z"/>
        <path class="cls-10" d="m41.9,44.4c0,0,.1,0,.2,0,.4.1.6.3.8.6.4.7.3,1.6,0,2.3-.3,1.1-.7,1.8-1.7,2.3-.2,0-.4,0-.6,0l-.2-.2c-.2-1.6.9-3.7,1.5-5.1Z"/>
        <path class="cls-4" d="m47.5,40.4c.5.5,1.3.3,1.9.8.4.3.6.9.7,1.4,0,1.8-1.4,3.1-2,4.6-.2.5-.1,1.1-.5,1.5-.1.3-.3.5-.4.7-.5-.7-1.1-1-1.6-1.6-.2-.2-.4-.7-.4-.9,0-1.1,1.6-5.8,2.4-6.5Z"/>
        <path class="cls-10" d="m47.2,41.4c.4,0,.8.2,1.2.4.4.2.8.6.9,1,.2.7,0,1.3-.4,2-.4.1-.8.2-1.3.3-.3-.2-.4-.2-.6-.6-.4-.7,0-2.3.2-3Z"/>
        <path class="cls-4" d="m54.6,49.1c.4-.2.7-.5,1.1-.5.4.2.6.5.8.9.4,1.3,2.3,3.7,3.2,4.7,0,.7,0,1.5-.1,2.2-1.9,1.7-1,3.4-2.1,4.2,0-.2-.5-.7-.7-.9-.7-.2-2.3,1.3-3,1.2-.7-1.3.2-3.4,0-4.9,0-.4-.3-.8-.5-1.2-.4-1.1,0-4,.5-5.1.2-.4.3-.5.7-.6Z"/>
        <path class="cls-16" d="m56.9,58c-.2.4-.5.8-.8,1.2-.3.4-.6.5-1.1.5-.2,0-.4-.2-.5-.4-.6-.9-.5-2.5-.3-3.5,0,.7,0,1.6.5,2.1.4.3.9.3,1.4.2.3,0,.6-.1.8-.2Z"/>
        <path class="cls-10" d="m54.6,49.1c.4-.2.7-.5,1.1-.5.4.2.6.5.8.9,0,.9,0,1.9.2,2.8-1-.3-1.9-.4-2.9-.4,0-1.1.3-1.8.9-2.8Z"/>
        <path class="cls-5" d="m54.2,55.8c.4-.7.8-1.8,1.6-2,.3,0,.5,0,.8,0,.5.2.7.8.8,1.3.2.7.3,1.7-.1,2.3-.1.2-.2.3-.3.5-.3,0-.5.1-.8.2-.5,0-1,0-1.4-.2-.6-.5-.5-1.4-.5-2.1Z"/>
      </g>
    </g>
  </g>
</svg>