<?xml version="1.0" encoding="UTF-8"?>
<svg id="Layer_2" data-name="Layer 2" xmlns="http://www.w3.org/2000/svg" xmlns:xlink="http://www.w3.org/1999/xlink" viewBox="0 0 100 100">
  <defs>
    <style>
      .cls-1 {
        fill: #63dd5c;
      }

      .cls-2 {
        fill: url(#linear-gradient-2);
      }

      .cls-3 {
        fill: #b78a7a;
      }

      .cls-4 {
        fill: #6b797b;
      }

      .cls-5 {
        fill: #e7e9f2;
      }

      .cls-6 {
        fill: url(#linear-gradient-6);
      }

      .cls-7 {
        fill: #958589;
      }

      .cls-8 {
        fill: #484140;
      }

      .cls-9 {
        fill: url(#linear-gradient-11);
      }

      .cls-10 {
        fill: #4a954d;
      }

      .cls-11 {
        fill: #cae7ec;
      }

      .cls-12 {
        fill: url(#linear-gradient-10);
      }

      .cls-13 {
        fill: #7e5040;
      }

      .cls-14 {
        fill: #e1fbda;
      }

      .cls-15 {
        fill: #fbfbfb;
      }

      .cls-16 {
        fill: url(#linear-gradient-5);
      }

      .cls-17 {
        fill: #5f4339;
      }

      .cls-18 {
        clip-path: url(#clippath);
      }

      .cls-19 {
        fill: #8c6558;
      }

      .cls-20 {
        fill: #c5fcba;
      }

      .cls-21 {
        fill: #e2c5b3;
      }

      .cls-22 {
        fill: none;
      }

      .cls-23 {
        fill: url(#linear-gradient-7);
      }

      .cls-24 {
        fill: #503f3c;
      }

      .cls-25 {
        fill: #517158;
      }

      .cls-26 {
        fill: #357330;
      }

      .cls-27 {
        fill: #698273;
      }

      .cls-28 {
        fill: #59332d;
      }

      .cls-29 {
        fill: url(#linear-gradient-9);
      }

      .cls-30 {
        fill: #a4796b;
      }

      .cls-31 {
        fill: url(#linear-gradient-3);
      }

      .cls-32 {
        fill: url(#linear-gradient);
      }

      .cls-33 {
        fill: #87f57b;
      }

      .cls-34 {
        fill: url(#linear-gradient-4);
      }

      .cls-35 {
        fill: #d4a592;
      }

      .cls-36 {
        fill: url(#linear-gradient-8);
      }

      .cls-37 {
        fill: url(#linear-gradient-12);
      }

      .cls-38 {
        fill: url(#linear-gradient-13);
      }
    </style>
    <clipPath id="clippath">
      <ellipse class="cls-22" cx="50" cy="50" rx="42.5" ry="24.8"/>
    </clipPath>
    <linearGradient id="linear-gradient" x1="37.6" y1="71" x2="39.4" y2="77.7" gradientTransform="translate(0 102) scale(1 -1)" gradientUnits="userSpaceOnUse">
      <stop offset="0" stop-color="#ad766e"/>
      <stop offset="1" stop-color="#d5b3ab"/>
    </linearGradient>
    <linearGradient id="linear-gradient-2" x1="50.5" y1="71.7" x2="48.2" y2="32.6" gradientTransform="translate(0 102) scale(1 -1)" gradientUnits="userSpaceOnUse">
      <stop offset="0" stop-color="#151912"/>
      <stop offset="1" stop-color="#2a3b28"/>
    </linearGradient>
    <linearGradient id="linear-gradient-3" x1="82.9" y1="59.8" x2="87.8" y2="61.2" gradientTransform="translate(0 102) scale(1 -1)" gradientUnits="userSpaceOnUse">
      <stop offset="0" stop-color="#8f5e4f"/>
      <stop offset="1" stop-color="#b67f77"/>
    </linearGradient>
    <linearGradient id="linear-gradient-4" x1="82.5" y1="58" x2="86" y2="60.5" gradientTransform="translate(0 102) scale(1 -1)" gradientUnits="userSpaceOnUse">
      <stop offset="0" stop-color="#674942"/>
      <stop offset="1" stop-color="#975c54"/>
    </linearGradient>
    <linearGradient id="linear-gradient-5" x1="20.3" y1="39.2" x2="19.2" y2="33.6" gradientTransform="translate(0 102) scale(1 -1)" gradientUnits="userSpaceOnUse">
      <stop offset="0" stop-color="#604144"/>
      <stop offset="1" stop-color="#997878"/>
    </linearGradient>
    <linearGradient id="linear-gradient-6" x1="70.8" y1="36.2" x2="70.9" y2="31.7" gradientTransform="translate(0 102) scale(1 -1)" gradientUnits="userSpaceOnUse">
      <stop offset="0" stop-color="#444546"/>
      <stop offset="1" stop-color="#6d6c6d"/>
    </linearGradient>
    <linearGradient id="linear-gradient-7" x1="30.6" y1="67.7" x2="29.6" y2="71.3" gradientTransform="translate(0 102) scale(1 -1)" gradientUnits="userSpaceOnUse">
      <stop offset="0" stop-color="#795444"/>
      <stop offset="1" stop-color="#8b6a64"/>
    </linearGradient>
    <linearGradient id="linear-gradient-8" x1="37.7" y1="68.3" x2="36.5" y2="70.3" gradientTransform="translate(0 102) scale(1 -1)" gradientUnits="userSpaceOnUse">
      <stop offset="0" stop-color="#62423f"/>
      <stop offset="1" stop-color="#83554f"/>
    </linearGradient>
    <linearGradient id="linear-gradient-9" x1="8" y1="57.2" x2="16.6" y2="55.2" gradientTransform="translate(0 102) scale(1 -1)" gradientUnits="userSpaceOnUse">
      <stop offset="0" stop-color="#494b50"/>
      <stop offset="1" stop-color="#7c717d"/>
    </linearGradient>
    <linearGradient id="linear-gradient-10" x1="55.8" y1="70.4" x2="55.4" y2="73.3" gradientTransform="translate(0 102) scale(1 -1)" gradientUnits="userSpaceOnUse">
      <stop offset="0" stop-color="#55443c"/>
      <stop offset="1" stop-color="#76574e"/>
    </linearGradient>
    <linearGradient id="linear-gradient-11" x1="40.5" y1="71.3" x2="40.2" y2="74.4" gradientTransform="translate(0 102) scale(1 -1)" gradientUnits="userSpaceOnUse">
      <stop offset="0" stop-color="#c39686"/>
      <stop offset="1" stop-color="#debeab"/>
    </linearGradient>
    <linearGradient id="linear-gradient-12" x1="52.2" y1="40.7" x2="52.3" y2="27.7" gradientTransform="translate(0 102) scale(1 -1)" gradientUnits="userSpaceOnUse">
      <stop offset="0" stop-color="#6cdd72"/>
      <stop offset="1" stop-color="#7a8a9f"/>
    </linearGradient>
    <linearGradient id="linear-gradient-13" x1="40.7" y1="51.4" x2="42.3" y2="50.3" gradientTransform="translate(0 102) scale(1 -1)" gradientUnits="userSpaceOnUse">
      <stop offset="0" stop-color="#3c9938"/>
      <stop offset="1" stop-color="#4eb546"/>
    </linearGradient>
  </defs>
  <g id="Layer_2-2" data-name="Layer 2">
    <circle class="cls-22" cx="50" cy="50" r="50"/>
  </g>
  <g id="Layer_3" data-name="Layer 3">
    <path class="cls-15" d="m49.5,82c-3.1-.3-6.2,0-9.4-.6-11.4-1.9-26.4-9-33.9-18C2.4,58.6-.5,52.4,0,46.2c.6-6.3,5.2-11.7,9.9-15.6,13.6-11.2,32.3-13.8,49.3-12.1,12.8,1.3,26.9,6.1,35.3,16.3,3.5,4.3,5.9,9.4,5.3,15-.7,7.1-5.7,13.7-11.1,18.1-8.4,6.8-19.3,11.8-29.9,13.4-1.9.3-3.8.5-5.8.6-1.1,0-2.4,0-3.5.2h0Z"/>
    <g class="cls-18">
      <g>
        <path class="cls-15" d="m48.5,82.6c-3.1-.3-6.2,0-9.4-.6-11.4-1.9-26.4-9-33.9-18-3.9-4.7-6.8-10.9-6.2-17.2.6-6.3,5.2-11.7,9.9-15.6,13.6-11.2,32.3-13.8,49.3-12.1,12.8,1.3,26.9,6.1,35.3,16.3,3.5,4.3,5.9,9.4,5.3,15-.7,7.1-5.7,13.7-11.1,18.1-8.4,6.8-19.3,11.8-29.9,13.4-1.9.3-3.8.5-5.8.6-1.1,0-2.4,0-3.5.2h0Z"/>
        <path class="cls-5" d="m61.4,73.7c.9-.2,1.9,0,2.9,0-.2.6-2.9,2.4-3.6,2.7,0,0-.2,0-.2,0,1.1-.9.8-1.4,1-2.7Z"/>
        <path class="cls-21" d="m87.2,38.1c1.3.5,3.2,2.6,3.8,3.8.1.3.1.6,0,1,0,0,0,0,0,0,0-.3,0-.3-.3-.4-.2,0-.4.1-.6.2-1.3.3-1.8-2.4-2.8-3,0,0,0,0,0-.1.2-.6,0-.9-.2-1.4Z"/>
        <path class="cls-35" d="m79,32.2c2.1.5,7,4,8.1,5.7,0,0,0,.1,0,.2.3.5.4.8.2,1.4,0,0,0,0,0,.1,0,0,0,0,0,0-.5-.5-1-.7-1.6-1,0,0,0,0,0,0-.5-1.5-2.2-1.7-3.3-2.5-.6-.5-1-1.2-1.8-1.6-.6-.3-1.3,0-1.9-.3v-.2c.1,0,.8,0,.8,0-.1-.3-.2-.3-.4-.4l-.5.3-.3-.2c.2-.1.4-.2.6-.4.4-.2.4-.3.5-.7l-.3-.4Z"/>
        <path class="cls-11" d="m22.8,69.3c1.9.1,4.4,1.1,6,1,1.9,1.3,5,1.2,7.1,1.8.7.6,1,1.4,1.5,2.2,6.9,1.5,13.3,1.4,20.3.1,1.3-.2,2.5-.4,3.7-.7-.2,1.3.2,1.8-1,2.7-5.2,2-11.1,2.7-16.7,2.1-3.5-.4-7.4-1.8-10.5-3.5-.8-.4-1.4-1-2.1-1.4-1.4-.7-2.9-1-3.9-2.3-1.3-.8-3.1-1.3-4.5-2Z"/>
        <path class="cls-7" d="m22.8,69.3c1.9.1,4.4,1.1,6,1,1.9,1.3,5,1.2,7.1,1.8.7.6,1,1.4,1.5,2.2-1.5-.3-3-.3-4.5-.7-2-.5-3.8-1.5-5.7-2.3-1.3-.8-3.1-1.3-4.5-2Z"/>
        <path class="cls-21" d="m23.7,30.7c1.5-1.4,3.4-2.2,5.3-3,6.8-2.8,12.3-3.4,19.6-3.4,1.8,0,3.5-.1,5.3,0,2.9.1,6,.5,8.9,1,3.1.6,11.8,2.9,13.9,5.2,0,0,.1.2.1.3-.8-.2-1.5-.8-2.3-1.1-1.5-.5-3.1-.6-4.7-1-.2-.1-.6-.1-.8-.2-.3-.3-1-.6-1.4-.7-4.7-1.8-9-1-13.9-1.1-.8,0-1.6-.5-2.3-.4-1.3.2-2.6,1.1-3.8,1.6-.9-.2-1.5-.2-2.1-.9-.9.9-2.8.4-3.9.6-1.9.3-4.2,1.6-6,2.3-.4.2-.9.5-1.3.6l-.4-.4c-.8-.3-1.8-.3-2.7-.3l-2.8.8c-.7-.1-1.5,0-2.1.5-.9.7-1.4,1.7-2.6,1.7-.2-.2-.5-.3-.7-.5-1.9.2-3.4,1.2-5.3,1.7,1.5-1.4,4.2-2.7,6.1-3.3Z"/>
        <path class="cls-7" d="m23.7,30.7c1-.3,2-.8,3-1.2,2.2-.8,4.4-1.2,6.8-1.4-.2.5-.5.8-1,1-.5.2-1,.3-1.4.6l-2.8.8c-.7-.1-1.5,0-2.1.5-.9.7-1.4,1.7-2.6,1.7-.2-.2-.5-.3-.7-.5-1.9.2-3.4,1.2-5.3,1.7,1.5-1.4,4.2-2.7,6.1-3.3Z"/>
        <path class="cls-32" d="m33.5,28.1c3.3-1.4,7.6-3.4,11.2-2.9.4,0,.8.1,1,.5.1.6,0,.7-.3,1.2-.9.9-2.8.4-3.9.6-1.9.3-4.2,1.6-6,2.3-.4.2-.9.5-1.3.6l-.4-.4c-.8-.3-1.8-.3-2.7-.3.4-.3,1-.4,1.4-.6.5-.2.8-.5,1-1Z"/>
        <path class="cls-2" d="m47.5,27.8c1.2-.5,2.5-1.4,3.8-1.6.7-.1,1.5.4,2.3.4,4.8,0,9.2-.7,13.9,1.1.4.2,1.2.4,1.4.7.2,0,.6,0,.8.2,1.6.4,3.2.6,4.7,1,.8.3,1.5.8,2.3,1.1.6.3,2,1,2.3,1.5l.3.4c0,.4-.2.5-.5.7-.2.1-.4.2-.6.4l.3.2.5-.3c.3.1.3.2.4.4h-.6c0,0-.1.3-.1.3.6.3,1.3,0,1.9.3.8.3,1.2,1.1,1.8,1.6,1.1.8,2.8,1,3.3,2.5,0,0,0,0,0,0,.6.3,1.1.5,1.6,1,0,0,0,0,0,0,1,.6,1.4,3.3,2.8,3,.2,0,.4-.1.6-.2.2.2.3.2.3.4.3.3.4.4.4.9v.3c.3.3.5.4.4.8,0,.2-.1.3-.2.5.8,1.3.2,6.6-.2,8.1-1,4.2-3.8,6.5-6.9,9.2-1.1.9-2.1,2-3.3,2.8-.2.1-.4.2-.7.3-.1.7-1.6,1.5-2.2,1.9-2.3,1.4-7.1,3.5-9.8,3.6,0,0,0,0,0,0-.6.2-1.3,0-1.8.2-1.1.7-.7,1.6-2.4,2.1-.9.1-2-.1-2.9,0-1.2.3-2.5.5-3.7.7-6.9,1.3-13.3,1.4-20.3-.1-.5-.8-.8-1.6-1.5-2.2-2.2-.7-5.3-.5-7.1-1.8-1.6.2-4.1-.8-6-1-4-1.4-7.4-4.7-10.5-7.4-.6-.7-1.2-1.4-1.8-2.1-2.5-3.3-4.2-6.3-3.7-10.6.9-6.4,5.8-11.5,10.7-15.2,1.8-.5,3.3-1.5,5.3-1.7.2.2.5.3.7.5,1.2,0,1.7-1,2.6-1.7.6-.5,1.4-.6,2.1-.5l2.8-.8c.9,0,1.9,0,2.7.3l.4.4c.4,0,.9-.4,1.3-.6,1.8-.8,4.1-2.1,6-2.3,1.2-.2,3,.3,3.9-.6.6.7,1.2.8,2.1.9Z"/>
        <path class="cls-8" d="m71.9,35.8c.3,0,.6,0,.9.1.3.3.4.5.5,1,0,.2,0,.4-.2.5-.3.3-.6.2-1.1.3-.2,0-.4-.1-.6-.2-.4-.6.5-.9.5-1.7Z"/>
        <path class="cls-28" d="m74.1,37.2c.5,0,.9-.2,1.3-.5,0,.3.1.6.1.9.5.4,1.5,1.7,2,1.8,0,0,0,0,0,0-.4.4-2.3.3-3,.4-.4-.5-.4-1.9-.4-2.5Z"/>
        <path class="cls-24" d="m20.4,63.3c-.2-.3-.6-.8-.7-1.2.9.9,1.9,2.2,2.6,3.3-.4-.2-.5-.3-.8-.1-1.5-.5-5.5-1.5-6.4-2.9v-.3c0,0,.5,0,.5,0,1.4,1,3.2.8,4.8,1.3Z"/>
        <path class="cls-8" d="m41.1,33c.6-.4,1.6-.6,2.3-.8.5,0,1,.1,1.6,0-.1.3-.3.4-.6.6.4,0,1.6-.2,1.8,0l-.5.4c1.1,0,2.4,0,3.5.2-1.4.3-7.4.9-8.5.7-.2-.1-.3-.3-.5-.4-.3-.2-1.5-.1-1.9-.1l1.2-.3c.5.1,1.2-.1,1.6-.3Z"/>
        <path class="cls-24" d="m44.5,31.9c3.3,0,2.5-.4,5.1-1.4.5.3,1,.7,1.4,1.1.2.2.5.8.7,1,.1,0,.6.1.7.1-.7.6-2.4.4-3.3.6-1.1-.2-2.4,0-3.5-.2l.5-.4c-.2-.2-1.5,0-1.8,0,.2-.2.4-.3.6-.6-.5,0-1,0-1.6,0,.4-.1.8-.2,1.2-.3Z"/>
        <path class="cls-17" d="m80.4,43l.3-.5c2.1-.4,3.7,0,5.7.2.4.2,1,.6,1.2,1.1,0,0,0,0,0,.1,0,0,.4.5.4.5,0,.2,0,.4-.1.6,0,0,0-.2-.1-.2-.2-.3-1-.6-1.3-.6-1.4,0-3.2,2-4.1,2.9-.2-.3.4-.9.5-1.4l-.2-.2c-.4.3-.5,1-.7,1.5-.2-.4.2-1.6.2-2,0-.8,0-1.5-.6-2.1-.5-.2-.6-.2-1.1,0Z"/>
        <path class="cls-24" d="m19.9,34.5c.5-.2,1.3-.6,1.8-.4,0,0,.1,0,.2.1.3,1.2-1.1,2.1-.5,3.4h-.1c.5,0,1.4-.4,1.8-.2v.2c-1.7,1-4.3.6-6.3,1.1-.8.9-2.8,3.6-3.7,4.1.2-.7.6-1.5,1-2.1.6-.8,4.9-5.6,5.7-6.2Z"/>
        <path class="cls-24" d="m38.3,33.5c.4,0,1.6,0,1.9.1-1.3.6-2.7.8-4.1,1.2-2.8.8-5.5,1.7-8.3,2.5-1,.3-2.1.4-3.1.8-1.7.6-2.9,2.7-4.9,2.7v-.2c.2-.5,1.3-1.8,1.9-2,0,0,0,0,.1,0,.9-.2,4.9-2.6,6.1-3.1,1.4-.7,8.8-2.1,10.4-2.1Z"/>
        <path class="cls-31" d="m83,38c1.2-.2,1.5.6,2.7.7.6.3,1.1.5,1.6,1,0,0,0,0,0,0,1,.6,1.4,3.3,2.8,3,.2,0,.4-.1.6-.2.2.2.3.2.3.4.3.3.4.4.4.9v.3c-.5.2-3.2,0-3.8-.2,0,0,0,0,0-.1-.1-.5-.8-.9-1.2-1.1-2-.3-3.6-.6-5.7-.2l-.3.5c-.2-.3,0-1.4-.2-1.9.1-.1.3-.2.4-.4.4-.5.4-1.2.3-1.8l.3-.2v-.5c.2.6.3.8.7,1.2.4-.1.6-.3.8-.7,0,0,0,0,0-.1.2-.3.3-.3.3-.7Z"/>
        <path class="cls-34" d="m80.9,39l.3-.2v-.5c.2.6.3.8.7,1.2.4-.1.6-.3.8-.7,0,0,0,0,0-.1.5-.1,1.3,0,1.8.2.3.2.4.3.5.6-.5.9-2.9,1.5-2.8,2.2.5.3,1,.3,1.6.4.4-.1.9-.6,1.2-.4.2,0,.3.3.5.4.5.2,1.3-.3,1.8,0,.6.3,1.2,1.4,1.8,1.6.7.2,1.7-.4,2.1.2v.3c-.5.2-3.2,0-3.8-.2,0,0,0,0,0-.1-.1-.5-.8-.9-1.2-1.1-2-.3-3.6-.6-5.7-.2l-.3.5c-.2-.3,0-1.4-.2-1.9.1-.1.3-.2.4-.4.4-.5.4-1.2.3-1.8Z"/>
        <path class="cls-3" d="m78.2,33.7l.3.2.5-.3c.3.1.3.2.4.4h-.6c0,0-.1.3-.1.3.6.3,1.3,0,1.9.3.8.3,1.2,1.1,1.8,1.6,1.1.8,2.8,1,3.3,2.5,0,0,0,0,0,0-1.1,0-1.4-.9-2.7-.7,0,.4,0,.4-.3.7,0,0,0,0,0,.1-.2.4-.4.6-.8.7-.4-.4-.5-.6-.6-1.2v.5c0,0-.4.2-.4.2,0,.6,0,1.3-.3,1.8-.1.1-.3.3-.4.4,0-.4,0-.7-.1-1-.1-.4-.4-.6-.8-.8-.7-.3-1.1-.2-1.8,0-.5-.1-1.5-1.4-2-1.8,0-.3,0-.6-.1-.9.2-.1.2-.3.3-.5,0,0,0,0,0,0,.4-.3,1-1.2,1.1-1.7.4-.1.8-.5,1.2-.7h.2Z"/>
        <path class="cls-19" d="m77.9,35.7c.4-.4.5-.6,1-.7,1.6.5,2.3,1.5,3.5,2.6.2.2.4.2.6.4,0,.4,0,.4-.3.7,0,0,0,0,0,.1-.2.4-.4.6-.8.7-.4-.4-.5-.6-.6-1.2v-.2c0,0,0-.2,0-.2-.4-.5-2-1.9-2.6-2.1-.2,0-.6,0-.8,0Z"/>
        <path class="cls-13" d="m77.9,35.7c.2,0,.6,0,.8,0,.6.2,2.1,1.6,2.6,2.1,0,0,0,.2.1.2v.2c0,0-.1.5-.1.5l-.3.2c0,.6,0,1.3-.3,1.8-.1.1-.3.3-.4.4,0-.4,0-.7-.1-1-.1-.4-.4-.6-.8-.8-.7-.3-1.1-.2-1.8,0-.5-.1-1.5-1.4-2-1.8,0-.3,0-.6-.1-.9.2-.1.2-.3.3-.5l.3,1c.4.1.5,0,.8,0,.4-.4.8-.9,1.1-1.4Z"/>
        <path class="cls-17" d="m75.5,37.5c.8.2,1.2.5,1.7,1.2,0,.1.1.2.1.4.9-.3,2-1.1,3-.7.3.1.5.3.6.6,0,.6,0,1.3-.3,1.8-.1.1-.3.3-.4.4,0-.4,0-.7-.1-1-.1-.4-.4-.6-.8-.8-.7-.3-1.1-.2-1.8,0-.5-.1-1.5-1.4-2-1.8Z"/>
        <path class="cls-16" d="m11.3,57.7c.6.4.9,1.1,1.4,1.6.8.8,2.3,1.7,2.9,2.7h-.4c0,0,0,.4,0,.4.8,1.4,4.9,2.4,6.4,2.9.4-.1.5,0,.8.1.7,1,1.7,1.7,2.6,2.4,1.1,1,2.6,1.4,3.8,2.3v.2c-1.6.2-4.1-.8-5.9-1-4-1.4-7.4-4.7-10.5-7.4.5-1.7-.2-2.7-1-4.2Z"/>
        <path class="cls-6" d="m65.3,67.3c.4-.2.6-.6.9-.9.7-.9,1.9-1.2,2.9-1.2.4.2.4.2.6.6l-.2.3c-.5.1-.9.2-1.3.3.8.4,2.4.4,3.3.4,1.3,0,3.6-.2,4.5-1.2,1.5.4,3.3,0,4.6.4-.1.7-1.6,1.5-2.2,1.9-2.3,1.4-7.1,3.5-9.8,3.6-.6-.1-1.3-.1-1.9-.2,0-.3,0-.3-.3-.5-1.1-.3-2.5-.1-3.6-.1-.5-.2-1-.6-1.6-.9.6-.2,1.7.4,2.5.4.2,0,.4-.1.5-.3.4-.4,1.3-1.9,1.3-2.4Z"/>
        <path class="cls-25" d="m62.4,58c.1,2.3-1.9,7.2.1,8.9.6.5,1.8.5,2.6.5,0,0,.2,0,.2,0,0,.5-.9,2-1.3,2.4-.1.2-.3.3-.5.3-.7,0-1.9-.6-2.5-.4.5.2,1.1.7,1.6.9-1,.4-2.4.5-3.2,1.1-.7.4-1.8.5-2.5.5-.7-.4-1.4-1.9-1.8-2.6-.3-.7-.7-1.9-.4-2.6.2-.5.5-1,1-1.2,1.9-.8,3-1.8,4-3.6.3-.5.5-1,.9-1.4h0s.4-.1.4-.1c.7-.6,1-1.7,1.3-2.5Z"/>
        <path class="cls-23" d="m31.1,29.7c.9,0,1.9,0,2.7.3l.4.4c-.4.2-.6.3-.8.7.2.4.7.5,1,.6.4,0,.7-.4,1-.7.6.1,1,.2,1.5.5.9.2,2.6-.3,3-.1.2.6,0,.9.5,1.3h.7c-.4.3-1.1.6-1.6.4l-1.2.3c-1.6,0-9,1.5-10.4,2.1-1.2.6-5.2,2.9-6.1,3.1.5-.3,1-.6,1.3-1.2v-.2c-.4-.2-1.4.2-1.8.3h.1c-.7-1.3.8-2.3.5-3.4,0,0-.1,0-.2-.1-.5-.2-1.3.2-1.8.4.8-1,2-1.4,3-2.2.2.2.5.3.7.5,1.2,0,1.7-1,2.6-1.7.6-.5,1.4-.6,2.1-.5l2.8-.8Z"/>
        <path class="cls-30" d="m31.1,29.7c.9,0,1.9,0,2.7.3l.4.4c-.4.2-.6.3-.8.7.2.4.7.5,1,.6-.4,0-.9,0-1.2-.1-.3-.1-.3-.3-.4-.6l-.2-.5c-1-.5-2.9.2-4.2,0l2.8-.8Z"/>
        <path class="cls-36" d="m35.1,33c-.3,0-.5,0-.8,0-.4,0-1.1-.4-1.4-.7.3,0,.5,0,.8-.1-.2,0-.4,0-.7-.1-.4-.1-.4-.1-.6-.5l.2-.4c.1.3.1.5.4.6.3.1.8.1,1.2.1.4,0,.7-.4,1-.7.6.1,1,.2,1.5.5.9.2,2.6-.3,3-.1.2.6,0,.9.5,1.3h.7c-.4.3-1.1.6-1.6.4,0,0-.2-.1-.3-.2-.9-.6-3-.2-4.1,0Z"/>
        <path class="cls-17" d="m35.1,33c1-.1,3.2-.6,4.1,0,0,0,.2.1.3.2l-1.2.3c-1.6,0-9,1.5-10.4,2.1-1.2.6-5.2,2.9-6.1,3.1.5-.3,1-.6,1.3-1.2v-.2c-.4-.2-1.4.2-1.8.3h.1c1.5-.7,2.3-1.5,3.6-2.3,1.3-.8,2.7-1.2,4.2-.8.4-.3,1-.8,1.5-.9.2,0,3.5-.3,4.5-.5Z"/>
        <path class="cls-25" d="m36.8,59.5s0,0,0,0c.5.7.5,1.8,1.3,2.4.4,0,.4,0,.8-.2.3-.6.3-1.3.3-2,.4.3.7.6,1.1.8h0c.3,1.1.4,2,.7,3,.1.5.7.7.8,1.1.3.9-.7,3.7-1.1,4.6-.2.4-.4.7-.8.8-.1,0-.3,0-.4.1l-1.3,2c-.7,0-1.5,0-2.2,0-2.2-.7-5.3-.5-7.1-1.8v-.2c-1.3-.9-2.7-1.3-3.9-2.3.5,0,1,.2,1.5.3,2.5.4,6.1.6,8.2-1,1.5-1.2,2.2-3.7,2.2-5.6,0-.7-.2-1.3-.1-2h0Z"/>
        <path class="cls-4" d="m28.7,70c1.3,0,2.6.2,3.9.4,1.2.2,3.3,1,4.5.7.9-.2,1.6-.8,2.4-1.1l-1.3,2c-.7,0-1.5,0-2.2,0-2.2-.7-5.3-.5-7.1-1.8v-.2Z"/>
        <path class="cls-29" d="m17.6,34c1.8-.5,3.3-1.5,5.3-1.7-1,.8-2.1,1.3-3,2.2-.8.7-5.1,5.4-5.7,6.2-.4.6-.8,1.4-1,2.1-2.3,3-2.5,7.4-4.3,10.6.6,1.2,1.5,3.5,2.5,4.3.8,1.5,1.4,2.4,1,4.2-.6-.7-1.2-1.4-1.8-2.1-2.5-3.3-4.2-6.3-3.7-10.6.9-6.4,5.8-11.5,10.7-15.2Z"/>
        <path class="cls-8" d="m87.5,44c.7.2,3.3.4,3.9.2.2.3.4.4.4.8,0,.2-.1.3-.2.5.8,1.3.2,6.6-.2,8.1-1,4.2-3.8,6.5-6.9,9.2-1.1.9-2.1,2-3.3,2.8-.2.1-.4.2-.7.3-1.3-.5-3.1,0-4.6-.4.4-.4.4-.6.5-1.1.2-.8.4-1.5,1.2-1.9,0,.3,0,.5.2.7h.4c1.9-1.2,4.6-2.6,5.9-4.6,1.6-2.6,4.6-8.7,3.9-11.6,0-.2.1-.5.2-.7,0-.5,0-.8-.3-1.2,0-.2.1-.4.1-.6,0,0-.4-.5-.4-.5Z"/>
        <path class="cls-24" d="m87.5,44c.7.2,3.3.4,3.9.2.2.3.4.4.4.8,0,.2-.1.3-.2.5-.8-.7-1.4-.9-2.5-.9.2.9.2,1.9-.2,2.8l-.3.2c-.4-.1-.4-.2-.7-.5,0-.2.1-.5.2-.7,0-.5,0-.8-.3-1.2,0-.2.1-.4.1-.6,0,0-.4-.5-.4-.5Z"/>
        <path class="cls-26" d="m36.8,59.5c-.1-1.2,0-2.5-.7-3.5,0-1.6,1.3-3.5,2.1-4.7v-.2c0,0,0-.5,0-.5v.4c0,0-.2,0-.2,0-.1-.2-.2-.4-.2-.6.2,0,.5,0,.7-.1-.3-.3-.8-.1-1.1-.5.3-.2,1.2-.1,1.6-.1.1-.2,0-.3,0-.6.9-1.5,2.3-3.1,3.6-4.2,1.9-1.7,5.6-2.3,8-2.2,1.7.1,4.1,1,5.3,2.2.2.2.2.7.5.9,1.3,1,2.9,1.6,4,2.8l-.3.2v.3s-.1-.1-.1-.1c1.7,2.2,2.8,6.4,2.5,9.2-.3.8-.6,1.9-1.3,2.5h-.4c0,.1,0,.1,0,.1-.4.4-.6.9-.9,1.4-1,1.8-2.1,2.8-4,3.6.4-.6.8-1.1.8-1.8-.8.6-1.6,1.3-2.4,1.8.7-1.4,1.2-3,2-4.4,0-.8.7-1.1.8-2,0,0,0-.1.1-.2.2-.4.2-.6.1-1.1v-.3c.4-.4.9-.8,1-1.4.1-.9-.6-1.7-1.1-2.3-.3-.5-.8-.8-1.2-1.2-.5-1-2.3-4.6-3.2-5-1.1-.5-2.1-.6-3.1-1.5h-.4c-1.6,0-3,.8-4.6.6-2.8,1-5.2,3-6.4,5.8,0,.2-.2.4-.2.6,0,.2-.1.4-.2.6,0,.2,0,.4-.1.6,0,.2,0,.4,0,.6,0,.2,0,.4,0,.6,0,.2,0,.4,0,.6,0,.2,0,.4.1.6,0,.2.1.4.2.6.3.7.7,1.6,1.2,2.2,0,.7,0,1.4-.3,2-.4.2-.4.2-.8.2-.8-.5-.8-1.7-1.3-2.4,0,0,0,0,0,0Z"/>
        <path class="cls-10" d="m44.5,47c2.6-1.3,5.1-2,8-1,3,1,6,3.6,7.4,6.4.9,1.8,1.8,5.3,1.2,7.3-.1.3-.3.7-.5,1h0c-.4.4-.6,1-.9,1.4-1,1.8-2.1,2.8-4,3.6.4-.6.8-1.1.8-1.8-.8.6-1.6,1.3-2.4,1.8.7-1.4,1.2-3,2-4.4,0-.8.7-1.1.8-2,0,0,0-.1.1-.2.2-.4.2-.6.1-1.1v-.3c.4-.4.9-.8,1-1.4.1-.9-.6-1.7-1.1-2.3-.3-.5-.8-.8-1.2-1.2-.5-1-2.3-4.6-3.2-5-1.1-.5-2.1-.6-3.1-1.5h-.4c-1.6,0-3,.8-4.6.6Z"/>
        <path class="cls-1" d="m49.6,46.4c.7,0,1.4,0,2.1.3,1.8.7,4.6,3.5,5.9,4.9,1.6,1.8,2.6,3.5,2.5,6-1.5,1.9-2.2,4.1-3.5,6.2-.8.6-1.6,1.3-2.4,1.8.7-1.4,1.2-3,2-4.4,0-.8.7-1.1.8-2,0,0,0-.1.1-.2.2-.4.2-.6.1-1.1v-.3c.4-.4.9-.8,1-1.4.1-.9-.6-1.7-1.1-2.3-.3-.5-.8-.8-1.2-1.2-.5-1-2.3-4.6-3.2-5-1.1-.5-2.1-.6-3.1-1.5Z"/>
        <path class="cls-19" d="m47.5,27.8c1.2-.5,2.5-1.4,3.8-1.6.7-.1,1.5.4,2.3.4,4.8,0,9.2-.7,13.9,1.1.4.2,1.2.4,1.4.7.2,0,.6,0,.8.2,1.6.4,3.2.6,4.7,1,.8.3,1.5.8,2.3,1.1.6.3,2,1,2.3,1.5l.3.4c0,.4-.2.5-.5.7-.2.1-.4.2-.6.4h-.2c-.4.2-.7.5-1.2.7,0,.5-.7,1.4-1.1,1.7,0,0,0,0,0,0,0,.2-.1.4-.3.5-.4.3-.8.5-1.3.5,0,0,0-.2,0-.3.2-.9-.1-3.1-.7-3.9-1-.5-1.9,0-2.9.3-.8.2-1.7.4-2.4,0-.2-.2-.5-.2-.8-.3-2.2-.3-4.2-1.3-6.3-1.7-2.3-.4-6.7.2-8.7,1.5-.2,0-.6,0-.7-.1-.2-.1-.5-.7-.7-1-.4-.4-.9-.8-1.4-1.1-2.6,1-1.8,1.4-5.1,1.4-.4.1-.8.2-1.2.3-.7.2-1.7.4-2.3.8h-.7c-.4-.5-.3-.9-.5-1.4-.4-.2-2.1.3-3,.1-.5-.3-1-.4-1.5-.5-.3.2-.6.6-1,.7-.4-.1-.8-.2-1-.6.2-.4.4-.5.8-.7.4,0,.9-.4,1.3-.6,1.8-.8,4.1-2.1,6-2.3,1.2-.2,3,.3,3.9-.6.6.7,1.2.8,2.1.9Z"/>
        <path class="cls-24" d="m66.5,30c1.2.2,2.9.8,3.7,1.7h.5c2.4-.3,3.2-.9,5.3.8.4.3.9.8,1,1.3,0,.2,0,.4,0,.5,0,.5-.7,1.4-1.1,1.7,0,0,0,0,0,0,0,.2-.1.4-.3.5-.4.3-.8.5-1.3.5,0,0,0-.2,0-.3.2-.9-.1-3.1-.7-3.9-1-.5-1.9,0-2.9.3-.8.2-1.7.4-2.4,0-.2-.2-.5-.2-.8-.3-.3-1-3.4-1-4-2.1.6-.6,2.4-.1,3.1-.7,0,0,0,0,0,0Z"/>
        <path class="cls-12" d="m46.7,31c1.4-1.5,5.3-2.3,7.3-2.5,3.1-.3,9.9-.6,12.4,1.5,0,0,0,0,0,0-.7.6-2.4.1-3.1.7.6,1.1,3.8,1.1,4,2.1-2.2-.3-4.2-1.3-6.3-1.7-2.3-.4-6.7.2-8.7,1.5-.2,0-.6,0-.7-.1-.2-.1-.5-.7-.7-1-.4-.4-.9-.8-1.4-1.1-2.6,1-1.8,1.4-5.1,1.4.8-.2,1.5-.5,2.2-.9Z"/>
        <path class="cls-30" d="m47.5,27.8c1.2-.5,2.5-1.4,3.8-1.6.7-.1,1.5.4,2.3.4,4.8,0,9.2-.7,13.9,1.1.4.2,1.2.4,1.4.7.2,0,.6,0,.8.2,1.6.4,3.2.6,4.7,1,.8.3,1.5.8,2.3,1.1.6.3,2,1,2.3,1.5l.3.4c0,.4-.2.5-.5.7-.2.1-.4.2-.6.4h-.2c0,0,0-.1,0-.2-.1-.8-2.4-2.5-3-3-.7-.1-1.4-.3-2-.6-.6.4-1.1.7-1.7,1-.1,0-.4,0-.5,0-.2-.3-.1-.5-.1-.8,0-.3,0-.4-.2-.6-.8-.7-7.8-1.9-9.2-1.9-1.3,0-2.7,0-4,.1-2.9.2-5.5.8-8.3,1.5-1,.3-2,.8-3.1,1-1,.2-2.7-.2-3.5.4-1.8,0-3.6,1.1-5.4,1.1-.5-.3-1-.4-1.5-.5-.3.2-.6.6-1,.7-.4-.1-.8-.2-1-.6.2-.4.4-.5.8-.7.4,0,.9-.4,1.3-.6,1.8-.8,4.1-2.1,6-2.3,1.2-.2,3,.3,3.9-.6.6.7,1.2.8,2.1.9Z"/>
        <path class="cls-3" d="m47.5,27.8c1.2-.5,2.5-1.4,3.8-1.6.7-.1,1.5.4,2.3.4,4.8,0,9.2-.7,13.9,1.1.4.2,1.2.4,1.4.7-1.8.3-4.8-1.2-6.8-1.3-2,0-4.2,0-6.2.2-2.7.3-6.5,1.5-9,.9l.6-.4Z"/>
        <path class="cls-9" d="m34.1,30.4c.4,0,.9-.4,1.3-.6,1.8-.8,4.1-2.1,6-2.3,1.2-.2,3,.3,3.9-.6.6.7,1.2.8,2.1.9l-.6.4c-1.7.3-3.2.9-4.8,1.3-2.1.5-4.7.6-6.7,1.6-.3.2-.6.6-1,.7-.4-.1-.8-.2-1-.6.2-.4.4-.5.8-.7Z"/>
        <path class="cls-37" d="m57,59.3c0,.9-.7,1.2-.8,2-.8,1.4-1.3,3-2,4.4.8-.5,1.6-1.2,2.4-1.8,0,.8-.4,1.2-.8,1.8-.5.2-.8.7-1,1.2-.3.7.1,1.9.4,2.6.3.7,1,2.3,1.8,2.6.8,0,1.8-.1,2.5-.5.8-.6,2.2-.7,3.2-1.1,1.2,0,2.5-.2,3.6.1.2.2.3.2.3.5.6,0,1.3,0,1.9.2,0,0,0,0,0,0-.6.2-1.3,0-1.8.2-1.1.7-.7,1.6-2.4,2.1-.9.1-2-.1-2.9,0-1.2.3-2.5.5-3.7.7-6.9,1.3-13.3,1.4-20.3-.1-.5-.8-.8-1.6-1.5-2.2.7,0,1.5,0,2.2,0l1.3-2c.1,0,.3,0,.4-.1.4-.1.6-.5.8-.8.4-.9,1.4-3.6,1.1-4.6-.1-.4-.6-.6-.8-1.1-.3-.9-.4-1.9-.7-2.9.9.3,2.8,1.5,3.6,1,0,0,.2-.2.2-.2l.6.3c2.1.8,4.5.8,6.7.6.2-.1.6-.1.8-.2.8-.3,1.5-.7,2.1-1.3.5-.7.9-1,1.7-1.3l1-.3Z"/>
        <path class="cls-4" d="m62.7,70.5c1.2,0,2.5-.2,3.6.1.2.2.3.2.3.5-.5.5-5.1,1.3-6,1.4-.4,0-.8,0-1.2,0v-1c.9-.6,2.3-.7,3.3-1.1Z"/>
        <path class="cls-33" d="m57,59.3c0,.9-.7,1.2-.8,2-2.1,1.1-6.6,4.2-8.9,3.4-.5-.2-1.2-.9-1.5-1.4,0,0,0,0,0,0,.7.3,1.2.7,1.8,1.3.4,0,.8-.2,1.2-.3.9-.2,2.6-.6,3.1-1.4-.2-.3-.3-.4-.6-.5.2-.1.6-.1.8-.2.8-.3,1.5-.7,2.1-1.3.5-.7.9-1,1.7-1.3l1-.3Z"/>
        <path class="cls-27" d="m54.2,65.7c.8-.5,1.6-1.2,2.4-1.8,0,.8-.4,1.2-.8,1.8-.5.2-.8.7-1,1.2-.3.7.1,1.9.4,2.6.3.7,1,2.3,1.8,2.6.8,0,1.8-.1,2.5-.5v1c-.7.2-1.5.4-2.1.4-1.9,0-2.2-3-3.2-4.1l-.3.2h-.2c.2-1.1,0-2.5.6-3.4Z"/>
        <path class="cls-20" d="m44.7,61.8c2.1.8,4.5.8,6.7.6.3.2.4.2.6.5-.5.8-2.2,1.2-3.1,1.4-.4,0-.8.2-1.2.3-.6-.5-1.1-.9-1.8-1.3,0,0,0,0,0,0-.5-.3-1.1-.6-1.3-1.2l.2-.3Z"/>
        <path class="cls-1" d="m49.2,46.5h.4c1,.8,2,.9,3.1,1.4.9.4,2.7,4,3.2,5,.4.4.9.7,1.2,1.2.5.6,1.3,1.4,1.1,2.3,0,.6-.5,1-.9,1.4v.3c0,.4.1.7-.1,1.1,0,0,0,.1-.1.2l-1,.3c-.7.3-1.2.6-1.7,1.3-.6.6-1.3,1-2.1,1.3-.2,0-.6.1-.8.2-2.2.2-4.6.2-6.7-.6l-.6-.3c0,0-.1.2-.2.2-.9.5-2.8-.8-3.6-1h0c-.4-.4-.7-.7-1.1-.9-.5-.5-.9-1.5-1.2-2.2,0-.2-.1-.4-.2-.6,0-.2,0-.4-.1-.6,0-.2,0-.4,0-.6,0-.2,0-.4,0-.6,0-.2,0-.4,0-.6,0-.2,0-.4.1-.6,0-.2,0-.4.2-.6,0-.2.1-.4.2-.6,1.2-2.8,3.6-4.7,6.4-5.8,1.6.2,3-.6,4.6-.5Z"/>
        <path class="cls-33" d="m44.1,61.2h-.3c-.4,0-.4-.2-.6-.5,0-.4,0-.6.2-.9.5-.2.5-.1.9,0l-.2,1.4Z"/>
        <path class="cls-33" d="m48.9,57.5c.5.2.7.5,1,1,.4.4.7.8,1.4.8.3,0,.5,0,.8,0-2.2,1-4.1,0-6.3.3h0c2.3-.5,1.5-1.7,3.1-2Z"/>
        <path class="cls-20" d="m45.2,55.8c1.1.9,2.2,1.3,3.6,1.6h0c-1.6.4-.7,1.7-3.1,2-.4-.5-.9-.8-1.5-1.2.2-.6.6-.9,1.1-1.4.1-.4,0-.7-.2-1Z"/>
        <path class="cls-38" d="m44.5,47c1.6.2,3-.6,4.6-.5h-.1c-1.4.4-3.9.8-4.7,2.1-.9,1.3-1.5,2.9-2.2,4.3-.6,1.1-1.6,2.2-2.1,3.4-.1.3-.1.6,0,.8.3,1.6,1.7.4.4,3.4-.4-.3-.7-.5-1.1-.8-.5-.5-.9-1.5-1.2-2.2,0-.2-.1-.4-.2-.6,0-.2,0-.4-.1-.6,0-.2,0-.4,0-.6,0-.2,0-.4,0-.6,0-.2,0-.4,0-.6,0-.2,0-.4.1-.6,0-.2,0-.4.2-.6,0-.2.1-.4.2-.6,1.2-2.8,3.6-4.7,6.4-5.8Z"/>
        <path class="cls-33" d="m49.2,46.5h.4c1,.8,2,.9,3.1,1.4.9.4,2.7,4,3.2,5,.4.4.9.7,1.2,1.2.5.6,1.3,1.4,1.1,2.3,0,.6-.5,1-.9,1.4v.3c-.4,0-.9,0-1.2-.3-.3-.4-.4-.6-1-.9-.3,0-.4,0-.6.2-.9.9,0,1.6-1.7,1.9.1,0,.2-.2.3-.3.8-.7.5-1.7,1.3-2.5.4-.5.3-1.4.5-2-1-1.1-1.6-2.2-2.9-3-2.1-1.4-4.2-.4-6.4,0-.5.9-.9,1.9-1.3,2.9,0,.5,0,1.1.4,1.5,0,0,.2.2.3.2.1.4.3.7.2,1-.4.5-.9.7-1.1,1.4-.7-.3-1.2.1-1.9-.4,0-.6.4-1.5.6-2.1.2-.4,2.5-4.9,2.6-5,.3-.3.9-.4,1.2-.7.4-.3-.2-1.5,0-2.1.4-.4.7-.4,1.2-.5.4,0,.6-.4.9-.7h.1Z"/>
        <path class="cls-14" d="m57.3,57.8c-.1,0-.2,0-.4,0-.3,0-.6-.3-.7-.5-.3-.5-.3-1-.2-1.5.2-.6.5-1.2,1.1-1.6.5.6,1.3,1.4,1.1,2.3,0,.6-.5,1-.9,1.4Z"/>
        <path class="cls-15" d="m45.8,51.1c2.2-.5,4.3-1.4,6.4,0,1.3.8,1.9,2,2.9,3-.3.6-.2,1.5-.5,2-.8.7-.5,1.8-1.3,2.5-.1,0-.2.2-.3.3-.3,0-.6.2-.8.3-.3,0-.5,0-.8,0-.6,0-1-.4-1.4-.8-.3-.5-.5-.7-1-1h0c-1.4-.5-2.5-.8-3.6-1.7-.1,0-.2-.1-.3-.2-.4-.4-.4-1-.4-1.5.4-1,.8-1.9,1.3-2.9Z"/>
        <path class="cls-14" d="m48.8,57.4c.5-.2,1.1-.3,1.6-.5.7-.3,1.4-.7,2.1-1,.3-.1.6-.1.9,0h1c-.8.9-.5,1.9-1.3,2.6-.1,0-.2.2-.3.3-.3,0-.6.2-.8.3-.3,0-.5,0-.8,0-.6,0-1-.4-1.4-.8-.3-.5-.5-.7-1-1h0Z"/>
        <path class="cls-20" d="m53.5,56h1c-.8.9-.5,1.9-1.3,2.6-.1,0-.2.2-.3.3-.3,0-.6.2-.8.3-.3,0-.5,0-.8,0-.6,0-1-.4-1.4-.8,0,0,0,0,0,0,2.1.5,2.2-1.7,3.5-2.5Z"/>
      </g>
    </g>
  </g>
</svg>