<?xml version="1.0" encoding="UTF-8"?>
<svg id="Layer_2" data-name="Layer 2" xmlns="http://www.w3.org/2000/svg" xmlns:xlink="http://www.w3.org/1999/xlink" viewBox="0 0 100 100">
  <defs>
    <style>
      .cls-1 {
        fill: #1cc484;
      }

      .cls-2 {
        fill: #0af01d;
      }

      .cls-3 {
        fill: #1ee2a6;
      }

      .cls-4 {
        fill: url(#linear-gradient-17);
      }

      .cls-5 {
        fill: #3ad59a;
      }

      .cls-6 {
        stroke: #000;
      }

      .cls-6, .cls-7, .cls-8 {
        stroke-miterlimit: 10;
      }

      .cls-6, .cls-7, .cls-8, .cls-9 {
        fill: none;
      }

      .cls-10 {
        fill: #2d7b40;
      }

      .cls-11 {
        fill: url(#linear-gradient-15);
      }

      .cls-12 {
        fill: #245559;
      }

      .cls-13 {
        fill: url(#linear-gradient-18);
      }

      .cls-14 {
        fill: #5e9d84;
      }

      .cls-15 {
        fill: #faff76;
      }

      .cls-16 {
        fill: url(#linear-gradient-14);
      }

      .cls-17 {
        fill: url(#linear-gradient-20);
      }

      .cls-18 {
        fill: url(#linear-gradient-6);
      }

      .cls-19 {
        fill: #06b0eb;
      }

      .cls-20 {
        fill: url(#linear-gradient-11);
      }

      .cls-21 {
        fill: #dcffff;
      }

      .cls-22 {
        fill: url(#linear-gradient-10);
      }

      .cls-23 {
        fill: #226c83;
      }

      .cls-24 {
        fill: #76ff03;
      }

      .cls-25 {
        fill: #daffff;
      }

      .cls-26 {
        fill: url(#linear-gradient-16);
      }

      .cls-27 {
        fill: #18ecd5;
      }

      .cls-28 {
        fill: #f9ffff;
      }

      .cls-29 {
        fill: #08bdcf;
      }

      .cls-30 {
        fill: #10b34e;
      }

      .cls-7 {
        stroke: url(#linear-gradient-2);
      }

      .cls-7, .cls-8 {
        stroke-linecap: round;
      }

      .cls-31 {
        fill: #578c77;
      }

      .cls-8 {
        stroke: url(#linear-gradient-3);
      }

      .cls-32 {
        fill: url(#linear-gradient-21);
      }

      .cls-33 {
        fill: url(#linear-gradient-25);
      }

      .cls-34 {
        fill: url(#linear-gradient-5);
      }

      .cls-35 {
        fill: #369e64;
      }

      .cls-36 {
        fill: url(#linear-gradient-7);
      }

      .cls-37 {
        fill: url(#linear-gradient-24);
      }

      .cls-38 {
        fill: url(#linear-gradient-9);
      }

      .cls-39 {
        fill: url(#linear-gradient-22);
      }

      .cls-40 {
        fill: url(#linear-gradient);
      }

      .cls-41 {
        fill: url(#linear-gradient-27);
      }

      .cls-42 {
        fill: url(#linear-gradient-23);
      }

      .cls-43 {
        fill: url(#linear-gradient-19);
      }

      .cls-44 {
        fill: url(#linear-gradient-4);
      }

      .cls-45 {
        fill: #282944;
      }

      .cls-46 {
        fill: url(#linear-gradient-8);
      }

      .cls-47 {
        fill: url(#linear-gradient-12);
      }

      .cls-48 {
        fill: url(#linear-gradient-13);
      }

      .cls-49 {
        fill: url(#linear-gradient-26);
      }
    </style>
    <linearGradient id="linear-gradient" x1="49.7" y1="30.5" x2="50" y2="74.2" gradientUnits="userSpaceOnUse">
      <stop offset="0" stop-color="#ff5c1c"/>
      <stop offset=".7" stop-color="#282944"/>
    </linearGradient>
    <linearGradient id="linear-gradient-2" x1="26.7" y1="50.8" x2="38.1" y2="50.8" gradientUnits="userSpaceOnUse">
      <stop offset="0" stop-color="#2e14f5"/>
      <stop offset="1" stop-color="#563fff"/>
    </linearGradient>
    <linearGradient id="linear-gradient-3" x1="-325" y1="50.6" x2="-313.6" y2="50.6" gradientTransform="translate(-252) rotate(-180) scale(1 -1)" xlink:href="#linear-gradient-2"/>
    <linearGradient id="linear-gradient-4" x1="1453.5" y1="586.2" x2="1453.5" y2="583.2" gradientTransform="translate(-678 -285) scale(.5)" gradientUnits="userSpaceOnUse">
      <stop offset="0" stop-color="#95a799"/>
      <stop offset="1" stop-color="#d9eed2"/>
    </linearGradient>
    <linearGradient id="linear-gradient-5" x1="1455.2" y1="589.7" x2="1455" y2="584.5" gradientTransform="translate(-678 -285) scale(.5)" gradientUnits="userSpaceOnUse">
      <stop offset="0" stop-color="#fbff75"/>
      <stop offset="1" stop-color="#ffb"/>
    </linearGradient>
    <linearGradient id="linear-gradient-6" x1="1414.8" y1="606.2" x2="1414.7" y2="586.8" gradientTransform="translate(-678 -285) scale(.5)" gradientUnits="userSpaceOnUse">
      <stop offset="0" stop-color="#003400"/>
      <stop offset="1" stop-color="#6e8a80"/>
    </linearGradient>
    <linearGradient id="linear-gradient-7" x1="1415.5" y1="590.9" x2="1416" y2="585.5" gradientTransform="translate(-678 -285) scale(.5)" gradientUnits="userSpaceOnUse">
      <stop offset="0" stop-color="#547b6b"/>
      <stop offset="1" stop-color="#aca7a0"/>
    </linearGradient>
    <linearGradient id="linear-gradient-8" x1="1494.3" y1="606.7" x2="1494.4" y2="584.6" gradientTransform="translate(-678 -285) scale(.5)" gradientUnits="userSpaceOnUse">
      <stop offset="0" stop-color="#002800"/>
      <stop offset="1" stop-color="#84958e"/>
    </linearGradient>
    <linearGradient id="linear-gradient-9" x1="1455.3" y1="612.8" x2="1455.2" y2="625.9" gradientTransform="translate(-678 -285) scale(.5)" gradientUnits="userSpaceOnUse">
      <stop offset="0" stop-color="#0f422f"/>
      <stop offset="1" stop-color="#36335b"/>
    </linearGradient>
    <linearGradient id="linear-gradient-10" x1="1436.1" y1="631.6" x2="1449.9" y2="621.1" gradientTransform="translate(-678 -285) scale(.5)" gradientUnits="userSpaceOnUse">
      <stop offset="0" stop-color="#216240"/>
      <stop offset="1" stop-color="#5ccf76"/>
    </linearGradient>
    <linearGradient id="linear-gradient-11" x1="1479.3" y1="629.7" x2="1449.1" y2="617.5" gradientTransform="translate(-678 -285) scale(.5)" gradientUnits="userSpaceOnUse">
      <stop offset="0" stop-color="#247042"/>
      <stop offset="1" stop-color="#96ffa4"/>
    </linearGradient>
    <linearGradient id="linear-gradient-12" x1="1496" y1="731" x2="1495.8" y2="725.9" gradientTransform="translate(-678 -285) scale(.5)" gradientUnits="userSpaceOnUse">
      <stop offset="0" stop-color="#165553"/>
      <stop offset="1" stop-color="#0a8d89"/>
    </linearGradient>
    <linearGradient id="linear-gradient-13" x1="1415.9" y1="749.1" x2="1414.3" y2="730" gradientTransform="translate(-678 -285) scale(.5)" gradientUnits="userSpaceOnUse">
      <stop offset="0" stop-color="#04a717"/>
      <stop offset="1" stop-color="#1cc2a5"/>
    </linearGradient>
    <linearGradient id="linear-gradient-14" x1="1415" y1="749.2" x2="1413.3" y2="730.1" xlink:href="#linear-gradient-13"/>
    <linearGradient id="linear-gradient-15" x1="-2118.3" y1="1086.8" x2="-2118.3" y2="1083.8" gradientTransform="translate(-1011.5 628.3) rotate(-179.6) scale(.5)" xlink:href="#linear-gradient-4"/>
    <linearGradient id="linear-gradient-16" x1="-2116.5" y1="1090.3" x2="-2116.7" y2="1085.1" gradientTransform="translate(-1011.5 628.3) rotate(-179.6) scale(.5)" xlink:href="#linear-gradient-5"/>
    <linearGradient id="linear-gradient-17" x1="-2156.9" y1="1106.8" x2="-2157" y2="1087.4" gradientTransform="translate(-1011.5 628.3) rotate(-179.6) scale(.5)" xlink:href="#linear-gradient-6"/>
    <linearGradient id="linear-gradient-18" x1="-2156.3" y1="1091.5" x2="-2155.8" y2="1086.1" gradientTransform="translate(-1011.5 628.3) rotate(-179.6) scale(.5)" xlink:href="#linear-gradient-7"/>
    <linearGradient id="linear-gradient-19" x1="-2077.5" y1="1107.3" x2="-2077.4" y2="1085.3" gradientTransform="translate(-1011.5 628.3) rotate(-179.6) scale(.5)" xlink:href="#linear-gradient-8"/>
    <linearGradient id="linear-gradient-20" x1="-2116.4" y1="1113.5" x2="-2116.6" y2="1126.5" gradientTransform="translate(-1011.5 628.3) rotate(-179.6) scale(.5)" xlink:href="#linear-gradient-9"/>
    <linearGradient id="linear-gradient-21" x1="-2135.7" y1="1132.3" x2="-2121.9" y2="1121.7" gradientTransform="translate(-1011.5 628.3) rotate(-179.6) scale(.5)" xlink:href="#linear-gradient-10"/>
    <linearGradient id="linear-gradient-22" x1="1447.3" y1="717.2" x2="1449.4" y2="716.6" gradientTransform="translate(-678 -285) scale(.5)" gradientUnits="userSpaceOnUse">
      <stop offset="0" stop-color="#089d52"/>
      <stop offset="1" stop-color="#11bd5f"/>
    </linearGradient>
    <linearGradient id="linear-gradient-23" x1="1476.7" y1="739.5" x2="1479" y2="715.5" gradientTransform="translate(-678 -285) scale(.5)" gradientUnits="userSpaceOnUse">
      <stop offset="0" stop-color="#088028"/>
      <stop offset="1" stop-color="#166a60"/>
    </linearGradient>
    <linearGradient id="linear-gradient-24" x1="1435.9" y1="735.7" x2="1438.1" y2="711.7" xlink:href="#linear-gradient-23"/>
    <linearGradient id="linear-gradient-25" x1="1453.4" y1="737.4" x2="1455.7" y2="713.4" xlink:href="#linear-gradient-23"/>
    <linearGradient id="linear-gradient-26" x1="1408.7" y1="715.9" x2="1449.5" y2="718.4" gradientTransform="translate(-678 -285) scale(.5)" gradientUnits="userSpaceOnUse">
      <stop offset="0" stop-color="#fff3f0"/>
      <stop offset="1" stop-color="#f7ffff"/>
    </linearGradient>
    <linearGradient id="linear-gradient-27" x1="26.4" y1="76.3" x2="73" y2="76.3" gradientTransform="matrix(1,0,0,1,0,0)" xlink:href="#linear-gradient-23"/>
  </defs>
  <g id="Layer_2-2" data-name="Layer 2">
    <circle class="cls-9" cx="50" cy="50" r="50"/>
    <g>
      <path class="cls-40" d="m37.8,28.6h0c1.9.1,2.7.1,4.6.3,5.6.3,11,0,16.6-.2,1.5-.2,1.8-.2,3.4-.3.3,1.1,2.2,10,2.2,11.1l1.9,8.4c2.4,8.4,4.4,17.1,6.2,25.6-2.1,0-5.6-.6-7.7-.6-1.5-.3-3.5-.3-5-.3-.5-.1-1.2,0-1.7-.1h-1.2c-3-.4-13.1-.2-16.3,0-.4,0-.7,0-1.1,0h-2.3c-.8.2-1.6.2-2.3.3-.5,0-.9,0-1.4.1-1.1.1-2.3.2-3.4.3l-3.1.2c.4-1.3.8-2.6,1.1-4l1.9-8.4c1.5-7.2,3.5-14.4,4.7-21.6.3-1.1,2.4-9.8,2.9-10.8Z"/>
      <line class="cls-7" x1="37.6" y1="28.2" x2="27.2" y2="73.4"/>
      <line class="cls-8" x1="62.1" y1="28" x2="72.5" y2="73.2"/>
      <g id="Layer_3" data-name="Layer 3">
        <g>
          <g>
            <path class="cls-24" d="m32.5,7.3c1.6-.4,3.4-.6,5-.8,6.9-.8,13.8-.9,20.7-.3,1.4.1,2.8.2,4.1.4.8.3,1.8.3,2.6.4-1.5.5-3.2.4-4.7.4s-1.8,0-2.7,0c-.6,0-2.4-.6-2.9-.3h0c-3.5-.9-7.2-1-10.6.4-.5.2-1,.6-1.5.8-.3-.2-.6-.1-1,0-.8-.1-1.5,0-2.3-.2,0,0,0,0,0-.1.4-.1.8-.2,1.2-.2-1.5,0-3.3,0-4.7.3,0,0,0-.1,0-.2-.8-.6-2.7,0-3.4-.4Z"/>
            <path class="cls-24" d="m23.7,9.6c2.3-1,6.3-1.9,8.8-2.3.8.5,2.7-.1,3.4.4,0,0,0,.1,0,.2,1.4-.3,3.2-.3,4.7-.3-.4,0-.9,0-1.2.2,0,.1,0,0,0,.1.7.1,1.5,0,2.3.2.3,0,.7-.1,1,0-.4.3-.8.5-1.2.8-.7.6-1.4,1.2-2,1.8-.1.1-.2.2-.3.3-.3.4-1.1,1.3-1.1,1.8h.1c0,0-.1,0-.2,0s-.1,0-.2,0c-1.1,0-2.4.1-3.6.2-4.5.4-11.7,1.1-15.8,2.9-.9.4-1.6.9-2.3,1.5,0-.8,0-1.7.2-2.5.7-2.2,3.1-3.6,5-4.6.7-.4,1.5-.7,2.3-1Z"/>
            <path class="cls-24" d="m62.3,6.6c4.3.4,9.9,1.5,14,3,.9.4,2,.7,2.8,1.2,1.8.9,3.6,2.3,4.3,4.2.3.9.3,1.9.1,2.8-3.9-3.1-12.9-4-17.9-4.5-.6,0-3.4-.2-3.7-.3h.2c0-.5-.7-1.2-.9-1.5-.4-.4-.8-.9-1.2-1.2l-.5-.5-.8-.7c-.3-.1-.5-.3-.8-.5h-.2c-.2-.2-.3-.3-.5-.4l-.3-.2c-.7-.3-1.4-.6-2.2-.9h0c.4-.4,2.2.2,2.9.2.9,0,1.8,0,2.7,0,1.6,0,3.2.1,4.7-.4-.8-.1-1.9-.2-2.7-.5Z"/>
          </g>
          <path class="cls-24" d="m16.5,22.3c0-.7.4-1.1.9-1.5,1.7-1.4,5.5-2.1,7.7-2.5,2.7-.5,5.4-.7,8.2-1,2.9-.3,5.8-.5,8.8-.6,4.7-.1,9.4,0,14.1.1,1.7,0,3.4,0,5.1.2,3,.2,6,.4,9,.8,2.6.3,10.6,1.6,12.2,3.6.2.3.3.6.3.9s-.3.6-.5.8c-3.2,2.1-8.8,3.2-12.6,3.8-.5,0-1.7.4-2.1.3s0,0-.1,0c-1.7.6-3.4,1.1-5.1,1.4h0s-.3,0-.3,0h-.2c0,0,0,0,0,0-1.6.4-3.2.7-4.9,1h-.1c0,0,0,0-.1,0-.4,0-.7.1-1.1.2-1.1,0-2.3.1-3.5.1-.9,0-1.7.1-2.6,0-.8,0-2.7,0-3.5,0-2.4,0-5.8-.7-8.1-1.2h-.3c0,0,0-.1,0-.1h-.2s-.1,0-.1,0c-1.8-.4-3.6-.9-5.4-1.5-.3,0-.6,0-.9,0-3.6-.4-10.3-1.8-13.3-3.8-.5-.3-.8-.6-1.1-1.1Z"/>
        </g>
        <g>
          <g>
            <path class="cls-24" d="m36.2,92.3c0,0,0-.1,0-.2,1.4.3,3.2.3,4.7.3-.4,0-.9,0-1.2-.2,0-.1,0,0,0-.1.7-.1,1.5,0,2.3-.2.3,0,.7.1,1,0,.5.2,1,.5,1.5.8,3.4,1.4,7.1,1.3,10.6.3h0c.4.4,2.2-.2,2.9-.2.9,0,1.8,0,2.7,0,1.6,0,3.2-.1,4.7.4-.8.1-1.9.1-2.6.4-1.3.2-2.7.3-4.1.4-6.9.6-13.8.5-20.7-.3-1.6-.2-3.4-.4-5-.8.8-.5,2.7.1,3.4-.4Z"/>
            <path class="cls-24" d="m21.7,89.4c-2-1-4.3-2.4-5-4.6-.3-.8-.3-1.6-.2-2.5.7.6,1.4,1.1,2.3,1.5,4.1,1.8,11.2,2.5,15.8,2.9,1.1,0,2.4.3,3.6.2,0,0,.1,0,.2,0s.1,0,.2,0h-.1c0,.5.8,1.4,1.1,1.8l.3.3c.6.7,1.3,1.3,2,1.8.4.3.8.5,1.2.8-.3.2-.6.1-1,0-.8.1-1.5,0-2.3.2,0,0,0,0,0,.1.4.1.8.2,1.2.2-1.5,0-3.3,0-4.7-.3,0,0,0,.1,0,.2-.8.6-2.7,0-3.4.4-2.5-.4-6.5-1.3-8.8-2.3-.8-.3-1.5-.6-2.3-1Z"/>
            <path class="cls-24" d="m65.2,92.9c-1.5-.5-3.2-.4-4.7-.4s-1.8,0-2.7,0c-.6,0-2.4.6-2.9.3h0c.8-.4,1.4-.7,2.2-1l.3-.2c.2-.1.3-.2.5-.3h.2c.2-.2.5-.4.8-.6l.8-.7.5-.5c.5-.3.9-.8,1.2-1.2.3-.3.9-1.1.9-1.5h-.2c.3-.2,3.1-.3,3.7-.3,5-.5,13.9-1.4,17.9-4.5.1.9.2,1.9-.1,2.8-.6,1.9-2.5,3.4-4.3,4.2-.8.5-1.9.9-2.8,1.2-4.1,1.5-9.6,2.7-14,3,.8-.3,1.8-.4,2.7-.5Z"/>
          </g>
          <path class="cls-24" d="m17.9,76.6c3-2,9.7-3.3,13.3-3.8.3,0,.6,0,.9,0,1.8-.7,3.5-1.2,5.4-1.5h.1s.2,0,.2,0h0c0,0,.3-.1.3-.1,2.3-.5,5.7-1.3,8.1-1.2.6.5,2.6.1,3.4.2.9-.2,1.7,0,2.6,0,1.1.1,2.3.3,3.4.3.4,0,.8,0,1.1,0h.2c1.7.1,3.3.4,4.9.8h0s.2,0,.2,0h.3c0,0,0,0,0,0,1.7.3,3.5.8,5.1,1.4,0,0,0,0,.1,0,.5-.1,1.6.2,2.1.3,3.8.6,9.4,1.8,12.6,3.8.2.2.4.5.5.8s0,.6-.3.9c-1.6,1.9-9.6,3.3-12.2,3.6-3,.4-6,.6-9,.8-1.7,0-3.4.1-5.1.2-4.7.2-9.4.3-14.1.1-2.9-.1-5.8-.3-8.8-.6-2.7-.3-5.5-.5-8.2-1-2.2-.4-6-1.1-7.7-2.5-.5-.4-.8-.8-.9-1.5.3-.4.7-.8,1.1-1.1Z"/>
        </g>
      </g>
      <g id="Layer_1-2" data-name="Layer 1">
        <path class="cls-44" d="m32.5,8c1.6-.4,3.4-.6,5-.8,6.9-.8,13.8-.9,20.7-.3,1.4.1,2.8.2,4.1.4.8.3,1.8.3,2.6.4-1.5.5-3.2.4-4.7.4s-1.8,0-2.7,0c-.6,0-2.4-.6-2.9-.3h0c-3.5-.9-7.2-1-10.6.4-.5.2-1,.6-1.5.8-.3-.2-.6-.1-1,0-.8-.1-1.5,0-2.3-.2,0,0,0,0,0-.1.4-.1.8-.2,1.2-.2-1.5,0-3.3,0-4.7.3,0,0,0-.1,0-.2-.8-.5-2.7,0-3.4-.4Z"/>
        <path class="cls-14" d="m40.6,8.3c.6,0,3.2-.3,3.5-.1-.5.2-1,.6-1.5.8-.3-.2-.6-.1-1,0-.8-.1-1.5,0-2.3-.2,0,0,0,0,0-.1.4-.1.8-.2,1.2-.2Z"/>
        <path class="cls-2" d="m16.1,20.9c0-.3-.1-.7,0-1,.2-.8.8-1.3,1.4-1.7,3.1-1.9,8.6-2.7,12.2-3.1,11.7-1.4,23.9-1.4,35.6-.4,3.9.3,7.8.8,11.5,1.7,2.2.5,5.7,1.5,6.9,3.5v.9c0,0,0,0,0,0-.3-.4-.5-.7-.9-1-3.7-2.6-14.3-3.7-18.9-4.1-5.3-.4-10.6-.5-15.9-.5-8,0-16.2.3-24.1,1.9-2.1.4-5.3,1.1-7,2.5-.3.3-.5.5-.7.9,0,0,0,.1,0,.2Z"/>
        <path class="cls-2" d="m44.2,8.2c3.4-1.4,7.1-1.3,10.6-.3.8.2,1.4.6,2.2.9l.3.2c.2.1.3.2.5.3h.2c.2.2.5.4.8.6l.8.7.5.5c.5.3.9.8,1.2,1.2.3.3.9,1.1.9,1.5h-.2c-2.4-.2-4.7-.2-7.1-.3-5.5-.2-11.1,0-16.7.3h-.1c0-.5.8-1.4,1.1-1.8.1-.1.2-.2.3-.3.6-.7,1.3-1.3,2-1.8.4-.3.8-.5,1.2-.8.5-.2,1-.5,1.6-.7Z"/>
        <path class="cls-34" d="m44.2,8.2c3.4-1.4,7.1-1.3,10.6-.3.8.2,1.4.6,2.2.9l.3.2c.2.1.3.2.5.3h.2c.2.2.5.4.8.6l.8.7.5.5c-.7.1-3.3-.7-4.2-.8-1.5-.2-3.2-.2-4.7-.2-1,0-1.9,0-2.9,0h0c-1.4.2-2.9.2-4.3.4-.7.1-4.1,1.1-4.4,1.1.6-.7,1.3-1.3,2-1.8.4-.3.8-.5,1.2-.8.5-.2,1-.5,1.5-.8Z"/>
        <path class="cls-15" d="m48.2,10.1c-1.4-.2-3.5.2-4.7,0h0c0-.2.1-.3.2-.3,1.4-1,11.5-.6,13.6-.5.2,0,.4,0,.5,0h.2c.2.2.5.4.8.6l.8.7.5.5c-.7.1-3.3-.7-4.2-.8-1.5-.2-3.2-.2-4.7-.2-1,0-1.9,0-2.9,0Z"/>
        <path class="cls-18" d="m23.7,10.3c2.3-1,6.3-1.9,8.8-2.3.8.5,2.7-.1,3.4.4,0,0,0,.1,0,.2,1.4-.3,3.2-.3,4.7-.3-.4,0-.9,0-1.2.2,0,.1,0,0,0,.1.7.1,1.5,0,2.3.2.3,0,.7-.1,1,0-.4.3-.8.5-1.2.8-.7.6-1.4,1.2-2,1.8-.1.1-.2.2-.3.3-.3.4-1.1,1.3-1.1,1.8h.1c0,0-.1,0-.2,0s-.1,0-.2,0c-1.1,0-2.4.1-3.6.2-4.5.4-11.7,1.1-15.8,2.9-.9.4-1.6.9-2.3,1.5,0-.8,0-1.7.2-2.5.7-2.2,3.1-3.6,5-4.6.7-.4,1.5-.7,2.3-1Z"/>
        <path class="cls-14" d="m35.2,9.2c.2,0,.4,0,.6,0h.1c0,0,0,.2,0,.2-.3,0-.5.1-.9.1-.6.2-2.4.2-3,0,1-.2,2.4,0,3.2-.3Z"/>
        <path class="cls-35" d="m39.4,8.7c.7.1,1.5,0,2.3.2.3,0,.7-.1,1,0-.4.3-.8.5-1.2.8.1-.1.2-.3.3-.4h-.5c-.2,0-.4,0-.6,0-1.5-.2-3.1,0-4.6,0h0c0-.1-.1-.2-.1-.2-.2,0-.4,0-.6,0,.5,0,1.1-.2,1.6-.2.6,0,1.9,0,2.4-.2,0,0,0,0,.1,0Z"/>
        <path class="cls-36" d="m23.7,10.3c2.3-1,6.3-1.9,8.8-2.3.8.5,2.7-.1,3.4.4,0,0,0,.1,0,.2-1.9.5-3.4.4-5.2.7-1,.1-1.9.5-2.8.7-1,.2-2.1,0-3.1.1-.4,0-.7.2-1.1.2Z"/>
        <path class="cls-46" d="m62.3,7.3c4.3.4,9.9,1.5,14,3,.9.4,2,.7,2.8,1.2,1.8.9,3.6,2.3,4.3,4.2.3.9.3,1.9.1,2.8-3.9-3.1-12.9-4-17.9-4.5-.6,0-3.4-.2-3.7-.3h.2c0-.5-.7-1.2-.9-1.5-.4-.4-.8-.9-1.2-1.2l-.5-.5-.8-.7c-.3-.1-.5-.3-.8-.5h-.2c-.2-.2-.3-.3-.5-.4l-.3-.2c-.7-.3-1.4-.6-2.2-.9h0c.4-.4,2.2.2,2.9.2.9,0,1.8,0,2.7,0,1.6,0,3.2.1,4.7-.4-.9-.1-1.9-.2-2.7-.5Z"/>
        <path class="cls-31" d="m57.9,9.4c.3,0,.6,0,.9.2.2.1.4.3.6.4l.3.4c-.1,0-.2,0-.3,0,0,.1,0,.2,0,.2l-.8-.7c-.3-.1-.5-.3-.8-.5Z"/>
        <path class="cls-31" d="m64.3,8.9c.4,0,.8,0,1.2,0,0,.1,0,0-.1.2.1,0,0,0,.2,0,.4-.1,1.3,0,1.7.1,0,0,0,0,0,0,.3.1.8,0,1,.1-1.1.1-2.8,0-3.9,0h-.2c0,0,0,0,0,0,0,0-.2,0-.2,0h0c0-.2-.2-.2-.3-.3.2,0,.4-.2.6-.3Z"/>
        <path class="cls-14" d="m56.9,8.8c.3-.1.8,0,1.2,0,.9,0,1.7,0,2.6,0s2.5.1,3.7,0c-.2,0-.4.2-.6.3.1,0,.3,0,.3.2h0c-.9,0-1.9,0-2.8,0-.7,0-1.5,0-2.2,0-.6,0-1.2-.6-1.8-.5h0c0,.1-.3,0-.3,0Z"/>
        <path class="cls-45" d="m16.6,21.7c0-.7.4-1.1.9-1.5,1.7-1.4,5.5-2.1,7.7-2.5,2.7-.5,5.4-.7,8.2-1,2.9-.3,5.8-.5,8.8-.6,4.7-.1,9.4,0,14.1.1,1.7,0,3.4,0,5.1.2,3,.2,6,.4,9,.8,2.6.3,10.6,1.6,12.2,3.6.2.3.3.6.3.9s-.3.6-.5.8c-3.2,2.1-8.8,3.2-12.6,3.8-.5,0-1.7.4-2.1.3s0,0-.1,0c-1.7.6-3.4,1.1-5.1,1.4h0s-.3,0-.3,0h-.2c0,0,0,0,0,0-1.6.4-3.2.7-4.9,1h-.1c0-.1,0-.1,0-.1-.4,0-.7-.1-1.1,0-1.1,0-2.3.2-3.4.3-.9,0-1.7.2-2.6,0-.8,0-2.9-.3-3.4.2-2.4,0-5.8-.7-8.1-1.2h-.3c0,0,0-.1,0-.1h-.2s-.1,0-.1,0c-1.8-.4-3.6-.9-5.4-1.5-.3,0-.6,0-.9,0-3.6-.4-10.3-1.8-13.3-3.8-.5-.3-.8-.6-1.1-1.1Z"/>
        <path class="cls-38" d="m31.9,26.6c-.7-.3-1.8-.8-2-1.6,0-.2,0-.5.1-.7.8-1.3,3.7-1.9,5.1-2.2,2.3-.5,4.7-.8,7-1,5.9-.4,21.7-.7,26.4,2.4.4.2.8.6.9,1,0,.3,0,.6-.2.8-.4.6-1.1.9-1.7,1.2-1.7.6-3.4,1.1-5.1,1.4h0s-.3,0-.3,0h-.2c0,0,0,0,0,0-1.6.4-3.2.7-4.9,1h-.1c0-.1,0-.1,0-.1-.4,0-.7-.1-1.1,0-1.1,0-2.3.2-3.4.3-.9,0-1.7.2-2.6,0-.8,0-2.9-.3-3.4.2-2.4,0-5.8-.7-8.1-1.2h-.3c0,0,0-.1,0-.1h-.2s-.1,0-.1,0c-1.8-.4-3.6-.9-5.3-1.6Z"/>
        <path class="cls-35" d="m31.9,26.6c-.7-.3-1.8-.8-2-1.6,0-.2,0-.5.1-.7.8-1.3,3.7-1.9,5.1-2.2,2.3-.5,4.7-.8,7-1,5.9-.4,21.7-.7,26.4,2.4.4.2.8.6.9,1,0,.3,0,.6-.2.8-.4.6-1.1.9-1.7,1.2-1.7.6-3.4,1.1-5.1,1.4h0s.2-.1.2-.1h0c1.5-.5,5.5-1.1,6.2-2.6,0-.2,0-.4,0-.6-.2-.7-1.5-1.2-2.1-1.4-6.7-2.6-22.7-2.2-30-1-1.7.3-3.4.6-5,1.3-.4.2-1.2.6-1.4,1.1,0,.2,0,.4.1.6.8,1.3,5.3,2.5,6.9,2.7h.1c0,.1-.2.1-.2.1h-.1c-1.8-.4-3.6-.9-5.3-1.6Z"/>
        <path class="cls-22" d="m38.2,25.4c.6,0,2.2-.4,3-.5,2.3-.3,4.6-.5,6.9-.5-.6.2-1.2.2-1.9.2.4,1.2.4,2.5.8,3.7,0,0,.2.2.3.2.1,0,.4,0,.5,0,.5,0,1,.2,1.5.2.6,0,1.8-.2,2.4,0-.6.2-1.7.2-2.2.4-.8,0-2.9-.3-3.4.2-2.4,0-5.8-.7-8.1-1.2h-.3c0,0,0-.1,0-.1h0c0-.1.2-1.1.2-1.1.1-.5,0-1.2.5-1.6Z"/>
        <path class="cls-1" d="m37.6,27h.3c0,.4-.1.9-.4,1.2h0c0,0,0-.2,0-.2l.2-1Z"/>
        <path class="cls-5" d="m38.2,25.4c.2.4-.2,1.3-.2,1.7h-.3c.1-.6,0-1.3.5-1.7Z"/>
        <path class="cls-20" d="m48.1,24.4c1.1,0,6.7,0,7.5.2,1.4,0,4.9.3,6.1.8h.2c.2.6,0,1.3.2,1.9.1.3.2.4.4.6h-.2c0,0-.3.2-.3.2h-.2c0,0,0,0,0,0-1.6.4-3.2.7-4.9,1h-.1c0-.1,0-.1,0-.1-.4,0-.7-.1-1.1,0-1.1,0-2.3.2-3.4.3-.9,0-1.7.2-2.6,0,.4-.3,1.6-.2,2.2-.4-.5-.3-1.7,0-2.4,0-.5,0-1-.1-1.5-.2-.1,0-.4,0-.5,0,0,0-.2-.2-.3-.2-.4-1.2-.4-2.5-.8-3.7.6,0,1.2,0,1.9-.2Z"/>
        <path class="cls-3" d="m61.7,25.4h.2c.2.6,0,1.3.2,1.9,0,0,0,0,0,0-.3-.2-.4-1-.5-1.4,0-.2,0-.3.1-.4Z"/>
        <path class="cls-21" d="m52.6,70.3c.6.1,1.1.1,1.7.1.7,0,1.5,0,2.2.2h0c-.2,0-.8,0-.9,0l.3.2c-.9,0-1.8-.2-2.7-.2h-.4s0-.3,0-.3Z"/>
        <path class="cls-25" d="m56.5,70.7c.3,0,.6,0,.9,0,.7,0,3.1.3,3.7.5h0c.2.2.3.3.5.4-1.6-.3-3.1-.5-4.7-.7-.3,0-.7,0-1,0l-.3-.2c.1,0,.7,0,.9,0h0Z"/>
        <path class="cls-30" d="m52.7,71.5c.2.1.3,0,.6,0,.8-.2,1.9,0,2.7,0-.6.4-1.5-.1-2,.4-.4.3-.5.6-.7,1.1,0,.1,0,.3,0,.4-.3-.6-.4-1.2-.6-1.9Z"/>
        <path class="cls-47" d="m67.6,81.5v-.2c.1-.1.1-.3.1-.5h0c0,0,.3-.2.3-.2,1.7-.7,3.2-1.5,4.3-3,.1.3,0,.6,0,.8"/>
        <path class="cls-12" d="m67.7,80.8h0c0,.3,0,.4-.2.6,0,0,0,0,0,0,0-.1,0-.2,0-.3"/>
        <path class="cls-1" d="m56,71.5c2.5.2,5,.7,7.5,1.3,1,.3,2,.7,3.1,1,1.8.6,4.7,1.7,5.6,3.5,0,.1,0,0,.1.2h0c-1.2,1.6-2.6,2.4-4.3,3.1.1-.2,1.6-.8,1.9-1,.5-.3,1-.7,1.5-1.1h0c-.4-.4-.6-1.4-1.1-2-.8-.9-1.9-1.3-2.9-1.9,0,0,0,0,0,0-1.1-.2-2.2-.7-3.3-1-.6-.2-1.1-.2-1.7-.3-2-.9-6.2-1.6-8.4-1.4.6-.5,1.5,0,2-.4Z"/>
        <path class="cls-25" d="m48.7,70.4c.8,0,1.6,0,2.4,0v.2c-.8,0-1.6,0-2.4,0v-.3Z"/>
        <path class="cls-23" d="m33.2,70.8c1.1.1,2.1-.6,3.2-.6h0c-.6.4-1.5.3-2,.6,1.5.2,3.8-.6,5.3-.5-2.4.5-4.9.9-7.3,1.7-1,.3-3.7,1.4-4.3,1.4h0c0,0,0,0,0,0,.1-.2.2-.3.2-.5h.2c.7-.5,1.4-.8,2.1-1.1.4,0,2.1-.7,2.6-.9Z"/>
        <path class="cls-23" d="m63.6,70.8c.4,0,3.4.6,3.6.6h0c-.4-.2-.9-.2-1.3-.4-.3-.1-1-.2-1.2-.4.1,0,.1-.1.3-.1.2,0,.4.2.6.3.3,0,.6,0,.9.1.5.1.9.3,1.4.4.4.1.8.2,1.2.3.7.2,1.4.5,2.1.9,0,0-.2.1-.2.2,0,.2,0,.4-.2.6,0,0,0,.1,0,.2-.6-.3-1.3-.5-1.9-.6-.7-.6-3.9-1.5-5.1-2.1Z"/>
        <path class="cls-35" d="m49.5,29.3c.9.2,1.7,0,2.6,0,1.1-.1,2.3-.3,3.4-.3.4,0,.8,0,1.1,0h.2c-2.3.4-4.5.5-6.8.6-1.3,0-2.7,0-4,0,.6-.5,2.6-.1,3.4-.2Z"/>
        <g>
          <path class="cls-48" d="m28.2,80.2c0,.5.3,1,.5,1.4h0l1.3-.4c-.8-.3-1.4-.7-1.7-.9h-.3Z"/>
          <path class="cls-16" d="m28.8,81.6h0s0,0,0,0c0,0,0,0,0,0Z"/>
          <path class="cls-27" d="m44,70.6c-1.2.1-2.5.2-3.7.4-.8.1-1.6.3-2.4.4-3.4.8-9.6,2.2-11.6,5.3-.5.9-.8,1.8-.6,2.9.2.7.5,1.4,1,1.9h2c-.3-.4-.5-.9-.5-1.4-.5-.4-.9-.8-1.2-1.3,0-.1-.2-.2-.2-.4.2,0,.3,0,.4.1.3,0,1.2.8,1.5,1,0,.1,0,0,0,.1.6.3,1.6.8,2.6,1.1l3-.8-3,.8c1.3.5,2.6.9,3.5,1,0-.2,0,0,0-.2-.3-.9-.5-1.8-.9-2.6-.4-.8-.9-1.5-1.1-2.4-.2-.5-.2-1.1,0-1.6.5-1,2.6-1.5,3.7-1.7.6-.1,1.2-.1,1.8-.3h0c1.9-.4,3.7-1,5.7-1,.6-.1,1.6-.4,2.2,0,.2.1.3.3.4.4h.1c0-.3.1-.5.2-.8,0-.2,0-.4.1-.6v-.7c-1,0-2,.1-3,.2Z"/>
          <path class="cls-19" d="m25.8,79.6c-.2-1,0-2,.6-2.9,2-3.1,8.1-4.5,11.6-5.3-1.4-.2-5.8,1.2-7.2,1.7-.9.4-1.8.8-2.7,1.1-.1,0-.2,0-.4,0,0-.3,0-.5,0-.7-.3,0-.5.1-.6.4-.3.6-.4,1.1-1,1.6-.8,1.6-1.5,3.2-.9,5,0,0,0,.2.1.3t0,0c0,0,0,.2.1.3,0,0,0,0,0,0,0,0,0,.2.1.3,0,0,0,0,0,0,0,0,0,0,0,0h1.2c-.4-.6-.8-1.2-1-2Z"/>
          <path class="cls-30" d="m28.7,79.6c-.3-.2-1.2-.9-1.5-1-.2,0-.2-.2-.4-.1,0,.2,0,.3.2.4.4.5.8.9,1.2,1.3h.3c.3.4,1,.7,1.7,1l1.1-.3c-1-.4-1.9-.8-2.6-1.1,0,0,0,0,0-.1Z"/>
        </g>
        <g>
          <path class="cls-29" d="m73.6,79.6c.2-.9,0-1.8-.5-2.6-2-3.1-8.2-4.5-11.6-5.3-.1-.1-.3-.2-.5-.3h0c3.4.4,10.1,2.2,12.2,5.2.6.8,1,1.8.8,2.8-.2,1.1-1,2.2-1.8,3h.8c.5-.4.9-1,1.1-1.6.8-1.9,0-3.3-.6-5.1-.1-.4-.2-.9-.3-1.3,0-.1-.2-.3-.2-.4,0-.2,0-.3,0-.5h0c-.3,0-.6-.3-.9-.3h0c-.3-.2-.6-.3-.9-.5h-.2c0,0-.2,0-.2.2,0,.2,0,.4-.2.6,0,0,0,.1,0,.2-.6-.3-1.3-.5-1.9-.6-1.9-.5-3.7-1.2-5.6-1.6-2.4-.6-5.4-.9-7.9-1.1-.8,0-1.7-.2-2.5-.3h-.1v.8c0,.3,0,.5,0,.8.1.7.3,1.3.6,1.9,0-.1,0-.3,0-.4.2-.4.3-.8.7-1.1.6-.5,1.5,0,2-.4,2.5.2,5,.7,7.5,1.3,1,.3,2,.7,3.1,1,1.8.6,4.7,1.7,5.6,3.5,0,.1,0,0,.1.2.1-.1.2-.2.4-.3.3.3.3.9.3,1.2,0,1.1-.9,2.4-1.7,3.1-.2.2-.5.4-.7.6h1.2c.9-.7,1.6-1.6,1.8-2.6Z"/>
          <path class="cls-28" d="m74,79.4c.2-1-.2-2-.8-2.8-2.1-2.9-8.8-4.7-12.2-5.3h0c.2.2.3.3.5.4,3.5.8,9.6,2.2,11.6,5.3.5.8.7,1.7.5,2.6-.2,1-1,2-1.8,2.7h.5c.9-.8,1.7-1.8,1.8-2.9Z"/>
        </g>
      </g>
      <path class="cls-11" d="m67.4,92.1c-1.6.4-3.4.5-5,.7-6.9.8-13.8.8-20.7.2-1.4-.1-2.8-.2-4.1-.4-.8-.3-1.8-.3-2.6-.5,1.5-.5,3.2-.4,4.8-.3.9,0,1.8,0,2.7,0,.6,0,2.4.6,2.8.3h0c3.5.9,7.2,1,10.6-.4.5-.2,1-.6,1.5-.8.3.2.6.1,1,.1.8.2,1.5,0,2.3.2,0,0,0,0,0,.1-.4.1-.8.2-1.2.2,1.5,0,3.3,0,4.7-.2,0,0,0,.1,0,.2.8.5,2.7,0,3.4.4Z"/>
      <path class="cls-14" d="m59.3,91.7c-.6,0-3.2.3-3.5.1.5-.2,1-.6,1.5-.8.3.2.6.1,1,.1.8.2,1.5,0,2.3.2,0,0,0,0,0,.1-.4.1-.8.2-1.2.2Z"/>
      <path class="cls-2" d="m28.4,83.1c3,.5,5.9.8,7.7.9,5.3.4,10.6.6,15.9.6,8,0,16.2-.2,24.1-1.8,2.1-.4,5.3-1,7-2.4.3-.3.5-.5.7-.9,0,0,0-.1.1-.2,0,.3.1.7,0,1-.2.8-.8,1.3-1.4,1.6-3.1,1.9-8.6,2.6-12.2,3-11.7,1.3-23.9,1.2-35.6.2-3.9-.4-7.7-.9-11.5-1.8-2.2-.5-5.7-1.5-6.9-3.5v-.9c0,0,0,0,0,0,.3.4.5.7.9,1,2.2,1.6,6.8,2.6,11.2,3.3"/>
      <path class="cls-2" d="m55.8,91.8c-3.4,1.4-7.1,1.2-10.6.2-.7-.2-1.4-.6-2.2-.9l-.3-.2c-.2-.1-.3-.2-.5-.3h-.2c-.2-.2-.5-.4-.8-.6l-.8-.7-.5-.5c-.5-.3-.8-.8-1.2-1.2-.2-.3-.9-1.1-.9-1.5h.2c2.4.2,4.7.3,7.1.3,5.5.2,11.1.1,16.7-.2h.1c0,.5-.8,1.4-1.1,1.8l-.3.3c-.6.7-1.3,1.3-2,1.8-.4.3-.8.5-1.2.8-.5.2-1,.5-1.5.8Z"/>
      <path class="cls-26" d="m55.8,91.8c-3.4,1.4-7.1,1.2-10.6.2-.7-.2-1.4-.6-2.2-.9l-.3-.2c-.2-.1-.3-.2-.5-.3h-.2c-.2-.2-.5-.4-.8-.6l-.8-.7-.5-.5c.7-.1,3.3.7,4.2.9,1.5.2,3.2.2,4.7.2s1.9,0,2.9,0h0c1.4-.2,2.9-.1,4.3-.4.7-.1,4.1-1.1,4.4-1-.6.7-1.3,1.3-2,1.8-.4.3-.8.5-1.2.8-.5.2-1,.5-1.5.8Z"/>
      <path class="cls-15" d="m51.8,89.9c1.4.2,3.5-.2,4.7,0h0c0,.2-.1.3-.2.3-1.4,1-11.5.5-13.6.4-.2,0-.4,0-.5,0h-.2c-.2-.2-.5-.4-.8-.6l-.8-.7-.5-.5c.7-.1,3.3.7,4.2.9,1.5.2,3.2.2,4.7.2,1,0,1.9,0,2.9,0Z"/>
      <path class="cls-4" d="m76.2,89.9c-2.3,1-6.3,1.9-8.8,2.2-.8-.5-2.7.1-3.4-.4,0,0,0-.1,0-.2-1.4.3-3.2.3-4.7.2.4,0,.9,0,1.2-.2,0-.1,0,0,0-.1-.7-.2-1.5,0-2.3-.2-.3,0-.7.1-1-.1.4-.3.8-.5,1.2-.8.7-.6,1.4-1.1,2-1.8.1,0,.2-.2.3-.3.3-.4,1.1-1.3,1.1-1.8h-.1c0,0,.1,0,.2,0s.1,0,.2,0c1.1,0,2.4-.1,3.6-.2,4.5-.3,11.7-1,15.8-2.8.9-.4,1.6-.9,2.3-1.5,0,.8,0,1.7-.2,2.5-.8,2.2-3.1,3.6-5.1,4.6-.7.4-1.5.7-2.3,1Z"/>
      <path class="cls-14" d="m64.7,90.9c-.2,0-.4,0-.6,0h-.1c0,0,0-.2,0-.2.3,0,.5-.1.9,0,.6-.2,2.4-.2,3,0-1,.1-2.4,0-3.2.2Z"/>
      <path class="cls-35" d="m60.5,91.3c-.7-.2-1.5,0-2.3-.2-.3,0-.7.1-1-.1.4-.3.8-.5,1.2-.8-.1.1-.2.3-.3.4h.5c.2,0,.4,0,.6,0,1.5.2,3.1,0,4.6,0h0c0,.1.1.2.1.2.2,0,.4,0,.6,0-.5,0-1.1.2-1.6.2-.6,0-1.9,0-2.4.2,0,0,0,0-.1.1Z"/>
      <path class="cls-13" d="m76.2,89.9c-2.3,1-6.3,1.9-8.8,2.2-.8-.5-2.7.1-3.4-.4,0,0,0-.1,0-.2,1.9-.5,3.4-.4,5.2-.6,1-.1,1.9-.5,2.8-.7,1-.2,2.1,0,3.1,0,.4,0,.7-.2,1.1-.2Z"/>
      <path class="cls-43" d="m37.6,92.6c-4.3-.4-9.8-1.6-13.9-3.1-.9-.4-2-.7-2.8-1.3-1.8-.9-3.6-2.3-4.3-4.2-.3-.9-.3-1.9-.1-2.8,3.9,3.1,12.9,4.1,17.8,4.6.6,0,3.4.2,3.7.3h-.2c0,.5.7,1.2.9,1.5.4.4.8.9,1.2,1.2l.5.5.8.7c.3.1.5.3.8.5h.2c.2.2.3.3.5.4l.3.2c.7.3,1.4.6,2.2.9h0c-.4.4-2.2-.2-2.8-.2-.9,0-1.8,0-2.7,0-1.6,0-3.2-.1-4.8.3.8.1,1.9.2,2.6.5Z"/>
      <path class="cls-31" d="m42.1,90.6c-.3,0-.6,0-.9-.2-.2-.1-.4-.3-.6-.4l-.3-.4c.1,0,.2,0,.3,0,0-.1,0-.2,0-.2l.8.7c.3.2.5.4.8.5Z"/>
      <path class="cls-31" d="m35.6,91c-.4,0-.8,0-1.2,0,0-.1,0,0,.1-.2-.1,0,0,0-.2,0-.4.1-1.3,0-1.7-.1,0,0,0,0,0,0-.3-.2-.8,0-1-.1,1.1-.1,2.8,0,3.9,0h.2c0,0,0,0,0,0,0,0,.2,0,.2,0h0c0,.2.2.2.3.3-.2,0-.4.1-.6.2Z"/>
      <path class="cls-14" d="m43,91.1c-.3.1-.8,0-1.2,0-.9-.1-1.7,0-2.6,0-1.2,0-2.5-.1-3.7,0,.2,0,.4-.2.6-.2-.1,0-.3,0-.3-.2h0c.9,0,1.9,0,2.8,0,.7,0,1.5,0,2.2,0,.6,0,1.2.6,1.8.6h0c0-.1.3,0,.3,0Z"/>
      <path class="cls-45" d="m27.3,82.1c-.5,0-1-.2-1.6-.3"/>
      <path class="cls-45" d="m82.3,77.4c-2.9-2-9.7-3.4-13.3-3.9-.3,0-.6,0-.9,0-1.8-.7-3.5-1.2-5.4-1.6h-.1s-.2,0-.2,0h0c0,0-.3-.1-.3-.1-2.3-.5-5.7-1.3-8.1-1.3-.6.5-2.6.1-3.4.2-.9-.2-1.7,0-2.6,0-1.1,0-2.3.2-3.4.3-.4,0-.8,0-1.1,0h-.2c-1.7.1-3.3.4-4.9.8h0s-.2,0-.2,0h-.3c0,0,0,0,0,0-1.8.3-3.5.7-5.1,1.3,0,0,0,0-.1,0-.4-.1-1.6.2-2.1.2-3.8.6-9.4,1.7-12.6,3.8-.2.2-.4.5-.5.8,0,.3,0,.6.2.9,1,1.3,5,2.4,8.2,3l1.6.3c.9.2,1.7.3,2.3.4,3,.4,6,.7,9,.9,1.7.1,3.4.1,5.1.2,4.7.2,9.4.3,14.1.2,2.9,0,5.8-.3,8.8-.6,2.8-.2,5.5-.5,8.2-.9,2.2-.4,6-1,7.7-2.4.5-.4.8-.8.9-1.5-.3-.4-.6-.8-1.1-1.1Zm-28.4.2c-.6.7-1.6,1-2.5.9-.5.3-1,.4-1.6.4-.8,0-1.5,0-2.3,0-1.8.1-3.2-1.6-3.3-3.3,0-.1,0-.3,0-.4,0-.3,0-.6.1-.8,0,0,0,0,0,0,0-1.7,1.6-3.3,3.3-3.3.4,0,.7,0,1.1,0,.3,0,.6,0,.9.1.5,0,.9,0,1.4,0,.2,0,.4,0,0,0,0,0,0,0,0,0,1.8-.3,3.4.6,3.9,2.3.3.9,0,2-.5,2.8-.2.4-.4.7-.7,1Z"/>
      <path class="cls-17" d="m70.2,75.1c-.2-.8-1.3-1.2-2-1.6-1.7-.7-3.5-1.2-5.3-1.6h-.1s-.2,0-.2,0h0c0,0-.3-.1-.3-.1-2.3-.5-5.7-1.3-8.1-1.3-.6.5-2.6.1-3.4.2-.9-.2-1.7,0-2.6,0-1.1,0-2.3.2-3.4.3-.4,0-.8,0-1.1,0h-.2c-1.7.1-3.3.4-4.9.8h0s-.2,0-.2,0h-.3c0,0,0,0,0,0-1.8.3-3.5.7-5.1,1.3-.6.3-1.3.6-1.7,1.2-.2.2-.3.5-.2.8.1.4.5.8.9,1,4.7,3.1,20.5,3,26.4,2.6,2.4-.2,4.7-.5,7-.9,1.4-.3,4.3-.9,5.1-2.1.1-.2.2-.4.1-.7Zm-14.9.7c-.3,1.4-1.8,2.4-3.3,2.4-.5.3-1,.4-1.5.4-1.2,0-2.5,0-3.7.1-1.8.1-3.2-1.6-3.3-3.3,0-1.3.8-2.3,1.8-2.9.6-.7,1.6-1.2,2.5-1.2.8,0,1.6-.2,2.3-.2,1,0,1.9.3,2.8.5,1.8.5,2.7,2.3,2.3,4Z"/>
      <path class="cls-35" d="m68.2,73.5c.7.3,1.8.8,2,1.6,0,.2,0,.5-.1.7-.8,1.3-3.7,1.9-5.1,2.1-2.3.4-4.7.8-7,.9-5.9.4-21.7.5-26.4-2.6-.4-.2-.8-.6-.9-1,0-.3,0-.6.2-.8.4-.6,1.1-.9,1.7-1.2,1.7-.6,3.4-1,5.1-1.3h0s-.2.1-.2.1h0c-1.5.5-5.5,1.1-6.2,2.6,0,.2,0,.4,0,.6.2.7,1.5,1.2,2.1,1.4,6.7,2.6,22.7,2.4,30,1.2,1.7-.3,3.4-.5,5-1.2.4-.2,1.2-.6,1.4-1.1,0-.2,0-.4-.1-.6-.8-1.3-5.3-2.5-6.9-2.8h-.1c0-.1.2-.1.2-.1h.1c1.8.4,3.6.9,5.3,1.6Z"/>
      <path class="cls-32" d="m61.9,74.7c-.6,0-2.2.4-3,.5-2.3.3-4.6.4-6.9.4.6-.2,1.2-.1,1.9-.1-.4-1.2-.3-2.5-.8-3.7,0,0-.2-.2-.3-.2-.1,0-.4,0-.5,0-.5,0-1-.2-1.5-.2-.6,0-1.8.2-2.4-.1.6-.2,1.7-.2,2.2-.4.8,0,2.9.3,3.4-.2,2.4,0,5.8.8,8.1,1.3h.3c0,0,0,.1,0,.1h0c0,.1-.2,1.1-.2,1.1-.1.5,0,1.2-.5,1.6Z"/>
      <path class="cls-1" d="m62.4,73.1h-.3c0-.4.1-.9.4-1.2h0c0,0,0,.2,0,.2l-.2,1Z"/>
      <path class="cls-5" d="m61.9,74.7c-.2-.4.2-1.3.2-1.7h.3c-.1.6,0,1.3-.5,1.7Z"/>
      <path class="cls-3" d="m38.3,74.5h-.2c-.2-.6,0-1.3-.2-1.9,0,0,0,0,0,0,.3.3.4,1,.4,1.4,0,.2,0,.3-.1.4Z"/>
      <path class="cls-35" d="m50.6,70.7c-.9-.2-1.7,0-2.6,0-1.1,0-2.3.2-3.4.3-.4,0-.8,0-1.1,0h-.2c2.3-.4,4.5-.5,6.8-.5,1.3,0,2.7,0,4,.1-.6.5-2.6.1-3.4.2Z"/>
      <line class="cls-9" x1="71.7" y1="82.8" x2="72.8" y2="82.6"/>
      <line class="cls-9" x1="25.7" y1="81.8" x2="72.8" y2="82.6"/>
      <path class="cls-30" d="m38.3,73c0,0,.2-.1.3-.2,1.2-.5,6-1.3,7.2-1.3.4,0,.7,0,1.1.2,0,.2-.1.5-.2.7h-.1c-.1-.1-.2-.3-.4-.4-.5-.3-1.6,0-2.2,0-2,0-3.8.6-5.7.9Z"/>
      <path class="cls-39" d="m44.1,72c.6-.1,1.6-.4,2.2,0,.2.1.3.3.4.4h.1c-.2.5-.8,2.1-.5,2.5,0,.1.1.1.2.2.2,0,.3,0,.5-.1,0,0,.2-.2.2-.3v-.2c.1.2,0,.4,0,.6-.4.1-.8.3-1.1.1-.8-.4-.7-2.3-.9-3.1h0c-.1,0-.3,0-.4,0-.2,0-.3-.1-.4-.3Z"/>
      <path class="cls-10" d="m53.9,71.9c2.2-.2,6.4.5,8.4,1.4-.8,0-1.8,0-2.6-.2-.9-.2-1.7-.5-2.6-.6-.5,0-1.6,0-1.9,0-.1,0-.3-.2-.4-.3-.2,0-.5,0-.6,0-.3.1-.4.8-.6,1.1h0c0-.2,0-.3,0-.5h-.2c0,0,0,0,0,0,0,0-.1,0-.2,0,.2-.4.3-.8.7-1.1Z"/>
      <path class="cls-1" d="m36.4,73.3c.6-.1,1.2-.1,1.8-.3h0c1.9-.4,3.7-1,5.7-1h0c.6-.1,1.6-.4,2.1,0,.2.1.3.3.4.4h.1c0-.3.1-.5.2-.8,0-.2,0-.3,0-.5,0-.1,0-.2-.2-.2-.9,0-1.8,0-2.7.1-1,0-2,.3-3,.4-2.6.4-5.5.8-7.9,1.7-.7.3-1.3.5-2,.8,0,0-.6.2-.6.3-.1.1.5.1.6,0,1.1-.3,2.3-.6,3.7-.8h0c.5-.2,1-.3,1.4-.3Z"/>
      <path class="cls-42" d="m66.5,73.8c-1-.3-2-.7-3.1-1-2.5-.7-5-1.1-7.5-1.3-.6.4-1.5-.1-2,.4-.3.2-.4.5-.6.8,7.1.2,13,1.1,16.1,2.3-1-.5-2.1-.9-2.9-1.2Z"/>
      <path class="cls-37" d="m46.2,72c-.5-.3-1.6,0-2.2,0-2,0-3.8.6-5.7.9h0c-.6.2-1.2.3-1.8.4-.4,0-.9.2-1.4.3,3.2-.5,7.2-.9,11.7-1,0-.1,0-.2,0-.3h-.1c-.1-.1-.2-.3-.4-.4Z"/>
      <path class="cls-6" d="m30.4,74.8c0,0,.2,0,.2-.1-2.1.7-3.4,1.5-3.4,2.3s0,.4.2.6c.1-.2.3-.5.4-.6.7-.8,1.6-1.7,2.5-2.2Z"/>
      <path class="cls-3" d="m53.2,72.9c0-.1,0-.2.1-.3-.1,0-.2,0-.3,0,0,.2.2.5.3.7,0-.1,0-.3,0-.4Z"/>
      <path class="cls-3" d="m71.8,76.8c-.1-.7-.9-1.3-2.4-1.8,1,.5,1.8,1.1,2.4,1.8Z"/>
      <path class="cls-1" d="m34.3,80.1c-.1-.4-.3-.7-.4-1.1-.4-.8-.9-1.5-1.1-2.4-.2-.5-.2-1.1,0-1.6.3-.6,1.3-1.1,2.2-1.4-1.7.3-3.2.4-4.4.7,0,0-.5.2-.5.3-.9.5-2,1-2.7,1.7-.2.2-.2,1,.1,1.1.7,1,3.2,1.9,6.8,2.6Z"/>
      <path class="cls-33" d="m31.5,75.4c-.3.1-.5.3-.7.6-.5.6-1.8,1.6-1.7,2,.3.8-.1,0,.2.8.2.3,3.9,1.4,4.8,1.4s.4,0,.6,0c3.9.7,9.1,1.1,14.8,1.1,8.2,0,15.3-.9,19.2-2.1s.7-.5.7-.9l.2-3.2s0,0,0,0c0,0-.2,0-.3-.1-3.2-1.2-9-2-16-2.3,0,0,0,.2-.1.3,0,.1,0,.3,0,.4h0c.2.6.6,1.1.5,1.6-.2.2-.3.2-.5.2,0,0,0,0,0,0-.4,0-.8-.4-1.1-.6-1.5-.6-3-.7-4.4.2-.2,0-.3.2-.4.3,0,0-.1.1-.2.1,0-.2.1-.4.1-.6v.2c-.2,0-.3.2-.3.3-.2.1-.3.1-.5.1-.1,0-.2,0-.2-.2,0,0,0,0,0,0-.6-1.3-1.8-2.3-3.2-2.2-2.8.2-5.4.5-7.7.8s-.5.1-.7.2c-.9.4-2.3,1.1-3.1,1.6Z"/>
      <line class="cls-9" x1="26.1" y1="76.4" x2="27" y2="77.7"/>
      <path class="cls-49" d="m44.2,70.6c-1.2.1-2.5.2-3.7.4-.8.1-1.6.3-2.4.4h0c-3.2.7-8.5,1.9-10.9,4.6,0,0-.1.4-.1.4v.3c.1.2,0-.4.3-.5,3.6-2.9,11.6-4.8,15.1-5.2.8,0,4-.2,4.6-.5,0,0,0,0,0,0h0c0,0,0-.2-.1-.2-1,0-1.9.1-2.9.2Z"/>
      <path class="cls-3" d="m61.4,71.7c-1.6-.3-3.1-.5-4.7-.7-.3,0-.7,0-1,0-.9,0-1.8-.2-2.7-.2h-.4c0,.3,0,.5,0,.8,0,.4.2.8.3,1.2.2,0,.2,0,.3,0,.1-.3.3-.6.6-.8.6-.5,1.5,0,2-.4h0c2.5.2,5,.7,7.5,1.3,1,.3,2,.7,3.1,1,.9.3,1.9.7,2.9,1.2h0c1.4.5,2.2,1.1,2.4,1.8h0v-.6c0-.2-.1-.3-.3-.5-2.7-2-7.3-3.4-10.1-4Z"/>
      <ellipse class="cls-1" cx="49.8" cy="75.9" rx="24.5" ry="6"/>
      <ellipse class="cls-41" cx="49.7" cy="76.3" rx="23.3" ry="5.7"/>
    </g>
  </g>
</svg>