<?xml version="1.0" encoding="iso-8859-1"?>
<!-- Generator: Adobe Illustrator 19.0.0, SVG Export Plug-In . SVG Version: 6.00 Build 0)  -->
<svg version="1.1" id="Capa_1" xmlns="http://www.w3.org/2000/svg" xmlns:xlink="http://www.w3.org/1999/xlink" x="0px" y="0px"
	 viewBox="0 0 469.333 469.333" fill="#3ab793" style="enable-background:new 0 0 469.333 469.333;" xml:space="preserve">
<g>
	<g>
		<path d="M320,106.667V352c0,47.147-38.187,85.333-85.333,85.333S149.333,399.147,149.333,352V85.333
			c0-29.44,23.893-53.333,53.333-53.333S256,55.893,256,85.333v224c0,11.733-9.493,21.333-21.333,21.333
			c-11.84,0-21.333-9.6-21.333-21.333V106.667h-32v202.667c0,29.44,23.893,53.333,53.333,53.333S288,338.773,288,309.333v-224
			C288,38.187,249.813,0,202.667,0s-85.333,38.187-85.333,85.333V352c0,64.853,52.587,117.333,117.333,117.333S352,416.853,352,352
			V106.667H320z"/>
	</g>
</g>
<g>
</g>
<g>
</g>
<g>
</g>
<g>
</g>
<g>
</g>
<g>
</g>
<g>
</g>
<g>
</g>
<g>
</g>
<g>
</g>
<g>
</g>
<g>
</g>
<g>
</g>
<g>
</g>
<g>
</g>
</svg>
