<?xml version="1.0" encoding="UTF-8"?>
<svg width="50" height="50" version="1.1" viewBox="0 0 13.229 13.229" xmlns="http://www.w3.org/2000/svg" xmlns:cc="http://creativecommons.org/ns#" xmlns:dc="http://purl.org/dc/elements/1.1/" xmlns:rdf="http://www.w3.org/1999/02/22-rdf-syntax-ns#">
<metadata>
<rdf:RDF>
<cc:Work rdf:about="">
<dc:format>image/svg+xml</dc:format>
<dc:type rdf:resource="http://purl.org/dc/dcmitype/StillImage"/>
<dc:title/>
</cc:Work>
</rdf:RDF>
</metadata>
<circle cx="6.6146" cy="6.6146" r="6.0854" fill="#3b36eb" stroke-width=".36855"/>
<path d="m5.9996 11.592c-2.8738-0.32525-5.0451-2.8556-4.9157-5.7287 0.11475-2.5485 1.9278-4.6892 4.4045-5.2004 1.9456-0.40162 3.9839 0.28117 5.2846 1.7702 1.6542 1.8937 1.8383 4.6297 0.45198 6.7146-1.1459 1.7233-3.1818 2.6757-5.2253 2.4444z" fill-opacity="0" stroke-width=".030984"/>
<path d="m5.9996 11.592c-2.8738-0.32525-5.0451-2.8556-4.9157-5.7287 0.11475-2.5485 1.9278-4.6892 4.4045-5.2004 1.9456-0.40162 3.9839 0.28117 5.2846 1.7702 1.6542 1.8937 1.8383 4.6297 0.45198 6.7146-1.1459 1.7233-3.1818 2.6757-5.2253 2.4444z" fill-opacity="0" stroke-width=".030984"/>
<path d="m5.9996 11.592c-2.8738-0.32525-5.0451-2.8556-4.9157-5.7287 0.11475-2.5485 1.9278-4.6892 4.4045-5.2004 1.9456-0.40162 3.9839 0.28117 5.2846 1.7702 1.6542 1.8937 1.8383 4.6297 0.45198 6.7146-1.1459 1.7233-3.1818 2.6757-5.2253 2.4444z" fill-opacity="0" stroke-width=".030984"/>
</svg>
