<?xml version="1.0" encoding="UTF-8" standalone="no"?>
<svg
   xmlns:dc="http://purl.org/dc/elements/1.1/"
   xmlns:cc="http://creativecommons.org/ns#"
   xmlns:rdf="http://www.w3.org/1999/02/22-rdf-syntax-ns#"
   xmlns:svg="http://www.w3.org/2000/svg"
   xmlns="http://www.w3.org/2000/svg"
   xmlns:sodipodi="http://sodipodi.sourceforge.net/DTD/sodipodi-0.dtd"
   xmlns:inkscape="http://www.inkscape.org/namespaces/inkscape"
   width="138"
   height="138"
   viewBox="0 0 138 138"
   version="1.1"
   id="svg14"
   sodipodi:docname="cosmos.svg"
   inkscape:version="0.92.3 (2405546, 2018-03-11)">
  <!-- Generator: Sketch 52.2 (67145) - http://www.bohemiancoding.com/sketch -->

  <g
     id="Page-1"
     style="fill:none;fill-rule:evenodd;stroke:none;stroke-width:1"
     transform="matrix(0.95045435,0,0,0.92168888,-101.8317,5.9457113)">
    <g
       id="wordmark"
       style="fill:#000000">
      <path
         d="m 196.48012,41.186091 -44.39553,44.333481 c -0.57244,-1.109189 -1.08925,-2.264966 -1.55223,-3.46375 -1.55044,-4.028198 -2.32565,-8.301888 -2.32565,-12.815692 0,-4.517389 0.77521,-8.789286 2.32565,-12.817485 1.55223,-4.029991 3.70202,-7.525994 6.45117,-10.493386 2.74915,-2.9656 6.05279,-5.311202 9.90914,-7.038596 3.85814,-1.725603 8.09133,-2.589301 12.70136,-2.589301 4.61182,0 8.86834,0.885201 12.76775,2.657393 1.44994,0.657629 2.82272,1.399477 4.11834,2.227336 z m -3.91736,58.666915 c -3.85814,1.727394 -8.09132,2.589304 -12.70136,2.589304 -4.61182,0 -8.86833,-0.8852 -12.76954,-2.655604 -1.44815,-0.65942 -2.82093,-1.401268 -4.11475,-2.23092 l 44.39373,-44.329897 c 0.57244,1.107397 1.08926,2.261382 1.55223,3.461958 1.55044,4.028198 2.32565,8.301888 2.32565,12.817484 0,4.515597 -0.77521,8.787494 -2.32565,12.817485 -1.55223,4.028199 -3.70202,7.524202 -6.45117,10.489802 -2.74915,2.9656 -6.051,5.312994 -9.90914,7.040388 z m 6.71676,13.745694 c 5.94153,-2.5678 11.08452,-6.0423 15.42897,-10.42709 4.34445,-4.381202 7.71269,-9.495294 10.10653,-15.338691 2.39564,-5.843397 3.59256,-12.041591 3.59256,-18.592789 0,-6.552991 -1.19692,-12.751185 -3.59256,-18.596373 -1.41943,-3.465541 -3.16726,-6.665881 -5.24168,-9.60281 L 248.44838,12.20743 236.97445,0.75 208.01148,29.67132 c -2.60021,-1.770401 -5.42294,-3.300686 -8.46638,-4.592648 -5.94154,-2.523 -12.50217,-3.786292 -19.6837,-3.786292 -7.18331,0 -13.74395,1.284795 -19.68548,3.852592 -5.94154,2.567798 -11.08453,6.042298 -15.42898,10.425294 -4.34444,4.382995 -7.71448,9.497088 -10.10833,15.340484 -2.39384,5.843397 -3.59076,12.041591 -3.59076,18.594581 0,6.551199 1.19692,12.747601 3.59076,18.592789 1.42124,3.467334 3.16906,6.667673 5.24349,9.606394 l -28.87325,28.829936 11.47393,11.45743 28.96118,-28.91953 c 2.6002,1.7704 5.42293,3.30069 8.46637,4.59265 5.94154,2.523 12.50217,3.7845 19.6837,3.7845 7.18332,0 13.74395,-1.2848 19.68549,-3.8508 z"
         id="Fill-8"
         style="fill:#ffffff;fill-rule:nonzero"
         inkscape:connector-curvature="0" />
    </g>
  </g>
</svg>
