<svg xmlns="http://www.w3.org/2000/svg" width="32" height="32" viewBox="0 0 32 32">
  <g id="distribution_ic" transform="translate(-303 -1095)">
    <rect id="사각형_1348" data-name="사각형 1348" width="32" height="32" transform="translate(303 1095)" fill="none"/>
    <g id="그룹_1850" data-name="그룹 1850" transform="translate(-3232.731 65.602)">
      <path id="패스_1600" data-name="패스 1600" d="M3562.737,1067.325a1.488,1.488,0,0,0-1.212-.327l-9.024,1.569-2.563-2.563a.453.453,0,0,0-.322-.133h-4.549a.455.455,0,0,0-.456-.455h-5v.91h2.73v6.37h-2.73v.91h5a.455.455,0,0,0,.456-.455h1.257l4.865,2.432a1.484,1.484,0,0,0,1.415-.045l9.926-5.791a1.487,1.487,0,0,0,.207-2.422Zm-18.58,5.371h-.91v-6.37h.91Zm17.914-3.734-9.926,5.79a.576.576,0,0,1-.549.018l-4.96-2.48a.45.45,0,0,0-.2-.048h-1.365v-5.46h4.361l3.585,3.584a.832.832,0,0,1-.588,1.421.84.84,0,0,1-.589-.244l-2.353-2.353-.643.643,2.353,2.353a1.742,1.742,0,0,0,2.463-2.464l-.368-.368,8.392-1.46a.577.577,0,0,1,.39,1.067Z" transform="translate(0 -17.664)" fill="#3ab793"/>
      <g id="그룹_1849" data-name="그룹 1849" transform="translate(3550.069 1037.539)">
        <rect id="사각형_1369" data-name="사각형 1369" width="6.764" height="0.91" transform="translate(0.573 5.005) rotate(-47.724)" fill="#3ab793"/>
        <path id="패스_1601" data-name="패스 1601" d="M3563.967,1045.87a1.365,1.365,0,1,0-1.365-1.365A1.367,1.367,0,0,0,3563.967,1045.87Zm0-1.82a.455.455,0,1,1-.455.455A.456.456,0,0,1,3563.967,1044.05Z" transform="translate(-3562.601 -1043.063)" fill="#3ab793"/>
        <path id="패스_1602" data-name="패스 1602" d="M3570.6,1050.505a1.365,1.365,0,1,0,1.365-1.365A1.366,1.366,0,0,0,3570.6,1050.505Zm1.82,0a.455.455,0,1,1-.455-.455A.455.455,0,0,1,3572.421,1050.505Z" transform="translate(-3566.962 -1046.333)" fill="#3ab793"/>
      </g>
      <path id="패스_1603" data-name="패스 1603" d="M3560.806,1047.69a7.343,7.343,0,1,1,7.343-7.342A7.35,7.35,0,0,1,3560.806,1047.69Zm0-13.775a6.433,6.433,0,1,0,6.432,6.433A6.44,6.44,0,0,0,3560.806,1033.915Z" transform="translate(-7.553)" fill="#3ab793"/>
    </g>
  </g>
</svg>
