<?xml version="1.0" encoding="UTF-8" standalone="no"?>
<svg
   xmlns:dc="http://purl.org/dc/elements/1.1/"
   xmlns:cc="http://creativecommons.org/ns#"
   xmlns:rdf="http://www.w3.org/1999/02/22-rdf-syntax-ns#"
   xmlns:svg="http://www.w3.org/2000/svg"
   xmlns="http://www.w3.org/2000/svg"
   xmlns:sodipodi="http://sodipodi.sourceforge.net/DTD/sodipodi-0.dtd"
   xmlns:inkscape="http://www.inkscape.org/namespaces/inkscape"
   class="ionicon"
   viewBox="0 0 512 512"
   version="1.1"
   id="svg16"
   sodipodi:docname="edit.svg"
   inkscape:version="1.0.1 (c497b03c, 2020-09-10)">
  <metadata
     id="metadata22">
    <rdf:RDF>
      <cc:Work
         rdf:about="">
        <dc:format>image/svg+xml</dc:format>
        <dc:type
           rdf:resource="http://purl.org/dc/dcmitype/StillImage" />
        <dc:title>Create</dc:title>
      </cc:Work>
    </rdf:RDF>
  </metadata>
  <defs
     id="defs20" />
  <sodipodi:namedview
     pagecolor="#ffffff"
     bordercolor="#666666"
     borderopacity="1"
     objecttolerance="10"
     gridtolerance="10"
     guidetolerance="10"
     inkscape:pageopacity="0"
     inkscape:pageshadow="2"
     inkscape:window-width="1792"
     inkscape:window-height="1001"
     id="namedview18"
     showgrid="false"
     inkscape:zoom="1.4355469"
     inkscape:cx="256"
     inkscape:cy="256"
     inkscape:window-x="0"
     inkscape:window-y="23"
     inkscape:window-maximized="1"
     inkscape:current-layer="svg16" />
  <title
     id="title10">Create</title>
  <path
     fill="#3ab793"
     d="m 472.98112,31.534908 a 28.558293,29.300193 0 0 0 -41.29039,-1.021675 l -21.99664,22.458616 a 14.2258,14.595363 0 0 0 0,20.634195 l 20.16507,20.65244 a 14.2258,14.595363 0 0 0 20.16507,0 l 21.44539,-21.893046 c 10.84717,-11.11072 11.86077,-29.208971 1.5115,-40.83053 z M 365.22068,98.582361 44.215505,427.34293 a 16.004025,16.419784 0 0 0 -4.1077,7.16997 l -14.848179,45.37334 a 6.9528598,7.1334841 0 0 0 8.642174,8.86669 l 44.188891,-15.23392 a 16.004025,16.419784 0 0 0 6.988425,-4.21441 L 405.51526,139.92373 a 16.004025,16.419784 0 0 0 0,-23.09716 L 387.82192,98.582361 a 16.004025,16.419784 0 0 0 -22.60124,0 z"
     id="path14"
     style="stroke-width:1.80118" />
</svg>
