<svg id="Layer_1" data-name="Layer 1" xmlns="http://www.w3.org/2000/svg" viewBox="30 18 169 196"><defs><style>.cls-1{fill:#fff}.cls-2{fill:#469ea2}.cls-3{fill:#6acad1}.cls-4,.cls-5{fill:#083b54}.cls-4{fill-opacity:.15}.cls-5{fill-opacity:.05}</style></defs><title>IPFS logo (new)</title>
<path class="cls-2" d="M30.3 164l84 48.5 84-48.5V67l-84-48.5-84 48.5v97z"/>
<path class="cls-3" d="M105.7 30.1l-61 35.2a18.19 18.19 0 0 1 0 3.3l60.9 35.2a14.55 14.55 0 0 1 17.3 0l60.9-35.2a18.19 18.19 0 0 1 0-3.3L123 30.1a14.55 14.55 0 0 1-17.3 0zm84 48.2l-61 35.6a14.73 14.73 0 0 1-8.6 15l.1 70a15.57 15.57 0 0 1 2.8 1.6l60.9-35.2a14.73 14.73 0 0 1 8.6-15V79.9a20 20 0 0 1-2.8-1.6zm-150.8.4a15.57 15.57 0 0 1-2.8 1.6v70.4a14.38 14.38 0 0 1 8.6 15l60.9 35.2a15.57 15.57 0 0 1 2.8-1.6v-70.4a14.38 14.38 0 0 1-8.6-15L38.9 78.7z"/>
<path class="cls-2" d="M114.3 29l75.1 43.4v86.7l-75.1 43.4-75.1-43.4V72.3L114.3 29m0-10.3l-84 48.5v97l84 48.5 84-48.5v-97l-84-48.5z"/>
<path class="cls-2" d="M114.9 132h-1.2A15.66 15.66 0 0 1 98 116.3v-1.2a15.66 15.66 0 0 1 15.7-15.7h1.2a15.66 15.66 0 0 1 15.7 15.7v1.2a15.66 15.66 0 0 1-15.7 15.7zm0 64.5h-1.2a15.65 15.65 0 0 0-13.7 8l14.3 8.2 14.3-8.2a15.65 15.65 0 0 0-13.7-8zm83.5-48.5h-.6a15.66 15.66 0 0 0-15.7 15.7v1.2a15.13 15.13 0 0 0 2 7.6l14.3-8.3V148zm-14.3-89a15.4 15.4 0 0 0-2 7.6v1.2a15.66 15.66 0 0 0 15.7 15.7h.6V67.2L184.1 59zm-69.8-40.3L100 26.9a15.73 15.73 0 0 0 13.7 8.1h1.2a15.65 15.65 0 0 0 13.7-8l-14.3-8.3zM44.6 58.9l-14.3 8.3v16.3h.6a15.66 15.66 0 0 0 15.7-15.7v-1.2a16.63 16.63 0 0 0-2-7.7zM30.9 148h-.6v16.2l14.3 8.3a15.4 15.4 0 0 0 2-7.6v-1.2A15.66 15.66 0 0 0 30.9 148z"/>
<path class="cls-4" d="M114.3 213.2v-97.1l-84-48.5v97.1z"/>
<path class="cls-5" d="M198.4 163.8v-97l-84 48.5v97.1z"/></svg>