<svg xmlns="http://www.w3.org/2000/svg" width="32" height="32" viewBox="0 0 32 32">
  <g id="stake_ic" transform="translate(-398 -514)">
    <g id="그룹_1802" data-name="그룹 1802" transform="translate(-1592.158 -434.36)">
      <ellipse id="타원_151" data-name="타원 151" cx="6.045" cy="2.17" rx="6.045" ry="2.17" transform="translate(1995.658 955.36)" fill="none" stroke="#3ab793" stroke-miterlimit="10" stroke-width="1"/>
      <path id="패스_1562" data-name="패스 1562" d="M2007.748,988c0,1.2-2.706,2.17-6.045,2.17s-6.045-.972-6.045-2.17" transform="translate(0 -27.342)" fill="none" stroke="#3ab793" stroke-miterlimit="10" stroke-width="1"/>
      <path id="패스_1563" data-name="패스 1563" d="M2004.527,1009.2a15.3,15.3,0,0,1-2.824.251c-3.339,0-6.045-.972-6.045-2.17" transform="translate(0 -43.488)" fill="none" stroke="#3ab793" stroke-miterlimit="10" stroke-width="1"/>
      <path id="패스_1564" data-name="패스 1564" d="M2004.527,1026.869a15.278,15.278,0,0,1-2.824.251c-3.339,0-6.045-.972-6.045-2.17" transform="translate(0 -58.29)" fill="none" stroke="#3ab793" stroke-miterlimit="10" stroke-width="1"/>
      <path id="패스_1565" data-name="패스 1565" d="M2004.6,983.224a15.211,15.211,0,0,1-2.9.265c-3.339,0-6.045-.972-6.045-2.17V969.435" transform="translate(0 -11.789)" fill="none" stroke="#3ab793" stroke-miterlimit="10" stroke-width="1"/>
      <line id="선_151" data-name="선 151" y2="5.791" transform="translate(2007.748 957.646)" fill="none" stroke="#3ab793" stroke-miterlimit="10" stroke-width="1"/>
      <path id="패스_1566" data-name="패스 1566" d="M2071.2,969.435" transform="translate(-63.273 -11.789)" fill="none" stroke="#3ab793" stroke-linejoin="round" stroke-width="1"/>
      <path id="패스_1567" data-name="패스 1567" d="M2062.369,1016.023v5.884c0,1.2-2.707,2.17-6.045,2.17s-6.045-.971-6.045-2.17v-5.884" transform="translate(-45.751 -50.812)" fill="none" stroke="#3ab793" stroke-miterlimit="10" stroke-width="1"/>
      <ellipse id="타원_152" data-name="타원 152" cx="6.045" cy="2.17" rx="6.045" ry="2.17" transform="translate(2004.527 963.186)" fill="none" stroke="#3ab793" stroke-miterlimit="10" stroke-width="1"/>
      <path id="패스_1568" data-name="패스 1568" d="M2062.369,1034.589c0,1.2-2.707,2.17-6.045,2.17s-6.045-.972-6.045-2.17" transform="translate(-45.751 -66.363)" fill="none" stroke="#3ab793" stroke-miterlimit="10" stroke-width="1"/>
      <path id="패스_1569" data-name="패스 1569" d="M2125.817,1016.023" transform="translate(-109.023 -50.812)" fill="none" stroke="#3ab793" stroke-linejoin="round" stroke-width="1"/>
    </g>
    <rect id="사각형_1345" data-name="사각형 1345" width="32" height="32" transform="translate(398 514)" fill="none"/>
  </g>
</svg>
