<svg xmlns="http://www.w3.org/2000/svg" viewBox="0 0 80 80">
  <path fill="#0e3ca5" d="M34.4 62.108c2.192 8.109 10.056 14.3 14.027 14.041.14-.009 15.064-2.791 23.234-16.442 6.358-10.623 4.193-20.878-4.454-21.1-3.111.227-36.984 8.053-32.807 23.5m32.006-52.084-.009-.008.012-.007a37.951 37.951 0 0 0-40-5.772A22.386 22.386 0 0 0 24 5.414c-.532.283-1.065.565-1.582.873l.126.039a17.255 17.255 0 0 0-4 3.792C7.649 24.509 44.159 34.969 63.679 35c8.98 6.45 11.501-18.147 2.727-24.977Z"/>
  <path fill="#5493f7" d="M28.609 10.315C23.6 17.853 6.888 23.165 4.14 22.338l-.018-.038c.112-.227.227-.453.343-.678a40.2 40.2 0 0 1 11.913-13.9q1.542-1.131 3.193-2.114a11.823 11.823 0 0 1 5.523-1.468c7.44.142 3.555 6.115 3.515 6.175M24.5 63.591c.36 2.369-.009 11.725-.494 12.514-.417.025-1.286.078-3.8-1.334A40.054 40.054 0 0 1 2.039 27.364q.2-.6.42-1.2C5.346 30 8.683 33.47 11.52 37.344c2.7 3.688 6.417 9.7 7.173 10.986 4.7 7.976 5.444 12.9 5.8 15.261M80 40.007A39.9 39.9 0 0 1 77.216 54.7c-4.711 5.063-36.477-7.4-36.788-7.538-4.346-1.9-17.57-7.7-18.763-16.8C19.949 17.273 46.509 8.15 58.181 7.8c1.4.017 5.659.066 8.142 2.083A39.911 39.911 0 0 1 80 40.007M58.5 75.486c-3.463 1.616-7.275.439-6.285-2.933 1.9-6.476 18.507-13.115 22.174-13.475.452-.045.644.263.444.615A40.4 40.4 0 0 1 58.5 75.486"/>
</svg>
