<?xml version="1.0" encoding="UTF-8" standalone="no"?>
<svg
   xmlns:dc="http://purl.org/dc/elements/1.1/"
   xmlns:cc="http://creativecommons.org/ns#"
   xmlns:rdf="http://www.w3.org/1999/02/22-rdf-syntax-ns#"
   xmlns:svg="http://www.w3.org/2000/svg"
   xmlns="http://www.w3.org/2000/svg"
   xmlns:sodipodi="http://sodipodi.sourceforge.net/DTD/sodipodi-0.dtd"
   xmlns:inkscape="http://www.inkscape.org/namespaces/inkscape"
   viewBox="0 -12 512 512"
   version="1.1"
   id="svg4"
   sodipodi:docname="tiks.svg"
   inkscape:version="0.92.3 (2405546, 2018-03-11)">
  <metadata
     id="metadata10">
    <rdf:RDF>
      <cc:Work
         rdf:about="">
        <dc:format>image/svg+xml</dc:format>
        <dc:type
           rdf:resource="http://purl.org/dc/dcmitype/StillImage" />
      </cc:Work>
    </rdf:RDF>
  </metadata>
  <defs
     id="defs8" />
  <sodipodi:namedview
     pagecolor="#ffffff"
     bordercolor="#666666"
     borderopacity="1"
     objecttolerance="10"
     gridtolerance="10"
     guidetolerance="10"
     inkscape:pageopacity="0"
     inkscape:pageshadow="2"
     inkscape:window-width="1366"
     inkscape:window-height="710"
     id="namedview6"
     showgrid="false"
     inkscape:zoom="0.4609375"
     inkscape:cx="86.779661"
     inkscape:cy="256"
     inkscape:window-x="64"
     inkscape:window-y="1110"
     inkscape:window-maximized="1"
     inkscape:current-layer="svg4" />
  <path
     d="m489.160156 380.265625c-5.90625-23.625-22.4375-57.039063-37.636718-76.078125l-23.269532-29.140625c-3.980468-23.683594-11.292968-49.0625-21.203125-73.667969l23.714844-7.179687c25.257813-7.648438 53.320313-32.414063 63.890625-56.378907l16.066406-36.4375c3.339844-7.578124-.097656-16.433593-7.675781-19.777343-7.578125-3.335938-16.433594.09375-19.777344 7.675781l-16.0625 36.433594c-7.078125 16.050781-28.167969 34.632812-45.132812 39.769531l-27.414063 8.304687c-3.816406-7.671874-7.867187-15.171874-12.140625-22.398437-6.710937-11.34375-13.730469-21.738281-21-31.148437l21.050781-6.375c14.6875-4.449219 25.742188-14.410157 30.324219-27.332032 4.582031-12.925781 2.273438-27.625-6.328125-40.332031l-26.824218-39.613281c-4.644532-6.859375-13.96875-8.652344-20.832032-4.011719-6.855468 4.648437-8.652344 13.972656-4.007812 20.832031l26.820312 39.613282c3.25 4.796874 4.277344 9.585937 2.894532 13.484374-1.378907 3.894532-5.195313 6.96875-10.742188 8.648438l-34.332031 10.394531c-18.1875-17.550781-37.492188-29.386719-57.222657-34.992187l26.09375-36.898438c4.78125-6.761718 3.175782-16.125-3.589843-20.90625-6.761719-4.78125-16.121094-3.175781-20.90625 3.585938l-27.917969 39.484375-27.921875-39.484375c-4.78125-6.761719-14.144531-8.367188-20.90625-3.585938s-8.367187 14.144532-3.585937 20.90625l26.089843 36.898438c-19.726562 5.605468-39.03125 17.441406-57.21875 34.988281l-34.332031-10.394531c-5.546875-1.679688-9.363281-4.75-10.746094-8.644532-1.378906-3.898437-.351562-8.6875 2.898438-13.484374l26.820312-39.609376c4.644532-6.863281 2.847656-16.1875-4.011718-20.832031-6.859376-4.644531-16.1875-2.851562-20.832032 4.011719l-26.820312 39.609375c-8.601563 12.710937-10.910156 27.410156-6.328125 40.332031s15.636719 22.886719 30.324219 27.332032l21.050781 6.375c-7.269531 9.410156-14.289063 19.804687-21 31.152343-4.273438 7.226563-8.324219 14.722657-12.136719 22.394531l-27.417969-8.300781c-16.964843-5.136719-38.054687-23.722656-45.132812-39.773437l-16.0625-36.433594c-3.34375-7.578125-12.195313-11.011719-19.777344-7.671875-7.578125 3.339844-11.015625 12.195313-7.675781 19.773437l16.066406 36.4375c10.570312 23.96875 38.632812 48.730469 63.886719 56.378907l23.71875 7.183593c-9.90625 24.601563-17.226563 49.980469-21.203125 73.660157l-23.269532 29.144531c-15.199218 19.039062-31.730468 52.457031-37.632812 76.078125l-22.390625 89.5625c-2.011719 8.039063 2.875 16.183594 10.914063 18.191406 1.222656.304688 2.441406.449219 3.648437.449219 6.71875 0 12.835937-4.550781 14.539063-11.363281l22.390624-89.566407c4.464844-17.855468 17.222657-44.339843 28.957032-60.636718 7.207031 90.292968 82.980468 161.5625 175.097656 161.5625 92.113281 0 167.890625-71.269532 175.097656-161.5625 11.738282 16.296875 24.496094 42.78125 28.957032 60.636718l22.390624 89.566407c1.703126 6.816406 7.820313 11.363281 14.539063 11.363281 1.207031 0 2.429687-.144531 3.648437-.449219 8.039063-2.011719 12.925782-10.152343 10.914063-18.191406zm-288.414062-248.492187c16.902344-28.578126 37.042968-44.96875 55.253906-44.96875s38.351562 16.390624 55.253906 44.96875c15.882813 26.855468 26.144532 60.074218 26.144532 84.628906 0 44.882812-36.515626 81.398437-81.398438 81.398437s-81.398438-36.515625-81.398438-81.398437c0-24.554688 10.261719-57.773438 26.144532-84.628906zm55.253906 326.691406c-80.320312 0-145.664062-65.34375-145.664062-145.664063 0-8.941406.785156-18.542969 2.269531-28.546875.089843-.46875.160156-.9375.207031-1.410156 4.125-26.765625 13.230469-56.371094 25.917969-84.269531.0625-.132813.121093-.273438.1875-.414063 3.632812-7.964844 7.558593-15.785156 11.742187-23.363281-3.894531 14.710937-6.058594 29.035156-6.058594 41.605469 0 61.425781 49.972657 111.398437 111.398438 111.398437s111.398438-49.972656 111.398438-111.398437c0-12.570313-2.164063-26.894532-6.058594-41.601563 4.1875 7.582031 8.117187 15.410157 11.753906 23.382813.058594.128906.113281.261718.175781.390625 12.675781 27.878906 21.777344 57.464843 25.910157 84.214843.046874.5.121093.996094.21875 1.488282 1.480468 10 2.265624 19.589844 2.265624 28.527344 0 80.316406-65.34375 145.660156-145.664062 145.660156zm0 0"
     id="path2"
     style="stroke:#ff0000;stroke-opacity:1;stroke-width:15;stroke-miterlimit:4;stroke-dasharray:none" />
</svg>
