<?xml version="1.0" encoding="UTF-8" standalone="no"?>
<svg
   xmlns:dc="http://purl.org/dc/elements/1.1/"
   xmlns:cc="http://creativecommons.org/ns#"
   xmlns:rdf="http://www.w3.org/1999/02/22-rdf-syntax-ns#"
   xmlns:svg="http://www.w3.org/2000/svg"
   xmlns="http://www.w3.org/2000/svg"
   xmlns:sodipodi="http://sodipodi.sourceforge.net/DTD/sodipodi-0.dtd"
   xmlns:inkscape="http://www.inkscape.org/namespaces/inkscape"
   version="1.0"
   width="1280.000000pt"
   height="687.000000pt"
   viewBox="0 0 1280.000000 687.000000"
   preserveAspectRatio="xMidYMid meet"
   id="svg8"
   sodipodi:docname="303278.svg"
   inkscape:version="0.92.3 (2405546, 2018-03-11)">
  <metadata
     id="metadata14">
    <rdf:RDF>
      <cc:Work
         rdf:about="">
        <dc:format>image/svg+xml</dc:format>
        <dc:type
           rdf:resource="http://purl.org/dc/dcmitype/StillImage" />
      </cc:Work>
    </rdf:RDF>
  </metadata>
  <defs
     id="defs12" />
  <sodipodi:namedview
     pagecolor="#ffffff"
     bordercolor="#666666"
     borderopacity="1"
     objecttolerance="10"
     gridtolerance="10"
     guidetolerance="10"
     inkscape:pageopacity="0"
     inkscape:pageshadow="2"
     inkscape:window-width="1366"
     inkscape:window-height="710"
     id="namedview10"
     showgrid="false"
     inkscape:zoom="0.45254834"
     inkscape:cx="723.36266"
     inkscape:cy="296.42201"
     inkscape:window-x="64"
     inkscape:window-y="1110"
     inkscape:window-maximized="1"
     inkscape:current-layer="svg8" />
  <g
     transform="matrix(0.1,0,0,-0.1,0,687)"
     id="g6"
     style="fill:none;stroke:#41d100;stroke-opacity:1;opacity:1">
    <path
       d="m 6338,6863 c 6,-2 18,-2 25,0 6,3 1,5 -13,5 -14,0 -19,-2 -12,-5 z"
       id="path2"
       inkscape:connector-curvature="0"
       style="fill:none;stroke:#41d100;stroke-opacity:1" />
    <path
       d="m 6354,6262 c 3,-5 1,-24 -4,-43 -5,-19 -21,-97 -35,-174 -33,-180 -58,-278 -96,-373 -87,-221 -243,-370 -429,-412 -115,-26 -113,-22 -42,-66 168,-103 331,-215 355,-243 57,-68 82,-324 43,-441 -37,-108 -167,-307 -285,-435 -343,-371 -832,-551 -1349,-494 -294,32 -576,133 -817,293 -122,82 -285,228 -285,256 0,48 158,215 353,374 53,44 97,83 97,86 0,3 -21,16 -47,29 -223,108 -395,347 -548,766 -27,72 -51,134 -55,138 -4,4 -21,-39 -40,-95 -56,-177 -128,-351 -182,-443 -95,-158 -234,-284 -383,-346 -30,-12 -55,-26 -55,-29 0,-4 44,-43 98,-87 54,-44 129,-112 166,-149 72,-73 156,-188 156,-215 0,-18 -222,-222 -381,-351 -264,-213 -498,-334 -714,-369 -93,-15 -285,-6 -370,16 -351,94 -656,466 -736,895 -20,105 -15,291 9,392 40,164 97,265 224,394 l 80,81 -64,13 c -339,66 -535,212 -817,607 -135,190 -176,242 -185,232 -1,-2 113,-400 256,-884 142,-484 271,-936 287,-1005 16,-69 48,-178 71,-243 23,-64 245,-812 494,-1662 249,-850 455,-1547 458,-1550 9,-9 399,-120 648,-185 C 3333,254 4461,82 5570,30 c 124,-6 308,-15 410,-20 237,-13 526,-13 755,0 99,5 281,14 405,20 1294,61 2597,288 3840,670 114,35 130,37 179,28 29,-5 56,-7 59,-4 5,5 791,2677 1022,3476 44,151 185,633 314,1070 128,437 231,797 230,799 -9,10 -50,-42 -185,-232 -155,-217 -288,-364 -394,-434 -127,-84 -273,-144 -423,-173 l -64,-13 80,-81 c 127,-129 184,-230 224,-394 24,-101 29,-287 9,-392 -68,-368 -303,-700 -596,-840 -109,-53 -180,-70 -317,-77 -354,-18 -653,134 -1150,586 -76,68 -138,132 -138,140 0,27 84,142 156,215 37,37 112,105 166,149 54,44 98,83 98,87 0,3 -25,17 -55,29 -149,62 -288,188 -383,346 -54,92 -126,266 -182,443 -19,56 -36,99 -40,95 -4,-4 -28,-66 -55,-138 -153,-419 -325,-658 -547,-766 -27,-13 -48,-26 -48,-29 0,-3 44,-42 97,-86 195,-159 353,-326 353,-374 0,-28 -163,-174 -285,-256 -241,-160 -523,-261 -817,-293 -517,-57 -1006,123 -1349,494 -118,128 -248,327 -285,435 -39,117 -14,373 43,441 24,28 187,140 355,243 71,44 73,40 -42,66 -178,40 -336,185 -428,390 -34,77 -56,141 -112,332 -49,164 -97,287 -113,288 -5,0 -6,-4 -3,-8 z"
       id="path4"
       inkscape:connector-curvature="0"
       style="fill:none;stroke:#3ab793;stroke-opacity:0.78823531;opacity:1;stroke-width:97.50000116;stroke-miterlimit:4;stroke-dasharray:none;stroke-linejoin:miter;stroke-linecap:round" />
  </g>
</svg>
