<svg xmlns="http://www.w3.org/2000/svg" width="32" height="32" viewBox="0 0 32 32">
  <g id="proposal_ic" transform="translate(-290 -829)">
    <path id="패스_1595" data-name="패스 1595" d="M0,0H32V32H0Z" transform="translate(290 829)" fill="none"/>
    <g id="그룹_1845" data-name="그룹 1845" transform="translate(-2932.826 -238.686)">
      <g id="패스_1592" data-name="패스 1592" transform="translate(-64.773 -60.608)" fill="none" stroke-miterlimit="10">
        <path d="M3305.033,1144.927l6.316,7.185a10.974,10.974,0,0,0,3.25-7.185Z" stroke="none"/>
        <path d="M 3307.2431640625 1145.927001953125 L 3311.3623046875 1150.61328125 C 3312.46826171875 1149.260498046875 3313.198486328125 1147.64697265625 3313.483154296875 1145.927001953125 L 3307.2431640625 1145.927001953125 M 3305.03271484375 1144.927001953125 L 3314.59912109375 1144.927001953125 C 3314.437255859375 1147.7333984375 3313.224609375 1150.25732421875 3311.3486328125 1152.1123046875 L 3305.03271484375 1144.927001953125 Z" stroke="none" fill="#3ab793"/>
      </g>
      <g id="패스_1593" data-name="패스 1593" transform="translate(-60.712)" fill="#3ab793" stroke-miterlimit="10">
        <path d="M 3309.994873046875 1082.531005859375 L 3300.69189453125 1082.531005859375 L 3300.69189453125 1073.22802734375 C 3305.590087890625 1073.756958007813 3309.46630859375 1077.633056640625 3309.994873046875 1082.531005859375 Z" stroke="none"/>
        <path d="M 3309.42236328125 1082.031005859375 C 3308.727783203125 1077.81396484375 3305.4091796875 1074.495239257813 3301.19189453125 1073.800537109375 L 3301.19189453125 1082.031005859375 L 3309.42236328125 1082.031005859375 M 3310.537841796875 1083.031005859375 L 3300.19189453125 1083.031005859375 L 3300.19189453125 1072.68505859375 C 3305.759521484375 1073.006591796875 3310.216552734375 1077.463500976563 3310.537841796875 1083.031005859375 Z" stroke="none" fill="#3ab793"/>
      </g>
      <g id="패스_1594" data-name="패스 1594" fill="none" stroke-miterlimit="10">
        <path d="M3238.192,1083.918v-11.233a11.009,11.009,0,1,0,7.415,19.669Z" stroke="none"/>
        <path d="M 3238.83642578125 1093.685424804688 C 3240.730712890625 1093.685424804688 3242.537353515625 1093.1669921875 3244.119873046875 1092.177001953125 L 3237.44091796875 1084.578247070313 L 3237.192138671875 1084.295043945313 L 3237.192138671875 1083.918090820313 L 3237.192138671875 1073.80078125 C 3232.423095703125 1074.587524414063 3228.825927734375 1078.736450195313 3228.825927734375 1083.675170898438 C 3228.825927734375 1089.19482421875 3233.316650390625 1093.685424804688 3238.83642578125 1093.685424804688 M 3238.83642578125 1094.685424804688 C 3232.755615234375 1094.685424804688 3227.825927734375 1089.755981445313 3227.825927734375 1083.675170898438 C 3227.825927734375 1077.810668945313 3232.411376953125 1073.018920898438 3238.192138671875 1072.68505859375 L 3238.192138671875 1083.918090820313 L 3245.60693359375 1092.354248046875 C 3243.7392578125 1093.813232421875 3241.39013671875 1094.685424804688 3238.83642578125 1094.685424804688 Z" stroke="none" fill="#3ab793"/>
      </g>
    </g>
  </g>
</svg>
