<?xml version="1.0" encoding="UTF-8" standalone="no"?>
<svg
   xmlns:dc="http://purl.org/dc/elements/1.1/"
   xmlns:cc="http://creativecommons.org/ns#"
   xmlns:rdf="http://www.w3.org/1999/02/22-rdf-syntax-ns#"
   xmlns:svg="http://www.w3.org/2000/svg"
   xmlns="http://www.w3.org/2000/svg"
   xmlns:sodipodi="http://sodipodi.sourceforge.net/DTD/sodipodi-0.dtd"
   xmlns:inkscape="http://www.inkscape.org/namespaces/inkscape"
   viewBox="0 0 500 500"
   version="1.1"
   id="svg14"
   sodipodi:docname="ionicons_svg_ios-help-circle-outline.svg"
   inkscape:version="1.0.1 (c497b03c, 2020-09-10)">
  <metadata
     id="metadata20">
    <rdf:RDF>
      <cc:Work
         rdf:about="">
        <dc:format>image/svg+xml</dc:format>
        <dc:type
           rdf:resource="http://purl.org/dc/dcmitype/StillImage" />
      </cc:Work>
    </rdf:RDF>
  </metadata>
  <defs
     id="defs18" />
  <sodipodi:namedview
     pagecolor="#ffffff"
     bordercolor="#666666"
     borderopacity="1"
     objecttolerance="10"
     gridtolerance="10"
     guidetolerance="10"
     inkscape:pageopacity="0"
     inkscape:pageshadow="2"
     inkscape:window-width="1745"
     inkscape:window-height="1000"
     id="namedview16"
     showgrid="false"
     inkscape:zoom="1.4355469"
     inkscape:cx="256"
     inkscape:cy="256"
     inkscape:window-x="0"
     inkscape:window-y="23"
     inkscape:window-maximized="0"
     inkscape:current-layer="svg14" />
  <path
     fill="#3ab793"
     d="m 251.91837,39.53349 c 56.28027,0 109.16734,21.605057 148.94966,60.88697 39.78231,39.28192 61.66258,91.50378 61.66258,147.07613 0,55.57237 -21.88027,107.79421 -61.66258,147.07614 -39.78232,39.28192 -92.66939,60.88697 -148.94966,60.88697 -56.28028,0 -109.16735,-21.60505 -148.94967,-60.88697 C 63.186395,355.2908 41.306122,303.06896 41.306122,247.49659 c 0,-55.57235 21.880273,-107.79421 61.662578,-147.07613 39.78232,-39.281913 92.66939,-60.88697 148.94967,-60.88697 m 0,-32.3498165 C 117.47756,7.1836735 8.5442177,114.74682 8.5442177,247.49659 c 0,132.7498 108.9333423,240.31293 243.3741523,240.31293 134.44081,0 243.37414,-107.56313 243.37414,-240.31293 0,-132.74977 -108.93333,-240.3129165 -243.37414,-240.3129165 z"
     id="path10"
     style="stroke-width:1.16268" />
  <path
     fill="#3ab793"
     d="m 252.73741,136.58295 c 43.87756,0 74.06532,24.03128 74.06532,58.57627 0,22.87593 -11.23266,38.70425 -32.87892,51.29756 -20.35918,11.66905 -27.26259,20.21864 -27.26259,35.00712 v 9.12728 h -40.60136 l -0.35102,-9.93602 c -1.98911,-23.80022 6.43538,-38.58871 27.61361,-50.83542 19.77414,-11.66904 28.08163,-19.06329 28.08163,-33.38963 0,-14.32636 -14.04082,-24.84004 -31.47483,-24.84004 -17.66802,0 -30.42177,11.32243 -31.35782,28.42162 h -41.53741 c 0.81904,-37.20229 28.66667,-63.42874 75.70339,-63.42874 z m -30.77278,198.02708 c 0,-13.28653 11.23265,-23.80021 25.03946,-23.80021 13.92381,0 25.15645,10.39814 25.15645,23.80021 0,13.40207 -11.23264,23.80023 -25.15645,23.80023 -13.92382,0 -25.03946,-10.39816 -25.03946,-23.80023 z"
     id="path12"
     style="stroke-width:1.16268" />
</svg>
