<?xml version="1.0" encoding="UTF-8" standalone="no"?>
<svg
   xmlns:dc="http://purl.org/dc/elements/1.1/"
   xmlns:cc="http://creativecommons.org/ns#"
   xmlns:rdf="http://www.w3.org/1999/02/22-rdf-syntax-ns#"
   xmlns:svg="http://www.w3.org/2000/svg"
   xmlns="http://www.w3.org/2000/svg"
   xmlns:sodipodi="http://sodipodi.sourceforge.net/DTD/sodipodi-0.dtd"
   xmlns:inkscape="http://www.inkscape.org/namespaces/inkscape"
   viewBox="0 0 20 20"
   version="1.1"
   id="svg93"
   sodipodi:docname="ledger.svg"
   width="20"
   height="20"
   inkscape:version="1.0.1 (c497b03c, 2020-09-10)">
  <metadata
     id="metadata99">
    <rdf:RDF>
      <cc:Work
         rdf:about="">
        <dc:format>image/svg+xml</dc:format>
        <dc:type
           rdf:resource="http://purl.org/dc/dcmitype/StillImage" />
      </cc:Work>
    </rdf:RDF>
  </metadata>
  <defs
     id="defs97" />
  <sodipodi:namedview
     pagecolor="#ffffff"
     bordercolor="#666666"
     borderopacity="1"
     objecttolerance="10"
     gridtolerance="10"
     guidetolerance="10"
     inkscape:pageopacity="0"
     inkscape:pageshadow="2"
     inkscape:window-width="2307"
     inkscape:window-height="1220"
     id="namedview95"
     showgrid="false"
     inkscape:snap-text-baseline="true"
     inkscape:snap-page="false"
     inkscape:snap-grids="true"
     inkscape:snap-to-guides="false"
     inkscape:zoom="22.008949"
     inkscape:cx="20.529971"
     inkscape:cy="12.372003"
     inkscape:window-x="56"
     inkscape:window-y="101"
     inkscape:window-maximized="0"
     inkscape:current-layer="svg93"
     inkscape:document-rotation="0" />
  <title
     id="title77">Fichier 1</title>
  <g
     id="Calque_2"
     data-name="Calque 2"
     style="fill:#ffffff"
     transform="matrix(0.94832497,0,0,0.88145141,0.43921529,1.3016855)">
    <g
       id="Calque_1-2"
       data-name="Calque 1"
       style="fill:#ffffff">
      <g
         id="g89"
         style="fill:#ffffff">
        <path
           id="Shape"
           d="M 16.7,0 H 7.59 v 12.29 h 12.3 V 3.18 A 3.18,3.18 0 0 0 16.7,0 Z"
           style="fill:#ffffff" />
        <path
           d="M 4.75,0 H 3.18 A 3.18,3.18 0 0 0 0,3.18 v 1.57 h 4.75 z"
           style="fill:#ffffff"
           id="path80" />
        <polygon
           id="Rectangle-path"
           points="0,7.59 4.75,7.59 4.75,12.34 0,12.34 "
           style="fill:#ffffff" />
        <path
           d="m 15.18,19.89 h 1.57 a 3.18,3.18 0 0 0 3.18,-3.19 v -1.52 h -4.75 z"
           style="fill:#ffffff"
           id="path83" />
        <polygon
           points="7.59,15.18 12.34,15.18 12.34,19.93 7.59,19.93 "
           style="fill:#ffffff"
           id="polygon85" />
        <path
           d="m 0,15.18 v 1.57 a 3.18,3.18 0 0 0 3.18,3.18 h 1.57 v -4.75 z"
           style="fill:#ffffff"
           id="path87" />
      </g>
    </g>
  </g>
</svg>
