<?xml version="1.0" encoding="UTF-8" standalone="no"?>
<svg
   xmlns:dc="http://purl.org/dc/elements/1.1/"
   xmlns:cc="http://creativecommons.org/ns#"
   xmlns:rdf="http://www.w3.org/1999/02/22-rdf-syntax-ns#"
   xmlns:svg="http://www.w3.org/2000/svg"
   xmlns="http://www.w3.org/2000/svg"
   xmlns:sodipodi="http://sodipodi.sourceforge.net/DTD/sodipodi-0.dtd"
   xmlns:inkscape="http://www.inkscape.org/namespaces/inkscape"
   viewBox="0 0 612 612"
   version="1.1"
   id="svg6"
   sodipodi:docname="link.svg"
   height="32"
   width="32"
   style="fill:#3ab793"
   inkscape:version="0.92.3 (2405546, 2018-03-11)">
  <metadata
     id="metadata12">
    <rdf:RDF>
      <cc:Work
         rdf:about="">
        <dc:format>image/svg+xml</dc:format>
        <dc:type
           rdf:resource="http://purl.org/dc/dcmitype/StillImage" />
      </cc:Work>
    </rdf:RDF>
  </metadata>
  <defs
     id="defs10" />
  <sodipodi:namedview
     pagecolor="#ffffff"
     bordercolor="#666666"
     borderopacity="1"
     objecttolerance="10"
     gridtolerance="10"
     guidetolerance="10"
     inkscape:pageopacity="0"
     inkscape:pageshadow="2"
     inkscape:window-width="1366"
     inkscape:window-height="714"
     id="namedview8"
     showgrid="false"
     inkscape:zoom="7.375"
     inkscape:cx="10.906283"
     inkscape:cy="19.674928"
     inkscape:window-x="193"
     inkscape:window-y="1106"
     inkscape:window-maximized="1"
     inkscape:current-layer="svg6" />
  <path
     d="m 337.05085,382.59153 -1.2,0.1 c -3.6,0.4 -7,2 -9.6,4.5 l -64.6,64.6 c -13.7,13.7 -32,21.2 -51.5,21.2 -19.5,0 -37.8,-7.5 -51.5,-21.2 -13.7,-13.7 -21.2,-32 -21.2,-51.5 0,-19.5 7.5,-37.8 21.2,-51.5 l 68.6,-68.6 c 3.5,-3.5 7.3,-6.6 11.4,-9.3 4.6,-3 9.6,-5.6 14.8,-7.5 4.8,-1.8 9.9,-3 15,-3.7 3.4,-0.5 6.9,-0.7 10.2,-0.7 1.4,0 2.8,0.1 4.6,0.2 17.7,1.1 34.4,8.6 46.8,21 7.7,7.7 13.6,17.1 17.1,27.3 2.8,8 11.2,12.5 19.3,10.1 0.1,0 0.2,-0.1 0.3,-0.1 0.1,0 0.2,0 0.2,-0.1 8.1,-2.5 12.8,-11 10.5,-19.1 -4.4,-15.6 -12.2,-28.7 -24.6,-41 -15.6,-15.6 -35.9,-25.8 -57.6,-29.3 -1.9,-0.3 -3.8,-0.6 -5.7,-0.8 -3.7,-0.4 -7.4,-0.6 -11.1,-0.6 -2.6,0 -5.2,0.1 -7.7,0.3 -5.4,0.4 -10.8,1.2 -16.2,2.5 -1.1,0.2 -2.1,0.5 -3.2,0.8 -6.7,1.8 -13.3,4.2 -19.5,7.3 -10.3,5.1 -19.6,11.7 -27.7,19.9 l -68.6,68.6 c -19.6,19.9 -30.5,46.3 -30.5,74.5 0,28.2 10.9,54.6 30.7,74.4 19.8,19.7 46.2,30.6 74.3,30.6 28.2,0 54.6,-10.9 74.4,-30.7 l 65.3,-65.3 c 10.4,-10.5 2,-28.3 -12.7,-26.9 z"
     id="path2"
     inkscape:connector-curvature="0" />
  <path
     d="m 490.35085,120.19153 c -19.8,-19.8 -46.2,-30.700004 -74.3,-30.700004 -28.1,0 -54.6,10.900004 -74.4,30.700004 l -63.7,63.7 c -9.7,9.7 -3.6,26.3 10.1,27.4 4.7,0.4 9.3,-1.3 12.7,-4.6 l 63.8,-63.6 c 13.7,-13.7 32,-21.2 51.5,-21.2 19.5,0 37.8,7.5 51.5,21.2 13.7,13.7 21.2,32 21.2,51.5 0,19.5 -7.5,37.8 -21.2,51.5 l -68.6,68.6 c -3.5,3.5 -7.3,6.6 -11.4,9.3 -4.6,3 -9.6,5.6 -14.8,7.5 -4.8,1.8 -9.9,3 -15,3.7 -3.4,0.5 -6.9,0.7 -10.2,0.7 -1.4,0 -2.9,-0.1 -4.6,-0.2 -17.7,-1.1 -34.4,-8.6 -46.8,-21 -7.3,-7.3 -12.8,-16 -16.4,-25.5 -2.9,-7.7 -11.1,-11.9 -19.1,-9.8 -8.9,2.3 -14.1,11.7 -11.3,20.5 4.5,14 12.1,25.9 23.7,37.5 l 0.2,0.2 c 16.9,16.9 39.4,27.6 63.3,30.1 3.7,0.4 7.4,0.6 11.1,0.6 2.6,0 5.2,-0.1 7.8,-0.3 6.5,-0.5 13,-1.6 19.3,-3.2 6.7,-1.8 13.3,-4.2 19.5,-7.3 10.3,-5.1 19.6,-11.7 27.7,-19.9 l 68.6,-68.6 c 19.8,-19.8 30.7,-46.2 30.7,-74.4 0,-28.2 -11.1,-54.6 -30.9,-74.4 z"
     id="path4"
     inkscape:connector-curvature="0" />
</svg>
