<?xml version="1.0" encoding="utf-8"?>
<svg viewBox="0 0 32 32" height="270px" width="270px" xmlns:xlink="http://www.w3.org/1999/xlink" xmlns="http://www.w3.org/2000/svg" style="height: 100%; width: 100%; background: none; shape-rendering: auto;"><g class="ldl-scale" style="transform-origin: 50% 50%; transform: rotate(0deg) scale(0.92, 0.92);"><g class="ldl-ani" style="transform-origin: 16px 16px; transform: scale(0.91); animation: 1.02041s linear 0s infinite normal forwards running breath-b5b23ce0-44c5-48aa-b949-4c45f3ccdd74;">
    <defs>
        <g class="ldl-layer"><g class="ldl-ani"><path d="M.006 9.019c0 4.11 5.17 5.958 11.548 5.958s11.549-1.848 11.549-5.958S17.933.095 11.554.095C5.176.095.006 4.909.006 9.019z" id="a" style=""></path></g></g>
    </defs>
    <g class="ldl-layer"><g class="ldl-ani"><g fill-rule="evenodd" fill="none">
        <g class="ldl-layer"><g class="ldl-ani"><g transform="translate(0 5)">
            <g class="ldl-layer"><g class="ldl-ani"><path d="M15.75.088C7.082.088.055 4.98.055 11.015c0 6.035 7.027 10.927 15.695 10.927s15.694-4.892 15.694-10.927C31.444 4.98 24.418.088 15.75.088" fill="#F6F6F6" style="fill: rgb(246, 246, 246);"></path></g></g>
            <g class="ldl-layer"><g class="ldl-ani"><g transform="translate(4.195 4.738)">
                <mask fill="#fff" id="b">
                    <use xlink:href="#a"></use>
                </mask>
                <g class="ldl-layer"><g class="ldl-ani"><path mask="url(#b)" d="M-.96 15.416h24.62V-.96H-.96z" fill="#2B3239" style="fill: rgb(43, 50, 57);"></path></g></g>
            </g></g></g>
            <g class="ldl-layer"><g class="ldl-ani"><ellipse ry="3.5" rx="3.5" fill="#4DD5AD" cy="13.082" cx="16.239" style="fill: rgb(77, 213, 173);"></ellipse></g></g>
        </g></g></g>
        <g class="ldl-layer"><g class="ldl-ani"><path d="M0 0h32v32H0z"></path></g></g>
    </g></g></g>
</g></g><style id="breath-b5b23ce0-44c5-48aa-b949-4c45f3ccdd74" data-anikit="">@keyframes breath-b5b23ce0-44c5-48aa-b949-4c45f3ccdd74
{
  0% {
    animation-timing-function: cubic-bezier(0.9647,0.2413,-0.0705,0.7911);
    transform: scale(0.9099999999999999);
  }
  51% {
    animation-timing-function: cubic-bezier(0.9226,0.2631,-0.0308,0.7628);
    transform: scale(1.02994);
  }
  100% {
    transform: scale(0.9099999999999999);
  }
}</style><!-- [ldio] generated by https://loading.io/ --></svg>