<?xml version="1.0" encoding="utf-8"?>
<!-- Generator: Adobe Illustrator 22.1.0, SVG Export Plug-In . SVG Version: 6.00 Build 0)  -->
<svg version="1.1" id="Layer_1" xmlns="http://www.w3.org/2000/svg" xmlns:xlink="http://www.w3.org/1999/xlink" x="0px" y="0px"
	 viewBox="0 0 512 512" style="enable-background:new 0 0 512 512;" xml:space="preserve">
<style type="text/css">
	.st0{fill:#8194A3;}
	.st1{fill:#73838E;}
	.st2{fill:#F6F6F6;}
	.st3{clip-path:url(#SVGID_2_);}
	.st4{clip-path:url(#SVGID_4_);fill:#2B3239;}
	.st5{fill:#8AFFFF;}
</style>
<g>
	<g>
		<path class="st0" d="M34,216.2c-6.6,7.1-49.8,59.8-25.1,87.9c22.2,25.3,42.3,42.5,49.5,52.4c31.4,43.6,71.4,85.1,71.4,85.1
			s-25-79.1-62.3-124.7C22.3,261.7,34,216.2,34,216.2z"/>
		<path class="st1" d="M77,328.9l-9.5-12c0,0-49.9-2.5-66-38.1c0,0-1.8,15.6,4.3,22.7C37.7,338.9,77,328.9,77,328.9z"/>
		<path class="st2" d="M129.8,441.7c0,0-5.7-112.7-66.2-115.5C20.2,324.2,1.3,287,1.3,287s-11.8,70.9,36,108.4
			C72.3,422.8,129.8,441.7,129.8,441.7z"/>
		<path class="st0" d="M477.8,216.2c6.6,7.1,49.8,59.8,25.1,87.9c-22.2,25.3-42.3,42.5-49.5,52.4C422,400.1,382,441.7,382,441.7
			s25-79.1,62.3-124.7C489.4,261.7,477.8,216.2,477.8,216.2z"/>
		<path class="st1" d="M434.8,328.9l9.5-12c0,0,49.9-2.5,66-38.1c0,0,3.5,11.9-9.3,29.6C490.1,323.4,434.8,328.9,434.8,328.9z"/>
		<path class="st2" d="M382,441.7c0,0,5.7-112.7,66.2-115.5c43.4-2,62.3-39.2,62.3-39.2s11.8,70.9-36,108.4
			C439.5,422.8,382,441.7,382,441.7z"/>
		<g>
			<path class="st2" d="M256.5,51.7c-115.6,0-209.4,66.6-209.4,148.7S140.9,349,256.5,349c115.6,0,209.4-66.6,209.4-148.7
				S372.2,51.7,256.5,51.7z"/>
		</g>
		<g>
			<defs>
				<path id="SVGID_1_" d="M410.6,237.7c0,55.9-69,81.1-154.1,81.1c-85.1,0-154.1-25.1-154.1-81.1c0-55.9,69-121.4,154.1-121.4
					C341.6,116.2,410.6,181.7,410.6,237.7"/>
			</defs>
			<clipPath id="SVGID_2_">
				<use xlink:href="#SVGID_1_"  style="overflow:visible;"/>
			</clipPath>
			<g class="st3">
				<defs>
					<rect id="SVGID_3_" x="44.5" y="-0.4" width="443" height="453.1"/>
				</defs>
				<clipPath id="SVGID_4_">
					<use xlink:href="#SVGID_3_"  style="overflow:visible;"/>
				</clipPath>
				<rect x="92.3" y="106.1" class="st4" width="328.5" height="222.8"/>
			</g>
		</g>
		<g>
			
				<ellipse transform="matrix(0.4652 -0.8852 0.8852 0.4652 -123.2459 276.69)" class="st5" cx="167.4" cy="240.3" rx="21.8" ry="28.8"/>
			
				<ellipse transform="matrix(0.8852 -0.4652 0.4652 0.8852 -72.2519 186.8165)" class="st5" cx="342.4" cy="239.8" rx="28.8" ry="21.8"/>
		</g>
	</g>
	<g>
		<path class="st2" d="M264.8,424c-2.3-8.2-8.9-15.3-13.6-22.8c-6.7-10.8-6.7-10.7-20.5-9.5c2.5,4,4.9,7.9,7.3,11.7
			c1.5,2.4,3,4.8,4.5,7.2c1.3,2.1,2.7,4.2,4.1,6.3c0.7,1.1,1.4,2.2,2.1,3.2c0,0,0,0,0,0c3,4.4,4.4,9.6,4.1,14.9c0,1-0.1,2-0.1,2.9
			c0,0.7-0.1,1.4-0.1,2.1c0,1.1,0,2.3,0,3.4c0,0.6,0,1.2,0,1.9c0,1.5,0,3,0,4.6c0,2,0,4,0,5.9c4.6,0,8.5,0,12.8,0c0-1.8,0-3.4,0-5
			C265.4,442,267.2,432.4,264.8,424z"/>
		<path class="st2" d="M217.3,439.7c-4.1,4.9-10.3,8.1-17.3,8.1c-12.4,0-22.4-9.9-22.4-22.1c0-12,9.8-21.8,21.9-22.1v-12
			c-18.9,0.3-34.1,15.4-34.1,34.1c0,18.8,15.5,34.1,34.6,34.1c9.5,0,18-3.7,24.3-9.8L217.3,439.7z"/>
		<path class="st2" d="M332.5,419.4c2.2-3,3.6-6.8,3.6-10.8c0-9.8-7.9-17.5-17.7-17.5c-1.1,0-3.4,0-5,0c0,0,0,0,0,0
			c-7.4,0-14.2,0-21.1,0c0,12,0,23.7,0,35.6H305c1.7,0,3.4,0,5.2,0c0.9,0,1.8,0,2.8,0c0.1,0,0.3,0,0.4,0h0.3c0,0,3.2,0,5.1,0
			c5.3,0,9.5,4.3,9.5,9.7c0,5.3-4.3,8.2-9.5,8.2c-0.1,0-3.6,0-7.8,0l6.9,10.9c1.8,0,3,0,3.2,0c10.8,0,19.5-8.9,19.5-19.9
			C340.6,428.9,337.4,423,332.5,419.4z M316.7,415.7c0,0-0.1,0-0.1,0c-1.7,0-3.2,0-3.2,0c-2.9,0-5.6,0-8.3,0c0-4.7,0-9,0-13.5
			c2.9-0.1,5.5-0.3,8.3-0.4c0,0,0,0,0,0c0.9,0,2.1,0,3,0c4.7,0,8.6,2.1,8.6,6.9C324.9,413.4,321.4,415.7,316.7,415.7z"/>
	</g>
</g>
</svg>