<?xml version="1.0" encoding="UTF-8" standalone="no"?>
<svg
   xmlns:dc="http://purl.org/dc/elements/1.1/"
   xmlns:cc="http://creativecommons.org/ns#"
   xmlns:rdf="http://www.w3.org/1999/02/22-rdf-syntax-ns#"
   xmlns:svg="http://www.w3.org/2000/svg"
   xmlns="http://www.w3.org/2000/svg"
   xmlns:sodipodi="http://sodipodi.sourceforge.net/DTD/sodipodi-0.dtd"
   xmlns:inkscape="http://www.inkscape.org/namespaces/inkscape"
   width="300"
   height="300"
   viewBox="0 0 100 150"
   version="1.1"
   id="svg18"
   sodipodi:docname="logo-cyb-v3.svg"
   inkscape:version="0.92.3 (2405546, 2018-03-11)">
  <metadata
     id="metadata24">
    <rdf:RDF>
      <cc:Work
         rdf:about="">
        <dc:format>image/svg+xml</dc:format>
        <dc:type
           rdf:resource="http://purl.org/dc/dcmitype/StillImage" />
        <dc:title />
      </cc:Work>
    </rdf:RDF>
  </metadata>
  <defs
     id="defs22" />
  <sodipodi:namedview
     pagecolor="#000"
     bordercolor="#000"
     borderopacity="1"
     objecttolerance="10"
     gridtolerance="10"
     guidetolerance="10"
     inkscape:pageopacity="0"
     inkscape:pageshadow="2"
     inkscape:window-width="1366"
     inkscape:window-height="714"
     id="namedview20"
     showgrid="false"
     inkscape:zoom="0.78666667"
     inkscape:cx="69.279661"
     inkscape:cy="150"
     inkscape:window-x="193"
     inkscape:window-y="1106"
     inkscape:window-maximized="1"
     inkscape:current-layer="svg18" />
  <g
     id="g16"
     style="fill-rule:evenodd">
    <path
       d="M 45.847,34.956 C 15.55,39.084 -2.49,69.305 17.304,82.769 32.014,92.773 68.574,93.172 84.491,83.502 109.721,68.176 79.614,30.356 45.847,34.956 M 27.892,62.72 c 6.12,1.817 8.816,9.063 4.386,11.785 -6.894,4.236 -17.377,-5.378 -11.69,-10.721 1.752,-1.646 4.162,-1.997 7.304,-1.064 m 51.96,-0.015 c 1.647,0.689 2.991,2.725 2.994,4.537 0.008,7.479 -13.192,11.345 -15.252,4.467 -1.687,-5.63 6.296,-11.495 12.257,-9.004"
       id="path2"
       inkscape:connector-curvature="0"
       style="fill:none;opacity:1;stroke:#ffffff;stroke-opacity:1;fill-opacity:1;stroke-width:1;stroke-miterlimit:4;stroke-dasharray:none" />
    <path
       d="M 43.154,16.974 C 8.467,20.32 -14.294,45.587 -4.283,69.634 9.168,101.946 69.675,109.597 97.795,82.543 128.497,53.006 94.355,12.036 43.155,16.973 M 62.932,35.878 C 88.4,42.697 102.56,67.598 88.415,80.694 72.876,95.08 24.143,93.829 12.318,78.74 -3.756,58.229 32.318,27.682 62.932,35.878 m -82.482,50.75 c 0.011,18.18 7.473,27.084 30.197,36.03 6.594,2.596 6.363,2.798 5.186,-4.53 C 13.29,102.289 7.9,94.102 -0.753,92.927 c -8.49,-1.152 -12.973,-3.497 -16.84,-8.807 -0.957,-1.314 -1.79,-2.39 -1.85,-2.39 -0.06,0 -0.109,2.205 -0.107,4.9 m 140.797,-4.164 c 0,2.446 -9.682,9.316 -13.896,9.86 -8.272,1.067 -9.307,1.46 -12.372,4.7 -4.336,4.587 -7.768,14.044 -8.855,24.404 -0.393,3.749 -0.685,3.674 5.261,1.35 22.48,-8.79 29.885,-17.15 30.551,-34.493 0.154,-3.985 0.084,-5.726 -0.236,-5.924 -0.249,-0.154 -0.453,-0.108 -0.453,0.103"
       id="path4"
       inkscape:connector-curvature="0"
       style="fill:none;opacity:1;stroke:#ffffff;stroke-opacity:1;fill-opacity:1;stroke-width:1.65;stroke-miterlimit:4;stroke-dasharray:none" />
    <path
       d="m 74.332,62.685 c -6.947,1.914 -9.085,9.85 -3.253,12.078 4.801,1.833 11.477,-2.526 11.477,-7.494 0,-3.687 -3.797,-5.803 -8.224,-4.584 m -52.72,0.756 c -5.686,3.832 -0.008,12.532 7.695,11.792 2.424,-0.233 3.95,-1.292 4.7,-3.26 2.101,-5.523 -7.279,-11.98 -12.395,-8.532"
       id="path6"
       inkscape:connector-curvature="0"
       style="fill:none;opacity:0.551;stroke:#ffffff;stroke-opacity:1;stroke-width:0.65;stroke-miterlimit:4;stroke-dasharray:none" />
    <path
       d="m 120.905,80.414 c -1.807,4.28 -9.77,8.824 -16.458,9.389 -1.207,0.102 -3.997,2.462 -3.499,2.96 0.262,0.262 6.67,-0.7 8.5,-1.275 5.651,-1.778 12.486,-8.13 12.125,-11.268 l -0.126,-1.091 -0.542,1.285 m -140.058,0.203 c 0,1.43 3.12,5.523 5.69,7.464 3.782,2.856 6.093,3.653 13.445,4.636 l 1.734,0.232 -0.853,-1.198 c -1.13,-1.587 -1.258,-1.65 -4.566,-2.235 -6.073,-1.073 -11.337,-4.001 -13.944,-7.755 -1.318,-1.898 -1.506,-2.041 -1.506,-1.144"
       id="path8"
       inkscape:connector-curvature="0"
       style="fill:none;stroke:#ffffff;stroke-opacity:1;stroke-width:0;stroke-miterlimit:4;stroke-dasharray:none;opacity:0.098" />
    <path
       d="m -11.235,63.229 c -2.97,3.168 -6.866,10.296 -7.637,13.973 -1.027,4.895 6.123,10.717 15.12,12.31 3.492,0.62 3.414,0.844 0.917,-2.64 -5.017,-6.996 -8.04,-16.238 -7.339,-22.435 0.301,-2.665 0.303,-2.662 -1.06,-1.208 m 35.586,-0.817 c 0.497,0.096 1.217,0.092 1.6,-0.008 0.382,-0.1 -0.025,-0.18 -0.905,-0.174 -0.88,0.004 -1.193,0.086 -0.695,0.182 m 88.175,3.8 c -0.033,6.874 -2.324,13.482 -7.055,20.35 -1.224,1.777 -2.225,3.279 -2.225,3.338 0,0.245 4.747,-0.641 6.6,-1.231 4.892,-1.56 9.34,-4.884 11.07,-8.276 1.312,-2.573 -0.446,-7.6 -4.94,-14.12 -3.366,-4.883 -3.427,-4.884 -3.45,-0.061 m -81.68,-1.958 c 0,0.069 0.585,0.654 1.3,1.3 l 1.3,1.175 -1.175,-1.3 c -1.095,-1.212 -1.425,-1.484 -1.425,-1.175"
       id="path10"
       inkscape:connector-curvature="0"
       style="fill:none;opacity:1;stroke-width:1.4;stroke-miterlimit:4;stroke-dasharray:none;stroke:#ffffff;stroke-opacity:1" />
    <path
       d="m 50.552,90.816 c 0.61,0.092 1.51,0.09 2,-0.005 0.492,-0.095 -0.005,-0.171 -1.105,-0.168 -1.1,0.003 -1.503,0.08 -0.895,0.173"
       id="path12"
       inkscape:connector-curvature="0"
       style="fill:#c4ccce" />
    <path
       d="m 84.247,48.129 c 0.86,0.88 1.652,1.6 1.762,1.6 0.11,0 -0.503,-0.72 -1.362,-1.6 -0.859,-0.88 -1.652,-1.6 -1.762,-1.6 -0.11,0 0.503,0.72 1.362,1.6"
       id="path14"
       inkscape:connector-curvature="0"
       style="fill:#d4d4d4" />
  </g>
</svg>
