<?xml version="1.0" encoding="UTF-8" standalone="no"?>
<svg
   xmlns:dc="http://purl.org/dc/elements/1.1/"
   xmlns:cc="http://creativecommons.org/ns#"
   xmlns:rdf="http://www.w3.org/1999/02/22-rdf-syntax-ns#"
   xmlns:svg="http://www.w3.org/2000/svg"
   xmlns="http://www.w3.org/2000/svg"
   xmlns:sodipodi="http://sodipodi.sourceforge.net/DTD/sodipodi-0.dtd"
   xmlns:inkscape="http://www.inkscape.org/namespaces/inkscape"
   width="60"
   height="55"
   viewBox="0 0 45 40"
   fill="none"
   version="1.1"
   id="svg166"
   sodipodi:docname="mm-logo.svg"
   inkscape:version="1.0.1 (c497b03c, 2020-09-10)">
  <metadata
     id="metadata172">
    <rdf:RDF>
      <cc:Work
         rdf:about="">
        <dc:format>image/svg+xml</dc:format>
        <dc:type
           rdf:resource="http://purl.org/dc/dcmitype/StillImage" />
      </cc:Work>
    </rdf:RDF>
  </metadata>
  <defs
     id="defs170" />
  <sodipodi:namedview
     pagecolor="#ffffff"
     bordercolor="#666666"
     borderopacity="1"
     objecttolerance="10"
     gridtolerance="10"
     guidetolerance="10"
     inkscape:pageopacity="0"
     inkscape:pageshadow="2"
     inkscape:window-width="2480"
     inkscape:window-height="1146"
     id="namedview168"
     showgrid="false"
     inkscape:zoom="7.8313953"
     inkscape:cx="47.501113"
     inkscape:cy="16.5"
     inkscape:window-x="0"
     inkscape:window-y="23"
     inkscape:window-maximized="0"
     inkscape:current-layer="svg166"
     inkscape:document-rotation="0" />
  <path
     d="M 42.032,1.0327312 25.182278,13.094852 28.315631,5.9862524 Z"
     fill="#e17726"
     stroke="#e17726"
     stroke-width="0.315466"
     stroke-linecap="round"
     stroke-linejoin="round"
     id="path108" />
  <path
     d="M 3.1659887,1.0327312 19.865689,13.207427 16.882435,5.9862399 Z"
     fill="#e27625"
     stroke="#e27625"
     stroke-width="0.315466"
     stroke-linecap="round"
     stroke-linejoin="round"
     id="path110" />
  <path
     d="m 35.965043,29.000648 -4.483218,6.626142 9.599804,2.557195 2.750021,-9.038493 z"
     fill="#e27625"
     stroke="#e27625"
     stroke-width="0.315466"
     stroke-linecap="round"
     stroke-linejoin="round"
     id="path112" />
  <path
     d="M 1.3825925,29.145492 4.1158597,38.183985 13.69905,35.62679 9.2324325,29.000648 Z"
     fill="#e27625"
     stroke="#e27625"
     stroke-width="0.315466"
     stroke-linecap="round"
     stroke-linejoin="round"
     id="path114" />
  <path
     d="m 13.182299,17.807101 -2.66657,3.89208 9.499802,0.418153 -0.316619,-9.890933 z"
     fill="#e27625"
     stroke="#e27625"
     stroke-width="0.315466"
     stroke-linecap="round"
     stroke-linejoin="round"
     id="path116" />
  <path
     d="m 32.015126,17.807226 -6.616423,-5.6933 -0.216682,10.003531 9.499738,-0.418152 z"
     fill="#e27625"
     stroke="#e27625"
     stroke-width="0.315466"
     stroke-linecap="round"
     stroke-linejoin="round"
     id="path118" />
  <path
     d="m 13.699179,35.62679 5.749824,-2.685781 -4.949808,-3.731223 z"
     fill="#e27625"
     stroke="#e27625"
     stroke-width="0.315466"
     stroke-linecap="round"
     stroke-linejoin="round"
     id="path120" />
  <path
     d="m 25.748935,32.941009 5.733146,2.685781 -0.783338,-6.417004 z"
     fill="#e27625"
     stroke="#e27625"
     stroke-width="0.315466"
     stroke-linecap="round"
     stroke-linejoin="round"
     id="path122" />
  <path
     d="m 31.482081,35.627038 -5.733146,-2.685781 0.46659,3.602514 -0.05003,1.527888 z"
     fill="#d5bfb2"
     stroke="#d5bfb2"
     stroke-width="0.315466"
     stroke-linecap="round"
     stroke-linejoin="round"
     id="path124" />
  <path
     d="m 13.699179,35.627038 5.333267,2.444621 -0.03336,-1.527888 0.449912,-3.602514 z"
     fill="#d5bfb2"
     stroke="#d5bfb2"
     stroke-width="0.315466"
     stroke-linecap="round"
     stroke-linejoin="round"
     id="path126" />
  <path
     d="m 19.132255,26.829583 -4.766611,-1.350896 3.366584,-1.495742 z"
     fill="#233447"
     stroke="#233447"
     stroke-width="0.315466"
     stroke-linecap="round"
     stroke-linejoin="round"
     id="path128" />
  <path
     d="m 26.065554,26.829583 1.400028,-2.846638 3.38326,1.495742 z"
     fill="#233447"
     stroke="#233447"
     stroke-width="0.315466"
     stroke-linecap="round"
     stroke-linejoin="round"
     id="path130" />
  <path
     d="m 13.69905,35.62679 0.833371,-6.626142 -5.2999115,0.144844 z"
     fill="#cc6228"
     stroke="#cc6228"
     stroke-width="0.315466"
     stroke-linecap="round"
     stroke-linejoin="round"
     id="path132" />
  <path
     d="m 30.66526,29.000648 0.816693,6.626142 4.483219,-6.481298 z"
     fill="#cc6228"
     stroke="#cc6228"
     stroke-width="0.315466"
     stroke-linecap="round"
     stroke-linejoin="round"
     id="path134" />
  <path
     d="m 34.681759,21.699057 -9.499738,0.418152 0.883276,4.712374 1.400027,-2.846763 3.383262,1.495742 z"
     fill="#cc6228"
     stroke="#cc6228"
     stroke-width="0.315466"
     stroke-linecap="round"
     stroke-linejoin="round"
     id="path136" />
  <path
     d="m 14.365644,25.478562 3.366584,-1.495742 1.400027,2.846763 0.883276,-4.712374 -9.499802,-0.418152 z"
     fill="#cc6228"
     stroke="#cc6228"
     stroke-width="0.315466"
     stroke-linecap="round"
     stroke-linejoin="round"
     id="path138" />
  <path
     d="m 10.516037,21.699057 3.983285,7.510729 -0.133421,-3.731224 z"
     fill="#e27525"
     stroke="#e27525"
     stroke-width="0.315466"
     stroke-linecap="round"
     stroke-linejoin="round"
     id="path140" />
  <path
     d="m 30.848842,25.478562 -0.149971,3.731224 3.983274,-7.510729 z"
     fill="#e27525"
     stroke="#e27525"
     stroke-width="0.315466"
     stroke-linecap="round"
     stroke-linejoin="round"
     id="path142" />
  <path
     d="m 20.016044,22.117209 -0.883404,4.712374 1.116635,5.564564 0.250038,-7.333737 z"
     fill="#e27525"
     stroke="#e27525"
     stroke-width="0.315466"
     stroke-linecap="round"
     stroke-linejoin="round"
     id="path144" />
  <path
     d="m 25.182278,22.117209 -0.466719,2.92719 0.233359,7.349748 1.116636,-5.564564 z"
     fill="#e27525"
     stroke="#e27525"
     stroke-width="0.315466"
     stroke-linecap="round"
     stroke-linejoin="round"
     id="path146" />
  <path
     d="m 26.065554,26.829707 -1.116636,5.564564 0.800017,0.546862 4.949936,-3.731223 0.149971,-3.731223 z"
     fill="#f5841f"
     stroke="#f5841f"
     stroke-width="0.315466"
     stroke-linecap="round"
     stroke-linejoin="round"
     id="path148" />
  <path
     d="m 14.365644,25.478687 0.133422,3.731223 4.949809,3.731223 0.800015,-0.546862 -1.116635,-5.564564 z"
     fill="#f5841f"
     stroke="#f5841f"
     stroke-width="0.315466"
     stroke-linecap="round"
     stroke-linejoin="round"
     id="path150" />
  <path
     d="m 26.16562,38.071534 0.0499,-1.527888 -0.433235,-0.353859 h -6.366514 l -0.416685,0.353859 0.03336,1.527888 -5.333267,-2.44462 1.866618,1.479606 3.783268,2.525048 h 6.48313 l 3.799947,-2.525048 1.849939,-1.479606 z"
     fill="#c0ac9d"
     stroke="#c0ac9d"
     stroke-width="0.315466"
     stroke-linecap="round"
     stroke-linejoin="round"
     id="path152" />
  <path
     d="M 25.748806,32.941009 24.948791,32.394271 H 20.24889 l -0.799887,0.546738 -0.450041,3.602637 0.416685,-0.353859 h 6.366514 l 0.433364,0.353859 z"
     fill="#161616"
     stroke="#161616"
     stroke-width="0.315466"
     stroke-linecap="round"
     stroke-linejoin="round"
     id="path154" />
  <path
     d="M 42.7485,13.882875 44.165205,7.2246234 42.031871,1.0327312 25.748935,12.692836 l 6.266447,5.114265 8.849822,2.492902 1.950006,-2.203336 -0.84992,-0.595143 1.349866,-1.19004 -1.033247,-0.772012 1.349995,-0.99716 z"
     fill="#763e1a"
     stroke="#763e1a"
     stroke-width="0.315466"
     stroke-linecap="round"
     stroke-linejoin="round"
     id="path156" />
  <path
     d="m 1.0327331,7.2246234 1.4333059,6.6582516 -0.9166441,0.659437 1.3666337,0.99716 -1.0333109,0.772012 1.3499689,1.19004 -0.8499848,0.595143 1.9499679,2.203336 8.8498853,-2.492902 6.266448,-5.114265 L 3.1660271,1.0327312 Z"
     fill="#763e1a"
     stroke="#763e1a"
     stroke-width="0.315466"
     stroke-linecap="round"
     stroke-linejoin="round"
     id="path158" />
  <path
     d="m 40.865331,20.299879 -8.849821,-2.492778 2.666635,3.89208 -3.983274,7.510605 5.266557,-0.06429 h 7.86648 z"
     fill="#f5841f"
     stroke="#f5841f"
     stroke-width="0.315466"
     stroke-linecap="round"
     stroke-linejoin="round"
     id="path160" />
  <path
     d="m 13.182299,17.807101 -8.8497704,2.492778 -2.9499361,8.845613 h 7.84984 l 5.2665055,0.06429 -3.983196,-7.510605 z"
     fill="#f5841f"
     stroke="#f5841f"
     stroke-width="0.315466"
     stroke-linecap="round"
     stroke-linejoin="round"
     id="path162" />
  <path
     d="m 25.18215,22.117334 0.566656,-9.424623 2.566568,-6.7064834 H 16.882307 l 2.566568,6.7064834 0.566656,9.424623 0.216681,2.959211 0.01668,7.317726 h 4.699901 l 0.01668,-7.317726 z"
     fill="#f5841f"
     stroke="#f5841f"
     stroke-width="0.315466"
     stroke-linecap="round"
     stroke-linejoin="round"
     id="path164" />
</svg>
