<svg xmlns="http://www.w3.org/2000/svg" width="32" height="32" fill="none" viewBox="0 0 32 32">
    <path stroke="#3ab793" stroke-linecap="round" d="M20.702 20c0 2.32-1.882 4.202-4.202 4.202"/>
    <path stroke="#3ab793" stroke-miterlimit="10" d="M19.001 9.316l-1.576-2.72c-.398-.687-1.399-.658-1.757.05l-2.505 4.95-1.668 3.297M22.614 17l.56 1.19c.216.66.326 1.348.326 2.04 0 3.74-3.139 6.77-7.001 6.77-2.76 0-5.15-1.548-6.29-3.796"/>
    <path stroke="#3ab793" stroke-linecap="round" d="M11.9 19.145c0 1.326-1.074 2.4-2.4 2.4"/>
    <path stroke="#3ab793" stroke-miterlimit="10" d="M13.34 18.193c-.017-.056-.04-.11-.068-.162l-2.891-5.389c-.377-.703-1.385-.703-1.762 0l-2.892 5.389c-.027.052-.051.106-.068.162-.106.351-.16.715-.159 1.081 0 2.137 1.792 3.869 4 3.869 2.206 0 4-1.732 4-3.869 0-.366-.054-.73-.16-1.08z"/>
    <circle cx="21.5" cy="13" r="4.5" stroke="#3ab793"/>
    <path stroke="#3ab793" stroke-linecap="round" stroke-linejoin="round" d="M21.5 15.5v-5M24 13h-5"/>
</svg>
