<svg xmlns="http://www.w3.org/2000/svg" width="69.995" height="69.996" viewBox="0 0 69.995 69.996">
  <g id="nounbondings_ic" transform="translate(-1229.5 -577.004)">
    <rect id="사각형_1331" data-name="사각형 1331" width="69.995" height="69.995" transform="translate(1229.5 577.004)" fill="none"/>
    <g id="타원_147" data-name="타원 147" transform="translate(1266.441 584.269)" fill="none" stroke="#b2b6bc" stroke-width="1.8">
      <circle cx="12.261" cy="12.261" r="12.261" stroke="none"/>
      <circle cx="12.261" cy="12.261" r="11.361" fill="none"/>
    </g>
    <g id="그룹_1783" data-name="그룹 1783" transform="translate(1278.716 588.533) rotate(45)">
      <line id="선_24" data-name="선 24" x2="11.327" transform="translate(0 5.664)" fill="none" stroke="#f31963" stroke-linecap="round" stroke-width="1.8"/>
      <line id="선_25" data-name="선 25" x2="11.327" transform="translate(5.664 0) rotate(90)" fill="none" stroke="#f31963" stroke-linecap="round" stroke-width="1.8"/>
    </g>
    <g id="그룹_1782" data-name="그룹 1782" transform="translate(887 492.486)">
      <path id="패스_1550" data-name="패스 1550" d="M395.969,119.565v14.046a6.924,6.924,0,0,1-6.9,6.9H364.9a6.924,6.924,0,0,1-6.9-6.9V106a6.924,6.924,0,0,1,6.9-6.9h11.889" fill="none" stroke="#b2b6bc" stroke-linecap="round" stroke-miterlimit="10" stroke-width="2"/>
      <path id="패스_1551" data-name="패스 1551" d="M0,0H12.273" transform="translate(365.287 112.134)" fill="none" stroke="#b2b6bc" stroke-linecap="round" stroke-width="2"/>
      <line id="선_144" data-name="선 144" x2="23.395" transform="translate(365.287 119.804)" fill="none" stroke="#b2b6bc" stroke-linecap="round" stroke-miterlimit="10" stroke-width="2"/>
      <line id="선_145" data-name="선 145" x2="17.45" transform="translate(365.287 127.474)" fill="none" stroke="#b2b6bc" stroke-linecap="round" stroke-miterlimit="10" stroke-width="2"/>
    </g>
  </g>
</svg>
