<svg width="18" height="12" viewBox="0 0 18 12" fill="none" xmlns="http://www.w3.org/2000/svg">
<path opacity="0.6" d="M17.584 0.132812C17.584 0.132812 15.1756 3.08253 15.0655 5.41145C14.9453 7.95659 17.495 11.3471 17.495 11.3471C14.2793 10.5689 12.4128 9.13819 9.26038 8.91874C6.10792 8.69928 0.995804 11.2162 0.995804 11.2162C0.995804 11.2162 3.21749 7.87348 3.17926 5.42201C3.14332 3.11719 1.08482 0.00185317 1.08482 0.00185317C1.08482 0.00185317 5.86622 2.51801 9.17255 2.54426C12.4789 2.5705 17.584 0.132812 17.584 0.132812Z" fill="url(#paint0_linear_13324_13690)" fill-opacity="0.6"/>
<path opacity="0.78" d="M6.816 5.248C7.12 4.888 7.608 4.708 8.28 4.708C8.576 4.708 9.012 4.824 9.588 5.056C10.156 5.296 10.532 5.416 10.716 5.416C11.364 5.416 11.84 5.168 12.144 4.672V5.644C11.856 6.012 11.364 6.196 10.668 6.196C10.42 6.196 10.012 6.076 9.444 5.836C8.868 5.604 8.464 5.488 8.232 5.488C7.896 5.488 7.616 5.548 7.392 5.668C7.176 5.78 6.984 5.964 6.816 6.22V5.248ZM6.816 7.36C7.12 7 7.608 6.82 8.28 6.82C8.576 6.82 9.012 6.936 9.588 7.168C10.156 7.408 10.532 7.528 10.716 7.528C11.364 7.528 11.84 7.28 12.144 6.784V7.756C11.856 8.124 11.364 8.308 10.668 8.308C10.42 8.308 10.012 8.188 9.444 7.948C8.868 7.716 8.464 7.6 8.232 7.6C7.896 7.6 7.616 7.66 7.392 7.78C7.176 7.892 6.984 8.076 6.816 8.332V7.36Z" fill="white"/>
<defs>
<linearGradient id="paint0_linear_13324_13690" x1="17.5395" y1="5.73998" x2="1.04031" y2="5.60902" gradientUnits="userSpaceOnUse">
<stop offset="0.223958" stop-color="#36D6AE"/>
<stop offset="0.390625" stop-color="#36D6AE"/>
<stop offset="0.796875" stop-color="#00C4FF"/>
</linearGradient>
</defs>
</svg>
