<?xml version="1.0" encoding="UTF-8" standalone="no"?>
<svg
   xmlns:dc="http://purl.org/dc/elements/1.1/"
   xmlns:cc="http://creativecommons.org/ns#"
   xmlns:rdf="http://www.w3.org/1999/02/22-rdf-syntax-ns#"
   xmlns:svg="http://www.w3.org/2000/svg"
   xmlns="http://www.w3.org/2000/svg"
   xmlns:xlink="http://www.w3.org/1999/xlink"
   xmlns:sodipodi="http://sodipodi.sourceforge.net/DTD/sodipodi-0.dtd"
   xmlns:inkscape="http://www.inkscape.org/namespaces/inkscape"
   width="145"
   height="40"
   viewBox="0 0 220 130"
   version="1.1"
   id="svg38"
   sodipodi:docname="select-pin-nano2.svg"
   inkscape:version="0.92.3 (2405546, 2018-03-11)">
  <metadata
     id="metadata42">
    <rdf:RDF>
      <cc:Work
         rdf:about="">
        <dc:format>image/svg+xml</dc:format>
        <dc:type
           rdf:resource="http://purl.org/dc/dcmitype/StillImage" />
      </cc:Work>
    </rdf:RDF>
  </metadata>
  <sodipodi:namedview
     pagecolor="#ffffff"
     bordercolor="#666666"
     borderopacity="1"
     objecttolerance="10"
     gridtolerance="10"
     guidetolerance="10"
     inkscape:pageopacity="0"
     inkscape:pageshadow="2"
     inkscape:window-width="1920"
     inkscape:window-height="1052"
     id="namedview40"
     showgrid="false"
     inkscape:zoom="6.2615385"
     inkscape:cx="84.865057"
     inkscape:cy="40.051003"
     inkscape:window-x="0"
     inkscape:window-y="0"
     inkscape:window-maximized="1"
     inkscape:current-layer="svg38" />
  <defs
     id="defs8">
    <linearGradient
       id="a"
       x1="35.303276"
       x2="35.303276"
       y1="15.99652"
       y2="40.514133"
       gradientTransform="matrix(-8.4543497e-4,0.29664266,3.371032,0.00960748,-52.969767,12.22358)"
       gradientUnits="userSpaceOnUse">
      <stop
         offset="0%"
         id="stop2" />
      <stop
         offset="100%"
         stop-color="#FFF"
         id="stop4" />
    </linearGradient>
    <path
       id="b"
       d="m 91,0 h 34 a 4,4 0 0 1 4,4 V 112.144 C 129,123.663 119.663,133 108.144,133 h -0.288 C 96.337,133 87,123.663 87,112.144 V 4 a 4,4 0 0 1 4,-4 z"
       inkscape:connector-curvature="0" />
  </defs>
  <g
     id="g36"
     style="display:inline;fill:none;fill-rule:evenodd"
     transform="matrix(1.2882901,0,0,1.4176054,-125.47444,28.334803)">
    <path
       d="m 127.856,31.44 a 1,1 0 0 1 -1,1 H 100.63 a 5,5 0 0 1 -5,-5 v -8.486 a 5,5 0 0 1 5,-5 h 26.225 a 1,1 0 0 1 1,1 v 16.485 z"
       id="path10"
       style="stroke:#ffffff;stroke-width:2;stroke-opacity:1"
       inkscape:connector-curvature="0" />
    <path
       d="M 95.247,26.231 H 84.318 v -6.435 h 10.93 v 6.435 z"
       id="path12"
       style="stroke:#ffffff;stroke-width:2;stroke-opacity:1"
       inkscape:connector-curvature="0" />
    <path
       d="M 127.923,28.726 V 17.471 l 6.977,0.083 a 1,1 0 0 1 0.988,1 v 9.266 a 1,1 0 0 1 -1.012,0.988 l -6.953,-0.083 z"
       id="path14"
       inkscape:connector-curvature="0"
       style="stroke:#1d2027;stroke-width:2" />
    <path
       d="m 0.93553186,19.213239 -0.004606,1.615993 82.64966514,0.235552 0.0046,-1.615993 z m -0.0161225,5.656977 -0.004606,1.615993 82.64966464,0.235552 0.0046,-1.615993 z"
       id="path16"
       style="opacity:1;fill:url(#a);fill-rule:evenodd;stroke:none;stroke-opacity:1"
       inkscape:connector-curvature="0" />
    <g
       transform="rotate(-90,128.59,1.975)"
       id="g34">
      <rect
         width="4.4920001"
         height="17.120001"
         x="125.336"
         y="15.505"
         rx="2"
         id="rect18"
         style="fill:#3ab793;fill-opacity:1" />
      <rect
         width="4.4920001"
         height="17.120001"
         x="125.336"
         y="70.094002"
         rx="2"
         id="rect20"
         style="fill:#3ab793;fill-opacity:1" />
      <use
         xlink:href="#b"
         id="use22"
         style="fill:#ffffff"
         x="0"
         y="0"
         width="100%"
         height="100%" />
      <path
         stroke-linejoin="square"
         d="M 91,1 A 3,3 0 0 0 88,4 V 112.144 C 88,123.11 96.89,132 107.856,132 h 0.288 C 119.11,132 128,123.11 128,112.144 V 4 a 3,3 0 0 0 -3,-3 z"
         id="path24"
         inkscape:connector-curvature="0"
         style="fill:#3ab793;fill-opacity:0.15;stroke:#3ab793;stroke-width:2;stroke-opacity:1" />
      <rect
         width="21"
         height="62"
         x="97.5"
         y="21.5"
         rx="1.6"
         id="rect26"
         style="fill:#ffffff;stroke:#3ab7d2;stroke-opacity:1" />
      <path
         d="M 110.43235,92.546013 C 99.647027,90.564771 89.297116,97.703127 87.315874,108.48844 L 65.899552,225.1002 a 3,3 0 0 0 2.409189,3.49288 l 33.155849,6.08861 a 3,3 0 0 0 3.49288,-2.40919 l 21.41632,-116.61176 c 1.98124,-10.78532 -5.15662,-21.134353 -15.94193,-23.115597 z"
         id="path30"
         style="fill:#ffffff;stroke:#3ab793;stroke-width:2;stroke-opacity:1"
         inkscape:connector-curvature="0" />
      <ellipse
         cx="108.016"
         cy="111.123"
         rx="10.57"
         ry="10.644"
         id="ellipse32"
         style="stroke:#3ab793" />
    </g>
  </g>
  <text
     xml:space="preserve"
     style="font-style:normal;font-weight:normal;font-size:26px;line-height:1.25;font-family:sans-serif;letter-spacing:0px;word-spacing:0px;fill:#000000;fill-opacity:1;stroke:none;stroke-width:1.79413843"
     x="80.306099"
     y="72.543304"
     id="text925"
     transform="scale(1.0709613,0.93374055)"><tspan
       sodipodi:role="line"
       id="tspan923"
       x="80.306099"
       y="72.543304"
       style="font-size:21.66666603px;fill:#000000;fill-opacity:1;stroke-width:1.79413843">TX</tspan></text>
</svg>
