<?xml version="1.0" encoding="UTF-8"?>
<svg id="Layer_2" data-name="Layer 2" xmlns="http://www.w3.org/2000/svg" xmlns:xlink="http://www.w3.org/1999/xlink" viewBox="0 0 100 100">
  <defs>
    <style>
      .cls-1 {
        fill: #019085;
      }

      .cls-2 {
        fill: url(#linear-gradient-2);
      }

      .cls-3 {
        fill: #79765e;
      }

      .cls-4 {
        fill: rgba(2, 233, 238, 1);
      }

      .cls-5 {
        fill: #343044;
      }

      .cls-6 {
        fill: #1b7b21;
      }

      .cls-7 {
        fill: #424d58;
      }

      .cls-8 {
        fill: #ab9800;
      }

      .cls-9 {
        fill: #07a12f;
      }

      .cls-10 {
        fill: #011712;
      }

      .cls-11 {
        fill: #8de6ec;
      }

      .cls-12 {
        fill: #02e9ee;
      }

      .cls-13 {
        fill: rgba(2, 233, 238, 1);
      }

      .cls-14 {
        fill: #7dd698;
      }

      .cls-15 {
        fill: #4c819c;
      }

      .cls-16 {
        fill: #165b24;
      }

      .cls-17 {
        fill: #7b9aab;
      }

      .cls-18 {
        fill: #004343;
      }

      .cls-19 {
        fill: rgba(29, 89, 102, 1);
      }

      .cls-20 {
        fill: #895600;
      }

      .cls-21 {
        fill: #00746b;
      }

      .cls-22 {
        fill: rgba(66, 77, 88, 1);
      }

      .cls-23 {
        fill: #741b00;
      }

      .cls-24 {
        fill: #443a50;
      }

      .cls-25 {
        fill: #012e36;
      }

      .cls-26 {
        fill: #000c12;
      }

      .cls-27 {
        fill: #b06600;
      }

      .cls-28 {
        fill: none;
      }

      .cls-29 {
        fill: #597334;
      }

      .cls-30 {
        fill: rgba(0, 238, 86, 1);
      }

      .cls-31 {
        fill: #8b93b0;
      }

      .cls-32 {
        fill: #bf7b00;
      }

      .cls-33 {
        fill: #8f8d5b;
      }

      .cls-34 {
        fill: #1d5966;
      }

      .cls-35 {
        fill: #043b1f;
      }

      .cls-36 {
        fill: url(#linear-gradient-3);
      }

      .cls-37 {
        fill: #015753;
      }

      .cls-38 {
        fill: #019d95;
      }

      .cls-39 {
        fill: #00aea1;
      }

      .cls-40 {
        fill: #5b5f6e;
      }

      .cls-41 {
        fill: #2c2c32;
      }

      .cls-42 {
        fill: url(#linear-gradient);
      }

      .cls-43 {
        fill: url(#linear-gradient-4);
      }

      .cls-44 {
        fill: rgba(139, 147, 176, 1);
      }
    </style>
    <linearGradient id="linear-gradient" x1="45.8" y1="69.2" x2="42.1" y2="70.6" gradientTransform="translate(0 102) scale(1 -1)" gradientUnits="userSpaceOnUse">
      <stop offset="0" stop-color="#014e16"/>
      <stop offset="1" stop-color="#013137"/>
    </linearGradient>
    <linearGradient id="linear-gradient-2" x1="49.2" y1="44.2" x2="53.2" y2="59.4" gradientTransform="translate(0 102) scale(1 -1)" gradientUnits="userSpaceOnUse">
      <stop offset="0" stop-color="#000"/>
      <stop offset="1" stop-color="#001515"/>
    </linearGradient>
    <linearGradient id="linear-gradient-3" x1="49" y1="45.6" x2="50.4" y2="52.8" gradientTransform="translate(0 102) scale(1 -1)" gradientUnits="userSpaceOnUse">
      <stop offset="0" stop-color="#005361"/>
      <stop offset="1" stop-color="#00867f"/>
    </linearGradient>
    <linearGradient id="linear-gradient-4" x1="20.3" y1="53.3" x2="22.7" y2="50.4" gradientTransform="translate(0 102) scale(1 -1)" gradientUnits="userSpaceOnUse">
      <stop offset="0" stop-color="#648da0"/>
      <stop offset="1" stop-color="#2098af"/>
    </linearGradient>
  </defs>
  <g id="Layer_2-2" data-name="Layer 2">
    <circle class="cls-28" cx="50" cy="50" r="50"/>
  </g>
  <g id="Layer_3" data-name="Layer 3">
    <g>
      <path d="m4.2,63.4c.3,0,.6-.2,1,0,.4.5.1,1.1.4,1.4.3,0,.5-.3.8-.5.9-.5,2.5-.5,3.4,0v.2c-.5,1.2-4.5,1.8-4.5,3.1.4.7,1,.8.6,1.8-.2.5-.6,1.3-.8,2,0,.2,0,.4,0,.6,0,.1,0,.3,0,.4,1.3,2.7,10,5.7,12.9,7.2,1.3.7,2.2,1.8,3.6,2.2.5.2,3.7,1.1,4,.9,1-.5,1.5-2.9,2.2-3.8.8,0,1.6-.2,2.4,0,2,.5,3.3,2.4,5.3.9,1.3-.9,2.2-2.2,3.5-3,.6.6,1.1,1.3,1.7,2-.5,2.1-2.4,3.6-2.8,5.7,0,.3,0,.6.1.8.4.4.9.2,1.3.4.3.1.3.5.7.5,0,0,0,0,.1,0,.1-.4.3-.7.5-1.1.2-.4.2-.8.3-1.2.3-1,1.2-1.5,2-1.9h0c1.4.5,2.6,1.2,4.1,1.5,2.2.4,6.1.6,8.1-.3,1.2-.5,2.4-1.4,3.5-2.2,1.8,2.1.8,2.5,1.5,4.6v-.7c.1,0,.3,0,.3,0,.3.4.4,1.4.5,1.9.3-.7.4-1.4.7-2.1.8-2.5,2.3-3.5,4.4-4.9l.2-.2c.3-.1.5-.2.8-.3,1.5-.4,6-.7,7.3,0,.4.2.8.4,1.2.5l1.9.6c.2-.7.4-2.2,1-2.5.6-.3,1.6.1,2.2.3,1.1,0,1.5-.4,2.4-1,.7-.4,1.8,0,2.6,0,2.2-.3,5.2-1.1,6.6-2.9.4-.5.8-1.3.8-1.9,0,0,0,0,0,0,.3-.6,0-1.7-.3-2.2-.2-.5-.5-1.1-.9-1.4-1-.7-2.5-1.1-3.6-1.5-1.8-.7-3.6-1.5-5.3-2.2.1-.6.2-1.3.3-1.9,0,0,.1,0,.2,0,1.1.2,2.2.7,3.2,1.1,2.6.8,5.4,1.5,8,2.4.4.2,1,.3,1.3.7.9-.6,1.2-2,1.7-2.9,0,0,0-.2,0-.2.2-.7.2-2.1-.2-2.7,0-.1.1-.2.2-.4.1-.4,0-.6-.2-1-1.8-.5-3.2-1.8-4.9-2.6-1-.5-2.1-.7-3.1-1.3-.3-.2-.6-.3-.8-.6,0,0,.1,0,.2-.1.5-.3,1.1-1,1.2-1.6,0-.3,0-.4,0-.6h-.5c-.9.6-7.6.6-9,.5-1.2-1.1-2.1-2.6-2.9-3.9l-.9-1.4c-.4-.4-.7-1-1.1-1.5l-.2-.4c0,0,.1,0,.2-.1.4-.3.8-.2,1.3,0,.6-.3,1.2-.8,1.7-1.3.2-.3.3-.4.7-.5-.9-.3-1.9-1.1-2.7-1.6-.3-.2-.7-.4-1-.5-1-.7-2.1-1.3-3.2-1.9-1.2-.7-2.9-1.3-3.2-2.8-.1-.7-.2-1-.7-1.6-1.1-1.4-2.8-2.5-3.6-4.1-1.1-2.2-1-5.2-1.3-7.6-.2-1.5-1-2.7-1.4-4.1-.3-1.3-.4-2.8-.6-4.2-.5-3.7-2.1-6.1-4.3-9-1.6-2.1-3.6-3.4-6.2-3.7-1.5-.2-3.1,0-4.4.9-1,.8-1.9,1.9-2.7,3-3.9,4.8-5.2,9.4-5.9,15.4v1.1c-.3,1.4-.3,2.8-.5,4.2-.3,2.1-1.5,4.6-3,6.2-.8.9-1.7,1.7-2.5,2.6-.1.8-.4,1.6-.5,2.3l-2.1,1.1c.2.2.3.4.5.6-.3.2-.9.4-1,.8,0,0,0,0,0,.1.3.1.7.3.8.7,0,.1,0,.3,0,.5v.4c.4.2.8,0,1.2.2l-1.4,1.3h.2c0-.1-.4.2-.4.2v-.5c0,0,0-.1-.1-.1-.8,0-1.6.9-2.4,1.1l-.3.2c-2.2,2.4-3.5,5.5-5.8,7.7-1.7.1-3.4,0-5.1.2l.6,1.7c-1.3,0-4.6.2-5.6,1-1.4,1-2.8,2.3-4.3,3-.8.4-1.8.6-2.6.9v3c0,0,.1,0,.2,0Zm74.8,4.4c1.5.1,8.9,4,10.4,5-.9,1-1.8,1.7-2.9,2.5l-.7.5c-1.2-.6-2.3-1.3-3.4-2-2-1.2-4-2.5-5.9-3.9.8-.7,1.7-1.4,2.5-2.1ZM51.7,10.2c0-.3,0-.3.3-.5.3,0,.4,0,.7.2.2.3.3.5.3.9.2,1.8,0,3.9,0,5.7,0,4.3,0,8.6,0,12.9h-.2c-.3.2-.3.8-.5.8-.1-.2-.2-.3-.3-.5v.2s-.1-.5-.1-.5c-.4,1,0,2.4-.1,3.4,0,0,0-.1,0-.2-.2-4.5,0-9-.1-13.4,0-2.7-.2-6.4,0-8.9Zm-2.7-.3c.1-.1.3-.2.5-.3.3,0,.3,0,.5.3.4,1.8,0,4,0,5.9,0,3.4,0,6.9,0,10.3-.2.2-.5.5-.7.8h-.2c-.2,0,0-1.2,0-1.6,0-.9-.4-1.7-.4-2.5,0-2.5.3-5.1,0-7.5,0-.9-.2-4.8.3-5.4Zm-9.2,55l.2-.6c.4-.6.8-1.6,1.6-1.8.4,0,1.1.3,1.5.5-.4,1.2-1.2,2.7-2.4,3.2-.2,0-.3,0-.5,0-.2-.2-.4-.3-.4-.6,0-.3,0-.6,0-.9Zm-14.1-10.8c.7-1.2,3.1-1.4,4.5-1.7,0,0,0,0,.1,0,0,0,0,0,0,0,1.1,0,2.4.4,3.5.7.2.7.4,1.6.5,2.3.1,1,0,1.8-.7,2.6-1,1.3-2.3,1.9-3.9,2.1-1.5,0-2.8-.2-4.3-.5-.2-1.5-.6-4.2.2-5.5Zm-4.7,13.8c.2,0,.4,0,.6,0,1.1.1,2,1.2,2.6,1.9-.1.2-.3.3-.5.5-.7.7-8.2,5.5-8.7,5.5-1.3-.9-2.6-1.8-3.6-3,1.4-1.3,7.5-3.9,9.6-4.9Z"/>
      <path class="cls-40" d="m77,56.5c.4.2.6.2.8.5,0,.2-.2.4-.3.5-.2.2-.2.2-.5.2l-.2-.3c0-.4,0-.6.1-1Z"/>
      <path class="cls-41" d="m58.8,70.5c0,0,.2,0,.2.1-.1.5-.8,1.1-1.1,1.6-.2,0-.2,0-.3,0,0,0,0,0,0-.1,0-.6.8-1.1,1.2-1.5Z"/>
      <path class="cls-8" d="m71.2,75.3c-.2-.2-.4-.4-.4-.7,0-.3.2-.4.4-.6.3,0,.3,0,.6.3-.1.4-.2.9-.6,1.1Z"/>
      <path class="cls-40" d="m66.6,41.5c-.5-.2-1.4-.3-1.7-.8.5-.2,1.3,0,1.8.1l-.2.7Z"/>
      <path class="cls-41" d="m35.4,40.6c.9-.2,1.9,0,2.9,0-1,.2-2,.5-3.1.5,0-.2.2-.4.2-.6Z"/>
      <path class="cls-40" d="m62.1,40.1l.4.5c-.2.4-.4.8-.7,1.1-.2,0-.4,0-.6-.2,0,0-.1-.2-.1-.3.1-.5.6-.8,1-1.1Z"/>
      <path class="cls-7" d="m39.4,40.1c.2,0,.5,0,.7.2.3.3.9.8.9,1.3,0,0,0,0,0,0-.5,0-.8-.2-1.2-.5-.2-.3-.3-.7-.4-1Z"/>
      <path class="cls-35" d="m43.1,73.1c0,.1.2.2.2.4.2.7.2,1.9-.1,2.5,0,0-.2-.2-.2-.3-.4-.6,0-1.9.2-2.6Z"/>
      <path class="cls-34" d="m38.9,21.7v.9c.4-.1.6-.3.9-.4-.4.5-1.1,1.7-1.6,1.8h0c0-.1.1-1.3.1-1.3.2-.4.5-.7.7-1.1Z"/>
      <path class="cls-33" d="m89.1,69.7c.5.1,1,.3,1.5.5.1.3.3.5.2.9h-.2c-.4-.1-1.1-.3-1.6-.5h.2c0,0,0,0,0,0h.3c.1-.3.1-.3.1-.5l-.4-.3v-.2Z"/>
      <path class="cls-24" d="m61.8,41.7c.3-.3.5-.7.7-1.1v.3c.6.1,1.1.3,1.5.5-.3.1-.8-.2-1,0,.1.6.8.7,1,1.3-.7-.4-1.5-.7-2.3-1Z"/>
      <path class="cls-6" d="m73.5,78c0-.2-.1-.4,0-.7,0-.4.3-.8.6-1,.3,0,.3.1.6.4,0,.5,0,1-.2,1.4-.4,0-.6,0-.9-.1Z"/>
      <path class="cls-33" d="m75.3,73.9c-.3-.1-.5-.3-.8-.5-.2-.3-.2-.5-.2-.8.2-.2.3-.4.6-.4.4,0,.8.4,1,.6l-.7,1.1Z"/>
      <path class="cls-34" d="m77,56.5c.6-.8,1-1.1,1.9-1.4l.2.3c-.1.6-.8,1.2-1.3,1.7-.3-.3-.5-.4-.8-.5Z"/>
      <path class="cls-7" d="m66.7,40.8h.7c0,.2,0,.2.2.5.5.2,2,1,2.5.7,0,0,0,0,0,0h.3c0,.2-.1.4,0,.6-.4,0-.7-.1-1.1-.2-.9-.5-1.7-.7-2.7-.9l.2-.7Z"/>
      <path class="cls-29" d="m90.5,70.2c.9.1,1.6.8,2.1,1.5v.4c-.7.2-1.5-.5-2.2-.8h.2c0-.5,0-.7-.2-1Z"/>
      <path class="cls-41" d="m12.9,59.9h0s0,.2,0,.2c-.5.6-1.6.2-2.1.8l.4.3c.7-.4,2.2-.6,3-.5h-.7c-1.1.5-3.2,1.1-4.4.8v-.2c.8-.7,2.6-.8,3.7-1.3Z"/>
      <path class="cls-31" d="m71.8,41c.3.2.5.4.6.7v.2c-.5.3-.7.5-.9,1-.3,0-.9-.2-1.1-.3,0-.2,0-.4,0-.5.4-.4.9-.8,1.4-1.1Z"/>
      <path class="cls-35" d="m45.1,19.3c0,1.1-.2,2.6.3,3.6,0,.3-.1.5-.3.6-1.2-1.3.2-3-.6-4.1h.7Z"/>
      <path class="cls-6" d="m71.8,74.2c.4.4,1.3,1.3,1.3,1.9,0,.3,0,.4-.2.6-.8-.2-1.1-1-1.7-1.5.3-.2.4-.7.6-1.1Z"/>
      <path class="cls-3" d="m81.2,76.1c.6.3,1.3.7,1.9,1.1-.9.6-1.3.9-2.4,1,0-.7.3-1.4.5-2Z"/>
      <path class="cls-41" d="m22.3,54.8c.3,0,.6.2.9.4.8.7,1.1,1.7,1.2,2.7-.2,0-.3,0-.5,0-.7-.4-1.4-2.3-1.6-3.1Z"/>
      <path class="cls-40" d="m67.5,40.7c.6-.2,1.4-.5,2-.1.4.2.5.7.6,1.1,0,.1,0,.2,0,.3,0,0,0,0,0,0-.5.2-2-.5-2.5-.7-.2-.2-.2-.3-.2-.6Z"/>
      <path class="cls-41" d="m30,43v.4c.4.2.8,0,1.2.2l-1.4,1.3h.2c0-.1-.4.2-.4.2v-.5c0,0,0-.1-.1-.1-.8,0-1.6.9-2.4,1.1.3-.4.8-.7,1.2-1-.1-.3-.2-.6-.1-.9h.1c.2,0,.4,0,.7,0,.4-.1.7-.3.9-.7Zm-1.7.7c0,.3,0,.6.1.9.3-.1.7-.3.9-.5-.2-.3-.5-.3-.9-.4h-.1Z"/>
      <path class="cls-19" d="m28.3,43.7h.1c.3,0,.7.1.9.4-.2.3-.6.4-.9.5-.1-.3-.2-.6-.1-.9Z"/>
      <path class="cls-6" d="m32.2,64.7h.3c.1.3.1.6,0,.8-.1.4-.4.7-.7.9-.3.2-.6,0-.9,0-.3,0-.7-.1-1-.4v-.2c.5-.5,1.6-.8,2.3-1.1Z"/>
      <path class="cls-16" d="m74.6,76.7c.1.2.4,1,.5,1,.3.3,1.3,0,1.2.8,0,.4-.3.8-.6,1.2-.4-.2-.8-.3-1.2-.5-.2-.5-.6-.9-.9-1.2.4.1.5.2.9.1.3-.4.2-.9.2-1.4Z"/>
      <path class="cls-25" d="m56.9,19.4h.9c.8.2,1.7.4,2.4.9-.4.4-.7.5-1.3.5,0,0-.2,0-.2,0-.5,0-1.2.1-1.6-.1-.2-.4-.1-.8,0-1.2Z"/>
      <path class="cls-35" d="m7,71.5c.9-.4,1.9-.6,2.8-1,0,.2,0,.4,0,.6.2.2.5.3.8.4-.2.3-.4.5-.6.8-.9.3-2.2-.5-3-.9Z"/>
      <path class="cls-16" d="m70.2,64.5c.2,0,.3,0,.5.2.2.2.4.4.5.6,0,.3,0,.6-.3.9-.2.4-.7.4-1.1.5-.4-.1-.7-.2-.9-.5,0-.2-.1-.3,0-.4.2-.6,1-.9,1.4-1.2Z"/>
      <path class="cls-25" d="m30.5,49.3c.5-1.9,1.5-3.8,3.2-5-.1.3-.3.5-.2.8.2,0,.3,0,.5,0-1.2,1.4-2.4,2.7-3.6,4.1Z"/>
      <path class="cls-34" d="m69.3,42.4c.4,0,.7,0,1.1.2.3,0,.9.4,1.1.3h0c.7.5,1.5,1.4,2.4,1.5v.5c-.3.3-1,.2-1.5.2-.9-1.1-2-1.8-3.1-2.7Z"/>
      <path class="cls-10" d="m52.1,64.4h0c.2,0,.6.1.7.3.4.7,0,4.7-.3,5.5v.2c0,0-.3,0-.3,0-.4-1-.2-4.7-.3-6Z"/>
      <path class="cls-6" d="m24.2,73.1c.4-.3,1.2-.9,1.7-.8.2,0,.4.2.5.4,0,.1.1.2.1.3,0,.2,0,.3-.2.3-.5.3-1.2,0-1.6.2.1.3.3.5,0,.9-.2.3-.7.6-1,.9-.4-.3-.4-1.2-.5-1.7l.9-.4Z"/>
      <path class="cls-32" d="m79.8,63.9c.8.3,1.6.7,2.4,1-1.5.9-2.9,2.2-4.5,2.9.9-.9,1.4-1.7,2-2.9-.1-.3,0-.5,0-.8,0,0,0,0,0,0v-.2Z"/>
      <path class="cls-20" d="m20.2,65.9c.2-.3.4-.4.8-.5,0,0,0,0,0,0,1,1.2,4.4,2.1,4.8,3.6v.2c-.5,0-5-2.9-5.6-3.4Z"/>
      <path class="cls-16" d="m32.5,68.5c.7-.4,1.2-2.5,2.6-2.2.4,0,.7.4.9.7,0,.1,0,.2,0,.4-.4.6-2.1,1.2-2.8,1.7-.2-.3-.4-.5-.8-.6Z"/>
      <path class="cls-16" d="m65,67c1.1-.1,2.2-.1,3.3-.2.2.5.5,1.3,1,1.6-.3.2-.8.4-1,.8-1.1-.8-2.2-1.3-3.3-2.2Z"/>
      <path class="cls-44" d="m4,59.7c.6-.1,1.9-1.1,2.6-1.4,1.4-.7,2.9-1.3,4.4-1.8-1.4,1-2.8,2.3-4.3,3-.8.4-1.8.6-2.6.9v-.6Z"/>
      <path class="cls-15" d="m56.9,19.4c0-.4,0-.5.3-.7,1.1-.3,2.1-.1,3.1.4,1.2.7,1.5,1.4,2,2.6-.7-.6-1.4-1-2.2-1.5-.7-.5-1.6-.7-2.4-.8h-.9Z"/>
      <path class="cls-6" d="m58.2,30.8c-.5-1.2-.8-2.5-.6-3.8,0-.6.3-1.4.8-1.7.2-.2.4-.2.7-.1.4.8,0,2.4-.1,3.3,0,.5,0,1,.1,1.5v.6c-.3-.5-.2-2.1-.4-2.4-.2.3-.3.5-.7.6,0,0-.2,0-.3,0l.5,1.9h-.2Z"/>
      <path class="cls-35" d="m48.9,64.3c.4,0,.5.1.8.4.3,1.9.3,4.5,0,6.4-.2,0-.4,0-.6-.2-.5-.9-.3-5.4-.2-6.5Z"/>
      <path class="cls-3" d="m80.9,67.2c2.2.3,6.2,1.4,8.2,2.5v.2s.4.3.4.3c0,.2,0,.2-.1.4h-.3c0,0,0,0,0,0h-.2c-.7,0-1.5-.6-2.2-.9l-5.8-2.5Z"/>
      <path class="cls-9" d="m42.8,29.6c0-1.1-.7-3.4-.3-4.3h.2c.5,0,.8.3,1,.8.6,1.2,0,3.9-.3,5.1h-.2c0,.1-.2-.2-.2-.2h0c-.2-.4-.2-.8-.2-1.3Z"/>
      <path class="cls-41" d="m39.8,41.1c.4.4.6.5,1.2.5-2.5.1-5,2-6.9,3.5-.2,0-.3,0-.5,0-.1-.3,0-.5.2-.8,0,0,0-.1.1-.2,1-.9,3.6-2.6,4.9-3,.3,0,.8,0,1.1,0Z"/>
      <path class="cls-41" d="m83.8,59c0,0,.1,0,.2,0,.8,0,1.7.3,2.5.5,1.8.3,3.8.6,5.5,1.2.4.1.7.3,1,.6v.2c-1.5.3-4-.3-5.5-.6-1.5-.3-3.3-.6-4.7-1.2.9-.1,3,.8,4,.9.4,0,.8-.3,1.1-.6,0,0-3.6-.8-4-1Z"/>
      <path class="cls-29" d="m9.7,70.5c1.7-.6,5.9-2.7,7.4-2.7h.2c-.5.8-5.6,3-6.7,3.8-.2-.1-.6-.2-.8-.4-.2-.2-.1-.4,0-.6Z"/>
      <path class="cls-15" d="m38.9,21.7c.3-.8,1.7-1.8,2.4-2.3.9-.5,2.1-1,3.1-.7.3.1.4.2.6.5h-.7c-1.8.6-3.2,1.6-4.6,2.9-.3,0-.5.3-.8.4v-.9Z"/>
      <path class="cls-12" d="m48.5,33.8c-.3-2.1.1-4.4.1-6.5,0-4-.2-8.1.1-12.1.3,2.4,0,5,0,7.5,0,.9.3,1.7.4,2.5,0,.3-.1,1.6,0,1.7l.2-.2-.2.2c.2-.3.6-.6.8-.9v2.4c-.5.2-.9.3-1.1.9-.4,1.3-.3,3.1-.5,4.5Z"/>
      <path class="cls-11" d="m51.8,32.7c0-1.1-.2-2.4.1-3.4l.2.5v-.4c0,.3,0,.5.2.8.2,0,.2-.6.5-.9h.2c0,1.2.4,5.4-.3,6.1,0,0,0,0-.1.1-.3,0-.4,0-.5-.3-.4-.6-.3-1.8-.3-2.5Z"/>
      <path class="cls-29" d="m75.9,72.8c.9.3,4.4,2.8,4.8,3.6,0,.2,0,.2,0,.4-.3.1-.5.2-.8,0-.6-.2-1.1-1.3-1.7-1.3,0,.4.3.6.2.9-1-.9-1.9-1.8-3.1-2.6l.7-1.1Z"/>
      <path class="cls-6" d="m32.6,70c-1.4-.8-4.5-1.6-5.1-3.1,0-.3,0-.3.2-.5,1.4,0,3.5,1.6,4.8,2.2.4.1.5.3.8.6l-.7.8Z"/>
      <path class="cls-9" d="m69.2,68.4c.9-.4,3.3-1.9,3.9-2.1.3,0,.5,0,.8,0l.2.2c0,.5-.3.7-.7,1-.7.5-3.9,2.4-4.5,2.3-.2,0-.4-.3-.5-.5,0,0-.1-.2-.2-.2.2-.4.6-.6,1-.8Z"/>
      <path class="cls-11" d="m48.5,33.8c.2-1.4,0-3.1.5-4.5.2-.5.5-.6,1-.9,0,1.4.2,6.3-.6,7,0,0-.1,0-.2,0-.3-.2-.6-.5-.6-.8,0-.3,0-.6,0-.9Z"/>
      <path class="cls-23" d="m47.9,62c1.6.3,3.7-.1,5.2.6.5.3.8.6.9,1.2-1.8,0-3.6,0-5.4,0l-.7-1.7Z"/>
      <path class="cls-6" d="m70.9,62.9c1.1.3,5.4,2.2,6.3,3,.3.3.4.3.4.7-.3,0-.7.1-1,0-1-.2-5-2.1-5.6-2.9-.2-.3-.2-.6-.1-.9Z"/>
      <path class="cls-27" d="m64.7,57.1c.5.3,1,1.2,1.3,1.7-2,.7-3.7,2-5.7,2.8-.1,0-.4,0-.5-.1-.3-.2-.4-.3-.5-.6.3-.5,1.9-.8,2.4-1.1,1.3-.6,2.1-1.6,3-2.7Z"/>
      <path class="cls-27" d="m37.4,57.4c.6.2,1,1.4,1.6,1.9,1,.8,2.5,1.2,3.7,1.6-.3.3-.5.8-.9.9-1.3-.6-4.6-1.9-5.3-3-.2-.3-.2-.4-.1-.7.3-.4.7-.5,1.1-.7Z"/>
      <path class="cls-10" d="m50.4,36.1c.8-.2,1.8.1,2.6.3-.2.6-.4,1.2-.6,1.8-.1.4-.2.5-.5.7-.8,0-1.7,0-2.5,0,0-.7-.2-1.6,0-2.3.2-.3.6-.4,1-.5Z"/>
      <path class="cls-25" d="m74,44.9c.6.5,1.2,1,1.7,1.6l.2.4c-.4.7.3,3.2.3,4.2-1.4-1.9-2.5-4-3.7-6,.5,0,1.2.1,1.6-.2Z"/>
      <path class="cls-9" d="m29.9,63.4c.4,0,.4,0,.7.2v.3c-.4.7-4.7,2.7-5.7,3.1-.1,0-.2,0-.4,0-.3-.1-.4-.3-.4-.5,0-.1,0-.3,0-.4.6-1,4.6-2.2,5.7-2.6Z"/>
      <path class="cls-35" d="m58.2,30.8h.2c0-.1-.5-2-.5-2,0,0,.2,0,.3,0,.4-.1.5-.3.7-.6.2.2.1,1.9.3,2.4v-.6c.7,2.9,2.2,4.2,4,6.4.5.5,1,1.1,1.3,1.7-.4-.2-.9-.6-1.2-.9-1.9-1.5-3.8-3.3-4.8-5.5-.1-.2-.2-.5-.3-.8Z"/>
      <path class="cls-10" d="m39.9,64.9c-.3.2-.5.4-.9.4-.6-.1-5.6-2.9-6-3.3-.3-.3-.4-.5-.5-1l.2-.2c1.4,0,5.4,3.1,7.4,3.4h0s-.2.6-.2.6Z"/>
      <path class="cls-16" d="m43.4,31.1c-.4,2.4-3.8,5.2-5.5,7-.3.3-.7.7-1.1.7-.2-.3,0-.9.2-1.2.4-.6,1.1-1.1,1.6-1.6,1.9-1.9,3.7-3.8,4.2-6.5,0,.5,0,.9.2,1.4h0c0-.1.2.2.2.2h.2Z"/>
      <path class="cls-27" d="m79.7,64.9c-1.1,0-5.5-1.8-6.7-2.4-.5-.2-1.2-.6-1.4-1.2l.2-.2c1.4-.3,6.4,2.1,7.9,2.7v.2c-.1,0-.1,0-.1,0,0,.3-.1.5,0,.8Z"/>
      <path class="cls-5" d="m64,42.7c-.2-.6-.9-.7-1-1.3.2-.2.6.2,1,0,2.8,1.4,5.1,2.9,6.7,5.6.3.4.6,1,.8,1.4.3.8.2,1.7.5,2.6-.7-1.6-1.5-3.7-2.8-5-.5-.5-1.5-1-1.9-1.5-.9-.5-1.8-1-2.6-1.5-.2,0-.4-.2-.6-.3Z"/>
      <path class="cls-24" d="m64.7,43h.1c.9.3,1.8.6,2.5,1.3v.2c-.9-.5-1.7-1-2.6-1.5Z"/>
      <path class="cls-35" d="m47.3,72.2c2.3,0,4.5,0,6.8,0,.1.4.2.7.3,1.1l-.2.2c-1.2,0-6.2.4-7.1,0,0,0,0-.1,0-.2,0-.4.1-.9.3-1.2Z"/>
      <path class="cls-35" d="m66.1,79.6c-.2,0-.3-.1-.5-.2-.4-.7-.4-1.6-.8-2.4-.5-1.1-1.3-2.1-1.7-3.3-.1-.3-.1-.6,0-1h.2c.2,0,.3,0,.5.2,1,.9,3.5,4.2,3.6,5.5-.1.5-.6.7-1,1l-.2.2Z"/>
      <path class="cls-7" d="m31.7,39.3c.9.6.7,1.1,1.3,1.6.8-.4,1.5-.4,2.4-.2,0,.2-.1.4-.2.6-1.4.7-2.6,1.5-3.9,2.4-.4-.2-.8,0-1.2-.2v-.4c0-.2,0-.3-.1-.5-.1-.4-.5-.5-.8-.7,0,0,0,0,0-.1,0-.4.7-.6,1-.8-.2-.2-.3-.4-.5-.6l2.1-1.1Z"/>
      <path class="cls-26" d="m31.7,39.3c.9.6.7,1.1,1.3,1.6-.3.3-1.1.6-1.5.7-.4-.2-1-.4-1.3-.7-.2-.2-.3-.4-.5-.6l2.1-1.1Z"/>
      <path class="cls-16" d="m19.2,79.2c-.5-.4-1-.8-1.5-1.3-.3-.2-.7-.6-.7-1,.4-.4,1.2-.4,1.7-.6,1.6-.8,3-1.9,4.6-2.8.2.5.2,1.4.5,1.7-.2.2-.5.4-.7.6-1.7,1.2-2.9,1.3-3.9,3.3Z"/>
      <path class="cls-27" d="m20.2,65.9c-.4-.2-.8-.5-1.1-.8v-.2c.9-.5,9.8-3.9,10.3-3.8.2,0,.5.3.6.4.2.2.2.3,0,.6-.8.5-1.8.7-2.7,1-2.1.7-4.4,1.3-6.4,2.3-.4,0-.5.3-.8.5Z"/>
      <path class="cls-35" d="m29.6,73.1c.6.3.9.8,1.1,1.4-1.3,1.1-2.7,2.5-3.8,3.9-.3.4-.8,1.3-1.3,1.4-.5-.4-1-.9-1.5-1.4,1.4-1.9,3.6-3.8,5.4-5.3Z"/>
      <path class="cls-42" d="m45.3,22.9c1.1.7,1.8,1.5,2,2.8.5,2.4-1.1,7.5-2.4,9.5-1.4,2-3.7,3.2-4.9,5.2-.2,0-.5-.1-.7-.2.9-1.9,2.4-2.9,3.8-4.4,2.1-2.2,3.6-6.4,3.5-9.4,0-1.4-.7-1.9-1.6-2.8.2-.2.2-.4.3-.6Z"/>
      <path class="cls-35" d="m62.1,40.1h0c-.8-1.2-2.4-2.2-3.4-3.3-2.5-2.6-4.8-7.7-4.1-11.4.2-1,.8-2.2,1.7-2.8.3-.2.7-.4,1.2-.4,0,0,0,0,0,0v.2c-.2.7-1.1,1.2-1.6,1.8-1.4,1.6-.4,5.6.4,7.3.6,1.3,1.2,2.3,2.1,3.4.9,1.1,4.5,4,4.5,5.2,0,.2-.2.3-.4.4l-.4-.5Z"/>
      <path class="cls-41" d="m97.7,61.3c-1.9.5-5.6-2.2-7.5-3-1.6-.7-3.3-1.2-5.1-1.4.4-.1,1.1,0,1.5,0,.4-.2.5-.6.8-1,.2-.3,1.1-.4,1.4-.4.2.3.4.4.8.6,1,.5,2.1.8,3.1,1.3,1.7.8,3.1,2.1,4.9,2.6.2.3.3.6.2,1,0,.1-.1.2-.2.4Z"/>
      <path class="cls-4" d="m48.7,15.3c0-.9-.2-4.8.3-5.4.1-.1.3-.2.5-.3.3,0,.3,0,.5.3.4,1.8,0,4,0,5.9,0,3.4,0,6.9,0,10.3-.2.3-.6.6-.8.9l.2-.2-.2.2c-.2-.1,0-1.4,0-1.7,0-.9-.4-1.7-.4-2.5,0-2.5.3-5.1,0-7.5Z"/>
      <path d="m72.6,40.5c1.1.6,2.2,1.2,3.2,1.9.3.2.7.4,1,.5.8.5,1.9,1.3,2.7,1.6-.4.2-.4.2-.7.5-.5.4-1.1,1-1.7,1.3-.5-.1-.8-.2-1.3,0,0,0-.1,0-.2.1-.5-.6-1.1-1.1-1.7-1.6v-.5c-.9-.1-1.7-1-2.4-1.5h0c.2-.5.4-.7.8-1v-.2c0-.4-.2-.5-.5-.7.3,0,.5-.3.7-.4Z"/>
      <path class="cls-26" d="m78.5,44.9c-.6-.6-1.3-.6-2-1.1.4-.1.8.2,1.2.2h0c-.2-.2-.7-.6-.9-.6-.2,0-.3.1-.5,0v-.2s.4-.2.4-.2c.8.5,1.9,1.3,2.7,1.6-.4.2-.4.2-.7.5l-.3-.2Z"/>
      <path class="cls-25" d="m72.6,40.5c1.1.6,2.2,1.2,3.2,1.9-.7,0-1.3-.6-1.9-.8-.3,0-.4,0-.6.3l.6.2v.2s0,0,0,0c-.4,0-1.2-.2-1.5-.4v-.2c0-.4-.2-.5-.5-.7.3,0,.5-.3.7-.4Z"/>
      <path class="cls-31" d="m73.9,44.4c1.5.1,3.1.3,4.6.5l.3.2c-.5.4-1.1,1-1.7,1.3-.5-.1-.8-.2-1.3,0,0,0-.1,0-.2.1-.5-.6-1.1-1.1-1.7-1.6v-.5Z"/>
      <path class="cls-35" d="m39.3,69.9c.4-.4.8-.8,1.3-.9h.3c.1.3,0,.6,0,.9-.5,1.1-1.3,2.1-1.9,3.2-1.3,2-2.7,4.6-3.4,6.8-1-.5-1.9-1.1-2.9-1.7,1.8-2.6,4.4-6.1,6.7-8.2Z"/>
      <path class="cls-4" d="m51.8,32.7c0,0,0-.1,0-.2-.2-4.5,0-9-.1-13.4,0-2.7-.2-6.4,0-8.9,0-.3,0-.3.3-.5.3,0,.4,0,.7.2.2.3.3.5.3.9.2,1.8,0,3.9,0,5.7,0,4.3,0,8.6,0,12.9h-.2c-.3.2-.3.8-.5.8-.2-.3-.3-.4-.3-.8v.4c0,0,0-.5,0-.5-.4,1,0,2.4-.1,3.4Z"/>
      <path class="cls-30" d="m79,67.9c1.5.1,8.9,4,10.4,5-.9,1-1.8,1.7-2.9,2.5l-.7.5c-1.2-.6-2.3-1.3-3.4-2-2-1.2-4-2.5-5.9-3.9.8-.7,1.7-1.4,2.5-2.1Z"/>
      <path class="cls-30" d="m21.1,67.9c.2,0,.4,0,.6,0,1.1.1,2,1.2,2.6,1.9-.1.2-.3.3-.5.5-.7.7-8.2,5.5-8.7,5.5-1.3-.9-2.6-1.8-3.6-3,1.4-1.3,7.5-3.9,9.6-4.9Z"/>
      <path class="cls-14" d="m47.9,75c2.4,0,4.8,0,7.2,0,.5,1,1.2,2.4.8,3.4-.2.5-.6.8-1.1,1-.7.3-1.5.4-2.3.4-.4.2-1.6.2-2.1.2-1.4,0-3.8-.2-4.8-1.3-.3-.3-.3-.7-.3-1.1,0-.8.3-1.8,1-2.4.5-.4,1-.3,1.7-.3Z"/>
      <path d="m46.9,76.2c1.4,0,6.3-.4,7.4.1.3.4.3,1.1.2,1.6,0,.3-.2.5-.4.6-.7.5-2.2.4-3,.5-1.2-.1-2.5,0-3.6-.4-.4-.1-.6-.4-.8-.7-.2-.5,0-1.3.2-1.8Z"/>
      <path class="cls-15" d="m79.5,44.6c.8.5,1.5,1,2.1,1.6v.4c2.6,1.5,5.6,3.8,7.6,6l.4.5h.1c-.9.7-7.6.7-9,.6-1.2-1.1-2.1-2.6-2.9-3.9l-.9-1.4c-.4-.4-.7-1-1.1-1.5l-.2-.4c0,0,.1,0,.2-.1.4-.3.8-.2,1.3,0,.6-.3,1.2-.8,1.7-1.3.2-.3.3-.4.7-.5Zm1.7,2.7c0,.2,0,.5.2.7.7.9,4.1,3.6,5.1,4.3.6.4,1.4,1,2.1.8.2,0,.4-.1.5-.3v-.3c-1.9-2.2-4.9-4.4-7.5-6l-.5.7Z"/>
      <path d="m79.5,44.6c.8.5,1.5,1,2.1,1.6v.4s-.4.7-.4.7l-.3.5c-.5.2-1.3-.9-1.8-1-.4,0-.8,0-1.2,0-.4,0-.5-.2-.8-.5.6-.3,1.2-.8,1.7-1.3.2-.3.3-.4.7-.5Z"/>
      <path class="cls-4" d="m81.2,47.3l.5-.7c2.6,1.5,5.6,3.8,7.6,6v.3c-.3.1-.5.2-.7.3-.7.1-1.5-.5-2.1-.8-1-.7-4.3-3.4-5.1-4.3-.1-.2-.2-.4-.2-.7Z"/>
      <path class="cls-18" d="m50.2,40.6c.2,0,.3,0,.5,0,2.7-.1,5,.9,7,2.6,1.9,1.7,3.5,4,3.6,6.6.1,2.7-.7,4.7-2.5,6.7-1.9,2.1-3.9,4-6.9,4.2-2.6,0-5.2-.7-7.3-2.4-2.3-1.8-3.5-4.3-3.9-7.2-.3-2.4.2-4.3,1.8-6.3,2-2.5,4.6-4,7.7-4.4Z"/>
      <path class="cls-2" d="m50.1,42.3c1.8-.2,3.7.2,5.3,1.2,1.9,1.2,3.2,2.8,3.7,5,.4,1.9.2,4.1-.8,5.8-1.3,2-3.9,3.5-6.2,4-1.9.3-4.1-.3-5.7-1.3-1.7-1.1-2.9-2.9-3.3-4.9,0-.3,0-.5-.1-.8,0-.3,0-.5,0-.8s0-.5,0-.8c0-.3,0-.5.1-.8,0-.3.1-.5.2-.8,0-.2.2-.5.3-.7,0-.2.2-.5.3-.7s.3-.5.4-.7c1.4-2.1,3.4-3.3,5.8-3.8Z"/>
      <path class="cls-34" d="m55.5,53.9v.4c.2.3.3.3.6.4-.9.8-1.6,1.3-2.7,1.7-.2-.4-.3-.7-.4-1.2,0,0,0,0,.2,0,.6-.1,2-.7,2.3-1.2Z"/>
      <path class="cls-37" d="m50,43.8c2.1-.3,4,.2,5.8,1.5,1.3,1,2.3,2.4,2.5,4.1.2,1.5-.3,3.2-1.2,4.4-.3.4-.6.7-.9,1-.3,0-.4-.1-.6-.4v-.4c-.3-.4-.6-.6-.9-.9l-.6-.7c-.2-.3-.3-.4-.6-.5-.3,0-.7-.3-.9-.4-.2-.3-.8-.7-1.1-.9-.4,0-.6-.3-.9-.5-.1-.2-.2-.3-.2-.5.2,0,.3-.2.5-.3.3-.8.2-1.8.2-2.7l-.2-.5v-.8c-.1,0-.3-.5-.3-.5v-.6c0,0-.1-.2-.1-.2l-.4-.2Z"/>
      <path class="cls-10" d="m56.5,50.7c.2,0,.3,0,.5.3-.2.7-.2,1.5-.5,2.2-.1,0-.2.1-.3,0-.2-.5-.6-.7-.7-1.2l.2-.2c.3-.4.6-.8.9-1.2Z"/>
      <path class="cls-25" d="m55.4,47.1c.6.1,1,.5,1.3,1.1.2.4.4.8.6,1.2,0,.5,0,1.3-.3,1.6-.1-.2-.2-.2-.5-.3,0-.1.1-.3.2-.4.2-.4.2-.6,0-1-.3-.2-.7-.2-1.1-.1-.2-.2-.3-.5-.5-.8.2-.4.2-.9.2-1.3Z"/>
      <path d="m50.5,44.8l.2-.3c1,0,2.8.7,3.6,1.4.3.2.5.6.5.9-.3.4-.5.8-.8,1.2-.4-.5-.9-1-1.4-1.4-.1-.2-1.4-.7-1.7-.9l-.2-.4-.2-.5Z"/>
      <path class="cls-38" d="m53.6,50.4c0-.8,1-1.5,1.5-2,.1.3.2.6.5.8.4,0,.7-.1,1.1.1.1.4.1.6,0,1,0,.1-.1.3-.2.4-.3.4-.6.8-.9,1.2l-.2.2c.1.5.6.7.7,1.2,0,.3,0,.6-.1.9-.2,0-.3.1-.5.1v-.4c-.3-.4-.6-.6-.9-.9l-.6-.7c-.2-.3-.3-.4-.6-.5-.2-.3-.3-.5-.4-.8.3-.2.4-.4.5-.6Z"/>
      <path class="cls-18" d="m53.6,50.4c0-.8,1-1.5,1.5-2,.1.3.2.6.5.8-.7.4-1.1.8-1.3,1.6,0,0,0,0,0,.2,0,0,0,0,0,0-.3,0-.4-.3-.6-.5Z"/>
      <path class="cls-1" d="m54.4,51.1c.8,0,.7.4,1.2.8l-.2.2c.1.5.6.7.7,1.2,0,.3,0,.6-.1.9-.2,0-.3.1-.5.1v-.4c-.3-.4-.6-.6-.9-.9.2-.2.4-.4.5-.7,0-.5-.5-.8-.7-1.2,0,0,0,0,0,0Z"/>
      <path class="cls-39" d="m50.7,45.3l.2.4c.3.2,1.6.7,1.7.9.5.5,1,.9,1.4,1.4.2-.4.5-.9.8-1.2.3,0,.4,0,.7.3,0,.4,0,.9-.2,1.3-.5.6-1.5,1.2-1.5,2-.2.3-.3.5-.5.6,0,.3.2.6.4.8-.3,0-.7-.3-.9-.4-.2-.3-.8-.7-1.1-.9-.4,0-.6-.3-.9-.5-.1-.2-.2-.3-.2-.5.2,0,.3-.2.5-.3.3-.8.2-1.8.2-2.7l-.2-.5v-.8Z"/>
      <path class="cls-18" d="m50.7,45.3l.2.4c.3.2,1.6.7,1.7.9h-.8c.2,1.6.6,2.9,1.3,4.5,0,.3.2.6.4.8-.3,0-.7-.3-.9-.4-.2-.3-.8-.7-1.1-.9-.4,0-.6-.3-.9-.5-.1-.2-.2-.3-.2-.5.2,0,.3-.2.5-.3.3-.8.2-1.8.2-2.7l-.2-.5v-.8Z"/>
      <path class="cls-35" d="m50.9,45.7c.3.2,1.6.7,1.7.9h-.8c0,.3,0,.7,0,1.1h-.2c-.4-.6,0-1-.6-2Z"/>
      <path class="cls-37" d="m51,46.5c.4.5.3,3.2.4,4-.4,0-.6-.3-.9-.5-.1-.2-.2-.3-.2-.5.2,0,.3-.2.5-.3.3-.8.2-1.8.2-2.7Z"/>
      <path class="cls-36" d="m50,43.8l.4.2v.2s.1.6.1.6l.2.5v.8c.1,0,.4.5.4.5,0,.9.2,1.8-.2,2.7-.2.1-.3.2-.5.3,0,.2,0,.3.2.5.3.2.5.4.9.5.3.2.9.6,1.1.9.3.2.6.5.9.4.3.1.4.2.6.5l.6.7c.3.3.6.5.9.9-.3.5-1.8,1.1-2.3,1.2,0,0,0,0-.2,0,0,.5.2.8.4,1.2-1.4.4-2.7.6-4.1.3-1.6-.4-3.3-1.4-4.2-2.8-1.1-1.8-.9-4.4-.4-6.4.2-.3.4-.6.6-.9,1.2-1.8,2.6-2.5,4.7-2.9Z"/>
      <path d="m46.5,53.6c-.4-.5-1.2-1.3-1.4-2,0-.3,0-.4.2-.6.3-.2.8-.2,1.2-.2v.6c-.1.7,0,1.4,0,2.1Z"/>
      <path d="m45.2,47.3l.2-.3c.8,0,1.2,1.2,1.9,1.5,0,.3,0,.6-.2.9,0,0-.1,0-.2.1-.4,0-.7.3-1,.3-.3,0-.4,0-.6-.2-.2-.6,0-1.6,0-2.3Z"/>
      <path d="m48.4,52.4l.2-.2c.4.2.9,1.2,1.1,1.7l.2.5v.4c0,0,0,.6,0,.6h-.3c-.4.1-.8,0-1.1-.2-.4-.3-1.4-1-1.5-1.5l.3-.2c.2-.1.4-.2.5-.3.4-.2.6-.4.7-.8Z"/>
      <path d="m54,52.4l.6.7c.3.3.6.5.9.9-.3.5-1.8,1.1-2.3,1.2,0,0,0,0-.2,0,0-.1-.3-.2-.4-.3-.6,0-1.1.8-1.6,1.1,0,0-.2,0-.3,0-.2-.4,0-.9,0-1.4,1.2-.9,2.5-.8,3.4-2.2Z"/>
      <path class="cls-1" d="m50.6,50c.3.2.5.4.9.5.3.2.9.6,1.1.9.3.2.6.5.9.4.3.1.4.2.6.5-.8,1.4-2.1,1.3-3.4,2.2-.2.1-.4.2-.7.2v-.4c0,0-.3-.5-.3-.5,0-.5.2-1,.3-1.5,0,0,0,0,0,0,0-.3.6-.2.8-.4.1-.6,0-1.4-.3-1.9Z"/>
      <path class="cls-38" d="m50.1,52.4l.9.3c0,.6-.1,1.2-.4,1.7-.2.1-.4,0-.6,0l-.2-.5c0-.5.2-1,.3-1.5Z"/>
      <path class="cls-21" d="m50.6,50c.3.2.5.4.9.5.3.2.9.6,1.1.9-.3.3-.6,1-1,1.2-.2,0-.4,0-.6,0l-.9-.3s0,0,0,0c0-.3.6-.2.8-.4.1-.6,0-1.4-.3-1.9Z"/>
      <path class="cls-38" d="m47.9,47.7c.8-1,1.1-.2,1.8-.5h.1c0,.4,0,.8.2,1.1,0,0,.1.2.2.2,0,.2,0,.4,0,.5-.6.3-1.3.2-2,.2-.4.7-.8,1.4-.6,2.2.1.4.4.7.7.9-.1.5-.3.6-.7.8-.2.1-.4.2-.5.3-.2,0-.3,0-.5-.2-.2-.5-.1-1.3-.2-1.9v-.6c0-.5.1-.9.3-1.3,0,0,.1,0,.2-.1.3-.3.2-.5.2-.9,0-.3.4-.6.6-.8Z"/>
      <path class="cls-1" d="m50.8,46l.2.5c0,.9.2,1.8-.2,2.7-.2.1-.3.2-.5.3,0,.2,0,.3.2.5.2.6.4,1.3.3,1.9-.2.2-.8.1-.8.4,0,0,0,0,0,0-.2.5-.3,1-.3,1.5-.3-.4-.7-1.5-1.1-1.7l-.2.2c-.3-.2-.6-.5-.7-.9-.2-.8.2-1.5.6-2.2.6,0,1.4.1,2-.2,0-.2,0-.4,0-.5.1,0,.2-.1.3-.2.5-.4.2-1.7.2-2.3Z"/>
      <path class="cls-21" d="m50,43.8l.4.2v.2s.1.6.1.6l.2.5v.8c.1.6.4,1.9,0,2.3,0,0-.2.1-.3.2,0,0-.1-.2-.2-.2-.2-.3-.2-.8-.2-1.2h-.1c-.7.3-1-.5-1.8.5-.2.2-.6.5-.6.8-.7-.4-1.1-1.4-1.9-1.5l-.2.3h-.5c.2-.2.4-.4.6-.7,1.2-1.8,2.6-2.5,4.7-2.9Z"/>
      <path class="cls-39" d="m49.9,47.2c0-.8-.1-1.7,0-2.5,0-.4.2-.4.5-.5v.6c0,0,.2.5.2.5v.8c.1.6.4,1.9,0,2.3,0,0-.2.1-.3.2,0,0-.1-.2-.2-.2-.2-.3-.2-.8-.2-1.2Z"/>
      <path d="m47.9,47.7c-.2-.1-.3-.3-.3-.5-.2-.4-.3-1,0-1.4.3-.7,1.6-.9,2.2-1.2,0,.9,0,1.7,0,2.6-.7.3-1-.5-1.8.5Z"/>
      <path d="m26.1,42.2c1.1-.8,2.3-1.3,3.5-1.8.2.2.3.4.5.6-.3.2-.9.4-1,.8,0,0,0,0,0,.1.3.1.7.3.8.7,0,.1,0,.3,0,.5-.2.4-.5.6-.9.7-.2,0-.4,0-.7,0h-.1c0,.3,0,.6.1.9-.4.3-.9.6-1.2,1l-.3.2c.1-.2.2-.3.3-.6v-.2c-.1,0-1-.8-1-.8-.4-.5-.9-.9-1.4-1.4.4-.2.9-.5,1.3-.7Zm1,2.9v.2c0,.2,0,.4-.2.6l.3-.2c.3-.4.8-.7,1.2-1-.1-.3-.2-.6-.1-.9-.3-.2-.5-.3-.8-.3-.4.5.2,1.2-.4,1.7Z"/>
      <path class="cls-22" d="m27.1,45c.6-.5,0-1.2.4-1.7.4,0,.5.1.8.3,0,.3,0,.6.1.9-.4.3-.9.6-1.2,1l-.3.2c.1-.2.2-.3.3-.6v-.2Z"/>
      <path class="cls-13" d="m14.5,53.5c-.8,0-2.2,0-2.9-.2,0-.2-.1-.4-.1-.7,0-.6.9-.7,1.4-1,1.8-.9,3.4-2.6,5-3.8,1-.7,1.7-1,2.9-.8v1c-1.4,1.4-2.9,2.8-4.4,4.1-.6.5-1.4.9-1.9,1.5Z"/>
      <path class="cls-43" d="m24.8,42.9c.5.4,1,.8,1.4,1.4l.8.8v.2c0,.2,0,.4-.2.6-2.2,2.4-3.5,5.5-5.8,7.7-1.7.1-3.4,0-5.1.2-.3-.3-1.1-.2-1.5-.3.5-.5,1.3-1,1.9-1.5,1.5-1.3,3-2.6,4.3-4.1v-1c.6-.8,1.1-1.6,1.6-2.4.8-.6,1.6-1.1,2.5-1.6Z"/>
      <path class="cls-34" d="m24.8,42.9c.5.4,1,.8,1.4,1.4-.9.4-1.9.9-2.8,1.4-.5-.3-.8-.7-1.1-1.1.8-.6,1.6-1.1,2.5-1.6Z"/>
      <path d="m20.8,47c.6-.8,1-1.6,1.6-2.4.3.5.6.8,1.1,1.1.4.3.8.6,1.3.9-1.1.3-2.6.5-3.4,1.3l-.4.2h-.2c0-.1,0-1.1,0-1.1Z"/>
      <path class="cls-17" d="m21.4,47.9c.5-.1,1.2-.5,1.7-.4,0,0,0,0,0,0-.3.2-.4.9-.7,1.2-.9,1.1-3.5,4-4.9,4l-.2-.3c.7-1.7,3.4-2.5,3.8-4.4l.4-.2Z"/>
    </g>
  </g>
</svg>