<svg width="22" height="20" viewBox="0 0 22 20" fill="none" xmlns="http://www.w3.org/2000/svg">
<g filter="url(#filter0_d_13148_19829)">
<path d="M13 11V15H5V7H10.7778" stroke="#36D6AE"/>
<path d="M17.4903 6.09806C17.5444 5.82728 17.3688 5.56387 17.0981 5.50971L12.6854 4.62719C12.4147 4.57303 12.1513 4.74864 12.0971 5.01942C12.0429 5.2902 12.2185 5.55361 12.4893 5.60777L16.4117 6.39223L15.6272 10.3146C15.573 10.5853 15.7486 10.8487 16.0194 10.9029C16.2902 10.9571 16.5536 10.7815 16.6078 10.5107L17.4903 6.09806ZM11.2774 10.416L17.2774 6.41602L16.7227 5.58397L10.7226 9.58397L11.2774 10.416Z" fill="#36D6AE"/>
</g>
<defs>
<filter id="filter0_d_13148_19829" x="0.5" y="0.617432" width="21.0001" height="18.8826" filterUnits="userSpaceOnUse" color-interpolation-filters="sRGB">
<feFlood flood-opacity="0" result="BackgroundImageFix"/>
<feColorMatrix in="SourceAlpha" type="matrix" values="0 0 0 0 0 0 0 0 0 0 0 0 0 0 0 0 0 0 127 0" result="hardAlpha"/>
<feOffset/>
<feGaussianBlur stdDeviation="2"/>
<feComposite in2="hardAlpha" operator="out"/>
<feColorMatrix type="matrix" values="0 0 0 0 0.211765 0 0 0 0 0.839216 0 0 0 0 0.682353 0 0 0 1 0"/>
<feBlend mode="normal" in2="BackgroundImageFix" result="effect1_dropShadow_13148_19829"/>
<feBlend mode="normal" in="SourceGraphic" in2="effect1_dropShadow_13148_19829" result="shape"/>
</filter>
</defs>
</svg>
