<svg width="686" height="720" viewBox="0 0 686 720" fill="none" xmlns="http://www.w3.org/2000/svg">
<g filter="url(#filter0_dd_8840_22060)">
<path d="M342.319 234.11L342.995 232.771L342.343 232.442L341.683 232.752L342.319 234.11ZM342.319 234.11C342.995 232.771 342.996 232.771 342.997 232.772L343.002 232.775L343.018 232.783L343.075 232.812C343.124 232.837 343.195 232.874 343.288 232.923C343.474 233.021 343.745 233.167 344.096 233.362C344.799 233.751 345.823 234.336 347.121 235.128C349.716 236.712 353.412 239.122 357.839 242.446C366.694 249.094 378.485 259.4 390.272 274.053C413.86 303.379 437.387 350.067 437.387 419.56C437.387 513.593 413.927 567.467 390.287 597.869C378.473 613.063 366.639 622.36 357.727 627.866C353.273 630.618 349.551 632.422 346.928 633.542C345.617 634.101 344.581 634.49 343.866 634.741C343.508 634.866 343.231 634.957 343.039 635.018C342.944 635.048 342.869 635.071 342.817 635.086L342.756 635.104L342.738 635.11L342.732 635.111C342.73 635.112 342.728 635.112 342.319 633.669L342.728 635.112L342.174 635.27L341.658 635.016L342.316 633.675C341.984 634.351 341.819 634.685 341.737 634.851C341.656 635.015 341.655 635.015 341.655 635.014L341.65 635.012L341.633 635.004L341.574 634.974C341.524 634.949 341.452 634.912 341.358 634.863C341.171 634.766 340.898 634.621 340.544 634.426C339.837 634.036 338.81 633.448 337.508 632.641C334.905 631.028 331.203 628.544 326.769 625.038C317.9 618.025 306.104 606.927 294.318 590.547C270.733 557.77 247.251 503.933 247.251 419.56C247.251 348.39 270.773 301.696 294.373 272.78C306.164 258.333 317.961 248.341 326.822 241.955C331.253 238.762 334.951 236.469 337.549 234.971C338.849 234.222 339.873 233.671 340.577 233.306C340.929 233.123 341.201 232.986 341.387 232.895C341.48 232.849 341.552 232.814 341.601 232.79L341.659 232.763L341.675 232.755L341.68 232.753C341.681 232.752 341.683 232.752 342.319 234.11ZM342.873 631.91C342.717 631.965 342.578 632.012 342.459 632.052C342.327 631.982 342.171 631.897 341.992 631.798C341.328 631.433 340.345 630.87 339.088 630.091C336.575 628.534 332.967 626.114 328.629 622.684C319.954 615.825 308.358 604.924 296.753 588.795C273.554 556.555 250.251 503.337 250.251 419.56C250.251 349.114 273.513 303.083 296.697 274.677C308.298 260.464 319.893 250.647 328.576 244.389C332.917 241.26 336.529 239.022 339.048 237.57C340.307 236.844 341.292 236.314 341.959 235.968C342.082 235.904 342.194 235.847 342.295 235.795C342.399 235.852 342.515 235.916 342.643 235.986C343.311 236.356 344.298 236.92 345.558 237.689C348.079 239.227 351.694 241.584 356.038 244.846C364.727 251.369 376.329 261.505 387.934 275.933C411.13 304.772 434.387 350.808 434.387 419.56C434.387 513.084 411.062 566.264 387.919 596.028C376.341 610.917 364.783 619.98 356.15 625.314C351.833 627.982 348.245 629.717 345.75 630.783C344.503 631.315 343.529 631.68 342.873 631.91ZM341.675 22.7909C341.91 22.549 342.122 22.3322 342.309 22.1407C342.491 22.3295 342.696 22.5427 342.922 22.7799C344.016 23.9255 345.623 25.6331 347.67 27.8749C351.765 32.3586 357.62 38.9784 364.649 47.5102C378.706 64.5751 397.453 89.2822 416.2 119.84C453.706 180.977 491.137 265.417 491.137 358.867C491.138 484.568 453.713 569.408 416.356 622.8C397.672 649.503 378.995 668.354 365.002 680.52C358.006 686.604 352.182 691.015 348.114 693.902C346.081 695.345 344.486 696.406 343.405 697.105C343.085 697.311 342.81 697.486 342.581 697.629C342.337 697.457 342.038 697.245 341.687 696.991C340.577 696.19 338.943 694.981 336.86 693.355C332.694 690.102 326.732 685.184 319.571 678.538C305.249 665.244 286.14 645.042 267.029 617.432C228.815 562.224 190.578 477.379 190.615 358.868C190.644 265.483 228.792 181.047 267.011 119.895C286.114 89.3297 305.215 64.6114 319.538 47.537C326.7 39.0005 332.665 32.3765 336.837 27.8897C338.923 25.6463 340.56 23.9373 341.675 22.7909Z" stroke="white" stroke-width="3"/>
</g>
<path d="M343.506 236.531C343.506 236.531 437.074 283.737 437.074 421.981C437.074 609.538 343.506 636.091 343.506 636.091C343.506 636.091 249.938 590.131 249.938 421.981C249.938 280.365 343.506 236.531 343.506 236.531Z" fill="url(#paint0_radial_8840_22060)"/>
<g filter="url(#filter1_d_8840_22060)">
<path d="M342.358 172.249C338.42 172.249 337.983 196.581 331.96 212.214C325.937 227.847 311.514 252.31 311.514 252.31C311.514 252.31 330.313 233.213 342.358 233.213C354.403 233.213 373.201 252.31 373.201 252.31C373.201 252.31 357.109 226.378 351.087 210.745C345.064 195.112 346.295 172.249 342.358 172.249Z" fill="url(#paint1_radial_8840_22060)"/>
</g>
<g filter="url(#filter2_d_8840_22060)">
<circle cx="343.014" cy="111.874" r="7.87492" fill="#FDB6FF"/>
</g>
<g filter="url(#filter3_d_8840_22060)">
<circle cx="343.014" cy="111.874" r="7.87492" fill="url(#paint2_radial_8840_22060)"/>
</g>
<defs>
<filter id="filter0_dd_8840_22060" x="169.115" y="0.000488281" width="343.522" height="719.42" filterUnits="userSpaceOnUse" color-interpolation-filters="sRGB">
<feFlood flood-opacity="0" result="BackgroundImageFix"/>
<feColorMatrix in="SourceAlpha" type="matrix" values="0 0 0 0 0 0 0 0 0 0 0 0 0 0 0 0 0 0 127 0" result="hardAlpha"/>
<feOffset/>
<feGaussianBlur stdDeviation="10"/>
<feColorMatrix type="matrix" values="0 0 0 0 0.964706 0 0 0 0 0.168627 0 0 0 0 0.992157 0 0 0 1 0"/>
<feBlend mode="normal" in2="BackgroundImageFix" result="effect1_dropShadow_8840_22060"/>
<feColorMatrix in="SourceAlpha" type="matrix" values="0 0 0 0 0 0 0 0 0 0 0 0 0 0 0 0 0 0 127 0" result="hardAlpha"/>
<feOffset/>
<feGaussianBlur stdDeviation="10"/>
<feColorMatrix type="matrix" values="0 0 0 0 0.964706 0 0 0 0 0.168627 0 0 0 0 0.992157 0 0 0 1 0"/>
<feBlend mode="normal" in2="effect1_dropShadow_8840_22060" result="effect2_dropShadow_8840_22060"/>
<feBlend mode="normal" in="SourceGraphic" in2="effect2_dropShadow_8840_22060" result="shape"/>
</filter>
<filter id="filter1_d_8840_22060" x="291.514" y="152.249" width="101.687" height="120.062" filterUnits="userSpaceOnUse" color-interpolation-filters="sRGB">
<feFlood flood-opacity="0" result="BackgroundImageFix"/>
<feColorMatrix in="SourceAlpha" type="matrix" values="0 0 0 0 0 0 0 0 0 0 0 0 0 0 0 0 0 0 127 0" result="hardAlpha"/>
<feOffset/>
<feGaussianBlur stdDeviation="10"/>
<feComposite in2="hardAlpha" operator="out"/>
<feColorMatrix type="matrix" values="0 0 0 0 0.964706 0 0 0 0 0.168627 0 0 0 0 0.992157 0 0 0 1 0"/>
<feBlend mode="normal" in2="BackgroundImageFix" result="effect1_dropShadow_8840_22060"/>
<feBlend mode="normal" in="SourceGraphic" in2="effect1_dropShadow_8840_22060" result="shape"/>
</filter>
<filter id="filter2_d_8840_22060" x="300.139" y="68.999" width="85.7498" height="85.75" filterUnits="userSpaceOnUse" color-interpolation-filters="sRGB">
<feFlood flood-opacity="0" result="BackgroundImageFix"/>
<feColorMatrix in="SourceAlpha" type="matrix" values="0 0 0 0 0 0 0 0 0 0 0 0 0 0 0 0 0 0 127 0" result="hardAlpha"/>
<feMorphology radius="5" operator="dilate" in="SourceAlpha" result="effect1_dropShadow_8840_22060"/>
<feOffset/>
<feGaussianBlur stdDeviation="15"/>
<feComposite in2="hardAlpha" operator="out"/>
<feColorMatrix type="matrix" values="0 0 0 0 0.966667 0 0 0 0 0 0 0 0 0 1 0 0 0 1 0"/>
<feBlend mode="normal" in2="BackgroundImageFix" result="effect1_dropShadow_8840_22060"/>
<feBlend mode="normal" in="SourceGraphic" in2="effect1_dropShadow_8840_22060" result="shape"/>
</filter>
<filter id="filter3_d_8840_22060" x="300.139" y="68.999" width="85.7498" height="85.75" filterUnits="userSpaceOnUse" color-interpolation-filters="sRGB">
<feFlood flood-opacity="0" result="BackgroundImageFix"/>
<feColorMatrix in="SourceAlpha" type="matrix" values="0 0 0 0 0 0 0 0 0 0 0 0 0 0 0 0 0 0 127 0" result="hardAlpha"/>
<feMorphology radius="5" operator="dilate" in="SourceAlpha" result="effect1_dropShadow_8840_22060"/>
<feOffset/>
<feGaussianBlur stdDeviation="15"/>
<feComposite in2="hardAlpha" operator="out"/>
<feColorMatrix type="matrix" values="0 0 0 0 0.966667 0 0 0 0 0 0 0 0 0 1 0 0 0 1 0"/>
<feBlend mode="normal" in2="BackgroundImageFix" result="effect1_dropShadow_8840_22060"/>
<feBlend mode="normal" in="SourceGraphic" in2="effect1_dropShadow_8840_22060" result="shape"/>
</filter>
<radialGradient id="paint0_radial_8840_22060" cx="0" cy="0" r="1" gradientUnits="userSpaceOnUse" gradientTransform="translate(344.612 436.792) rotate(135) scale(146.108 148.374)">
<stop stop-color="#C4C4C4" stop-opacity="0"/>
<stop offset="1" stop-color="#F62BFD" stop-opacity="0.21"/>
</radialGradient>
<radialGradient id="paint1_radial_8840_22060" cx="0" cy="0" r="1" gradientUnits="userSpaceOnUse" gradientTransform="translate(341.702 233.935) rotate(-90) scale(47.9058 36.911)">
<stop stop-color="white"/>
<stop offset="1" stop-color="#F62BFD"/>
</radialGradient>
<radialGradient id="paint2_radial_8840_22060" cx="0" cy="0" r="1" gradientUnits="userSpaceOnUse" gradientTransform="translate(343.014 111.874) rotate(90) scale(7.87492)">
<stop stop-color="white"/>
<stop offset="0.447917" stop-color="white"/>
<stop offset="1" stop-color="#F62BFD"/>
</radialGradient>
</defs>
</svg>
