<svg width="89" height="119" viewBox="0 0 89 119" fill="none" xmlns="http://www.w3.org/2000/svg">
<g filter="url(#filter0_dd_13349_15046)">
<path d="M44.8753 48.9391L45.1103 48.513L44.8837 48.4084L44.6539 48.5069L44.8753 48.9391ZM44.8753 48.9391C45.1103 48.513 45.1106 48.5131 45.1109 48.5132L45.1117 48.5136L45.114 48.5147L45.1209 48.518L45.1442 48.5291C45.1637 48.5385 45.1914 48.5521 45.2266 48.5699C45.297 48.6056 45.3977 48.6583 45.5242 48.7289C45.7773 48.8702 46.1343 49.0834 46.5604 49.3761C47.4124 49.9613 48.5429 50.8657 49.672 52.1499C51.9352 54.7242 54.1773 58.8084 54.1773 64.8605C54.1773 72.9927 51.9587 77.6985 49.6773 80.3828C48.5386 81.7226 47.3931 82.548 46.5214 83.0407C46.086 83.2868 45.7196 83.4496 45.4574 83.552C45.3263 83.6032 45.2212 83.6393 45.1465 83.6633C45.1263 83.6698 45.1083 83.6754 45.0926 83.6801C45.0793 83.6842 45.0677 83.6876 45.0577 83.6905L45.0314 83.6979L45.0229 83.7002L45.0199 83.701L45.0187 83.7013C45.0182 83.7015 45.0177 83.7016 44.8753 83.2424M44.8753 48.9391C44.6539 48.5069 44.6536 48.507 44.6533 48.5072L44.6524 48.5075L44.65 48.5086L44.643 48.5116L44.6194 48.5221C44.5997 48.5311 44.5718 48.5438 44.5364 48.5607C44.4655 48.5943 44.3644 48.644 44.2374 48.711C43.9834 48.845 43.6254 49.0482 43.1983 49.3299C42.3442 49.893 41.2117 50.7712 40.0809 52.0387C37.8135 54.5803 35.5733 58.6662 35.5733 64.8605C35.5733 72.1733 37.7994 76.8675 40.0616 79.7438C41.1906 81.1792 42.323 82.1549 43.1798 82.7747C43.6081 83.0846 43.9675 83.3055 44.2232 83.4504C44.3511 83.5229 44.4531 83.5764 44.5249 83.6126C44.5607 83.6307 44.5891 83.6445 44.6093 83.6541L44.6336 83.6655L44.641 83.6689L44.6435 83.67L44.6445 83.6705C44.6449 83.6707 44.6453 83.6708 44.8753 83.2424M44.8753 83.2424L45.0177 83.7016L44.825 83.7516L44.6453 83.6708L44.8753 83.2424ZM45.0477 82.674C45.0011 82.6923 44.9591 82.7079 44.9221 82.7212C44.8791 82.6983 44.8292 82.6709 44.7728 82.6389C44.5483 82.5117 44.2218 82.3116 43.8269 82.0259C43.0374 81.4548 41.9748 80.5418 40.9086 79.1862C38.7807 76.4807 36.6167 71.9838 36.6167 64.8605C36.6167 58.8966 38.7665 55.0218 40.8893 52.6423C41.9536 51.4492 43.0161 50.6267 43.8084 50.1043C44.2044 49.8432 44.5324 49.6574 44.7586 49.538C44.798 49.5172 44.8344 49.4985 44.8674 49.4817C44.9017 49.5001 44.9396 49.5209 44.9809 49.5439C45.208 49.6706 45.5369 49.8668 45.934 50.1395C46.7283 50.6851 47.7929 51.5356 48.8589 52.7482C50.9858 55.1674 53.1339 59.0439 53.1339 64.8605C53.1339 72.8306 50.9623 77.3158 48.8536 79.7968C47.7972 81.0397 46.7476 81.7907 45.973 82.2286C45.5853 82.4477 45.2657 82.5889 45.0477 82.674ZM44.6398 31.4718C44.7256 31.3874 44.8032 31.312 44.8719 31.2457C44.9384 31.3111 45.0134 31.3853 45.0961 31.4682C45.4765 31.8492 46.0216 32.4131 46.6766 33.1406C47.9871 34.5959 49.7354 36.7039 51.4835 39.3109C54.9843 44.5318 58.4593 51.7168 58.4593 59.6499C58.4593 70.3673 54.9733 77.5818 51.5107 82.1094C49.7775 84.3757 48.0467 85.9733 46.7539 87.0017C46.1075 87.5159 45.5709 87.8876 45.1986 88.1293C45.0879 88.2012 44.9917 88.2616 44.9115 88.3108C44.8252 88.2522 44.7199 88.1793 44.5975 88.0918C44.2144 87.8182 43.6631 87.4024 42.9998 86.839C41.6728 85.7122 39.8987 83.9966 38.1234 81.65C34.5754 76.9605 31.017 69.7443 31.0205 59.65C31.0232 51.7243 34.564 44.5405 38.1315 39.3181C39.9128 36.7105 41.6941 34.6015 43.0294 33.1453C43.6969 32.4173 44.2523 31.8531 44.6398 31.4718Z" stroke="white"/>
</g>
<g filter="url(#filter1_dd_13349_15046)">
<circle cx="2" cy="2" r="2" transform="matrix(-1 0 0 1 47 40)" fill="url(#paint0_radial_13349_15046)"/>
</g>
<defs>
<filter id="filter0_dd_13349_15046" x="0.498779" y="0.557129" width="88.4823" height="118.33" filterUnits="userSpaceOnUse" color-interpolation-filters="sRGB">
<feFlood flood-opacity="0" result="BackgroundImageFix"/>
<feColorMatrix in="SourceAlpha" type="matrix" values="0 0 0 0 0 0 0 0 0 0 0 0 0 0 0 0 0 0 127 0" result="hardAlpha"/>
<feOffset/>
<feGaussianBlur stdDeviation="15"/>
<feColorMatrix type="matrix" values="0 0 0 0 0.964706 0 0 0 0 0.168627 0 0 0 0 0.992157 0 0 0 1 0"/>
<feBlend mode="normal" in2="BackgroundImageFix" result="effect1_dropShadow_13349_15046"/>
<feColorMatrix in="SourceAlpha" type="matrix" values="0 0 0 0 0 0 0 0 0 0 0 0 0 0 0 0 0 0 127 0" result="hardAlpha"/>
<feOffset/>
<feGaussianBlur stdDeviation="3"/>
<feColorMatrix type="matrix" values="0 0 0 0 0.964706 0 0 0 0 0.168627 0 0 0 0 0.992157 0 0 0 1 0"/>
<feBlend mode="normal" in2="effect1_dropShadow_13349_15046" result="effect2_dropShadow_13349_15046"/>
<feBlend mode="normal" in="SourceGraphic" in2="effect2_dropShadow_13349_15046" result="shape"/>
</filter>
<filter id="filter1_dd_13349_15046" x="31" y="28" width="28" height="28" filterUnits="userSpaceOnUse" color-interpolation-filters="sRGB">
<feFlood flood-opacity="0" result="BackgroundImageFix"/>
<feColorMatrix in="SourceAlpha" type="matrix" values="0 0 0 0 0 0 0 0 0 0 0 0 0 0 0 0 0 0 127 0" result="hardAlpha"/>
<feOffset/>
<feGaussianBlur stdDeviation="0.5"/>
<feComposite in2="hardAlpha" operator="out"/>
<feColorMatrix type="matrix" values="0 0 0 0 0.966667 0 0 0 0 0 0 0 0 0 1 0 0 0 0.5 0"/>
<feBlend mode="normal" in2="BackgroundImageFix" result="effect1_dropShadow_13349_15046"/>
<feColorMatrix in="SourceAlpha" type="matrix" values="0 0 0 0 0 0 0 0 0 0 0 0 0 0 0 0 0 0 127 0" result="hardAlpha"/>
<feMorphology radius="2" operator="dilate" in="SourceAlpha" result="effect2_dropShadow_13349_15046"/>
<feOffset/>
<feGaussianBlur stdDeviation="5"/>
<feComposite in2="hardAlpha" operator="out"/>
<feColorMatrix type="matrix" values="0 0 0 0 0.964706 0 0 0 0 0.168627 0 0 0 0 0.992157 0 0 0 1 0"/>
<feBlend mode="normal" in2="effect1_dropShadow_13349_15046" result="effect2_dropShadow_13349_15046"/>
<feBlend mode="normal" in="SourceGraphic" in2="effect2_dropShadow_13349_15046" result="shape"/>
</filter>
<radialGradient id="paint0_radial_13349_15046" cx="0" cy="0" r="1" gradientUnits="userSpaceOnUse" gradientTransform="translate(2 2) rotate(90) scale(2)">
<stop stop-color="white"/>
<stop offset="0.447917" stop-color="white"/>
<stop offset="1" stop-color="#F62BFD"/>
</radialGradient>
</defs>
</svg>
