<svg xmlns="http://www.w3.org/2000/svg" viewBox="0 0 24 24" id="copy">
    <g fill="none" fill-rule="evenodd">
        <path d="M19.2105263,20.1818182 L9.36842105,20.1818182 L9.36842105,7.45454545 L19.2105263,7.45454545 L19.2105263,20.1818182 Z M19.2105263,5.63636364 L9.36842105,5.63636364 C8.38012203,5.63636364 7.57894737,6.45039136 7.57894737,7.45454545 L7.57894737,20.1818182 C7.57894737,21.1859723 8.38012203,22 9.36842105,22 L19.2105263,22 C20.1988253,22 21,21.1859723 21,20.1818182 L21,7.45454545 C21,6.45039136 20.1988253,5.63636364 19.2105263,5.63636364 Z M16.5263158,2 L5.78947368,2 C4.80117466,2 4,2.81402773 4,3.81818182 L4,16.5454545 L5.78947368,16.5454545 L5.78947368,3.81818182 L16.5263158,3.81818182 L16.5263158,2 Z" fill="#3ab793"></path>
    </g>
</svg>