<svg xmlns="http://www.w3.org/2000/svg" width="313" height="366" viewBox="0 0 313 366">
    <g fill="none" fill-rule="nonzero" transform="matrix(-1 0 0 1 312.739 .575)">
        <ellipse cx="156.293" cy="208.356" fill="#438CEF" rx="156.216" ry="155.846"/>
        <path fill="#EEEAD0" d="M117.335 175.93c3.304 18.015 9.067 36.413.614 57.264-3.918 9.658 16.828 20.544 25.05 21.464 8.299.92 27.74 2.836 35.04 0 7.376-2.837 7.376-3.68 7.376-3.68l-.922-21.234"/>
        <path fill="#000" d="M118.18 180.453c1.46 7.972 3.074 16.021 3.765 24.07.461 5.367.307 10.656-.615 15.945-.691 4.216-2.459 8.05-3.457 12.112-1.768 6.593 3.918 12.112 8.836 15.715 9.836 7.13 22.207 8.05 34.04 8.586 8.53.46 17.29-.153 24.82-4.676.076-.077.076-.46.076-.537-.307-7.052-.691-14.105-.922-21.234 0-.46-.153-.46-.153 0 .23 5.903.538 11.882.768 17.861 0 .69.461 2.377.154 3.066.153-.46-.308.154-1.153.46-4.457 1.304-8.222 3.527-12.909 3.987-5.917.613-11.987.076-17.904-.46-6.224-.614-12.601-.997-18.364-3.373-5.456-2.223-10.681-5.673-14.37-10.35-2.843-3.679-2.92-6.975-1.383-11.268a64.14 64.14 0 0 0 2.46-9.889c2.074-13.491-.846-26.907-3.382-40.092-.23-.076-.307.077-.307.077z" opacity=".37"/>
        <path fill="#789E94" d="M117.335 181.986c.153.997-5.456 11.729-4.764 10.042 1.844-4.6-.538-5.52-1.845-5.52-1.844 0-6.454 2.837-6.454 2.837l.615-5.443c-2.382 1.687-6.148 3.527-8.99 4.14 3.841-6.133.998-8.739.076-11.652l-10.911-24.147c-2.92-11.499-14.984-19.701-18.519-40.399l-1.92 5.673-2.536-12.572c-4.841-22.384-.846-22.078 2.996-32.427l1.921-5.902c-1.075.23-2.074.843-2.92 1.61-.691-1.84.308-3.527 1.384-4.063.46-.23 1.92-.154 1.92-.154-1.075-.766-6.147-5.442-4.687-4.982 1.768.613 5.38 1.916 5.687.076.307-1.84-3.92-3.22-1.537-4.6-.077.92.538 1.917 1.383 2.3.768.307 1.153 1.304 2.075 1.15 1.306-.076.23-5.059.23-5.059-.307-2.913-.691-5.826-.999-8.739.615.69 1.46 1.15 2.305 1.38-.153-3.91 3.15-7.053 6.224-9.506 2.536-2.146 17.366-12.802 19.902-14.948 4.764-3.91 9.528-7.82 14.907-10.656 8.99-4.906 19.287-6.822 29.43-8.432-1.69 1.84-3.381 3.68-5.149 5.52 9.144-.537 17.904 4.982 27.125 4.446-.23.69.23 1.533.845 1.84.692.306 1.46.46 2.229.46 3.995.46 7.76 2.146 10.603 4.905l-.307-2.53c7.07 2.224 15.06-.306 21.746 2.607-.461 1.073-1.46 2.07-2.536 2.3a76.15 76.15 0 0 1 14.984 7.052c1.153.767 2.382 1.61 2.843 2.99.461 1.38-.845 3.066-2.228 2.53 4.533 2.606 8.222 6.44 10.91 10.962.462.766.846 1.84.078 2.453-.538.46-1.153.23-1.844.23-.615.077-.538.766-.077 1.303l1.69 1.15c1.768 6.593 2.843 13.108 4.764 19.778-1.075-.46-2.151-.844-3.227-1.303.768 1.38 1.46 2.913 1.537 4.446.23 4.523-2.536 7.895-3.074 12.265l-105.885 96.589z"/>
        <path fill="#EEEAD0" d="M114.492 147.49c-2.613-4.523-6.378-10.962-11.526-11.805-5.533-.844-10.912 4.446-12.756 9.658-1.844 5.29.845 11.116 2.382 16.482.845 2.99 1.921 5.826 3.842 8.202 2.229 2.683 3.996 4.523 6.839 6.593 5.071 3.833 8.606 6.44 14.676 4.523.769-.23 1.537-.537 2.382-.92.846-.383 1 .077 1.768.69.614.536.768 1.38.922 2.146 1.537 8.05 7.146 21.848 7.914 24.454 1.46 4.523 8.606 6.133 12.986 7.666 2.843.92 14.83 2.836 23.052 7.36 6.224 3.449 10.527 5.902 17.52 7.358 4.61.92 11.142.613 14.83-.92 6.685-2.836 10.68-2.53 14.523-8.739.922-1.456 2.228-4.293 2.074-6.056-.153-3.373-2.612-4.676-4.61-7.359-4.15-5.673-4.457-16.021-3.227-22.997.922-5.136 4.61-9.046 6.915-13.799 2.843-5.519 4.841-7.205 7.377-14.795 1.844-5.519-3.227-8.662-3.688-12.878-.922-8.28 11.756-14.565 11.526-19.395-.23-6.899-5.61-5.366-7.915-11.882-.768-2.07.308-17.554.461-19.7.461-10.656.077-13.8-.307-17.862-3.381-3.296-6.224-2.836-8.683 1.15-1.306 2.146-2.536 3.22-3.919 5.366-.461.69-3.227 5.673-4.764 9.276-.999 2.376-5.532 7.052-7.991 6.592-2.843-.46-6.993-3.143-8.145-5.75-1.384-3.066-4.457-5.749-7.454-8.202a73.005 73.005 0 0 0-8.222-5.826c-2.074-1.303-3.688-.843-7.837-2.3-2.306-.766-7.377-1.073-9.682-.306-4.15 1.303-6.378 5.366-8.683 8.969-1.69 2.683-1.69 6.056-4.918 6.133-3.842.076-5.148-4.063-6.916-7.513-1.69-3.45-2.458-5.443-4.226-8.816-.538-.92-1.076-3.756-2.151-4.14-1.614-.766-3.689-.919-4.764.46-1.076 1.38-3.381 5.904-3.766 7.667-.998 6.056-2.382 12.112-1.92 18.168.614 8.202 3.304 16.021 8.529 23.457.999 1.456-.538 4.523-1 6.286-.076.46-2.996 2.683-3.995 7.052-.922 3.833.538 12.496.461 16.482-.077 3.986-1.152 5.443-4.226 7.972-.077-.46-2.382-5.902-3.688-8.202z"/>
        <path fill="#505D5B" d="M114.799 147.337c-4.303-7.436-11.45-16.788-20.286-8.893-3.995 3.527-5.84 8.51-4.994 13.722.845 5.443 2.689 12.419 5.84 16.941 3.073 4.523 7.837 8.51 12.601 11.193 1.69.996 3.535 1.686 5.533 1.763 3.534.153 7.453-2.837 9.451 1.916 1.921 4.906 2.997 10.426 4.764 15.408 1.076 3.067 1.921 7.13 3.842 9.736 2.459 3.373 7.684 4.6 11.372 5.75 4.15 1.302 8.53 2.069 12.756 3.219 12.14 3.45 22.13 12.572 35.27 12.265 5.378-.076 10.142-1.916 15.06-3.833 3.919-1.533 6.916-3.986 8.837-7.819 1.844-3.756 1.69-6.592-1-9.812-4.763-5.596-6.223-11.805-6.07-19.088.077-3.373.461-6.822 1.768-9.889 1.383-3.22 3.458-5.902 5.071-8.969 2.382-4.293 5.148-8.662 7.07-13.262 1.92-4.982 1.152-7.435-1.307-11.958-3.304-6.286.692-11.039 4.918-15.485 1.92-2.147 4.918-4.523 5.148-7.666.23-4.14-3.073-5.596-5.532-8.126-3.458-3.526-2.69-8.049-2.536-12.572.154-3.68.461-7.205.615-10.885.23-4.983.307-10.119-.077-15.102-.23-2.836-.922-5.059-4.457-5.366-1.383-.076-2.536.537-3.534 1.533-2.152 2.07-3.92 4.907-5.533 7.36-2.536 3.986-3.765 8.969-7.07 12.495-3.227 3.45-6.53 3.833-10.45.843-2.612-1.916-3.841-5.136-6.147-7.512-3.688-3.91-9.144-8.74-14.292-10.502-4.15-1.534-9.451-2.684-13.831-2.3-4.226.306-6.993 3.066-9.144 6.516-1.46 2.146-2.228 4.6-3.535 6.669-3.842 5.75-7.914-1.533-9.605-5.06-1.46-2.99-2.997-5.825-4.226-8.815-.615-1.38-.922-3.373-2.228-4.293-7.761-5.52-10.143 14.335-10.45 17.401-.846 6.516-.538 12.879 1.46 19.242.845 2.683 1.92 5.366 3.227 7.895 2.074 3.91 4.764 7.743 2.074 12.036-2.228 3.526-3.995 5.902-4.072 10.348 0 4.983 2.305 12.036-.077 16.712-.23.46-2.536 3.833-2.92 3.833-.154-.077-.46-1.15-.615-1.38-.922-1.84-1.613-4.216-2.689-6.21-.154-.306-.768 0-.538.307 1.383 2.453 2.459 5.06 3.535 7.666.077.23.307.307.538.153 2.996-2.53 4.456-4.906 4.303-8.969-.077-4.676-1.153-9.352-.692-14.028.461-4.14 3.458-6.44 4.764-10.119.615-1.686 1.076-3.143.538-4.906-.845-2.376-2.997-4.676-4.072-7.053-2.997-6.285-4.688-13.261-4.457-20.16.23-6.057.922-13.11 3.765-18.628.307-.767.768-1.84 1.383-2.377 2.075-2.07 4.687-1.686 5.917.69 1.152 2.146 2.074 4.523 3.073 6.67 1.614 3.372 3.074 8.815 6.224 11.115 2.075 1.533 4.688 1.303 6.148-.844 3.15-4.599 4.456-11.498 10.527-13.338 4.764-1.38 10.45.46 15.06 1.686 5.61 1.61 11.987 7.206 15.676 11.652 2.996 3.527 4.533 7.513 9.528 8.893 2.843.766 5.148-1.303 6.992-3.22 2.843-2.99 4.073-7.206 6.148-10.809.998-1.763 2.228-3.296 3.38-4.906.846-1.073 1.845-3.45 3.074-4.14 1.537-.92 4.534-.92 5.686.23 1.307 1.304.692.767 1 1.84.921 3.373.46 7.743.307 11.193-.077 3.68-.308 7.282-.538 10.962-.308 5.596-2.075 13.261 2.151 17.708 1.306 1.38 3.074 2.3 4.15 3.756 2.151 2.836 1.536 5.596-.538 8.126-2.382 2.99-5.456 5.366-7.53 8.585-1.768 2.607-2.844 5.75-1.614 8.816.538 1.533 1.536 2.836 2.305 4.216 1.844 3.756 1.076 6.823-.538 10.426-1.844 4.293-4.534 8.509-6.916 12.648-2.458 4.293-5.455 8.203-6.224 13.339-.691 4.676-.691 9.505.23 14.105 1 4.983 3.305 7.512 6.148 11.498 4.303 6.056-2.075 13.339-7.684 15.639-4.918 1.916-9.912 3.833-15.291 3.986-12.602.23-21.823-8.126-33.349-11.729-4.149-1.303-8.529-2.146-12.678-3.22-4.457-1.15-10.45-2.53-12.986-6.515-1.844-2.99-2.843-6.9-3.996-10.196-1.614-4.6-3.227-9.122-4.303-13.875-.845-3.68-1.537-4.906-5.148-3.68-7.223 2.53-13.678-2.453-18.596-7.359-4.917-4.83-6.838-10.578-8.682-17.094-2.229-7.513-.615-17.555 8.452-20.008 7.223-1.917 11.756 6.21 14.676 11.345.308.614.846.23.692-.076z"/>
        <path fill="#505D5B" d="M117.258 181.833c-.23 3.066-2.997 6.132-4.073 8.815-.077.23-.999 1.38-.538 1.687.077.076.615-2.147.692-2.377.077-.69.077-1.533-.077-2.223-.999-2.683-3.919-1.61-5.917-.69-.845.46-1.69.844-2.458 1.304-.769.46-.23 1.533-.23.23-.078-1.457.306-3.067.537-4.6 0-.077 0-.996-.154-.843-2.843 1.84-5.686 3.296-8.99 4.063 0 .536.077.92.077 1.456 2.997-5.29 1.844-8.892-.308-14.181-2.535-6.133-5.378-12.036-8.068-18.168-2.228-4.907-3.765-10.043-6.531-14.642-6.07-10.042-11.987-19.011-14.139-30.74 0-.153-.23-1.15-.46-.537-.462 1.074-1 4.907-1.845 5.52.077-.077.615.613.23-.077-.076-.23-.153-.843-.23-1.073-.154-1.15-.538-2.376-.691-3.526-1.153-5.826-2.613-11.806-3.305-17.708-1.075-9.43 3.92-17.018 6.686-25.68.076-.23.153-3.067-.231-2.914-3.919 1.457-1.306.46.538.537.538 0 .307-2.683 0-3.066-1.69-1.38-3.842-3.067-4.918-4.907l.23 2.3c-.153 1.303 4.304 2.223 5.456 1.303.615-.536.538-1.456.615-2.146 0-.997-.154-1.763-.615-2.606-.46-.767-1.92-2.837-1.383-.154.077.46.154.69.461 1.073.538.767 2.536 2.607 3.535 1.917.615-.46.538-2.146.538-2.836.077-4.217-.922-8.663-1.383-12.802-.077.69-.23 1.303-.308 1.916.769.767 1.383 1.073 2.46 1.38.23.077.23-1.073.306-1.15.231-5.596 7.684-9.735 11.757-12.725 4.226-3.143 8.606-6.21 12.755-9.429 6.301-4.83 12.141-10.042 19.441-13.338 8.222-3.757 17.289-5.367 26.202-6.823-.076-.997-.076-2.07-.153-3.066-1.69 1.84-3.381 3.68-5.149 5.519-.23.307-.46 3.143.154 3.143 9.375-.153 17.75 4.676 27.125 4.446-.077-.46-.23-.766-.308-1.15.154 2.147.538 2.99 2.92 3.373 4.303.843 7.684 1.84 11.065 4.906.461.307.308-2.146.308-2.376-.077-.843-.231-1.687-.308-2.53-.077.767-.153 1.61-.23 2.377 7.146 1.916 14.83-.077 21.745 2.606-.076-.997-.076-2.07-.153-3.143-.461 1.073-1.307 1.84-2.46 2.3-.537.23-.537 2.99.078 3.143 3.304 1.15 6.531 2.453 9.682 4.063 1.69.843 3.534 1.763 5.148 2.913.922.613 4.072 2.376.615 2.453-.538 0-.462 2.836 0 3.066 3.765 2.3 10.527 7.206 11.141 11.959.077-.767.077-1.534.154-2.3-.922 1.686-2.843.46-3.381 2.453-.154.69-.077 2.223.307 2.836.769 1.073 1.307.92 1.921 2.3.846 1.763 1.076 4.14 1.69 6.133 1.077 4.063 2.306 8.049 3.459 12.112.077-.844.077-1.764.153-2.607-1.075-.46-2.151-.843-3.227-1.303-.307-.153-.23 2.606-.077 2.913 2.536 4.753-.845 9.582-1.613 14.412-.077.46.23 2.99.46 1.84 1.307-6.976 5.072-12.036 1.384-19.012 0 .92-.077 1.917-.077 2.913 1.076.46 2.151.844 3.227 1.304.308.153.23-2.377.154-2.607a507.684 507.684 0 0 1-4.15-14.412c-.46-1.533-.691-4.216-1.536-5.596-.23-.46-1.614-.92-1.69-1.15-.078.767-.078 1.534-.154 2.3 1.152-1.456 2.612-.153 3.38-2.146.308-.843 0-2.376-.153-3.22-1.46-4.982-7.223-9.505-11.372-12.112v3.067c3.073-.077 3.073-4.523 1.767-6.516-1.306-2.07-4.303-3.297-6.378-4.446-3.535-1.84-7.223-3.45-11.065-4.753 0 .996.077 2.146.077 3.143 1.383-.614 1.844-1.073 2.613-2.377.23-.536.537-2.836-.154-3.143-6.993-2.683-14.6-.766-21.746-2.683-.46-.076-.23 2.223-.23 2.377.076.843.23 1.686.307 2.53.077-.767.23-1.534.307-2.377-1.69-1.533-3.457-2.836-5.609-3.68-.922-.46-7.76-1.38-7.838-2.453 0-.153-.077-1.15-.307-1.15-9.375.23-17.75-4.599-27.125-4.446.077.997.077 2.07.154 3.143 1.69-1.84 3.381-3.68 5.148-5.519.23-.307.308-3.143-.153-3.066-9.605 1.533-19.364 3.296-28.124 7.742-7.069 3.526-12.755 8.816-19.056 13.569-4.764 3.526-9.605 7.052-14.37 10.655-4.456 3.296-8.913 6.823-9.143 12.725.077-.46.154-.766.307-1.15-.845-.153-1.613-.613-2.228-1.303-.307-.306-.461 1.763-.307 1.917.307 3.066.845 6.209.998 9.275.077.69.692 2.223 0 2.607-.845.46-3.073-2.07-3.15-2.683 0-.154-.154-.92-.461-.69-.922.766-1.076 1.84-.922 3.066.23 1.38 2.228 2.453 2.228 3.45.077-.614.077-1.304.154-1.84-1.076 2.223-4.226 0-5.84-.154-.23 0-.23.69-.23.767-.308 3.296 2.843 5.443 5.148 7.283v-3.067c-3.996-.153-3.996 3.45-3.535 6.516 0 .154.154.92.461.69.769-.766 1.69-1.303 2.843-1.533-.076-.92-.153-1.916-.23-2.913-2.459 7.36-7.07 14.642-7.3 22.537-.307 10.273 2.92 20.775 4.841 30.817.077.23.23.69.461.23.461-1.38.845-2.607 1.383-3.986 0 0 .461-1.61.538-1.61-.538 0 .538 3.756.538 3.833 1.152 4.83 2.997 9.429 5.302 13.722 4.072 7.665 9.374 14.181 12.448 22.307 1.767 4.753 4.226 9.352 6.378 14.028 2.69 5.903 8.068 13.799 4.533 20.161-.077.154-.153 1.457.077 1.457.538-.153 10.143-4.063 8.837-5.06.46.307-.538 4.677-.615 5.367 0 .076 0 .843.077.843 2.612-1.61 11.065-6.21 8.145 2.07-.077.153-.077.613 0 .766h.077c1.767-2.53 4.61-7.282 4.84-10.425-.46-.077-.614-.537-.614-.23zM223.297 132.618c-6.378-3.373-14.446-3.143-21.438-2.376-4.688.46-10.681.92-12.679 6.056-.922 2.376-.23 4.676.999 6.822 1.383 2.377 2.997 4.217 3.688 7.053.615 2.223.922 4.446 1.383 6.593.769 4.216 1.46 8.585 2.997 12.571.461 1.074.769 2.377 1.69 3.22 1.307 1.073 3.689.92 4.457 2.606.538.997 1.307-.153.923-.843-.846-1.61-2.152-1.61-3.535-2.53-3.765-2.3-4.226-8.815-4.995-12.801-.614-3.22-.999-6.516-1.92-9.736-.77-2.836-2.844-4.6-3.843-7.13-.768-2.069-.768-5.825 1-7.358.768-.614 1.69-1.074 2.535-1.533 1.537-.69 3.15-.844 4.84-.997 1.384-.153 2.844-.307 4.15-.46 6.685-.613 13.294-.23 19.748 1.916.384.077.384-.843 0-1.073z"/>
        <path fill="#505D5B" d="M183.11 168.648c-.922-1.764-3.074-6.286-5.456-4.217-1.767 1.533-3.535 6.516-3.842 8.74-.46 3.066 2.305 3.526 4.918 3.219 1.767-.23 3.304-.843 5.148-.69 1.537.077 2.997.537 4.457 1.073 2.382.92 4.687 3.143 7.07 3.833 1.46.46 4.61.537 6.07-.153 1.613-.767 2.843-3.373 3.38-4.983.154-.307-.153-1.61-.153-1.533-.845 1.456-1.69 3.986-3.304 4.753-1 .536-4.073.613-5.149.306-2.612-.536-5.302-2.99-7.914-3.986a14.323 14.323 0 0 0-5.379-1.073c-2.151 0-4.918 1.61-7.07.69-2.689-1.073-.153-4.753.846-6.516.845-1.61 1.383-2.99 3.381-1.84.922.537 2.151 2.453 2.92 3.296.077-.153.154-.843.077-.92zM184.647 137.294c-2.152-1.303-5.072 4.907-5.533 6.21-1.537 4.293-1.076 8.892.615 13.108.077.23.23-.92.153-1.303-1.92-5.06-1.613-10.502 1.69-14.795.539-.69 2.152-2.836 3.075-2.3.076.23.153-.69 0-.92zM143.921 141.127c.154 0 .154-1.38 0-1.38-.23 0-.23 1.38 0 1.38zM168.817 138.98c0 .92-.46 2.377-.998 3.067-.461.537-1.614.537-2.306.613-1.152.077-2.382.23-3.457-.153-1.307-.536-2.229-1.763-2.46-3.143-.076-.536-.076-.996.078-1.456 0 0 .23-1.533 1.075-1.687.846-.153 7.53.307 7.53.307l.769.153c.077-.077-.23 1.303-.23 2.3z"/>
        <path fill="#505D5B" d="M223.528 78.038c-1 5.136-.846 10.962-1.076 16.251-.23 4.753-1.46 10.58-.615 15.332.999 5.29 8.453 8.662 7.53 13.875-.998 6.133-8.298 9.659-10.142 15.868-.615 2.147-.615 3.833.307 5.826 1.614 3.68 3.535 6.593 2.305 10.809-.768 2.453-2.075 4.753-3.227 6.976-3.842 6.822-10.374 14.258-11.065 22.23-.615 6.9-.307 14.872 3.227 20.852 1.306 2.146 3.227 3.986 4.226 6.209 2.46 5.29-2.996 9.812-6.838 11.729-5.456 2.683-10.22 5.366-16.444 5.749-4.61.307-7.838-.997-11.987-2.53-4.226-1.533-8.53-2.836-12.756-4.446-6.377-2.453-12.755-4.906-19.21-7.282-3.073-1.074-6.147-2.147-9.297-2.99-3.765-.92-6.07-2.453-7.454-6.21-6.454-16.48-12.294-33.269-12.832-51.054 0-.766-.307-.766-.23 0 .307 12.879 3.227 25.068 7.376 37.256 1.153 3.45 2.459 6.9 3.765 10.272 1 2.683 1.69 6.21 3.689 8.51 1.383 1.533 3.38 2.222 5.301 2.682 2.92.767 5.533 1.534 8.3 2.53 10.526 3.91 20.977 7.973 31.657 11.729 4.534 1.533 8.222 3.45 13.14 3.22 6.455-.46 11.372-3.067 16.982-5.827 4.072-2.07 7.376-5.366 7.837-10.195.308-3.68-2.074-5.826-3.995-8.816-3.381-5.136-4.15-10.195-4.227-16.251-.076-6.44 2.152-10.962 5.38-16.405 3.688-6.21 10.065-14.105 9.604-21.694-.077-1.303-.46-2.377-.845-3.527-.307-.843-.845-1.686-1.306-2.53-1.69-3.066-1.69-6.132.23-9.352 1.537-2.606 3.919-4.676 5.686-7.129 1.153-1.61 3.535-3.68 3.842-5.672.461-3.45-3.227-6.823-5.302-9.046-3.688-4.216-3.304-7.82-3.073-12.879.307-7.665 0-15.944 1.46-23.38.23-.384.153-.92.077-.69zM153.219 151.17v-.077.077z"/>
        <path fill="#505D5B" d="M161.979 153.776c3.38-3.143 6.838-6.21 10.143-9.352.23-.23-.308-.307-.538-.154-3.381 3.143-6.839 6.21-10.143 9.353-.308.23.23.306.538.153zM202.55 151.17v-.23zM195.481 141.894c3.15 2.3 6.378 4.293 9.144 7.13.23.23.768-.154.461-.46-2.843-2.837-6.147-4.83-9.298-7.207-.307-.23-.691.307-.307.537zM217.841 131.545c-1.152 1.457-2.074 3.22-3.227 4.676-1.767 2.3-3.996 2.683-6.685 2.913-2.151.154-4.457.537-6.224-.843-2.075-1.61-4.072-4.063-4.764-6.516-.154-.767-.307.92-.23 1.303.691 2.53 1.844 3.833 3.765 5.596 2.074 2.07 2.843 2.453 5.763 2.377 2.458-.077 5.532-.154 7.453-1.84 1.69-1.533 3.381-4.676 4.226-6.823 0-.153-.077-.843-.077-.843zM120.562 180.606c-4.61 0-8.068.537-12.448-1.686-4.15-2.223-10.527-6.44-12.525-10.81-2.382-5.135-5.763-11.191-6.378-16.787-.614-5.366 2.152-9.66 6.532-12.265 3.842-2.3 6.377-3.373 10.143-.46a37.535 37.535 0 0 1 12.063 17.478c.154.46.23-1.304.23-1.534-.69-3.22-2.304-6.285-4.072-9.045-2.305-3.526-6.377-9.276-10.45-10.886-3.304-1.38-8.068 1.61-10.604 3.833-2.843 2.53-4.456 6.363-4.61 10.12-.308 7.128 3.688 13.568 6.3 19.93 2.152 5.136 6.378 8.433 11.066 11.422 4.456 2.837 10.143 4.83 14.676 1.457.154-.154.154-.767.077-.767zM131.934 139.594c10.143 5.52 22.899-4.446 30.198-3.22 6.378.997 12.833-.766 19.21-1.763.308-.076.692-.076.846-.306.153-.23.153-.614.153-.92 0-2.377.23-2.377.23-4.753l-.306.077c-10.835-.537-14.984.766-25.742.23-.845 0-1.69-.077-2.536.23-.614.23-1.075.766-1.613 1.15-3.92 3.526-11.526 8.202-14.523 9.658-1.767.997-5.917-.383-5.917-.383z"/>
        <path fill="#505D5B" d="M116.413 163.358c-4.764-2.453-2.613-7.282-3.381-11.422-.846-4.293-4.534-8.202-8.222-10.502-4.534-2.683-13.908.537-12.295 6.823.154.613.23-.69.23-.844-.306-2.99 6.302-5.596 8.607-5.442 3.919.306 8.76 4.752 10.45 8.125 2.305 4.523-1.076 11.192 4.841 13.492-.23 0-.154-.23-.23-.23z"/>
        <path fill="#505D5B" d="M101.66 148.716c-7.531 4.677-2.075 20.545 6.3 20.928.845.077.845-1.15 0-1.303-6.992-.46-12.064-14.565-5.686-18.551.692-.46.077-1.533-.615-1.074zM106.577 143.964c-2.382 2.07-3.919 4.83-2.228 7.819 1.767 3.066 4.994 2.836 8.068 2.146.768-.153.615-.92-.154-.766-2.612.613-5.302.69-6.685-1.917-1.46-2.53-.154-4.983 1.844-6.822.615-.537-.384-.844-.845-.46z"/>
        <path fill="#505D5B" d="M93.437 157.915c1.384 1.687 2.306 3.527 2.92 5.673.461 1.38.615 2.836 1.307 4.063 1.152 2.223 3.227 4.293 5.378 5.596.692.46 1.384-.69.692-1.073-2.843-1.61-4.918-4.446-5.686-7.513-.692-2.683-1.614-4.982-3.304-7.282-.615-.69-1.844-.077-1.307.536zM118.41 156.076c1.307-2.837 3.996-3.22 4.303-6.516.308-3.68-.768-7.36-.845-10.962-.077-4.677.538-8.28 2.69-12.419.845-1.533 1.767-2.913 2.228-4.676.307-1.38.307-2.836 0-4.14-.845-3.45-3.688-6.669-5.071-10.042-2.382-5.52-3.458-11.422-3.305-17.478.154-4.83.846-9.735 1.921-14.488.923-4.14 4.918-11.499 9.144-5.75 2.382 3.297 3.689 7.206 5.302 10.886 1.153 2.606 2.92 6.822 5.533 8.202 3.15 1.763 4.61-1.686 5.61-4.063 2.15-4.906 4.149-8.739 9.604-10.348 8.299-2.53 18.519 1.84 25.127 6.822 3.534 2.606 6.07 5.826 8.683 9.43 2.228 2.989 5.455 6.438 9.605 5.518 3.304-.766 4.994-4.216 6.224-7.052 1.767-3.986 3.996-7.666 6.224-11.345 1.46-2.454 4.226-5.06 6.992-6.056 3.996-1.38 4.534 3.066 4.61 6.285 0 1.534.615 1.534.615 0-.076-2.99.077-9.888-4.533-9.275-5.84.843-8.683 8.049-11.526 12.265-2.382 3.373-2.69 7.973-5.686 10.962-4.995 4.906-10.297-.536-13.294-4.753-5.609-7.895-14.292-13.491-23.897-15.331-4.226-.843-8.836-.537-12.678 1.763-3.381 2.07-4.765 5.06-6.225 8.586-.768 1.763-1.844 5.442-4.61 4.83-2.151-.537-3.765-3.757-4.764-5.52-2.382-4.063-3.688-8.663-6.147-12.725-1.46-2.454-2.92-4.6-5.917-2.99-3.842 1.916-4.457 7.282-5.071 10.962-1.383 7.36-2.152 15.025-.922 22.46.691 4.217 2.074 8.28 3.918 12.113 1.076 2.146 3.15 4.446 3.842 6.592.923 3.297-1.767 5.826-3.073 8.663-1.614 3.45-1.921 7.282-1.767 11.038.153 2.913.998 6.056.845 8.893-.077 2.146-.769 4.446-1.921 5.902-.845.997-1.46 1.38-1.921 2.53-.077.46.077 1.457.153 1.227zM157.445 181.833c4.534 2.146 8.837 1.073 13.6 1.15 4.227.076 7.224 3.756 11.68 3.296 8.53-.69 14.37 6.21 22.976 5.443.23 0 .153-1.304 0-1.15-8.606.766-14.446-6.21-22.975-5.443-4.303.46-7.147-2.99-11.142-3.22-4.918-.306-9.144.69-14.062-.613-.077.153-.154.537-.077.537zM118.871 228.134c-1.69 1.073-2.535 2.683-3.38 4.523-1.076 2.453-1.614 7.436-3.689 9.352-.922.843-3.15.997-4.457 1.457a19.906 19.906 0 0 0-4.533 2.453c-2.997 2.223-4.687 6.592-8.222 7.436-7.838 1.916-15.752 2.606-23.436 5.059-7.992 2.53-45.72 16.635-51.944 22.154-.461.307-.538 1.917-.307 2.377 6.915 12.418 20.44 31.43 34.808 43.465 8.299 6.439 27.74 20.467 43.492 26.063 28.046 10.732 55.401 15.025 79.99 11.346 42.954-6.593 87.751-31.89 112.955-74.052 2.151-3.526 4.687-6.286 1.306-9.812-1.92-2.147-5.071-2.53-7.76-3.22-4.457-1.073-24.359-23.687-29.277-26.217-15.29-7.742-33.118-10.042-53.865-9.659-.614.077-.768.767-.768 1.304 0 .92.077 1.916.077 2.913.46-.307.768-.767 1.152-1.074-.922-.69-1.92-1.303-3.227-1.303-2.382-.077-3.765 1.917-6.3 1.073-2.383-.843-3.382-3.45-6.302-2.53-.46.154-.537.767-.537 1.15l-.231 9.736c0 1.457 1.537 1.457 1.537 0 .077-2.223-.23-4.753.154-6.9.46-1.916.614-1.916 2.458-.842.692.306 1.153.92 1.768 1.38 3.534 2.223 6.3-2.147 9.682.46.768.613 1.152-.537 1.152-1.074 0-.92-.077-1.916-.077-2.913-.23.46-.538.843-.768 1.303 15.137-2.606 30.044 1.15 44.644 4.83 15.291 2.76 32.12 29.513 38.881 31.2 2.459.613 5.84 1.303 6.531 4.14.461 1.839-1.46 3.985-2.382 5.672-10.527 17.401-21.207 30.586-50.022 50.364-13.755 9.429-41.34 18.475-57.784 21.388-11.45 2.07-29.43 2.453-41.033.996-11.372-1.533-23.897-5.366-34.885-8.969-11.219-3.756-33.426-14.411-47.871-27.213-10.912-7.743-29.738-33.423-36.96-44.922 0 .537-.308 1.84-.308 2.376 12.986-11.498 60.012-24.837 76.38-28.286 3.073-.69 3.303-3.757 5.532-5.903a16.095 16.095 0 0 1 5.532-3.756c1.306-.537 3.919-.613 4.764-1.38 1.306-.997 1.844-3.833 2.305-5.136 1.076-3.143 1.845-7.436 4.841-9.352 1.076-.614.922-1.687.384-1.457z"/>
        <path fill="#505D5B" d="M205.7 190.955c-10.296.537-20.823.307-31.043-1.38-3.304-.613-6.608-1.38-9.835-2.376-1.383-.46-2.69-.843-3.996-1.533-2.151-1.074-2.151-2.99-3.304-4.753 0 0-.154.843 0 1.15.999 1.686.692 3.143 2.228 4.446 1 .843 2.536 1.303 3.766 1.686 3.304 1.15 6.838 2.07 10.296 2.607 10.604 1.84 21.362 1.61 31.966.46.076 0 .076-.307-.077-.307zM184.493 196.474c-6.378 0-12.832-.536-18.442-3.91-.077 0-.153.614 0 .69 4.687 3.374 12.91 4.754 18.442 3.45.077.077.077-.23 0-.23zM160.519 136.604c-3.15-2.453-10.604.92-13.831 2.07-4.841 1.533-9.836 2.53-14.677.307 0 0-.23.996 0 1.15 4.534 2.223 9.759 1.073 14.292-.46 4.841-1.61 9.144-2.607 14.293-2.683 0 0 0-.384-.077-.384z"/>
        <path fill="#505D5B" d="M170.892 140.054c-2.612.767-4.918 2.913-7.453 3.986-2.536 1.074-5.38 1.687-8.145 1.917-2.613.153-5.61.23-7.761-1.533-1.69-1.457-2.69-3.373-4.995-4.14-.077 0-.23 1.073 0 1.15 2.536.92 3.535 3.373 5.686 4.676 2.075 1.303 5.149.997 7.53.767 4.842-.614 11.988-2.53 15.138-6.44.077 0 .077-.383 0-.383zM199.938 179.916c0-.843 0-1.686.153-2.453.077-.536.461-1.15.23-1.686-.153-.46-.537-.69-.844-.92-.692-.537-1.153-.92-1.46-1.763-.077-.23-.308-.154-.461.076-.23 1.533.922 1.84 1.844 2.683.538.537.077.92 0 1.61a13.91 13.91 0 0 0 0 2.53c.154.383.538.307.538-.077zM210.542 132.618c-.461 1.457-.538 3.297 1.383 4.83.153.153.46.23.691.306 1.153.537 2.536-.076 3.228-1.38 1.075-1.916 2.382-4.676 1.92-5.289-.537-.613-2.92-.69-4.61-.69a3.474 3.474 0 0 0-2.612 2.223zM189.18 137.754c0-3.91 7.838-7.972 11.987-10.118 4.226-2.147 6.608-2.684 11.065-4.6l4.764-2.376c2.152-.46 7.838-1.074 9.913-1.534.537-.076.998-.153 1.46.077.46.23 1.152 1.533 1.383 2.07.46 1.38.23 2.223-.615 3.296-.692.92-5.686 1.457-6.839 1.533-8.76.844-9.912-.996-18.365 1.61-12.063 3.603-14.753 10.042-14.753 10.042z"/>
        <path fill="#505D5B" d="M168.894 136.221c-.077 1.073-.23 2.223-.614 3.22-.308.92-.769 1.763-1.076 2.606-.077.154 0 .997.077.92.768-.766 1.152-2.223 1.46-3.143.23-1.073.46-2.3.46-3.373-.076-.23-.23-.766-.307-.23zM190.102 138.52c.538-4.599 7.454-7.512 11.065-9.428 3.458-1.84 6.993-3.833 10.68-5.29 2.383-.92 4.842-1.916 7.378-2.376 2.228-.46 4.303-.613 6.53-.996.693-.077 1.922-.614 2.614-.46 1.613.46 2.612 2.146 1.075 3.756-1.844 1.916-9.682 1.533-11.987 1.456-4.533-.076-8.452 0-12.832 1.38-5.302 1.61-12.294 4.753-14.83 10.196-.23.536.154 1.763.077 2.07 3.38-7.436 15.214-11.346 22.59-11.5 4.842-.152 19.134 2.454 18.289-5.518-.615-5.137-4.841-3.297-8.607-2.837-3.688.537-6.685 1.457-10.22 2.837-4.456 1.686-8.682 4.062-12.755 6.285-3.534 1.917-8.836 4.6-9.451 9.046.23.077.307 2.147.384 1.38z"/>
        <path fill="#505D5B" d="M131.934 139.747c9.452 5.52 18.288-1.916 27.816-2.836 2.69-.23 5.38.46 8.069.23 3.457-.153 6.992-.843 10.373-1.456 2.382-.46 3.688 0 4.457-2.07.538-1.303.23-3.526.23-5.06 0 0 0-.92-.153-.92-1.845.614-4.765-.076-6.686 0-2.382 0-4.687.154-7.069.23-2.612.077-5.302.23-7.838.23-2.535 0-5.532-.766-7.837.69-6.532 3.987-12.756 12.112-21.285 10.503-.154.153-.154.383-.077.46 3.92 1.686 5.917 1.38 9.452-.767 3.995-2.377 7.453-5.06 11.141-7.896 2.613-2.07 5.456-1.38 8.606-1.303 2.46 0 4.841-.077 7.3-.153 2.305-.077 4.61-.23 6.993-.307 2.074 0 5.455.69 7.376 0-.076-.307-.076-.613-.153-.92 0 .69 0 2.53-.154 3.373-.538 1.916-.845 1.687-2.536 2.376-2.535.997-6.07 1.074-8.836 1.457-4.688.613-9.452-.613-14.062.537-8.299 2.07-16.29 6.669-24.973 3.296-.154-.077-.23.23-.154.306zM131.78 154.39c6.455 2.222 11.757 7.512 16.982 11.651 1.69 1.38 3.765 3.066 6.07 3.066 2.306-.076 3.996-1.84 5.456-3.372.154-.154 0-1.38-.077-1.15-2.382 1.686-4.149 3.756-7.3 2.836-2.842-.92-5.609-3.833-7.914-5.52-3.996-3.066-7.991-7.205-13.293-7.512 0-.306 0 0 .077 0zM150.453 125.796c.691-4.6-1.768-7.82.845-12.649 2.228-3.986 4.764-7.742 6.685-11.882.154-.306.154-1.38-.077-1.61-2.305-2.223-1.152-8.125-1.152-11.038v-9.813c0-1.073-.461-1.073-.461 0V95.21c0 2.223-.23 4.523 1.536 6.133 0-.537-.076-.997-.076-1.61a105.17 105.17 0 0 1-4.688 8.739c-1.306 2.07-2.996 3.91-3.688 6.286-.922 3.526.692 7.36.845 10.885.154.154.154.384.23.154zM185.569 225.528c0-9.506 8.836-14.259 16.29-17.862.768-.306.077-1.456-.692-1.073-7.914 3.833-16.982 8.97-16.982 19.011.154.767 1.384.767 1.384-.076zM66.928 112.457c2.459-10.119-.077-22.614 8.452-30.356.615-.614-.23-1.457-.922-.92-8.76 7.896-6.224 20.62-8.76 30.97-.153.766 1 1.073 1.23.306zM131.243 68.456c-1.076-4.907-4.688-8.816-9.528-10.35-.769-.23-1.076.997-.308 1.15 4.457 1.457 7.53 4.983 8.606 9.506.23.767 1.383.46 1.23-.306zM219.84 101.495c-.77 5.903 1.536 10.886 6.146 14.565.308.23.769-.153.462-.46-4.534-3.526-6.609-8.432-5.917-14.182 0-.306-.692-.306-.692.077zM177.424 227.827c-.461 2.3-.846 4.677-1.307 6.976-.538 2.913-2.074 3.757-4.226 5.52-2.536 2.146-4.15 5.06-4.918 8.279-.077.46.538.613.615.153.692-2.683 1.844-5.136 3.919-7.13 1.306-1.302 3.458-1.916 4.533-3.449 1.614-2.376 1.614-7.282 2.075-10.119 0-.383-.691-.613-.691-.23z"/>
    </g>
</svg>
